<?xml version="1.0" standalone="no"?><!DOCTYPE svg PUBLIC "-//W3C//DTD SVG 1.1//EN" "http://www.w3.org/Graphics/SVG/1.1/DTD/svg11.dtd" ><svg xmlns="http://www.w3.org/2000/svg"><metadata></metadata><defs><font id="1.015;TPLD;TpldKhangXiDictTrial" horiz-adv-x="263"><font-face font-family="TypeLand KhangXi Dict Trial" font-weight="400" font-stretch="normal" units-per-em="256" panose-1="2 11 5 2 0 0 0 0 0 1" ascent="267" descent="-68" x-height="1" bbox="-14 -57 278 231" underline-thickness="13" underline-position="-20" unicode-range="U+0021-fffd" /><missing-glyph horiz-adv-x="256" d="M75 183 l106 0 l0 -183 l-106 0 l0 183 ZM88 13 l79 0 l0 157 l-79 0 l0 -157 Z" /><glyph glyph-name="exclam" unicode="!" d="M43 57 q-6 0 -6.5 15.5 q-0.5 15.5 -2 26.5 q-1.5 11 -2.5 22 q-1 11 -5 29.5 q-4 18.5 -5 23 q-1 4.5 -1 6.5 l0 9 q0 7 11 7 l22 0 q10 0 10 -7 l0 -10 q0 -2 -0.5 -4 q-0.5 -2 -1 -3.5 q-0.5 -1.5 -2.5 -11.5 q-2 -10 -6.5 -32 q-4.5 -22 -5 -46.5 q-0.5 -24.5 -5.5 -24.5 ZM53 39 q10 0 10 -10 l0 -21 q0 -11 -10 -11 l-21 0 q-11 0 -11 11 l0 21 q0 10 11 10 l21 0 Z" /><glyph glyph-name="quotedbl" unicode="&quot;" d="M27 192 q12 0 12 -20 q0 -6 -1 -12 q-4 -33 -11 -33 q-8 0 -12 33 q-1 6 -1 12 q0 20 13 20 ZM71 192 q12 0 12 -20 q0 -6 -1 -12 q-4 -33 -11 -33 q-8 0 -12 33 q-1 6 -1 12 q0 20 13 20 Z" /><glyph glyph-name="numbersign" unicode="#" d="M34 65 q-15 0 -15 6 q0 6 16 6 q15 0 19 24 q1 4 1 8 q0 15 -13 15 q-17 0 -17 7 q0 6 18 6 q17 0 21.5 27.5 q4.5 27.5 12.5 27.5 q4 0 4 -11 q0 -6 -1 -16 q-1 -6 -1 -11 q0 -17 13 -17 q17 0 21.5 27.5 q4.5 27.5 12.5 27.5 q4 0 4 -11 q0 -6 -1 -16 q-1 -7 -1 -11 q0 -17 12 -17 q16 0 16 -6 q0 -7 -17 -7 q-17 0 -20 -23 q-1 -4 -1 -8 q0 -16 15 -16 q17 0 17 -6 q0 -6 -18 -6 q-19 0 -24 -32.5 q-5 -32.5 -13 -32.5 q-5 0 -5 11 q0 8 3 22 q1 7 1 14 q0 18 -13 18 q-17 0 -22 -32.5 q-5 -32.5 -13 -32.5 q-5 0 -5 11 q0 8 3 22 q1 8 1 15 q0 17 -11 17 ZM83 77 q17 0 21 24 l0 7 q0 16 -14 16 q-17 0 -20 -23 q-1 -5 -1 -8 q0 -16 14 -16 Z" /><glyph glyph-name="dollar" unicode="$" d="M76 -12 q0 10 -12.5 10.5 q-12.5 0.5 -19.5 5 q-7 4.5 -17 10.5 q-10 6 -10 16 l0 16 q0 7 10 7 l15 0 q4 0 5.5 -2 q1.5 -2 2 -3 q0.5 -1 1.5 -2 l0 -6 q0 -4 1 -17.5 q1 -13.5 13 -15.5 l1 0 q10 0 10 38 q0 40 -15.5 46.5 q-15.5 6.5 -21.5 13 q-6 6.5 -12 12.5 q-6 6 -6 15 l0 25 q0 15 12.5 21.5 q12.5 6.5 18 9.5 q5.5 3 15 4 q9.5 1 9.5 8 q0 7 6 7 q5 0 5 -7 q0 -7 12 -7.5 q12 -0.5 19 -4.5 q7 -4 16.5 -9.5 q9.5 -5.5 9.5 -13.5 l0 -15 q0 -8 -9 -8 l-14 0 q-5 0 -6.5 2.5 q-1.5 2.5 -2.5 3.5 q-1 1 -1 2 l0 17 q0 7 -4 10.5 q-4 3.5 -6.5 6 q-2.5 2.5 -7.5 3.5 l-1 0 q-5 0 -5 -36 q0 -37 14.5 -43.5 q14.5 -6.5 18 -9 q3.5 -2.5 15 -10 q11.5 -7.5 11.5 -21.5 l0 -30 q0 -16 -13 -23 q-13 -7 -19.5 -11 q-6.5 -4 -16.5 -4.5 q-10 -0.5 -10 -10.5 q0 -11 -5 -11 q-6 0 -6 11 ZM76 153 q0 33 -6 33 q-6 -1 -9.5 -4.5 q-3.5 -3.5 -8 -8 q-4.5 -4.5 -4.5 -12.5 l0 -18 q0 -11 14 -18 q2 -1 4 -1 q10 0 10 29 ZM87 43 q0 -38 8 -38 l1 1 q8 0 12 6.5 q4 6.5 6.5 11.5 q2.5 5 2.5 12 l0 18 q0 12 -15 20 q-2 1 -5 1 q-10 0 -10 -32 Z" /><glyph glyph-name="quotesingle" unicode="&#39;" d="M27 192 q12 0 12 -20 q0 -6 -1 -12 q-4 -33 -11 -33 q-8 0 -12 33 q-1 6 -1 12 q0 20 13 20 Z" /><glyph glyph-name="parenleft" unicode="(" d="M74 195 l0 -2 q0 -4 -4 -10 q-7 -9 -10.5 -19.5 q-3.5 -10.5 -9 -27.5 q-5.5 -17 -5.5 -40 l0 -48 q0 -25 6.5 -42.5 q6.5 -17.5 9.5 -26 q3 -8.5 9 -16.5 q4 -6 4 -9 l0 -2 l-2 0 q-3 0 -11 7 q-11 9 -17 20 q-6 11 -17 30.5 q-11 19.5 -11 41.5 l0 47 q0 24 12.5 44 q12.5 20 18.5 29 q6 9 15 18 q7 6 10 6 l2 0 Z" /><glyph glyph-name="parenright" unicode=")" d="M9 -48 q-1 0 -1 1 q0 4 13 22 q15 21 15 60 l0 77 q0 38 -15 59 q-13 18 -13 22 q0 1 1 2 l1 0 q3 0 12 -7 q10 -9 16 -20 q6 -11 17 -30.5 q11 -19.5 11 -41.5 l0 -47 q0 -24 -12.5 -44 q-12.5 -20 -18.5 -29.5 q-6 -9.5 -15 -17.5 q-7 -6 -10 -6 l-1 0 Z" /><glyph glyph-name="asterisk" unicode="*" d="M60 161 q3 3 8.5 9 q5.5 6 7.5 8 q2 2 4 2 l5 0 q2 0 4 -4 q2 -4 3.5 -6 q1.5 -2 1.5 -4 l0 -3 q0 -2 -2 -2.5 q-2 -0.5 -3.5 -1.5 q-1.5 -1 -6.5 -2 q-5 -1 -7.5 -2 q-2.5 -1 -8.5 -3 q-4 -1 -4 -2 q0 -1 2 -2 q4 -2 8.5 -3 q4.5 -1 10 -3 q5.5 -2 7 -2.5 q1.5 -0.5 3 -1.5 q1.5 -1 1.5 -2 l0 -4 q0 -3 -2 -5.5 q-2 -2.5 -4 -5.5 q-2 -3 -4 -3 l-3 0 q-2 0 -5 3 q-3 3 -7 7.5 q-4 4.5 -8 8.5 q-3 2 -4 2 l0 -2 q1 -5 3.5 -13 q2.5 -8 3 -9.5 q0.5 -1.5 0.5 -3.5 l0 -5 q0 -3 -6 -3 l-13 0 q-6 0 -6 3 l0 4 l1 3 q0 2 2.5 11 q2.5 9 3.5 13 l0 1 q-2 0 -8 -6 q-9 -9 -11 -11.5 q-2 -2.5 -4 -2.5 l-4 0 q-3 0 -5 4 q-2 4 -3.5 6.5 q-1.5 2.5 -1.5 4.5 l0 3 q0 1 2.5 2 q2.5 1 17.5 6 q10 3 10 6 q0 1 -3 2 q-8 3 -12.5 4 q-4.5 1 -9.5 2.5 q-5 1.5 -5 3.5 l0 5 q0 2 2 5 q2 3 4 5.5 q2 2.5 4 2.5 l3 0 q1 0 2 -0.5 q1 -0.5 2 -1.5 q1 -1 4.5 -4.5 q3.5 -3.5 9.5 -9.5 q5 -4 6 -4 q0 2 -0.5 3.5 q-0.5 1.5 -3 12.5 q-2.5 11 -3 12 q-0.5 1 -0.5 5 q0 3 6 3 l12 0 q6 0 6 -3 q0 -3 -0.5 -6.5 q-0.5 -3.5 -3 -11.5 q-2.5 -8 -2.5 -12 q-1 -1 -1 -2 q0 -1 1 -1 q1 0 3 1 Z" /><glyph glyph-name="plus" unicode="+" d="M95 35 q0 -32 -7 -32 q-8 0 -8 32 q0 32 -31 32 q-31 0 -31 8 q0 7 31 7 q31 0 31 30 q0 30 8 30 q7 0 7 -30 q0 -30 31 -30 q31 0 31 -7 q0 -8 -31 -8 q-31 0 -31 -32 Z" /><glyph glyph-name="comma" unicode="," d="M23 -33 q-1 0 -1 1 q0 3 9 8 q11 5 11 12 l0 9 q0 2 -3.5 2.5 q-3.5 0.5 -11.5 3 q-8 2.5 -8 9.5 l0 18 q0 10 11 10 l22 0 q12 0 12 -13 l0 -31 q0 -18 -19 -25 q-13 -6 -18 -6 q-3 0 -4 2 Z" /><glyph glyph-name="hyphen" unicode="-" d="M13 75 q0 11 30 11 q30 0 30 -11 q0 -11 -30 -11 q-30 0 -30 11 Z" /><glyph glyph-name="period" unicode="." d="M52 39 q10 0 10 -10 l0 -15 q0 -5 -3 -8.5 q-3 -3.5 -6 -6.5 q-3 -3 -7 -3 l-9 0 q-5 0 -8.5 3 q-3.5 3 -6.5 6.5 q-3 3.5 -3 8.5 l0 15 q0 10 11 10 l22 0 Z" /><glyph glyph-name="slash" unicode="/" d="M37 74 q42 118 50 118 q1 0 1 -3 q0 -16 -36 -115 q-43 -119 -50 -119 q-2 0 -2 3 q0 15 37 116 Z" /><glyph glyph-name="zero" unicode="0" d="M10 117 q0 22 9.5 36 q9.5 14 18 26.5 q8.5 12.5 24.5 12.5 l33 0 q16 0 24.5 -12.5 q8.5 -12.5 17.5 -26.5 q9 -14 9 -36 l0 -45 q0 -23 -9 -37 q-9 -14 -17.5 -26.5 q-8.5 -12.5 -24.5 -12.5 l-33 0 q-16 0 -24.5 12.5 q-8.5 12.5 -18 27 q-9.5 14.5 -9.5 36.5 l0 45 ZM44 70 q0 -24 4 -34.5 q4 -10.5 8.5 -22 q4.5 -11.5 13.5 -11.5 l18 0 q10 0 14 13.5 q4 13.5 7.5 23.5 q3.5 10 3.5 33 l0 46 q0 24 -4.5 34.5 q-4.5 10.5 -8.5 21.5 q-4 11 -13 11 l-26 0 q-17 0 -17 -45 l0 -70 Z" /><glyph glyph-name="one" unicode="1" d="M36 4 q0 3 7.5 3.5 q7.5 0.5 9.5 1.5 q2 1 6 3 q4 2 4 14 l0 134 q0 6 -0.5 7 q-0.5 1 -0.5 2 q0 1 -0.5 4.5 q-0.5 3.5 -8.5 3.5 l-11 0 q-4 0 -4 4 q0 3 8.5 3.5 q8.5 0.5 16.5 1.5 q8 1 14.5 2 q6.5 1 13.5 2 l1 0 q5 0 5 -8 l0 -4 q-2 -14 -2 -32 l0 -119 q0 -11 3.5 -13.5 q3.5 -2.5 5.5 -4 q2 -1.5 9.5 -2 q7.5 -0.5 7.5 -3.5 q0 -4 -42 -4 q-43 0 -43 4 Z" /><glyph glyph-name="two" unicode="2" d="M74 0 q-59 0 -59 14 l0 1 q2 14 8.5 24.5 q6.5 10.5 13 20.5 q6.5 10 25.5 25.5 q19 15.5 27 22 q8 6.5 10.5 12 q2.5 5.5 5 11 q2.5 5.5 2.5 11.5 l0 25 q0 18 -15 18 l-24 0 q-9 0 -12 -8.5 q-3 -8.5 -4 -12 q-1 -3.5 -1 -11.5 q0 -8 -0.5 -15 q-0.5 -7 -8.5 -7 l-17 0 q-9 0 -9 7 l0 17 q0 11 10.5 18 q10.5 7 19.5 13 q9 6 22 6 l43 0 q31 0 31 -23 l0 -33 q0 -10 -6 -17 q-6 -7 -10 -11.5 q-4 -4.5 -14 -10.5 q-10 -6 -22.5 -13 q-12.5 -7 -17.5 -10 q-5 -3 -10 -6 q-5 -3 -9 -7.5 q-4 -4.5 -11 -10 q-7 -5.5 -10 -13.5 q-1 -1 -1 -2 q0 -7 35 -7 l45 0 q7 0 10.5 3 q3.5 3 7 6 q3.5 3 5.5 12 q2 7 5 7 l1 0 q2 0 2 -7 q0 -7 -2 -21 q-5 -28 -66 -28 Z" /><glyph glyph-name="three" unicode="3" d="M83 99 q0 -1 29.5 -3 q29.5 -2 29.5 -24 l0 -35 q0 -13 -9 -20 q-9 -7 -18 -14 q-9 -7 -24 -7 l-30 0 q-14 0 -22.5 5.5 q-8.5 5.5 -17.5 11 q-9 5.5 -9 14.5 l0 17 q0 7 10 7 l14 0 q5 0 6.5 -2.5 q1.5 -2.5 2 -3 q0.5 -0.5 1 -1.5 q0.5 -1 0.5 -6 q0 -6 0.5 -12 q0.5 -6 3.5 -10.5 q3 -4.5 6.5 -8.5 q3.5 -4 10.5 -4 l24 0 q16 0 16 24 l0 37 q0 13 -7 18 q-7 5 -12.5 9 q-5.5 4 -16.5 4 l-15 0 q-4 0 -4 4 q0 4 4 4 l26 0 q22 0 22 22 l0 41 q0 19 -14 19 l-21 0 q-7 0 -10 -5.5 q-3 -5.5 -5.5 -9.5 q-2.5 -4 -2.5 -10 q0 -6 -0.5 -11 q-0.5 -5 -1.5 -6.5 q-1 -1.5 -3 -3.5 q-2 -2 -7 -2 l-14 0 q-9 0 -9 7 l0 15 q0 9 9 15 q9 6 17.5 12 q8.5 6 21.5 6 l27 0 q14 0 22.5 -7 q8.5 -7 15.5 -13 q7 -6 7 -16 l0 -29 q0 -20 -26.5 -23.5 q-26.5 -3.5 -26.5 -4.5 Z" /><glyph glyph-name="four" unicode="4" d="M117 42 l0 -18 q0 -8 2.5 -10 q2.5 -2 4.5 -4 q2 -2 9 -2.5 q7 -0.5 7 -3.5 q0 -4 -38 -4 q-39 0 -39 4 q0 3 7.5 3.5 q7.5 0.5 9 2 q1.5 1.5 4.5 3.5 q3 2 3 11 l0 18 q0 9 -41 9 q-42 0 -42 6 q0 6 45 69.5 q45 63.5 57 63.5 q11 0 11 -64 q0 -64 14 -64 q14 0 14 -5 q0 -6 -14 -6 q-14 0 -14 -9 ZM87 113 q0 25 -9 25 q-9 0 -26 -25 q-18 -26 -18 -38 q0 -13 18 -13 q35 0 35 51 Z" /><glyph glyph-name="five" unicode="5" d="M36 127 q-1 -6 -1 -10 q0 -14 4 -14 q2 0 5 3 q11 10 25 10 l27 0 q14 0 22.5 -7.5 q8.5 -7.5 16.5 -15.5 q8 -8 8 -21 l0 -27 q0 -15 -9.5 -23.5 q-9.5 -8.5 -19 -17 q-9.5 -8.5 -24.5 -8.5 l-29 0 q-13 0 -21.5 5.5 q-8.5 5.5 -17 10.5 q-8.5 5 -8.5 13 l0 16 q0 7 9 7 l14 0 q4 0 6 -2 q2 -2 3 -3.5 q1 -1.5 1.5 -6 q0.5 -4.5 0.5 -11.5 q0 -7 3.5 -10.5 q3.5 -3.5 7 -7.5 q3.5 -4 10.5 -4 l14 0 q8 0 12.5 6.5 q4.5 6.5 9 14 q4.5 7.5 4.5 19.5 l0 38 q0 25 -18 25 l-31 0 q-13 0 -21 -14 q-8 -13 -12 -13 l-1 0 q-2 1 -2 14 q0 14 2 41 q4 54 57 54 q50 0 50 -13 l0 -1 q-3 -15 -49 -15 q-46 0 -48 -32 Z" /><glyph glyph-name="six" unicode="6" d="M57 112 q9 8 21 8 l24 0 q12 0 20 -8 q8 -8 16 -16 q8 -8 8 -21 l0 -28 q0 -15 -9 -24 q-9 -9 -18 -18 q-9 -9 -24 -9 l-48 0 q-34 0 -34 46 l0 72 q0 27 10 40.5 q10 13.5 19 25.5 q9 12 26 12 l29 0 q11 0 19 -4.5 q8 -4.5 15.5 -9.5 q7.5 -5 7.5 -11 l0 -14 q0 -8 -9 -8 l-14 0 q-5 0 -7 2.5 q-2 2.5 -2.5 3 q-0.5 0.5 -0.5 1.5 q0 1 -0.5 6 q-0.5 5 -1.5 16 q-1 11 -10 11 l-21 0 q-12 0 -16.5 -16.5 q-4.5 -16.5 -7 -28 q-2.5 -11.5 -2.5 -24.5 q0 -8 4 -8 q2 0 6 4 ZM71 112 q-9 0 -14 -9 q-5 -9 -7.5 -13.5 q-2.5 -4.5 -2.5 -12.5 l0 -22 q0 -14 4 -23.5 q4 -9.5 8 -19.5 q4 -10 13 -10 l25 0 q15 0 15 30 l0 55 q0 25 -16 25 l-25 0 Z" /><glyph glyph-name="seven" unicode="7" d="M88 160 l-46 0 q-7 0 -10 -5 q-3 -5 -5 -8 q-2 -3 -4 -11 q-2 -9 -6 -9 l0 1 q-2 0 -2 7 q0 8 2 23 q4 30 65 30 q61 0 61 -9 q0 -9 -13.5 -29.5 q-13.5 -20.5 -20 -38.5 q-6.5 -18 -10.5 -28.5 q-4 -10.5 -6.5 -23 q-2.5 -12.5 -3.5 -18.5 q-1 -6 -1.5 -17 q-0.5 -11 -0.5 -16 q0 -5 -2.5 -7 q-2.5 -2 -5 -4 q-2.5 -2 -7.5 -2 l-14 0 q-9 0 -9 6 l0 20 q0 14 17.5 44.5 q17.5 30.5 24.5 43 q7 12.5 21 32.5 q4 5 4 8 q0 11 -28 11 Z" /><glyph glyph-name="eight" unicode="8" d="M122 95 q22 -10 22 -27 l0 -30 q0 -13 -9 -20 q-9 -7 -18.5 -14.5 q-9.5 -7.5 -24.5 -7.5 l-31 0 q-15 0 -23.5 6.5 q-8.5 6.5 -17 12.5 q-8.5 6 -8.5 17 l0 23 q0 11 9.5 18.5 q9.5 7.5 13 10.5 q3.5 3 11.5 6 q2 1 2 2 q0 4 -12 11 q-19 9 -19 23 l0 26 q0 12 8.5 19 q8.5 7 17 14 q8.5 7 22.5 7 l27 0 q13 0 21 -6.5 q8 -6.5 16 -12.5 q8 -6 8 -16 l0 -25 q0 -16 -19 -21 q-9 -3 -9 -6 q0 -5 13 -10 ZM86 111 q3 -2 6 -2 q2 0 5 2 q4 2 6 5 q2 3 6 8.5 q4 5.5 4 14.5 l0 15 q0 6 -3 11 q-3 5 -7.5 12.5 q-4.5 7.5 -14.5 7.5 l-26 0 q-17 0 -17 -16 l0 -25 q0 -10 9.5 -16 q9.5 -6 11 -7 q1.5 -1 3 -2 q1.5 -1 4 -2 q2.5 -1 5 -2.5 q2.5 -1.5 8.5 -3.5 ZM57 87 q-5 -3 -7.5 -6.5 q-2.5 -3.5 -7.5 -9 q-5 -5.5 -5 -15.5 l0 -19 q0 -10 5.5 -16 q5.5 -6 11.5 -12 q6 -6 15 -6 l17 0 q8 0 13.5 5 q5.5 5 10.5 10 q5 5 5 14 l0 17 q0 9 -9 15.5 q-9 6.5 -12.5 9 q-3.5 2.5 -11.5 6.5 q-8 4 -9.5 4.5 q-1.5 0.5 -3.5 1.5 q-2 1 -4 2 l-3 1 l-5 -2 Z" /><glyph glyph-name="nine" unicode="9" d="M101 76 q-10 -9 -21 -9 l-24 0 q-13 0 -21 8.5 q-8 8.5 -16 16.5 q-8 8 -8 22 l0 28 q0 14 9 23 q9 9 18 18 q9 9 24 9 l33 0 q17 0 25 -12.5 q8 -12.5 16 -24.5 q8 -12 8 -33 l0 -73 q0 -53 -36 -53 l-48 0 q-12 0 -19.5 4.5 q-7.5 4.5 -15.5 9.5 q-8 5 -8 12 l0 15 q0 7 10 7 l14 0 q5 0 7 -2 q2 -2 2.5 -3 q0.5 -1 0.5 -2 q0 -1 1 -3 l0 -6 q0 -2 1 -14 q1 -12 11 -12 l21 0 q11 0 15 17 q4 17 7 28 q3 11 3 25 q0 8 -3 8 q-3 0 -6 -4 ZM86 76 q9 0 14 9 q5 9 7.5 13.5 q2.5 4.5 2.5 12.5 l0 22 q0 13 -4 23 q-4 10 -8 19.5 q-4 9.5 -13 9.5 l-24 0 q-16 0 -16 -29 l0 -42 q0 -13 5 -20 q5 -7 9.5 -12.5 q4.5 -5.5 11.5 -5.5 l15 0 Z" /><glyph glyph-name="colon" unicode=":" d="M52 39 q10 0 10 -10 l0 -15 q0 -5 -3 -8.5 q-3 -3.5 -6 -6.5 q-3 -3 -7 -3 l-9 0 q-5 0 -8.5 3 q-3.5 3 -6.5 6.5 q-3 3.5 -3 8.5 l0 15 q0 10 11 10 l22 0 ZM52 137 q10 0 10 -10 l0 -22 q0 -11 -10 -11 l-22 0 q-11 0 -11 11 l0 22 q0 10 11 10 l22 0 Z" /><glyph glyph-name="semicolon" unicode=";" d="M52 137 q10 0 10 -10 l0 -22 q0 -11 -10 -11 l-22 0 q-11 0 -11 11 l0 22 q0 10 11 10 l22 0 ZM22 -33 q-1 0 -1 1 q0 3 9 8 q11 5 11 12 l0 9 q0 2 -3.5 2.5 q-3.5 0.5 -11.5 3 q-8 2.5 -8 9.5 l0 18 q0 10 11 10 l22 0 q12 0 12 -13 l0 -31 q0 -18 -19 -25 q-13 -6 -18 -6 q-3 0 -4 2 Z" /><glyph glyph-name="less" unicode="&lt;" d="M75 49 q48 -27 48 -36 q0 -2 -3 -2 q-9 0 -55 27 q-59 34 -59 37 q0 3 59 37 q46 27 55 27 q3 0 3 -2 q0 -9 -48 -35 q-25 -14 -25 -27 q0 -13 25 -26 Z" /><glyph glyph-name="equal" unicode="=" d="M88 106 q69 0 69 -7 q0 -7 -69 -7 q-70 0 -70 7 q0 7 70 7 ZM88 58 q69 0 69 -7 q0 -8 -69 -8 q-70 0 -70 8 q0 7 70 7 Z" /><glyph glyph-name="greater" unicode="&gt;" d="M54 102 q-49 26 -49 35 q0 2 3 2 q9 0 56 -27 q58 -34 58 -37 q0 -3 -58 -37 q-47 -27 -56 -27 q-3 0 -3 2 q0 9 49 36 q24 13 24 26 q0 13 -24 27 Z" /><glyph glyph-name="A" unicode="a" d="M53 55 q-4 -10 -6.5 -17 q-2.5 -7 -2.5 -11 l0 -12 q0 -7 12 -7.5 q12 -0.5 12 -3.5 q0 -4 -33 -4 q-33 0 -33 4 q0 3 6 3 q6 0 10.5 4.5 q4.5 4.5 8.5 9 q4 4.5 8 15.5 q4 11 31.5 83.5 q27.5 72.5 37.5 73.5 q9 0 37 -77 q28 -79 32 -90.5 q4 -11.5 8 -13.5 q4 -2 6 -3 q2 -1 7 -1.5 q5 -0.5 5 -3.5 q0 -4 -42 -4 q-42 0 -42 4 q0 3 11 3.5 q11 0.5 11 6.5 l0 10 q0 3 -1.5 8 q-1.5 5 -6.5 19 q-5 14 -38 14 q-34 0 -38 -10 ZM106 117 q-7 20 -15 20 q-8 0 -15 -20 q-6 -14 -6 -24 q0 -18 21 -18 q20 0 20 19 q0 9 -5 23 Z" /><glyph glyph-name="B" unicode="b" d="M8 4 q0 3 8 3 q8 0 9.5 2 q1.5 2 3.5 4.5 q2 2.5 2 11.5 l0 142 q0 9 -2 11 q-2 2 -4 4.5 q-2 2.5 -9 2.5 q-8 0 -8 4 q0 3 40 3 l77 0 q37 0 37 -22 l0 -41 q0 -19 -27.5 -22 q-27.5 -3 -27.5 -4 q0 -1 30.5 -2.5 q30.5 -1.5 30.5 -24.5 l0 -38 q0 -14 -9.5 -20 q-9.5 -6 -19.5 -12 q-10 -6 -32 -6 l-61 0 q-38 0 -38 4 ZM75 106 l31 0 q20 0 20 21 l0 39 q0 18 -21 18 l-31 0 q-10 0 -10 -39 q0 -39 11 -39 ZM74 8 l34 0 q24 0 24 23 l0 36 q0 13 -8.5 18.5 q-8.5 5.5 -14 9 q-5.5 3.5 -14.5 3.5 l-20 0 q-11 0 -11 -45 q0 -45 10 -45 Z" /><glyph glyph-name="C" unicode="c" d="M167 127 q-5 0 -7 11.5 q-2 11.5 -7 18.5 q-5 7 -13 19 q-8 12 -21 12 l-27 0 q-13 0 -19.5 -11 q-6.5 -11 -14 -23.5 q-7.5 -12.5 -7.5 -33.5 l0 -42 q0 -22 8 -34.5 q8 -12.5 16 -24.5 q8 -12 23 -12 l29 0 q15 0 24.5 13 q9.5 13 13 17 q3.5 4 6.5 11 q1 4 4 4 l2 0 l0 -3 q0 -6 -7 -26 q-10 -27 -38 -27 l-48 0 q-19 0 -31.5 12 q-12.5 12 -25.5 25 q-13 13 -13 37 l0 47 q0 23 12.5 37 q12.5 14 24.5 27.5 q12 13.5 33 13.5 l28 0 q7 0 21 -3.5 q14 -3.5 16.5 -4 q2.5 -0.5 5.5 -0.5 l5 0 q2 0 7 2 q4 0 4 -30 q0 -32 -4 -32 Z" /><glyph glyph-name="D" unicode="d" d="M8 4 q0 3 8 3 q8 0 9.5 2 q1.5 2 3.5 4.5 q2 2.5 2 11.5 l0 142 q0 9 -2 11 q-2 2 -4 4.5 q-2 2.5 -9 2.5 q-8 0 -8 4 q0 3 39 3 l61 0 q22 0 33 -7 q11 -7 30 -18.5 q19 -11.5 19 -39.5 l0 -59 q0 -32 -20 -43 q-20 -11 -31.5 -18 q-11.5 -7 -33.5 -7 l-60 0 q-37 0 -37 4 ZM73 8 l27 0 q17 0 25 8.5 q8 8.5 18.5 19 q10.5 10.5 10.5 35.5 l0 45 q0 21 -8.5 32.5 q-8.5 11.5 -16.5 23.5 q-8 12 -28 12 l-29 0 q-8 0 -8 -88 q0 -88 9 -88 Z" /><glyph glyph-name="E" unicode="e" d="M8 4 q0 3 8 3 q8 0 9.5 2 q1.5 2 3.5 4.5 q2 2.5 2 11.5 l0 142 q0 9 -2 11 q-2 2 -4 4.5 q-2 2.5 -9 2.5 q-8 0 -8 4 q0 3 71 3 q70 0 72 -27 q1 -9 1 -15 q0 -13 -3 -13 q-5 0 -7 13.5 q-2 13.5 -8 18.5 q-6 5 -12 10 q-6 5 -19 5 l-26 0 q-13 0 -13 -40 q0 -40 9 -40 l20 0 q10 0 13.5 3 q3.5 3 7.5 5.5 q4 2.5 5 11.5 q1 9 5 9 q4 0 4 -33 q0 -34 -4 -34 q-4 0 -5.5 9.5 q-1.5 9.5 -5 12.5 q-3.5 3 -7 5.5 q-3.5 2.5 -13.5 2.5 l-20 0 q-9 0 -9 -44 q0 -44 14 -44 l27 0 q13 0 19.5 5.5 q6.5 5.5 12.5 11.5 q6 6 9 21 q3 15 7 15 q2 -1 2 -12 l0 -19 q-3 -30 -75 -30 q-72 0 -72 4 Z" /><glyph glyph-name="F" unicode="f" d="M64 65 l0 -40 q0 -9 2 -11 q2 -2 4 -4.5 q2 -2.5 10 -2.5 q8 0 8 -3 q0 -4 -40 -4 q-40 0 -40 4 q0 3 8 3 q8 0 9.5 2.5 q1.5 2.5 3.5 4.5 q2 2 2 11 l0 142 q0 9 -2 11 q-2 2 -4 4.5 q-2 2.5 -9 2.5 q-8 0 -8 4 q0 3 71 3 q70 0 72 -26 l0 -12 q0 -15 -3 -15 l-1 -1 q-4 0 -6 13 q-2 13 -8 18 q-6 5 -12.5 10 q-6.5 5 -19.5 5 l-25 0 q-12 0 -12 -40 q0 -41 10 -41 l20 0 q10 0 13.5 3 q3.5 3 7.5 6 q4 3 5 12 q1 9 5 9 q4 0 4 -33 q0 -34 -4 -34 q-4 0 -5.5 9.5 q-1.5 9.5 -5 12 q-3.5 2.5 -7 5.5 q-3.5 3 -13.5 3 l-20 0 q-10 0 -10 -31 Z" /><glyph glyph-name="G" unicode="g" d="M157 89 q38 0 38 -3 q0 -3 -6.5 -3.5 q-6.5 -0.5 -8 -2 q-1.5 -1.5 -3.5 -3.5 q-2 -2 -2 -11 l0 -48 q0 -2 1 -5 l0 -1 q0 -3 -7 -4 q-8 -1 -16 -3 q-8 -2 -20 -5.5 q-12 -3.5 -21 -3.5 l-30 0 q-21 0 -32.5 13 q-11.5 13 -23.5 25.5 q-12 12.5 -12 35.5 l0 47 q0 23 12.5 37 q12.5 14 25 27.5 q12.5 13.5 33.5 13.5 l28 0 q7 0 19.5 -2.5 q12.5 -2.5 15.5 -3.5 q3 -1 6 -1 l6 0 q3 0 7 2 q4 0 4 -28 q0 -30 -4 -30 q-5 0 -7 11 q-2 11 -6.5 17.5 q-4.5 6.5 -12 17 q-7.5 10.5 -20.5 10.5 l-29 0 q-15 0 -22 -14 q-7 -14 -13 -27 q-6 -13 -6 -31 l0 -47 q0 -28 12 -40.5 q12 -12.5 18 -19 q6 -6.5 16 -6.5 l17 0 q6 0 12 3 q6 3 9 4 q3 1 5.5 3 q2.5 2 2.5 24 l0 30 q0 8 -2 9.5 q-2 1.5 -4 3.5 q-2 2 -10 2.5 q-8 0.5 -8 3.5 q0 3 38 3 Z" /><glyph glyph-name="H" unicode="h" d="M64 66 l0 -41 q0 -9 2 -11 q2 -2 4 -4.5 q2 -2.5 10 -2.5 q8 0 8 -3 q0 -4 -40 -4 q-40 0 -40 4 q0 3 8 3 q8 0 9.5 2.5 q1.5 2.5 3.5 4.5 q2 2 2 11 l0 143 q0 8 -1.5 10 q-1.5 2 -3.5 4 q-2 2 -9.5 2.5 q-7.5 0.5 -7.5 4.5 q0 3 39 3 q39 0 39 -3 q0 -4 -8 -4.5 q-8 -0.5 -9.5 -2.5 q-1.5 -2 -3.5 -4 q-2 -2 -2 -10 l0 -35 q0 -27 43 -27 q42 0 42 27 l0 35 q0 8 -1.5 10 q-1.5 2 -3.5 4 q-2 2 -9.5 2.5 q-7.5 0.5 -7.5 4.5 q0 3 39 3 q39 0 39 -3 q0 -4 -7.5 -4.5 q-7.5 -0.5 -9.5 -2.5 q-2 -2 -3.5 -4 q-1.5 -2 -1.5 -10 l0 -143 q0 -9 1.5 -11 q1.5 -2 3.5 -4.5 q2 -2.5 10 -2.5 q8 0 8 -3 q0 -4 -40 -4 q-40 0 -40 4 q0 3 8 3 q8 0 10 2.5 q2 2.5 3.5 4.5 q1.5 2 1.5 11 l0 41 q0 32 -42 32 q-43 0 -43 -32 Z" /><glyph glyph-name="K" unicode="k" d="M64 55 l0 -30 q0 -9 2 -11 q2 -2 4 -4.5 q2 -2.5 10 -2.5 q7 0 7 -3 q0 -4 -39 -4 q-40 0 -40 4 q0 3 8 3 q8 0 9.5 2.5 q1.5 2.5 3.5 4.5 q2 2 2 11 l0 142 q0 9 -1.5 11 q-1.5 2 -3.5 4 q-2 2 -9.5 2.5 q-7.5 0.5 -7.5 4.5 q0 3 39 3 q38 0 38 -3 q0 -4 -7.5 -4.5 q-7.5 -0.5 -9 -2.5 q-1.5 -2 -3.5 -4 q-2 -2 -2 -11 l0 -43 q0 -19 8 -19 q6 0 19 14 q26 29 34 38 q8 9 8 13 l0 9 q0 5 -9.5 5.5 q-9.5 0.5 -9.5 4.5 q0 3 36 3 q35 0 35 -3 q0 -4 -7 -4.5 q-7 -0.5 -12.5 -4.5 q-5.5 -4 -11.5 -8 q-6 -4 -15 -14 q-9 -10 -21 -24 q-4 -4 -4 -11 q0 -17 19 -47 q28 -44 35.5 -56 q7.5 -12 16 -12.5 q8.5 -0.5 8.5 -3.5 q0 -4 -27 -4 q-27 0 -28.5 3 q-1.5 3 -2 4.5 q-0.5 1.5 -26.5 45.5 q-22 35 -32 35 q-2 0 -4 -2 q-9 -10 -9 -31 Z" /><glyph glyph-name="L" unicode="l" d="M8 4 q0 3 9 3 q8 0 9.5 2.5 q1.5 2.5 3.5 4.5 q2 2 2 11 l0 142 q0 9 -1.5 11 q-1.5 2 -3.5 4 q-2 2 -10 2.5 q-8 0.5 -8 4.5 q0 3 40 3 q40 0 40 -3 q0 -4 -8 -4.5 q-8 -0.5 -10 -2.5 q-2 -2 -3.5 -4 q-1.5 -2 -1.5 -11 l0 -84 q0 -75 12 -75 l27 0 q16 0 22.5 9.5 q6.5 9.5 10.5 15.5 q4 6 6 17 q2 11 6 11 l1 0 q2 -1 2 -12 q0 -7 -1 -19 q-3 -30 -73 -30 q-71 0 -71 4 Z" /><glyph glyph-name="M" unicode="m" d="M41 112 l0 -74 q0 -13 2.5 -17 q2.5 -4 5 -8.5 q2.5 -4.5 11 -5 q8.5 -0.5 8.5 -3.5 q0 -4 -32 -4 q-32 0 -32 4 q0 3 8 3.5 q8 0.5 10.5 5 q2.5 4.5 5.5 8.5 q3 4 3 17 l0 130 q0 9 -3 11 q-3 2 -5 4 q-2 2 -8 2 q-7 0 -7 4 q0 3 31 3 q31 0 59 -72 q14 -37 28 -37 q14 0 28 37 q28 72 58 72 q29 0 29 -3 q0 -4 -7.5 -4.5 q-7.5 -0.5 -9.5 -2.5 q-2 -2 -3.5 -4 q-1.5 -2 -1.5 -11 l0 -142 q0 -9 1.5 -11.5 q1.5 -2.5 3.5 -4.5 q2 -2 10 -2 q8 0 8 -3 q0 -4 -39 -4 q-40 0 -40 4 q0 3 8 3 q7 0 9 2 q2 2 4 4.5 q2 2.5 2 11.5 l0 79 q0 32 -7 32 q-8 0 -26 -46 q-33 -85 -40 -85 q-7 0 -39 84 q-19 48 -27 48 q-6 0 -6 -25 Z" /><glyph glyph-name="N" unicode="n" d="M42 106 l0 -69 q0 -13 2.5 -17 q2.5 -4 5 -8 q2.5 -4 10.5 -4.5 q8 -0.5 8 -3.5 q0 -4 -32 -4 q-32 0 -32 4 q0 3 8 3.5 q8 0.5 11 5 q3 4.5 5.5 8.5 q2.5 4 2.5 17 l0 125 q0 9 -2.5 12 q-2.5 3 -4.5 6 q-2 3 -10 3.5 q-8 0.5 -8 4.5 q0 3 27 3 q27 0 79 -74 q32 -45 44 -45 q8 0 8 19 l0 62 q0 13 -2.5 17 q-2.5 4 -5 8.5 q-2.5 4.5 -11 5 q-8.5 0.5 -8.5 4.5 q0 3 33 3 q32 0 32 -3 q0 -4 -8 -4.5 q-8 -0.5 -11 -5 q-3 -4.5 -5.5 -9 q-2.5 -4.5 -2.5 -16.5 l0 -83 q0 -72 -9 -72 q-10 0 -67 82 q-34 48 -47 48 q-10 0 -10 -23 Z" /><glyph glyph-name="O" unicode="o" d="M14 117 q0 21 11 34.5 q11 13.5 22.5 28.5 q11.5 15 34.5 15 l45 0 q22 0 34 -15 q12 -15 22.5 -28.5 q10.5 -13.5 10.5 -34.5 l0 -42 q0 -22 -10.5 -35.5 q-10.5 -13.5 -22.5 -28.5 q-12 -15 -34 -15 l-45 0 q-22 0 -34 15 q-12 15 -23 29 q-11 14 -11 35 l0 42 ZM51 75 q0 -22 6.5 -35 q6.5 -13 13 -25 q6.5 -12 20.5 -12 l27 0 q14 0 20 12 q6 12 12.5 24.5 q6.5 12.5 6.5 34.5 l0 44 q0 21 -6.5 34 q-6.5 13 -13 25 q-6.5 12 -19.5 12 l-27 0 q-14 0 -20.5 -12 q-6.5 -12 -13 -25 q-6.5 -13 -6.5 -34 l0 -43 Z" /><glyph glyph-name="P" unicode="p" d="M63 57 l0 -32 q0 -9 2 -11 q2 -2 4 -4.5 q2 -2.5 11 -2.5 q8 0 8 -3 q0 -4 -40 -4 q-41 0 -41 4 q0 3 8 3 q8 0 9.5 2.5 q1.5 2.5 3.5 4.5 q2 2 2 11 l0 142 q0 9 -1.5 11 q-1.5 2 -3.5 4 q-2 2 -9.5 2.5 q-7.5 0.5 -7.5 4.5 q0 3 39 3 l76 0 q37 0 37 -27 l0 -46 q0 -19 -16.5 -25.5 q-16.5 -6.5 -25.5 -9.5 q-9 -3 -25 -3 l-23 0 q-7 0 -7 -24 ZM70 88 l19 0 q12 0 17.5 5.5 q5.5 5.5 12 11.5 q6.5 6 6.5 19 l0 37 q0 23 -22 23 l-31 0 q-9 0 -9 -48 q0 -48 7 -48 Z" /><glyph glyph-name="R" unicode="r" d="M64 62 l0 -37 q0 -9 2 -11 q2 -2 4 -4.5 q2 -2.5 10 -2.5 q7 0 7 -3 q0 -4 -39 -4 q-40 0 -40 4 q0 3 8 3 q8 0 9.5 2.5 q1.5 2.5 3.5 4.5 q2 2 2 11 l0 142 q0 9 -1.5 11 q-1.5 2 -3.5 4 q-2 2 -9.5 2.5 q-7.5 0.5 -7.5 4.5 q0 3 39 3 l56 0 q17 0 25 -4 q8 -4 20 -9.5 q12 -5.5 12 -19.5 l0 -37 q0 -23 -30 -25 q-30 -2 -30 -3 q0 -1 9 -2 q9 -1 16 -7 q7 -6 10 -8.5 q3 -2.5 5.5 -7 q2.5 -4.5 4.5 -8.5 q2 -4 7 -15 q5 -11 8.5 -19.5 q3.5 -8.5 6 -11 q2.5 -2.5 5 -5.5 q2.5 -3 7 -3.5 q4.5 -0.5 4.5 -3.5 q0 -3 -25 -3 q-25 0 -33.5 25 q-8.5 25 -13.5 34.5 q-5 9.5 -10.5 20.5 q-5.5 11 -15.5 11 l-16 0 q-6 0 -6 -29 ZM71 98 l31 0 q23 0 23 22 l0 43 q0 21 -22 21 l-31 0 q-8 0 -8 -43 q0 -43 7 -43 Z" /><glyph glyph-name="S" unicode="s" d="M15 30 q1 30 6 30 q5 0 7.5 -28 q2.5 -28 23.5 -28 l40 0 q18 0 18 18 l0 24 q0 6 -4.5 10.5 q-4.5 4.5 -9.5 9.5 q-5 5 -16.5 11 q-11.5 6 -19.5 9.5 q-8 3.5 -11.5 5.5 q-3.5 2 -6.5 3.5 q-3 1.5 -5.5 3.5 q-2.5 2 -13 9.5 q-10.5 7.5 -10.5 20.5 l0 29 q0 17 15 24 q15 7 21.5 10 q6.5 3 16.5 3 l15 0 q4 0 15 -2 q11 -2 13.5 -2.5 q2.5 -0.5 4.5 -0.5 l5 0 q3 0 8 2 q4 0 4 -16 l0 -11 q-2 -29 -7 -29 q-5 0 -5.5 10 q-0.5 10 -4 16 q-3.5 6 -9.5 16 q-6 10 -18 10 l-19 0 q-8 0 -12.5 -4.5 q-4.5 -4.5 -9 -9 q-4.5 -4.5 -4.5 -11.5 l0 -14 q0 -7 4 -11 q4 -4 8 -8 q4 -4 17 -10 q13 -6 28 -13 q15 -7 21 -13 q6 -6 12.5 -13 q6.5 -7 6.5 -18 l0 -24 q0 -14 -8.5 -21 q-8.5 -7 -18 -14.5 q-9.5 -7.5 -23.5 -7.5 l-20 0 q-7 0 -18 2.5 q-11 2.5 -13 2.5 l-10 0 q-3 0 -8 -1 l-1 0 q-4 0 -4 21 l0 9 Z" /><glyph glyph-name="T" unicode="t" d="M106 109 l0 -84 q0 -9 2 -11.5 q2 -2.5 4.5 -4.5 q2.5 -2 11.5 -2 q9 0 9 -3 q0 -4 -43 -4 q-44 0 -44 4 q0 3 9 3 q9 0 11 2 q2 2 4 4.5 q2 2.5 2 11.5 l0 84 q0 76 -15 76 q-16 -1 -22 -8 q-6 -7 -11 -12.5 q-5 -5.5 -8 -21.5 q-3 -17 -7 -17 l0 1 q-3 0 -3 13 q0 8 1 20 q2 32 83 32 q80 0 83 -32 l0 -20 q0 -13 -2 -13 l-1 -1 q-4 0 -7 18 q-3 17 -9 22.5 q-6 5.5 -12.5 11.5 q-6.5 6 -20.5 7 l-1 0 q-14 0 -14 -76 Z" /><glyph glyph-name="V" unicode="v" d="M59.5 76 q-27.5 77 -31 86.5 q-3.5 9.5 -6 12.5 q-2.5 3 -5.5 6 q-3 3 -9 3.5 q-6 0.5 -6 4.5 q0 3 42 3 q41 0 41 -3 q0 -4 -1 -4 l-3 0 q0 -1 -5 -1 q-6 0 -8 -2 q-2 -2 -3.5 -3.5 q-1.5 -1.5 -1.5 -3.5 l0 -5 q0 -4 3 -12 q3 -8 23 -67 q10 -30 20 -30 q10 0 21 29 q20 57 23 64.5 q3 7.5 3 12.5 l0 9 q0 4 -5 5.5 q-5 1.5 -7 2 q-2 0.5 -7 1 q-5 0.5 -5 4.5 q0 3 33 3 q33 0 33 -3 q0 -4 -6.5 -4.5 q-6.5 -0.5 -10.5 -4.5 q-4 -4 -8 -8.5 q-4 -4.5 -8.5 -15.5 q-4.5 -11 -31 -84 q-26.5 -73 -36.5 -73 q-10 0 -37.5 77 Z" /><glyph glyph-name="backslash" unicode="\" d="M99 -45 q-8 0 -50 119 q-37 100 -37 115 q0 3 2 3 q7 0 50 -118 q36 -100 36 -116 q0 -3 -1 -3 Z" /><glyph glyph-name="underscore" unicode="_" d="M64 -22 q64 0 64 -6 q0 -7 -64 -7 q-64 0 -64 7 q0 6 64 6 Z" /><glyph glyph-name="a" unicode="a" d="M140 4 q0 -3 -13 -4.5 q-13 -1.5 -18 -1.5 l-10 0 q-5 0 -6 10 q0 4 -3 4 q-3 0 -7 -5 q-10 -10 -22 -10 l-32 0 q-20 0 -20 19 l0 35 q0 16 20.5 20 q20.5 4 31 6 q10.5 2 21 2.5 q10.5 0.5 10.5 9.5 l0 18 q0 10 -2 13.5 q-2 3.5 -4 7.5 q-2 4 -8 4 l-12 0 q-6 0 -8.5 -4.5 q-2.5 -4.5 -4 -7 q-1.5 -2.5 -2 -9 q-0.5 -6.5 -1 -13 q-0.5 -6.5 -7.5 -6.5 l-17 0 q-9 0 -9 6 l0 13 q0 7 8 12 q8 5 16 10 q8 5 21 5 l27 0 q13 0 18.5 -5.5 q5.5 -5.5 10.5 -10 q5 -4.5 5 -15.5 q0 -12 -0.5 -41 q-0.5 -29 -0.5 -39 q0 -11 1.5 -13 q1.5 -2 2.5 -4.5 q1 -2.5 8 -2.5 q6 0 6 -3 ZM92 64 q0 9 -11 9 l-3 0 q-14 -1 -19.5 -5 q-5.5 -4 -11 -8 q-5.5 -4 -5.5 -13 l0 -24 q0 -15 11 -15 l19 0 q8 0 11.5 8.5 q3.5 8.5 6 13 q2.5 4.5 2.5 14.5 l0 20 Z" /><glyph glyph-name="b" unicode="b" d="M37 7 q-6 -7 -10 -7 q-5 0 -5 5 l1 1 l0 164 q0 8 -1.5 10 q-1.5 2 -3.5 4 q-2 2 -8 2 q-7 0 -7 3 q0 3 26 4 l3 0 q23 0 23 -14 q-1 -15 -1 -26 l0 -24 q0 -8 2 -8 q2 0 6 6 q7 11 20 11 l40 0 q27 0 27 -34 l0 -51 q0 -17 -8 -27 q-8 -10 -16 -20 q-8 -10 -22 -10 l-27 0 q-13 0 -23 9 q-6 5 -10 5 q-3 0 -6 -3 ZM53 49 q0 -14 3.5 -21.5 q3.5 -7.5 7.5 -16.5 q4 -9 13 -9 l24 0 q14 0 14 32 l0 64 q0 32 -14 32 l-22 0 q-9 0 -13.5 -10 q-4.5 -10 -8.5 -19 q-4 -9 -4 -23 l0 -29 Z" /><glyph glyph-name="c" unicode="c" d="M130 34 q1 -1 1 -3 q0 -4 -6 -17 q-9 -18 -28 -18 l-35 0 q-15 0 -24 9.5 q-9 9.5 -18 19 q-9 9.5 -9 25.5 l0 32 q0 17 10 27.5 q10 10.5 19 19.5 q9 9 23 9 l25 0 q10 0 18 -5 q8 -5 16 -10 q8 -5 8 -12 l0 -13 q0 -6 -9 -6 l-13 0 q-5 0 -7 2 q-2 2 -2.5 3 q-0.5 1 -0.5 2 l0 1 q-1 1 -1 4 q0 3 -1 15 q-1 12 -10 12 l-18 0 q-9 0 -12.5 -8 q-3.5 -8 -7 -17 q-3.5 -9 -3.5 -22 l0 -27 q0 -13 4.5 -22 q4.5 -9 10 -19 q5.5 -10 15.5 -10 l24 0 q13 0 20 15 q6 13 10 13 l1 0 Z" /><glyph glyph-name="d" unicode="d" d="M114 193 l6 0 q20 0 20 -6 q-1 -8 -1 -13 q0 -5 -0.5 -11.5 q-0.5 -6.5 -0.5 -13.5 l0 -123 q0 -14 2.5 -16 q2.5 -2 4 -3 q1.5 -1 6.5 -1 q4 0 4 -3 q0 -3 -22 -4 l-5 0 q-18 0 -18 9 q-1 4 -3 4 q-2 0 -7 -5 q-9 -11 -21 -11 l-23 0 q-11 0 -18.5 8 q-7.5 8 -16 17 q-8.5 9 -8.5 26 l0 33 q0 17 8 27 q8 10 16 20.5 q8 10.5 22 10.5 l24 0 q10 0 17 -7 q2 -3 3 -3 q4 0 4 14 l0 27 q0 9 -1.5 11 q-1.5 2 -3 4 q-1.5 2 -7.5 2 q-7 0 -7 3 q0 3 26 4 ZM108 100 q0 31 -15 31 l-30 0 q-16 0 -16 -31 l0 -51 q0 -19 6 -27.5 q6 -8.5 9 -13 q3 -4.5 9 -4.5 l21 0 q16 0 16 33 l0 63 Z" /><glyph glyph-name="e" unicode="e" d="M89 72 q-45 0 -45 -13 q0 -13 3.5 -20 q3.5 -7 9 -20 q5.5 -13 17.5 -13 l25 0 q14 0 22 15 q6 12 9 12 l1 0 q1 0 1 -2 q0 -4 -7 -17 q-9 -18 -28 -18 l-34 0 q-16 0 -25 9.5 q-9 9.5 -18 19 q-9 9.5 -9 25.5 l0 33 q0 16 9 25.5 q9 9.5 17.5 19.5 q8.5 10 23.5 10 l34 0 q20 0 26.5 -17 q6.5 -17 8.5 -22.5 q2 -5.5 3 -15.5 l0 -1 q0 -10 -44 -10 ZM73 80 q28 0 28 10 l0 1 q-1 10 -2.5 15.5 q-1.5 5.5 -5.5 15.5 q-4 10 -11 10 l-16 0 q-8 0 -12 -11.5 q-4 -11.5 -6 -17 q-2 -5.5 -3 -14.5 l0 -1 q0 -8 28 -8 Z" /><glyph glyph-name="f" unicode="f" d="M57 79 l0 -55 q0 -9 1.5 -11 q1.5 -2 3.5 -4 q2 -2 9 -2.5 q7 -0.5 7 -3.5 q0 -3 -35 -3 q-36 0 -36 3 q0 3 7 3 q6 0 7.5 2.5 q1.5 2.5 3 4.5 q1.5 2 1.5 11 l0 55 q0 47 -10 47 q-10 0 -10 4 q0 4 10 4 q10 0 10 10 l0 1 q-1 11 -1 20 q0 8 5 12.5 q5 4.5 12 11 q7 6.5 19 6.5 l19 0 q8 0 13.5 -3.5 q5.5 -3.5 11 -6.5 q5.5 -3 5.5 -8 l0 -11 q0 -6 -8 -6 l-13 0 q-4 0 -6 2 q-2 2 -3 3.5 q-1 1.5 -1.5 5 q-0.5 3.5 -1 11 q-0.5 7.5 -4.5 7.5 l-10 0 q-6 0 -6 -14 l0 -27 q0 -14 17 -14 q17 0 17 -4 q0 -4 -17 -4 q-17 0 -17 -47 Z" /><glyph glyph-name="g" unicode="g" d="M96 21 q14 0 20 -2.5 q6 -2.5 14 -6.5 q8 -4 8 -13 l0 -21 q0 -12 -9 -17.5 q-9 -5.5 -18.5 -11.5 q-9.5 -6 -25.5 -6 l-45 0 q-29 0 -29 16 l0 19 q0 4 2 6.5 q2 2.5 3.5 4.5 q1.5 2 8.5 6 q4 2 4 3 q0 1 -1 2 q-4 2 -6 4 q-2 2 -5.5 5.5 q-3.5 3.5 -3.5 8.5 l0 10 q0 5 6.5 9 q6.5 4 13.5 8 q3 2 3 4 q0 2 -2 3 q-5 3 -7 5 q-2 2 -7.5 7 q-5.5 5 -5.5 15 l0 21 q0 11 7.5 17.5 q7.5 6.5 15 13.5 q7.5 7 20.5 7 l17 0 q4 0 10 -1 q6 -1 11 -2 q5 -1 9 -1 q4 0 18 1 l2 0 q11 0 11 -5 q0 -6 -12 -6 q-8 0 -8 -3 q0 -2 3 -4 q7 -8 7 -18 l0 -21 q0 -11 -7.5 -17 q-7.5 -6 -15 -12 q-7.5 -6 -19.5 -6 l-18 0 q-6 0 -11 2 l-4 0 q-4 0 -8 -2 q-6 -4 -6 -7 l0 -7 q0 -4 3.5 -5 q3.5 -1 7 -2 q3.5 -1 13.5 -1 l36 0 ZM46 71 q0 -22 12 -22 l24 0 q11 0 11 21 l0 41 q0 21 -11 21 l-24 0 q-12 0 -12 -20 l0 -41 ZM59 -4 q-16 0 -20 -1 q-4 -1 -4 -8 l0 -22 q0 -15 20 -15 l40 0 q20 0 20 14 l0 23 q0 9 -20 9 l-36 0 Z" /><glyph glyph-name="h" unicode="h" d="M57 127 q0 -8 2 -8 q3 0 7 6 q8 13 23 13 l29 0 q13 0 17.5 -9 q4.5 -9 7.5 -14.5 q3 -5.5 3 -15.5 l0 -75 q0 -9 1.5 -11 q1.5 -2 3 -4.5 q1.5 -2.5 8.5 -2.5 q6 0 6 -3 q0 -3 -34 -3 q-35 0 -35 3 q0 3 7 3 q6 0 7.5 2.5 q1.5 2.5 3 4.5 q1.5 2 1.5 11 l0 73 q0 10 -2 13.5 q-2 3.5 -4.5 9.5 q-2.5 6 -9.5 6 l-16 0 q-9 0 -14 -9 q-5 -9 -8.5 -15 q-3.5 -6 -3.5 -13 l0 -65 q0 -9 1.5 -11 q1.5 -2 3 -4.5 q1.5 -2.5 8.5 -2.5 q6 0 6 -3 q0 -3 -35 -3 q-35 0 -35 3 q0 3 7 3 q7 0 8.5 2.5 q1.5 2.5 3 4.5 q1.5 2 1.5 11 l0 146 q0 8 -1.5 10 q-1.5 2 -3.5 4 q-2 2 -8 2 q-7 0 -7 3 q0 3 26 4 l4 0 q22 0 22 -10 q-1 -12 -1 -26 l0 -30 Z" /><glyph glyph-name="i" unicode="i" d="M34 136 l6 0 q19 0 19 -10 q-1 -12 -1 -25 l0 -77 q0 -9 1.5 -11 q1.5 -2 3.5 -4.5 q2 -2.5 9 -2.5 q6 0 6 -3 q0 -3 -35 -3 q-36 0 -36 3 q0 3 7 3 q7 0 8.5 2.5 q1.5 2.5 3 4.5 q1.5 2 1.5 11 l0 88 q0 8 -1.5 10 q-1.5 2 -3 3.5 q-1.5 1.5 -8 2 q-6.5 0.5 -6.5 3.5 q0 3 26 5 ZM24 187 q0 9 10 9 l18 0 q9 0 9 -9 l0 -18 q0 -10 -9 -10 l-18 0 q-10 0 -10 10 l0 18 Z" /><glyph glyph-name="k" unicode="k" d="M56 42 l0 -18 q0 -9 2 -11 q2 -2 3.5 -4.5 q1.5 -2.5 8.5 -2.5 q6 0 6 -3 q0 -3 -35 -3 q-35 0 -35 3 q0 3 7 3 q6 0 7.5 2.5 q1.5 2.5 3 4.5 q1.5 2 1.5 11 l0 146 q0 8 -1.5 10 q-1.5 2 -3 4 q-1.5 2 -7.5 2 q-7 0 -7 3 q0 3 26 4 l3 0 q22 0 22 -12 l0 -1 q-1 -14 -1 -26 l0 -52 q0 -28 8 -28 q4 0 10 7 q17 20 21 24.5 q4 4.5 4 8.5 l0 8 q0 5 -9 5.5 q-9 0.5 -9 3.5 q0 3 33 3 q33 0 33 -3 q0 -3 -6 -4 q-6 -1 -10.5 -3.5 q-4.5 -2.5 -10 -5.5 q-5.5 -3 -12.5 -10 q-7 -7 -11 -12 q-1 -2 -1 -4 q0 -8 14 -32 q17 -31 23 -41 q6 -10 13.5 -11.5 q7.5 -1.5 7.5 -4.5 q0 -3 -23 -3 q-24 0 -27 6 q-3 6 -6 11.5 q-3 5.5 -15 27.5 q-9 16 -15 16 q-2 0 -4 -2 q-8 -8 -8 -17 Z" /><glyph glyph-name="l" unicode="l" d="M7 3 q0 3 7 3.5 q7 0.5 8.5 2.5 q1.5 2 3 3.5 q1.5 1.5 1.5 10.5 l0 147 q0 8 -1.5 10 q-1.5 2 -3 4 q-1.5 2 -8.5 2 q-7 0 -7 3 q0 3 27 4 l3 0 q22 0 22 -12 l0 -1 q-1 -14 -1 -26 l0 -131 q0 -9 2 -10.5 q2 -1.5 3.5 -3.5 q1.5 -2 8.5 -2.5 q7 -0.5 7 -3.5 q0 -3 -36 -3 q-36 0 -36 3 Z" /><glyph glyph-name="m" unicode="m" d="M58 125 q0 -7 2 -7 q2 0 6 7 q7 13 22 13 l29 0 q15 0 19 -13 q1 -7 4 -7 q3 0 7 7 q8 13 22 13 l25 0 q11 0 16.5 -7.5 q5.5 -7.5 9.5 -13 q4 -5.5 4 -17.5 l0 -76 q0 -9 1.5 -11 q1.5 -2 3 -4.5 q1.5 -2.5 8.5 -2.5 q6 0 6 -3 q0 -3 -34 -3 q-35 0 -35 3 q0 3 6 3 q6 0 7.5 2.5 q1.5 2.5 3 4.5 q1.5 2 1.5 11 l0 83 q0 19 -10 19 l-17 0 q-7 0 -12 -7 q-5 -7 -9 -13 q-4 -6 -4 -13 l0 -69 q0 -9 1.5 -11 q1.5 -2 3 -4.5 q1.5 -2.5 8.5 -2.5 q6 0 6 -3 q0 -3 -34 -3 q-34 0 -34 3 q0 3 6 3 q6 0 7.5 2.5 q1.5 2.5 3 4.5 q1.5 2 1.5 11 l0 83 q0 19 -10 19 l-16 0 q-7 0 -11.5 -6.5 q-4.5 -6.5 -9 -12.5 q-4.5 -6 -4.5 -14 l0 -69 q0 -9 1.5 -11 q1.5 -2 3 -4.5 q1.5 -2.5 7.5 -2.5 q6 0 6 -3 q0 -3 -34 -3 q-35 0 -35 3 q0 3 7 3 q6 0 7.5 2.5 q1.5 2.5 3 4.5 q1.5 2 1.5 11 l0 87 q0 8 -1.5 10 q-1.5 2 -3 4 q-1.5 2 -7.5 2.5 q-6 0.5 -6 3.5 q0 3 25 5 l4 0 q20 0 21 -11 Z" /><glyph glyph-name="n" unicode="n" d="M58 125 q0 -7 2 -7 q2 0 6 7 q8 13 23 13 l27 0 q12 0 17 -9 q5 -9 8 -14 q3 -5 3 -15 l0 -76 q0 -9 2 -11 q2 -2 3.5 -4.5 q1.5 -2.5 8.5 -2.5 q6 0 6 -3 q0 -3 -35 -3 q-35 0 -35 3 q0 3 7 3 q6 0 7.5 2.5 q1.5 2.5 3 4.5 q1.5 2 1.5 11 l0 83 q0 19 -11 19 l-19 0 q-9 0 -13.5 -8.5 q-4.5 -8.5 -8 -14.5 q-3.5 -6 -3.5 -13 l0 -66 q0 -9 1.5 -11 q1.5 -2 3 -4.5 q1.5 -2.5 8.5 -2.5 q6 0 6 -3 q0 -3 -35 -3 q-35 0 -35 3 q0 3 7 3 q6 0 7.5 2.5 q1.5 2.5 3 4.5 q1.5 2 1.5 11 l0 87 q0 8 -1.5 10 q-1.5 2 -3 4 q-1.5 2 -7.5 2.5 q-6 0.5 -6 3.5 q0 3 25 5 l4 0 q20 0 21 -11 Z" /><glyph glyph-name="o" unicode="o" d="M11 83 q0 16 9.5 26 q9.5 10 18.5 19.5 q9 9.5 24 9.5 l30 0 q15 0 24 -10 q9 -10 18 -19.5 q9 -9.5 9 -25.5 l0 -31 q0 -16 -8.5 -25.5 q-8.5 -9.5 -17.5 -20 q-9 -10.5 -25 -10.5 l-31 0 q-16 0 -24.5 10 q-8.5 10 -17.5 19.5 q-9 9.5 -9 25.5 l0 32 ZM46 35 q0 -33 16 -33 l32 0 q16 0 16 32 l0 65 q0 33 -16 33 l-24 0 q-9 0 -12.5 -7.5 q-3.5 -7.5 -7.5 -15.5 q-4 -8 -4 -25 l0 -49 Z" /><glyph glyph-name="p" unicode="p" d="M54 127 q0 -5 2 -5 q2 0 7 6 q8 10 20 10 l39 0 q27 0 27 -33 l0 -52 q0 -18 -8 -27.5 q-8 -9.5 -15.5 -19 q-7.5 -9.5 -21.5 -9.5 l-24 0 q-10 0 -18 7 q-2 1 -4 1 q-4 0 -4 -12 l0 -26 q0 -9 2 -11 q2 -2 3.5 -4 q1.5 -2 8.5 -2.5 q7 -0.5 7 -3.5 q0 -3 -35 -3 q-36 0 -36 3 q0 3 6.5 3.5 q6.5 0.5 8 2.5 q1.5 2 3 4 q1.5 2 1.5 11 l0 144 q0 8 -1.5 10 q-1.5 2 -3 4 q-1.5 2 -8 2.5 q-6.5 0.5 -6.5 3.5 q0 3 25 5 l6 0 q19 0 19 -9 ZM53 50 q0 -14 4 -22 q4 -8 7.5 -16 q3.5 -8 11.5 -8 l24 0 q15 0 15 32 l0 62 q0 31 -14 31 l-31 0 q-17 0 -17 -32 l0 -47 Z" /><glyph glyph-name="r" unicode="r" d="M32 136 l8 0 q16 0 17 -6 l0 -18 q2 0 8 12 q8 14 19 14 l22 0 q11 0 11 -10 l0 -17 q0 -8 -9 -8 l-14 0 q-5 0 -6.5 4 q-1.5 4 -2.5 8.5 q-1 4.5 -3 4.5 l-3 0 q-1 0 -4.5 -0.5 q-3.5 -0.5 -7 -6 q-3.5 -5.5 -6.5 -11.5 q-3 -6 -3 -14 l0 -64 q0 -9 1.5 -11 q1.5 -2 3 -4 q1.5 -2 8.5 -2.5 q7 -0.5 7 -3.5 q0 -3 -35 -3 q-36 0 -36 3 q0 3 7 3 q6 0 7.5 2.5 q1.5 2.5 3 4.5 q1.5 2 1.5 11 l0 87 q0 8 -1.5 10 q-1.5 2 -3 4.5 q-1.5 2.5 -7.5 2.5 q-6 0 -6 3 q0 3 24 5 Z" /><glyph glyph-name="s" unicode="s" d="M14 22 q1 23 6 23 q5 0 6 -9 q1 -9 3.5 -13.5 q2.5 -4.5 8 -12.5 q5.5 -8 14.5 -8 l22 0 q12 0 12 11 l0 16 q0 5 -3.5 8 q-3.5 3 -7 6 q-3.5 3 -14.5 8 q-11 5 -21 9.5 q-10 4.5 -14 9 q-4 4.5 -8.5 9 q-4.5 4.5 -4.5 11.5 l0 17 q0 9 6.5 14.5 q6.5 5.5 13 11 q6.5 5.5 17.5 5.5 l14 0 q3 0 9 -1 q6 -1 10 -2 q4 -1 6 -1 l4 0 q2 0 6 2 q2 0 2 -13 l0 -8 q-1 -23 -6 -23 q-5 0 -6 20 q-1 20 -15 20 l-26 0 q-11 0 -11 -11 l0 -15 q0 -5 3.5 -8 q3.5 -3 6 -4.5 q2.5 -1.5 4 -2.5 q1.5 -1 12 -6 q10.5 -5 28 -13 q17.5 -8 17.5 -20 l0 -34 q0 -22 -23 -22 l-27 0 q-4 0 -13 1.5 q-9 1.5 -11.5 2 q-2.5 0.5 -4.5 0.5 l-6 0 q-1 0 -5 -1 l-1 0 q-3 0 -3 15 l0 8 Z" /><glyph glyph-name="t" unicode="t" d="M56 83 l0 -51 q0 -8 1 -11.5 q1 -3.5 3 -8 q2 -4.5 7 -4.5 l8 0 q4 0 9 4 q3 2 4 2 q2 0 3 -1 l0 -2 q0 -3 -6 -8 q-8 -7 -18 -7 l-20 0 q-11 0 -15 7 q-4 7 -5 9.5 q-1 2.5 -1.5 6 q-0.5 3.5 -0.5 7.5 l0 60 q0 40 -7 40 q-8 0 -8 4 q0 3 8 3.5 q8 0.5 12 7 q4 6.5 7.5 11.5 q3.5 5 5 13.5 q1.5 8.5 8.5 9.5 l2 0 q4 0 4 -3 q-1 -5 -1 -9 l0 -21 q0 -8 16 -8 q15 0 15 -4 q0 -4 -15 -4 q-16 0 -16 -43 Z" /><glyph glyph-name="u" unicode="u" d="M132 -1 l-7 0 q-17 0 -17 5 q-1 5 -1 13 q0 3 -1 3 q-2 0 -7 -9 q-9 -14 -24 -14 l-27 0 q-12 0 -16.5 9.5 q-4.5 9.5 -7 14.5 q-2.5 5 -2.5 16 l0 39 q0 27 0.5 28 q0.5 1 0.5 9 q0 7 -1.5 9 q-1.5 2 -2.5 3 q-1 1 -2.5 1.5 q-1.5 0.5 -2.5 0.5 q-2 0 -6 0.5 q-4 0.5 -4 3.5 q0 3 26 5 l7 0 q18 0 18 -6 q-1 -8 -1 -12 l0 -10 q0 -6 -0.5 -14 q-0.5 -8 -0.5 -24 l0 -26 q0 -11 1.5 -16 q1.5 -5 4 -11.5 q2.5 -6.5 9.5 -6.5 l15 0 q9 0 14 11 q5 11 7.5 16.5 q2.5 5.5 2.5 15.5 l0 59 q0 9 -2 11 q-2 2 -3 2.5 q-1 0.5 -2 1 q-1 0.5 -2 0.5 q-2 0 -6 0.5 q-4 0.5 -4 3.5 q0 3 26 5 l4 0 q21 0 21 -14 l0 -1 q-1 -17 -1 -20 l0 -76 q0 -9 1.5 -11.5 q1.5 -2.5 3 -5 q1.5 -2.5 7.5 -2.5 q5 0 5 -3 q0 -3 -23 -4 Z" /><glyph glyph-name="v" unicode="v" d="M98 61 q12 35 13.5 40 q1.5 5 1.5 9 l0 8 q0 4 -4 6 q-4 2 -6.5 3 q-2.5 1 -5.5 1 q-4 0 -4 3 q0 3 28 3 q28 0 28 -3 q0 -3 -9 -4 q-9 -1 -14.5 -15.5 q-5.5 -14.5 -23.5 -64 q-18 -49.5 -28 -49.5 q-10 0 -30.5 54 q-20.5 54 -24.5 64.5 q-4 10.5 -10.5 11 q-6.5 0.5 -6.5 3.5 q0 3 35 3 q34 0 34 -3 q0 -3 -8.5 -3.5 q-8.5 -0.5 -8.5 -5.5 l0 -7 q0 -3 1.5 -7 q1.5 -4 15.5 -43 q7 -21 14 -21 q7 0 13 17 Z" /><glyph glyph-name="w" unicode="w" d="M89 45 q-16 -47 -25 -47 q-10 0 -26 54 q-16 54 -19 64.5 q-3 10.5 -10 11 q-7 0.5 -7 3.5 q0 3 34 3 q34 0 34 -3 q0 -3 -9 -3.5 q-9 -0.5 -9 -6.5 l0 -7 q0 -2 1 -6.5 q1 -4.5 12 -40.5 q4 -15 9 -15 q8 0 18 29 q16 49 24 49 q7 0 23 -49 q9 -31 16 -31 q5 0 9 13 q9 32 10.5 37 q1.5 5 1.5 9 l0 9 q0 5 -4.5 6.5 q-4.5 1.5 -6.5 2 q-2 0.5 -6.5 1 q-4.5 0.5 -4.5 3.5 q0 3 29 3 q28 0 28 -3 q0 -3 -9.5 -3.5 q-9.5 -0.5 -14 -15.5 q-4.5 -15 -19.5 -64.5 q-15 -49.5 -24 -49.5 q-9 0 -24 47 q-8 24 -16 24 q-8 0 -15 -24 Z" /><glyph glyph-name="x" unicode="x" d="M56 44 q-9 -13 -12 -17 q-3 -4 -3 -7 l0 -7 q0 -5 9 -6 q9 -1 9 -4 q0 -3 -28 -3 q-29 0 -29 3 q0 3 9 4.5 q9 1.5 18 13.5 q9 12 20 27 q5 6 5 14 q0 11 -9 24 q-16 23 -21.5 31 q-5.5 8 -12 9.5 q-6.5 1.5 -6.5 4.5 q0 3 33 3 q33 0 33 -3 q0 -3 -6 -3 q-6 0 -6 -4 l0 -6 q0 -2 2 -5.5 q2 -3.5 11 -16.5 q5 -8 9 -8 q4 0 7 5 q7 10 10.5 14.5 q3.5 4.5 3.5 8.5 l0 7 q0 4 -8 4.5 q-8 0.5 -8 3.5 q0 3 28 3 q27 0 27 -3 q0 -3 -9 -4 q-9 -1 -19 -14 q-10 -13 -19 -25 q-3 -5 -3 -10 q0 -12 12 -28 q17 -26 22 -34 q5 -8 12 -9 q7 -1 7 -4 q0 -3 -34 -3 q-35 0 -35 3 q0 3 8 3 q7 0 7 4 l0 6 q0 2 -2 5 q-2 3 -12 19 q-6 9 -12 9 q-4 0 -8 -5 Z" /><glyph glyph-name="y" unicode="y" d="M97 64 q11 30 13.5 35.5 q2.5 5.5 2.5 9.5 l0 11 q0 7 -10 7.5 q-10 0.5 -10 3.5 q0 3 28 3 q27 0 27 -3 q0 -3 -5 -4 q-5 -1 -8.5 -4.5 q-3.5 -3.5 -6.5 -7.5 q-3 -4 -7.5 -15 q-4.5 -11 -26 -66 q-21.5 -55 -29 -73 q-7.5 -18 -17.5 -18 l-20 0 q-10 0 -10 9 l0 16 q0 6 6 6 l7 0 q1 0 4.5 -0.5 q3.5 -0.5 7 -1.5 q3.5 -1 5.5 -1 l7 0 q5 0 8 7.5 q3 7.5 5 13.5 l0 1 q0 8 -20 58 q-23 53 -26.5 60.5 q-3.5 7.5 -5 9.5 q-1.5 2 -3.5 4 q-2 2 -6.5 2.5 q-4.5 0.5 -4.5 3.5 q0 3 34 3 q34 0 34 -3 q0 -3 -7.5 -3.5 q-7.5 -0.5 -7.5 -4.5 l0 -7 q0 -3 2 -8 q2 -5 15 -39 q7 -19 13 -19 q6 0 12 14 Z" /><glyph glyph-name="braceleft" unicode="{" d="M74 -42 q0 -3 -4 -3 l-16 0 q-11 0 -16 5.5 q-5 5.5 -9 9.5 q-4 4 -4 15 l0 64 q0 11 -2.5 14.5 q-2.5 3.5 -4 5.5 q-1.5 2 -5 2.5 q-3.5 0.5 -3.5 2.5 q0 1 7.5 1.5 q7.5 0.5 7.5 16.5 l0 72 q0 9 4.5 13.5 q4.5 4.5 9 9.5 q4.5 5 15.5 5 l16 0 q4 0 4 -3 q0 -3 -2 -3 l-11 0 q-9 0 -9 -14 l0 -66 q0 -13 -5 -18.5 q-5 -5.5 -7.5 -8.5 q-2.5 -3 -8.5 -4 q-3 -1 -3 -2 q0 -1 4 -1 q7 -2 10 -6 q3 -4 6.5 -9 q3.5 -5 3.5 -16 l0 -59 q0 -9 1.5 -12 q1.5 -3 3.5 -6 q2 -3 7 -3 l8 0 q2 0 2 -3 Z" /><glyph glyph-name="braceright" unicode="}" d="M8 -42 q0 3 3 3 l7 0 q5 0 6.5 3 q1.5 3 3.5 6 q2 3 2 12 l0 60 q0 12 4.5 17 q4.5 5 7 8 q2.5 3 9.5 5 q3 0 3 1 q0 1 -3 2 q-7 2 -10 5.5 q-3 3.5 -7 9 q-4 5.5 -4 17.5 l0 65 q0 14 -8 14 l-11 0 q-3 0 -3 3 q0 3 5 3 l15 0 q11 0 15.5 -5 q4.5 -5 9 -9.5 q4.5 -4.5 4.5 -13.5 l0 -72 q0 -16 7.5 -16.5 q7.5 -0.5 7.5 -1.5 q0 -2 -4 -2.5 q-4 -0.5 -5.5 -3.5 q-1.5 -3 -3.5 -6 q-2 -3 -2 -13 l0 -64 q0 -11 -4 -15 q-4 -4 -9 -9.5 q-5 -5.5 -16 -5.5 l-15 0 q-5 0 -5 3 Z" /><glyph glyph-name="copyright" unicode="©" d="M126 110 q-3 0 -5.5 12 q-2.5 12 -12.5 12 l-23 0 q-13 0 -13 -18 l0 -37 q0 -18 14 -18 l23 0 q9 0 14 10 q3 7 6 7 l1 0 q1 -1 1 -3 q0 -3 -3 -11 q-6 -12 -19 -12 l-35 0 q-22 0 -22 22 l0 31 q0 10 6 16 q6 6 12 12 q6 6 16 6 l14 0 q3 0 10 -1.5 q7 -1.5 8 -2 q1 -0.5 2 -0.5 l3 0 q1 0 3 1 q2 0 2 -12 q0 -14 -2 -14 ZM176 79 q0 -17 -12 -28.5 q-12 -11.5 -24 -23.5 q-12 -12 -29 -12 l-33 0 q-17 0 -29 12 q-12 12 -24 23.5 q-12 11.5 -12 28.5 l0 34 q0 17 12 28.5 q12 11.5 24 23.5 q12 12 29 12 l33 0 q17 0 29 -12 q12 -12 24 -24 q12 -12 12 -28 l0 -34 ZM168 111 q0 15 -11 26 q-11 11 -21.5 21.5 q-10.5 10.5 -25.5 10.5 l-31 0 q-15 0 -26 -10.5 q-11 -10.5 -21.5 -21.5 q-10.5 -11 -10.5 -26 l0 -30 q0 -15 11 -26 q11 -11 21.5 -21.5 q10.5 -10.5 25.5 -10.5 l31 0 q15 0 25.5 10.5 q10.5 10.5 21.5 21.5 q11 11 11 26 l0 30 Z" /><glyph glyph-name="periodcentered" unicode="·" d="M52 114 q11 0 11 -11 l0 -15 q0 -5 -3.5 -8 q-3.5 -3 -6.5 -6 q-3 -3 -7 -3 l-9 0 q-5 0 -8.5 3 q-3.5 3 -6.5 6 q-3 3 -3 8 l0 15 q0 11 11 11 l22 0 Z" /><glyph glyph-name="multiply" unicode="×" d="M117 89 l-49 51 l10 11 l50 -51 l49 52 l11 -11 l-49 -51 l49 -52 l-11 -11 l-49 51 l-49 -51 l-10 10 l48 52 Z" /><glyph glyph-name="endash" unicode="&#x2013;" d="M64 100 q64 0 64 -7 q0 -8 -64 -8 q-64 0 -64 8 q0 7 64 7 Z" /><glyph glyph-name="emdash" unicode="&#x2014;" d="M128 100 q128 0 128 -7 q0 -8 -128 -8 q-128 0 -128 8 q0 7 128 7 Z" /><glyph glyph-name="uni2027" unicode="&#x2027;" d="M50 90 q0 -8 -4 -12.5 q-4 -4.5 -12 -4.5 q-8 0 -12 4.5 q-4 4.5 -4 12.5 q0 9 4 13.5 q4 4.5 12 4.5 q8 0 12 -4.5 q4 -4.5 4 -13.5 Z" /><glyph glyph-name="SF100000" unicode="&#x2500;" d="M156 87 l-159 0 l0 22 l159 0 l0 -22 Z" /><glyph glyph-name="uni3001" unicode="&#x3001;" d="M24 41 q3 0 13 -2 q14 -3 25 -8.5 q11 -5.5 22 -11 q11 -5.5 11 -14.5 l0 -14 q0 -5 -2 -9 q-2 -4 -4.5 -7.5 q-2.5 -3.5 -4.5 -3.5 l-4 0 q-2 0 -3.5 2 q-1.5 2 -2.5 3.5 q-1 1.5 -2 3 q-1 1.5 -5.5 9 q-4.5 7.5 -12.5 20.5 q-8 13 -20 22 q-12 9 -12 10 l2 0 Z" /><glyph glyph-name="uni3002" unicode="&#x3002;" d="M64 40 q7 0 12 -5 q5 -5 10 -10 q5 -5 5 -12 l0 -14 q0 -8 -5 -13 q-5 -5 -10 -10 q-5 -5 -12 -5 l-14 0 q-8 0 -13 5 q-5 5 -10 10 q-5 5 -5 13 l0 14 q0 7 5 12 q5 5 10 10 q5 5 13 5 l14 0 ZM52 31 q-6 0 -9.5 -3.5 q-3.5 -3.5 -7.5 -7.5 q-4 -4 -4 -9 l0 -10 q0 -6 4 -9.5 q4 -3.5 7.5 -7.5 q3.5 -4 9.5 -4 l10 0 q5 0 9 4 q4 4 7.5 7.5 q3.5 3.5 3.5 9.5 l0 10 q0 5 -3.5 9 q-3.5 4 -7.5 7.5 q-4 3.5 -9 3.5 l-10 0 Z" /><glyph glyph-name="uni300C" unicode="&#x300c;" d="M238 213 q0 -6 -30 -6 q-31 0 -31 -111 q0 -111 -5 -111 q-6 0 -6 117 q0 116 36 116 q36 0 36 -5 Z" /><glyph glyph-name="uni300D" unicode="&#x300d;" d="M17 -27 q0 5 31 5 q30 0 30 107 q0 107 6 107 q5 0 5 -112 q0 -113 -36 -113 q-36 0 -36 6 Z" /><glyph glyph-name="uni3010" unicode="&#x3010;" d="M166 92 q0 121 36 121 q29 0 29 -6 q0 -2 -2 -4 q-9 -10 -14 -18.5 q-5 -8.5 -16 -28 q-11 -19.5 -11 -41.5 l0 -45 q0 -23 11 -42 q11 -19 16 -28 q5 -9 14 -19 q2 -2 2 -4 q0 -6 -29 -6 q-36 0 -36 121 Z" /><glyph glyph-name="uni3011" unicode="&#x3011;" d="M54 -29 q-29 0 -29 6 q0 2 2 4 q9 10 14 19 q5 9 15.5 28 q10.5 19 10.5 42 l0 45 q0 22 -10.5 41.5 q-10.5 19.5 -15.5 28 q-5 8.5 -14 18.5 q-2 2 -2 4 q0 6 29 6 q36 0 36 -121 q0 -121 -36 -121 Z" /><glyph glyph-name="uni4E00" unicode="&#x4e00;" d="M23 75 l0 2 q-1 2 -1 4 l-1 2 q-2 8 -8 14 l0 2 l17 0 q2 1 4 1 q2 0 5 -1 l23 0 l6 1 l23 0 l3 -1 q0 1 3 1 q3 1 5 1 q19 1 39 2 l40 0 l8 1 l13 0 q2 2 6 4 l7 4 q1 0 2 2 l2 1 l2 0 q3 0 7 -3 l10 -10 q1 -1 3 -3 l5 -3 q5 -4 5 -13 q0 -1 -2 -3 q-1 -1 -3 -3 q-3 -3 -5 -3 l-6 0 q-1 0 -2 1 l-2 1 l-3 2 q-1 0 -3 1 q-2 1 -4 2 q-5 1 -11 3 l-5 0 q-2 1 -4 2 l-4 0 q-5 0 -12 1 l-3 0 l-8 1 l-44 0 q-5 0 -10 -1 l-13 -2 q-3 -1 -5 -1 l-14 0 q-5 -4 -12 -4 l-1 0 q-1 0 -2 1 q-13 -9 -33 -9 l-7 2 l-1 -1 l-1 -1 q0 -1 -1 -2 l-4 0 q-1 0 -2 1 l-1 4 ZM76 96 q-2 0 -2 -1 l2 0 l0 1 Z" /><glyph glyph-name="uni4E03" unicode="&#x4e03;" d="M121 76 q-1 3 -1 5 q-1 3 -2 3 l-3 0 q-4 0 -11 -2 q-5 -3 -14 -7 q-5 0 -7 -2 l-4 0 q-1 -1 -3 -2 l0 -1 l-1 0 l-1 -1 q-1 -1 -3 -2 l-7 -3 q-5 -2 -8 -3 q-8 -4 -15 -7 l-3 0 l1 -2 l-4 0 q-4 0 -6 5 l-1 2 l-1 2 q-1 3 -3 5 l-2 1 q-1 2 -2 3 q-2 2 -2 5 q0 2 2 2 l11 0 l6 1 q4 1 7 2 l6 0 q2 0 4 1 l9 4 q3 1 6 1 q3 1 7 1 q4 0 7 1 l5 1 q2 1 4 2 q5 1 11 1 l14 4 q4 1 4 5 q0 7 -1 13 l0 63 q-1 0 -1 3 l-1 3 q-1 5 -3 7 l-3 0 l-1 1 q-2 0 -2 2 q0 1 2 3 q1 0 2 1 l7 4 l1 1 l3 2 q1 1 2 1 q2 0 3 -1 l4 -2 q18 -1 18 -19 q0 -5 -4 -9 l-3 -3 q-2 -2 -3 -4 q-2 -4 -2 -10 l0 -4 q-1 -2 -1 -4 l0 -29 l-1 -1 l0 -2 q1 -3 1 -4 l-1 -5 q0 -7 6 -7 l2 0 l7 3 l13 2 l12 3 l4 0 l3 1 q2 1 6 1 q1 0 2 1 l4 0 q7 1 13 7 q2 1 4 3 l3 2 q0 1 1 1 q3 3 7 3 q3 0 6 -2 l2 -2 q2 -1 3 -1 q10 -6 10 -16 q0 -3 -1 -5 q-1 -3 -3 -3 l-29 0 l-13 -1 q-2 0 -6 -1 q-4 -1 -9 -1 l-5 0 q-1 0 -1 -1 l-3 0 q-9 -2 -12 -2 l-10 0 q-2 -1 -4 -2 l-4 -1 q-5 -1 -7 -4 l0 -21 l1 -21 q1 -7 1 -17 q0 -5 1 -11 q3 -8 7 -10 l15 0 q7 1 16 3 l8 1 q4 2 8 10 q3 7 6 15 l0 2 l1 6 q2 9 5 9 l0 -10 q0 -6 1 -12 q2 -15 6 -19 l4 -7 l0 -2 q0 -3 -2 -6 l-5 -6 q-3 -2 -8 -3 l-2 -1 l-2 0 q-2 -1 -4 -1 q-9 -3 -24 -5 l-11 0 q-5 -1 -10 -1 q-3 0 -5 1 q-1 1 -2 1 l-4 1 q-1 1 -2 1 q-4 2 -7 5 q0 1 -1 3 l-1 1 l-1 1 q-3 4 -3 6 l0 20 q0 10 -1 20 q0 1 -1 3 l0 4 q0 1 -1 2 l0 28 ZM45 72 q-1 -1 -1 -2 l2 0 q1 1 1 2 l-2 0 ZM207 106 q-1 0 -1 -1 q0 -1 1 -1 l0 2 Z" /><glyph glyph-name="uni4E09" unicode="&#x4e09;" d="M5 12 q1 1 2 1 q19 -2 38 -2 q3 0 9 -1 l2 0 q1 -1 2 -1 l61 -1 l22 0 q1 -1 3 -1 l24 1 l4 -1 l21 0 q10 1 15 1 q3 0 11 8 l7 8 l6 5 l1 0 q3 0 5 -4 q0 -1 3 -4 l6 -4 q1 -1 1 -2 q5 -4 7 -6 q3 -3 3 -4 q0 -8 -7 -11 l-12 0 q-6 0 -11 1 l-4 1 l-9 -1 l-11 0 q-7 0 -11 1 l-52 0 l-8 -1 l-6 0 q-5 0 -12 -1 l-21 -1 l-52 -2 q-12 -3 -21 -3 q-2 0 -4 4 l-1 2 l0 1 l-2 4 q-1 2 -4 6 l-2 2 q-2 2 -3 3 l0 2 ZM52 89 q0 3 5 3 l4 0 q2 -1 6 -1 l20 -2 l6 -1 l35 0 q3 -2 6 -2 l43 0 q2 1 4 2 l3 4 l1 1 q1 1 2 2 q1 0 3 2 l3 3 l0 1 q4 5 7 5 l2 -2 l12 -7 q11 -6 11 -11 q0 -6 -3 -8 q-1 -2 -2 -2 l-3 -1 l-61 -2 q-3 0 -5 1 l-1 0 l-3 -1 q-2 -1 -3 -1 l-17 0 l-7 -1 l-10 1 l-26 -3 l-20 0 q-4 0 -6 5 l-1 6 q-1 3 -3 5 l-1 2 l-1 1 l0 1 ZM197.5 85 q-0.5 0 -0.5 -1 l1 0 q0 1 -0.5 1 ZM33 159 q0 1 -1 4 q-1 4 -2 5 q0 1 -1 2 l-1 1 q-1 1 -2 2 l0 2 q0 1 1 2 l2 0 l15 -1 l5 -1 l6 0 l16 1 l11 1 l2 -1 l3 0 l4 -1 l3 0 l5 1 q1 1 2 1 q3 0 8 -1 l10 0 q1 0 2 1 l65 0 l2 1 q2 1 3 1 l1 -1 l1 0 q2 0 4 3 l3 3 q1 2 3 2 q1 1 1 3 l1 1 l0 2 q1 4 4 5 q1 0 2 -2 l7 -7 l2 -3 l4 -2 l1 -1 l2 -1 q5 -4 5 -8 l0 -5 l-1 -4 l0 -1 l-40 0 l-3 -1 l-3 0 l-26 1 q-5 0 -10 -2 l-25 0 l-8 -1 l-20 0 q-13 0 -21 -1 q-6 0 -11 -1 q-4 0 -8 -1 l-1 0 l-4 -1 l-6 0 l-9 1 l-3 2 Z" /><glyph glyph-name="uni4E0A" unicode="&#x4e0a;" d="M15 1 q0 1 7 1 l13 0 l8 1 l7 0 q12 1 23 2 q12 1 24 1 l19 1 q3 1 3 6 l1 7 q1 0 1 2 l-1 1 l0 19 l1 26 l0 3 l-1 8 l0 6 l1 2 l0 26 l-1 1 l1 8 q0 1 1 2 q-1 6 -2 16 l-1 17 l0 7 q0 5 -1 7 q0 9 -2 15 q-1 0 -3 1 q-1 0 -2 1 q-3 2 -4 3 q1 5 7 9 q6 3 12 3 q3 -1 6 -3 l11 -4 q3 -2 5 -3 q0 -1 2 -2 q1 -2 2 -2 q0 -9 -6 -15 l-1 -3 q0 -2 -1 -6 l-1 -7 l0 -11 q0 -4 2 -7 l0 -3 q0 -1 -2 -3 l0 -10 q3 -2 6 -3 l7 0 q4 0 9 2 q3 1 7 4 l4 2 q2 1 4 1 q4 2 7 2 q4 0 9 -3 q2 -1 4 -3 l4 -3 q0 -12 -8 -12 l-6 0 q-1 1 -3 1 l-2 0 l-4 1 l-3 0 q-4 1 -7 1 l-16 0 q-11 -1 -12 -5 l0 -15 l1 -41 l0 -37 q0 -3 3 -5 q3 -2 8 -2 q1 0 8 1 l8 0 l16 1 l5 0 q5 1 9 1 q2 1 4 2 l5 3 q7 4 11 4 q1 0 2 -1 q1 0 2 -1 q1 -1 2 -1 l3 -3 q0 -1 2 -2 l3 -2 l2 -2 l7 -4 q5 -4 5 -11 q-2 -7 -8 -7 q-1 0 -3 1 l-8 1 q-3 0 -5 1 q-1 0 -2 1 l-3 2 l-2 0 q-9 0 -22 5 l-14 0 q-4 0 -13 1 l-13 0 q-8 1 -16 1 l-4 -1 q-3 0 -7 -1 l-10 0 q-3 -1 -5 -1 q-13 0 -23 -1 l-18 -4 l-8 -2 l-1 0 l-8 -2 l-4 0 q-8 -6 -18 -6 q-5 0 -8 4 l-4 6 q-3 4 -7 8 l0 1 ZM35 -15 q0 0 0 0 ZM132 40 l0 0 ZM128 91 q1 0 1 1 l0 1 l-1 0 l0 -2 Z" /><glyph glyph-name="uni4E0B" unicode="&#x4e0b;" d="M124 4 q2 6 2 12 l0 13 l1 23 l0 5 q-1 1 -1 2 l2 16 l0 48 l-1 6 l1 5 l0 15 l-1 15 l0 6 q-2 7 -6 7 q-4 0 -10 -1 l-11 -1 l-3 -1 q-3 -1 -4 -1 q-9 0 -17 -1 l-12 -3 q-6 0 -14 -4 q-9 -4 -13 -4 q-4 0 -6 1 q-1 0 -2 2 l-3 5 q0 2 -1 3 q-2 2 -5 5 q-3 3 -5 5 q0 3 3 3 l10 0 q6 0 11 -1 l4 -1 q15 0 20 2 l43 2 q1 0 3 -1 l5 -1 l5 0 l3 1 l2 0 q1 1 2 1 l33 0 q5 1 8 1 q10 1 34 1 l3 1 q8 0 20 8 l1 1 q1 0 5 -3 q3 -2 7 -6 l2 -2 l3 -2 q0 -1 1 -1 l2 -2 q4 -4 4 -9 q0 -1 -1 -2 q-1 -2 -2 -2 l-3 -2 l-2 -1 q-3 0 -9 1 l-5 2 l-5 0 q-1 0 -2 1 l-1 0 l-1 1 q-1 1 -2 1 q-5 0 -14 3 q-8 3 -13 3 l-40 0 q-5 0 -8 -1 q-4 -1 -4 -3 q0 -2 3 -3 l9 -2 q1 0 2 -1 l3 0 q3 -2 3 -4 l-1 -8 l-3 -3 q-4 -3 -4 -7 l1 -1 q1 0 1 -1 l-1 -1 l-1 -5 l0 -30 l1 -2 l0 -8 l-1 -6 q0 -4 1 -8 l0 -9 q1 -5 1 -8 l0 -11 q-1 -1 -1 -2 l2 -20 l0 -27 l-3 -6 l0 -3 l-2 -3 l-2 -4 l-1 -2 q-3 -5 -8 -5 l-2 0 q-1 0 -1 1 q-2 0 -3 2 l-6 12 l0 4 ZM160 134 q0 1 1 1 l1 1 q0 -1 1 -1 l6 0 q5 0 11 -1 q7 -1 15 -4 q8 -2 11 -9 q2 -6 2 -16 q0 -10 -10 -10 q-12 0 -15 4 q0 1 -1 2 l-2 8 q-1 2 -2 3 q0 1 -1 2 l-2 3 q-1 2 -1 3 l-5 5 q-4 4 -6 5 q-3 3 -3 4 Z" /><glyph glyph-name="uni4E0D" unicode="&#x4e0d;" d="M139 8 l-1 11 l1 15 l1 3 q-1 0 -1 2 l-1 38 l0 16 q-1 4 -3 4 q-1 0 -2 -1 q-1 -1 -2 -2 l-4 -5 q-5 -4 -11 -11 l-11 -10 q-1 -1 -3 -2 l-4 -3 q-3 -2 -7 -6 q-5 -4 -11 -11 q-3 -1 -6 -3 l-6 -3 q-2 -2 -7 -4 l-17 -8 l-11 -5 l-5 -3 q-3 -1 -5 -2 q-5 -2 -10 -2 q0 1 1 2 q1 0 3 1 l4 1 q2 1 3 2 l3 2 q1 1 2 2 l2 0 l1 1 l5 4 q9 6 13 9 q4 1 8 5 l11 10 q3 3 4 3 q3 0 6 4 q2 1 4 4 l2 2 l0 1 q1 0 1 1 q1 2 6 5 q1 1 2 1 q1 1 2 2 q2 1 3 3 q0 1 2 3 l6 6 q1 1 1 3 q3 1 5 4 q1 1 2 2 l2 3 q0 1 1 2 l2 1 q1 1 1 3 l10 9 l0 1 q0 2 3 5 q3 3 3 7 q0 3 -1 8 q-1 5 -1 8 l0 2 q1 1 2 1 q5 -2 9 -8 l1 0 q3 0 6 5 l4 9 q2 4 5 11 q3 7 3 8 q-2 3 -4 3 q-7 0 -18 -1 l-17 -2 q-11 0 -25 -1 l-26 -4 l-4 -1 q-6 -2 -10 -2 q-1 0 -2 1 q-1 1 -3 4 l-1 1 l-1 2 q-1 2 -2 3 q0 1 -2 2 q-1 2 -2 2 q-2 3 -2 4 l0 1 q0 1 1 1 l7 0 q5 1 7 1 q5 0 14 -1 q9 -1 13 -1 q3 0 8 1 q5 1 7 1 q2 0 7 -1 l8 0 q1 0 2 1 l12 0 q1 1 2 1 l3 0 q2 0 7 -1 l48 0 q7 0 12 2 l5 2 q2 1 4 2 l2 0 q2 1 2 2 l4 2 l2 2 q1 1 2 1 l5 0 q1 0 2 -1 q0 -1 3 -3 l6 -5 q6 -5 6 -10 l0 -3 q0 -2 -2 -2 q-2 0 -6 1 l-10 1 l-12 0 q-4 0 -4 1 l-18 -1 q-9 0 -13 -1 q-6 0 -6 -1 q0 -2 2 -4 q1 -1 2 -2 l1 -1 q3 0 7 -6 q3 -6 3 -8 q0 -4 -6 -7 l-3 -2 l-1 0 q-2 -1 -3 -2 q0 -1 -1 -3 l-2 -2 l-1 0 l-1 -2 l-2 -1 l-2 -3 l-2 -3 q-3 -4 -6 -6 l0 -1 l-1 -4 l0 -40 l-1 -4 l1 -19 l-1 -7 q0 -5 1 -14 q1 -9 1 -13 l0 -7 q0 -1 1 -2 l0 -2 l1 -6 l0 -6 q0 -2 -3 -6 l-1 -2 l-1 -1 q-1 -1 -1 -2 l-9 -6 q-2 0 -6 3 q-2 2 -3 5 l0 17 ZM204 74 q-1 2 -4 5 l-3 5 q-3 4 -7 7 l-6 5 q-6 5 -7 7 l3 0 q2 -1 5 -2 l16 -8 q2 -1 3 -2 q1 -1 6 -3 q4 -1 6 -3 q2 0 3 -1 q1 0 2 -1 l1 -1 l1 -1 l1 -1 q7 -3 10 -6 l1 -1 l3 -4 l5 -3 q2 -2 4 -3 q4 -4 4 -10 q0 -2 -2 -4 q0 -1 -1 -2 q0 -1 -1 -2 q-1 -2 -2 -3 q-1 -1 -1 -2 l-1 -2 l-2 -2 q-1 -3 -4 -5 q-4 -2 -8 -2 q-5 0 -9 9 q-1 3 -3 7 l-2 6 q0 1 -1 2 q-1 1 -1 2 q0 2 -4 9 l-2 5 q-2 3 -3 5 ZM143 80 q0 -1 1 -1 l0 1 l-1 0 Z" /><glyph glyph-name="uni4E16" unicode="&#x4e16;" d="M83 -9 l-2 1 q-2 0 -3 1 q-6 5 -12 15 l0 35 l-1 28 l0 4 q-1 6 -1 9 l0 5 q0 7 -5 7 q-3 0 -8 -1 l-16 -2 l-8 0 q-8 0 -8 11 l2 1 l15 0 l5 2 l18 0 q6 0 6 5 q-2 4 -2 9 l0 27 q0 3 -3 6 q-3 3 -3 6 q0 1 1 3 q2 1 4 2 q5 3 8 3 q1 0 3 -1 l4 -3 q2 -1 3 -1 q3 0 6 -2 q2 -2 2 -5 l0 -5 l-6 -21 q-2 -11 -2 -21 q0 -5 1 -5 l3 1 q1 1 2 1 q1 1 2 1 q1 0 5 1 l11 0 q2 0 2 1 l3 -1 q6 0 6 5 l0 3 l1 6 l0 11 q-1 1 -1 2 l1 6 l0 4 q0 3 -1 5 l0 20 q0 1 -1 3 l-1 2 q-1 2 -1 3 l0 1 q0 1 2 3 q2 2 4 2 q4 0 9 -2 l3 -1 l1 0 q3 -1 4 -1 q2 -2 4 -3 l4 -2 q3 -1 3 -5 q0 -1 -1 -3 q0 -1 -1 -2 l-2 -2 q-1 -1 -1 -3 l0 -2 l-1 -1 l-1 -2 q-3 -5 -3 -8 l0 -9 l-1 -6 l0 -2 q-1 -10 -1 -17 q0 -1 3 -3 q3 -1 4 -1 l5 0 l11 2 q3 1 5 1 l3 0 l1 1 l1 1 l0 30 l1 9 l-1 7 l0 13 q0 3 -1 5 q0 2 -2 3 l0 1 l-1 0 q0 1 -1 1 q-1 1 -1 3 q0 1 2 3 l3 2 q0 2 2 3 l2 0 q2 0 3 1 l8 -2 q5 -1 9 -3 q11 -5 11 -13 q-1 -4 -5 -10 l-3 -4 q-1 -3 -2 -5 q-4 -10 -4 -19 l0 -26 q0 -1 1 -1 l18 0 q2 1 5 3 q0 1 2 2 q1 1 2 2 q5 5 10 5 q4 0 11 -6 q8 -6 8 -11 q0 -6 -15 -6 l-37 0 q-1 0 -3 -2 l-1 -1 l-1 -12 l0 -5 q1 -2 1 -3 l0 -27 q0 -8 -3 -12 l-2 -2 l-1 -2 l-1 -2 l-1 -3 q-1 -2 -2 -3 l-2 -2 q-7 0 -9 7 l0 12 q-1 1 -3 2 l-26 0 q-1 -1 -2 -4 l-1 -9 q0 -1 -1 -3 q-1 -3 -3 -5 l-2 0 q-1 -1 -3 -2 l-3 -2 q-3 0 -5 4 q-2 3 -2 5 l0 41 q-1 5 -1 14 l0 14 q-2 2 -4 2 l-8 0 l-11 -3 l-8 0 q-1 0 -2 1 q-3 -4 -3 -11 q0 -2 -1 -6 l1 -25 l0 -22 q0 -5 2 -13 l2 -13 q0 -3 3 -7 l1 1 l4 0 l2 -1 l22 0 q0 1 1 1 q2 0 4 -1 l4 -2 q3 -1 5 -1 q2 0 3 1 l5 0 q0 1 1 1 l6 0 q1 -1 2 -1 q0 1 5 2 l8 0 q2 1 3 1 q1 1 2 1 l1 1 q2 0 3 1 l12 0 q3 1 7 2 l7 2 q8 2 14 2 q4 0 8 -2 q1 -1 3 -1 l4 -2 q4 -2 4 -6 q0 -7 -5 -8 q-8 -1 -20 -2 q-8 -1 -18 -1 l-12 0 l-35 -2 l-31 2 q-9 1 -15 1 l-8 0 ZM135 56 q2 -2 4 -2 l18 0 q1 0 3 1 q3 1 4 1 q2 0 3 3 l0 27 l-1 11 l0 4 l-2 1 l-21 0 q-8 0 -8 -3 q0 -3 -1 -8 l-1 -5 l1 -18 q0 -1 1 -5 l0 -7 ZM116 174 q0 -1 1 -1 q1 0 1 1 l-2 0 Z" /><glyph glyph-name="uni4E26" unicode="&#x4e26;" d="M24 3 q1 0 3 -1 l6 -2 q2 -1 5 -1 l3 1 l19 0 q9 -1 21 -1 q1 -1 5 -1 l3 0 l14 -1 q1 0 2 2 q0 2 1 6 l0 65 q-1 4 -1 5 q0 2 -1 2 l-1 0 q-8 -7 -11 -18 q-2 -5 -3 -11 l-1 -4 l0 -1 l-1 -5 q1 -1 1 -2 q0 -1 -1 -2 l-1 -1 l-1 0 l0 -2 l-1 -1 l0 -2 q0 -3 -1 -3 q-2 -2 -4 -2 l-3 -1 q-1 0 -4 2 q-4 2 -4 3 l1 9 l-2 8 l0 3 q0 5 -1 14 q-1 7 -2 9 l-4 11 q-2 6 -6 10 l0 1 q0 1 2 1 q0 -1 2 -2 l2 -2 q1 0 2 -1 q1 -1 3 -2 l1 -2 l12 -10 q3 -3 5 -7 l3 0 q2 1 5 3 q6 5 8 9 l2 1 l1 0 l1 1 q1 1 2 2 l0 6 l1 27 l-1 5 q-1 6 -6 6 q-1 -1 -4 -1 q-4 -1 -7 -1 l-12 -2 q-3 0 -8 -1 l-2 -1 l-1 0 l-13 -2 l-3 -1 q-2 -1 -3 -1 q-3 0 -5 1 q-1 0 -2 1 l0 6 q-2 5 -5 10 l-5 7 q0 1 2 1 l21 0 l8 1 l7 0 q7 0 18 -1 l18 -1 l1 0 q1 0 2 -1 l2 0 l1 -1 q2 0 3 1 l5 0 l15 -1 l5 0 l0 1 q1 0 1 -1 l2 0 q2 0 5 2 q2 3 2 5 q1 3 2 6 l4 11 l0 5 l2 3 l2 3 q0 3 1 6 q1 1 1 2 q1 2 1 3 q3 7 3 11 q0 3 -1 5 q-1 1 -2 2 l-1 2 q-1 1 -1 3 q0 3 3 3 l15 0 l1 -1 l2 0 q5 -3 9 -5 q5 -3 8 -6 q9 -8 9 -17 q-3 -4 -8 -6 l-1 0 q-3 0 -7 -3 l-5 -5 q-1 -1 -3 -2 l-5 -5 q0 -1 -1 -1 l0 -1 q-1 -1 -2 -1 q-4 -4 -6 -6 q-6 -7 -6 -11 q0 -1 2 -2 q1 0 4 -1 l12 0 l2 1 l1 0 l11 -1 q1 0 2 -1 l1 -1 l1 2 q6 2 14 5 q1 1 2 1 l0 1 q2 1 3 1 q4 0 7 -4 q1 -1 2 -3 q1 -1 2 -2 q0 -7 -4 -10 q-2 -1 -4 -2 l-3 0 l-9 1 l-9 0 l-16 2 l-9 0 q-1 0 -1 -2 q0 -1 1 -3 l0 -5 l-2 -2 l0 -1 l-1 -1 q-1 -1 -1 -2 q-2 -5 -2 -12 l0 -12 q1 -5 1 -12 l0 -13 q1 -7 1 -12 q0 -6 1 -12 q3 0 5 2 l4 4 q0 3 2 7 q1 1 2 4 l3 4 q4 6 6 10 q2 6 2 11 q0 6 -3 6 l-4 0 q-2 1 -3 3 q0 2 1 2 l13 8 l6 1 l3 -1 q3 -2 4 -3 l5 -5 q1 -1 2 -2 q5 -6 5 -11 q0 -3 -1 -4 q-6 -5 -15 -12 l-14 -13 l-4 -5 l-5 -4 q-1 -1 -3 -2 l-2 -2 l-3 -1 q-6 -3 -6 -7 q-1 -7 -1 -17 q0 -16 5 -16 l3 0 l4 1 l7 0 l8 -1 q17 0 22 5 q2 0 6 2 q3 3 6 3 q5 0 11 -6 q6 -6 6 -11 q0 -10 -12 -10 q-3 0 -8 1 l-9 1 q-14 2 -30 3 q-14 1 -29 1 l-24 -1 l-14 0 q-6 0 -15 -3 q-4 -1 -11 -1 l-12 0 q-2 0 -5 -1 l-2 0 l-3 -1 q-5 0 -11 -1 l-18 -4 q-6 -1 -10 -1 q-1 0 -3 2 q-1 2 -2 5 l-5 11 q-1 2 -2 3 l-1 2 l-1 1 q-3 3 -3 6 l7 0 ZM123 -2 q8 -2 20 -2 q7 0 7 10 l1 19 q-1 0 -1 7 l0 12 l-1 6 l1 27 l0 7 q-1 4 -1 7 q0 38 -4 38 l-5 -1 l-6 1 l-4 0 q-4 -1 -4 -3 l-5 -21 q-1 -5 -1 -8 q1 -7 1 -20 l1 -12 l-1 -6 l1 -56 l1 -5 ZM81 207 l1 1 l10 0 q1 0 4 -2 l7 -5 q5 -4 7 -5 q4 -2 6 -2 q2 0 4 1 l3 2 l3 1 l3 2 l2 1 l1 1 q2 1 4 1 q2 0 2 -2 q0 -1 -5 -6 l-5 -5 q-2 -3 -4 -7 l-1 -2 l-2 -5 q-3 -5 -5 -8 l-4 -9 q-2 -4 -6 -6 l-3 0 l-2 -1 l-1 0 q-6 0 -8 8 q-1 3 -1 7 l-1 7 q0 3 -2 9 q-2 7 -2 9 l0 3 q-1 1 -1 2 l-1 1 q-3 5 -3 7 l0 2 Z" /><glyph glyph-name="uni4E2D" unicode="&#x4e2d;" d="M121 26 q-1 2 -1 5 l0 17 l1 6 l0 20 l1 2 q0 4 -3 5 l-28 -1 l-24 0 q-1 -1 -2 -2 l0 -6 q0 -2 -1 -3 q0 -6 -2 -13 q-3 -9 -8 -9 q-8 0 -12 9 l0 33 l1 48 q0 6 -1 9 q-2 5 -5 6 l-3 1 q-1 1 -1 2 q2 2 10 4 l5 0 l4 1 q2 0 5 -1 l6 -3 q3 0 5 -4 q2 -4 5 -5 l44 1 q4 1 4 5 l0 2 l-1 1 l0 1 l1 1 l0 3 l1 7 l0 4 l-1 5 l0 7 q0 3 -1 5 q-1 6 -6 9 q0 2 1 2 l6 0 l12 4 q4 1 6 1 q2 0 5 -1 q3 -1 6 -3 q9 -5 9 -12 q0 -2 -1 -4 q0 -1 -1 -2 l-3 -2 q-2 -2 -2 -3 q-3 -4 -5 -10 l0 -2 l-2 -8 l1 -4 q0 -1 1 -2 q3 -2 11 -2 l5 0 q1 1 4 1 l16 -1 q5 0 11 7 l0 1 l1 0 q0 1 1 2 q1 1 2 2 q2 2 5 2 l4 0 l7 -5 q4 -2 7 -4 q7 -5 9 -12 q0 -3 -2 -4 l-2 -2 q-3 -3 -4 -11 l0 -18 q0 -11 -1 -16 q-2 -8 -6 -8 q-4 0 -6 -1 q0 -1 -1 -1 q0 -1 -1 -2 l0 -2 q-1 0 -2 -1 q-1 -1 -4 -1 q-4 0 -6 1 q-1 1 -2 2 l-5 4 q-2 2 -4 2 q-2 0 -3 -1 l-34 -1 l-2 -3 l0 -11 q-1 -2 -1 -3 l1 -8 l0 -9 q-1 -5 -1 -7 l0 -46 l-4 -8 q0 -2 -3 -6 q-1 -1 -2 -2 q-2 -1 -3 -1 q-9 4 -11 18 l0 29 ZM66 94 l0 -2 q1 -2 2 -3 q2 -3 11 -3 l23 2 l10 0 q5 1 9 2 l0 32 q0 12 -2 15 q-1 3 -7 3 l-8 0 q-6 -1 -15 -1 l-16 0 q-4 -1 -6 -10 l0 -25 q0 -3 -1 -4 q0 -3 -1 -3 l1 -3 ZM169 90 l7 0 q5 1 7 1 q8 2 8 8 l0 21 l2 3 l-2 0 q0 1 1 2 l0 1 l-1 4 l0 5 q0 5 -5 6 l-10 1 l-2 0 l-4 -1 l-10 1 l-7 0 q-4 -1 -6 -1 l0 -1 q-1 -8 -2 -20 l0 -20 q0 -7 3 -9 l21 -1 Z" /><glyph glyph-name="uni4E45" unicode="&#x4e45;" d="M1 -28 q2 0 2 -1 q-1 -2 -3 -2 l-3 0 q0 3 4 3 ZM10 -23 q4 4 6 5 l9 5 q3 2 6 6 q1 1 3 3 l3 3 q2 1 4 4 q1 0 3 1 l2 2 q6 5 10 10 q3 6 7 8 l3 1 q1 1 2 3 l7 11 l2 2 q1 1 2 2 q2 2 3 3 q1 1 1 2 l8 12 q6 8 9 15 l3 7 q1 1 2 3 l2 2 q3 4 4 6 l1 1 q0 1 1 3 l1 3 l1 1 q0 1 2 2 l1 2 q1 2 3 7 q2 4 3 6 q4 6 6 13 l6 18 l1 1 q1 3 1 5 q0 1 -1 1 q-10 0 -17 -1 q-2 -1 -4 -1 l-4 -1 q-4 0 -9 -2 q-1 0 -2 -1 l-8 0 q-5 -1 -7 -8 q-3 -6 -8 -13 l-8 -13 q-1 -1 -2 -3 l-1 -2 l-1 -2 q0 -1 -1 -2 q0 -1 -1 -2 l-5 -4 q-1 -1 -1 -2 q-2 -4 -6 -9 l-7 -7 q-8 -10 -19 -19 q-12 -9 -16 -9 l-1 0 q1 4 5 7 q1 2 3 3 l3 3 l1 0 l8 9 l1 2 q1 2 2 3 q4 5 7 8 q3 1 5 6 l1 4 q2 3 4 5 q1 0 2 3 l1 2 q0 1 1 2 q0 2 1 2 q2 5 6 10 q1 2 3 4 l3 3 q0 3 1 5 l1 1 l1 0 q0 1 1 2 l1 4 q1 3 2 7 q2 5 3 7 l1 4 q2 5 4 12 l0 4 l2 7 l0 3 l1 3 q0 7 -3 11 q0 1 -1 2 q-1 0 -1 1 q0 3 5 7 q4 4 6 4 q5 0 9 -3 l1 0 q0 -1 1 -1 q1 -1 2 -1 q2 -1 4 -2 q10 -3 10 -9 q0 -2 -1 -3 l-2 -3 l-1 -2 l-1 -1 q0 -1 -1 -1 q-3 -4 -3 -6 q0 -2 -1 -4 l-4 -4 q-4 -7 -4 -9 q0 -2 1 -3 l3 0 q4 0 13 1 q9 2 14 2 q3 0 8 2 q6 2 8 4 l2 3 l2 3 l0 1 q0 1 1 2 q1 1 3 2 l1 0 l0 1 q2 1 3 1 q3 0 6 -3 l2 -3 l1 -1 l3 -3 q1 -1 2 -2 q2 -1 3 -1 q7 -5 7 -17 q0 -3 -3 -4 l-3 -1 q-2 -1 -3 -1 q-5 -2 -8 -8 q-1 -2 -1 -3 l-3 -6 q-1 -1 -1 -2 q0 -1 -2 -3 l-2 -2 l0 -2 l-3 -5 l-3 -4 l0 -6 q0 -2 -1 -3 l-2 -3 l1 -1 q1 -2 2 -2 q1 -1 1 -2 l1 -5 q0 -1 1 -1 l0 -3 q4 -13 18 -28 q12 -12 27 -22 l1 -3 q1 0 1 -1 l1 -2 q0 -1 2 -1 l3 -2 q5 -2 7 -4 l1 -3 q0 -2 2 -2 q1 0 1 1 q1 2 2 2 q1 0 3 -2 l1 -1 l1 0 q4 -3 10 -5 q2 -1 4 -2 l6 -2 l6 -4 l8 -3 l1 0 q4 -1 7 -2 q-1 -1 -2 -2 l-6 0 q-1 0 -4 -1 l-4 -1 q-2 0 -5 -1 l-5 0 q-6 0 -10 -1 l-3 -2 l-4 -3 q-4 -2 -7 -2 l-3 0 q-1 1 -2 2 l-2 1 q-1 1 -2 1 q-1 1 -3 2 l-4 0 q-3 2 -5 4 l-9 9 q-2 3 -6 6 l-2 2 l-3 2 l-6 6 q-3 4 -5 6 q-5 4 -11 16 q-6 12 -6 21 q0 4 2 4 l2 0 q2 0 2 2 l0 1 l-1 1 l-6 0 l-1 2 q-1 2 -1 3 l0 6 q0 1 1 2 q0 6 -3 9 q-1 0 -4 -2 q-2 -3 -5 -7 q-2 -3 -4 -8 q-1 -1 -2 -3 l-1 -2 l-12 -14 q0 -1 -1 -3 l-1 -3 l0 -1 l-1 -1 q-23 -26 -48 -46 l-7 -5 l-1 -1 q-1 0 -1 -1 l-7 -5 q-3 -2 -10 -6 l-1 -1 l-1 0 l-17 -12 q-7 -3 -10 -3 q-2 0 -2 1 l4 3 ZM244 3 q-1 0 -1 -1 l1 0 l0 1 ZM210 7 q-1 0 -1 -1 l0 -1 l4 0 q0 2 -3 2 ZM137 101 l3 0 q2 -1 3 -1 l0 1 q-1 0 -3 2 q-2 1 -3 1 l0 -3 Z" /><glyph glyph-name="uni4E4B" unicode="&#x4e4b;" d="M86 -7 l-1 1 l0 1 l-2 0 q-2 1 -4 3 q-7 5 -13 14 l-7 12 q-2 4 -4 6 q-1 2 -3 2 l-2 -1 l-2 -1 q-1 0 -2 -2 l-2 -2 q-3 -2 -6 -6 l-3 -3 q-2 -2 -4 -3 q-1 -2 -4 -5 q-2 -1 -3 -2 l-1 -1 q-1 -1 -3 -1 q-2 0 -4 1 q-1 1 -2 2 l-2 2 q-1 1 -2 2 l-3 1 q-1 1 -1 2 q-1 1 -1 3 q0 1 4 3 l6 3 q1 0 2 2 l7 8 l4 5 q1 2 3 4 q0 1 1 2 l2 1 q4 5 5 8 l2 2 q1 0 1 1 q2 2 3 3 q1 1 2 2 l2 3 q0 1 1 2 q1 1 2 1 l2 0 l2 -1 l9 -8 l3 -1 l1 0 q1 0 3 1 q2 1 5 4 l3 2 q1 1 2 2 l3 2 l2 2 q1 2 2 2 l8 6 q4 3 8 7 l2 1 l1 0 l1 1 q4 2 6 5 q5 3 8 7 l2 1 l1 1 q1 1 1 2 l14 9 q0 1 3 3 l2 2 q3 1 5 3 q1 1 3 2 l6 7 q2 2 4 3 l6 5 q2 2 3 3 l1 1 q0 1 -1 2 l-1 2 q-3 0 -4 -1 l-4 -1 l-21 0 q-2 -2 -4 -2 q-1 -1 -3 -1 l-6 0 q-7 -3 -17 -5 l-21 -2 l-6 -1 l-3 0 q-1 0 -4 -2 q-2 -1 -3 -1 q-2 -1 -7 -2 q-2 -1 -4 -1 l-3 0 q-7 0 -10 6 l-3 5 q-1 4 -3 6 l-5 6 q0 1 1 2 l9 0 l17 -2 l8 0 l21 1 q22 0 23 6 l2 10 l1 6 q0 3 -1 9 l0 4 l-1 2 l-6 6 l0 2 q0 3 7 8 q7 5 9 5 q2 0 4 -2 l4 -1 l0 -1 l3 -1 q1 -1 3 -2 q1 0 2 -1 l3 -1 q6 -4 6 -10 l-1 -2 l0 -3 l-9 -12 q-1 -3 -1 -7 l0 -6 q0 -5 5 -7 l9 0 l26 1 q4 1 7 4 q2 3 6 8 q7 10 11 10 q1 0 2 -2 l5 -6 q1 -2 2 -2 q11 -11 11 -19 q0 -6 -4 -9 q-3 -1 -8 -2 q-4 0 -10 -3 l-3 -1 l0 -1 l-1 0 q-3 -2 -4 -2 q-1 0 -8 -4 q-10 -5 -16 -9 q-1 0 -2 -1 l-2 -2 l-3 -1 l-3 -2 q-4 -2 -6 -3 q-1 0 -2 -2 l-2 -1 l-8 -5 l-1 -1 q-1 0 -1 -1 q-5 -3 -9 -5 l-1 -1 l-7 -4 l-2 -1 l-2 -1 l-1 -2 q-2 -1 -3 -2 l-9 -3 l-3 -2 l-2 -3 q-3 -1 -8 -4 l-7 -3 q-8 -5 -12 -11 q-3 0 -7 -3 q-4 -4 -4 -9 q0 -6 1 -8 l8 -12 q5 -8 9 -10 l10 -3 q6 -1 10 -4 l10 0 l19 -1 l34 0 q6 0 14 1 l12 2 q1 0 1 1 q6 2 13 4 q3 0 7 1 l7 2 q1 0 6 1 q4 1 6 2 l7 0 l3 1 l3 0 q7 2 10 2 q1 0 1 -2 q0 -1 -2 -2 l-2 -1 q-1 -1 -2 -1 l-4 -3 l-3 -1 l-8 -5 q-4 -3 -8 -5 q-8 -5 -14 -12 l-1 -2 q-1 -1 -1 -2 l-2 -4 q-2 -6 -25 -6 l-15 0 l-3 1 l-3 0 l0 -1 l-11 2 l-2 0 q0 -1 1 -1 l0 -1 l-1 0 l-2 -1 l-11 0 q-1 0 -2 1 l-7 0 q-2 0 -4 1 q-15 3 -21 5 q-3 1 -11 4 l-9 7 ZM129 150 q0 1 0 0 Z" /><glyph glyph-name="uni4E5D" unicode="&#x4e5d;" d="M4 -30 q2 2 4 4 l3 1 l7 5 l7 5 l4 3 l13 9 q6 4 10 9 l5 5 l5 5 q4 3 9 12 l3 4 l0 1 l1 1 q1 3 2 3 q7 9 12 24 q2 6 4 13 l4 15 l1 5 l3 13 q2 7 2 11 q0 5 -2 5 q-1 0 -2 -1 l-1 0 q-2 0 -4 -1 q-3 0 -6 -2 q-5 -1 -11 -3 l-4 -2 q0 -1 -1 -1 q-1 -1 -2 -1 q-4 -2 -7 -2 q-3 0 -3 3 l0 3 q0 2 -1 3 q0 2 -3 7 q-4 4 -4 7 l4 1 q3 2 7 2 q4 2 10 2 l8 1 l2 0 l9 2 l4 1 q3 0 5 1 q7 2 9 4 q1 0 1 3 l1 5 l2 10 l0 6 q-1 3 -1 5 q0 2 -1 3 q2 4 2 13 l-1 5 l0 1 l-2 2 q-1 1 -2 1 l0 2 l-2 3 q0 2 -1 3 l0 4 l1 1 q2 1 5 1 q1 1 3 1 l7 1 l2 0 q2 0 3 1 l1 0 l4 -2 l6 -4 q1 -2 4 -3 l6 -2 q7 -2 7 -6 q0 -3 -4 -6 l-3 -3 q-3 -2 -4 -4 q-6 -11 -6 -29 l0 -2 l1 -2 q1 -2 5 -2 q3 0 7 1 q4 2 5 2 l3 0 l4 1 l2 1 q0 1 1 3 q1 1 3 3 l1 1 q1 1 2 2 l7 8 q1 2 2 3 q1 1 2 1 q3 0 8 -4 l8 -6 q6 -5 6 -10 l-11 -12 q-4 -4 -6 -6 q-2 -3 -3 -12 l-1 -3 l-1 -1 q-1 -2 -1 -4 l0 -1 q0 -1 -1 -3 l-1 -3 q-1 -1 -1 -2 l0 -5 q0 -3 -1 -8 q-2 -5 -2 -7 l0 -13 q-1 -7 -1 -13 q-1 -13 -1 -25 q1 -2 1 -4 q0 -12 5 -16 q2 -2 5 -2 l12 0 l8 -1 l12 0 q7 0 12 2 q3 1 5 6 q1 1 1 2 l4 10 l1 4 q2 4 3 7 q0 7 1 12 q1 5 2 5 l1 0 l1 -1 q1 -2 1 -3 l-2 -13 l1 -13 l0 -4 l1 -3 l1 -3 q1 -1 1 -2 q0 -3 1 -5 q1 -1 2 -2 l3 -5 q1 -1 1 -2 q1 -2 1 -5 q0 -4 -4 -9 q-5 -5 -9 -5 l-32 0 q-4 -1 -6 -1 l-3 1 q-1 0 -2 -1 l-27 0 q-1 1 -2 1 l-6 3 q-5 3 -9 9 l1 1 q0 1 -1 1 q-1 1 -2 2 q-1 1 -1 2 q-1 1 -1 2 q0 2 -1 7 l0 21 q0 3 1 3 l0 18 q0 1 1 4 l0 4 l-1 2 l0 3 l1 8 l1 4 l0 8 q0 2 1 8 q1 7 1 10 q0 5 1 12 q0 9 1 13 l0 5 q-1 2 -3 2 q-5 0 -7 -1 l-6 -2 q-2 0 -4 -1 q-9 -4 -10 -10 l-5 -20 q-1 -5 -2 -9 l-1 -2 l0 -2 q-1 -1 -1 -2 q0 -1 -1 -2 l0 -2 q-1 -5 -3 -8 l-1 -1 l-2 -9 q0 -3 -1 -5 q0 -1 -1 -2 q0 -1 -1 -2 l0 -1 q-1 0 -1 -1 q0 -1 -1 -1 q-1 -2 -1 -5 q-2 -6 -8 -13 l-9 -13 q-4 -6 -8 -9 q-3 -4 -8 -8 l-7 -5 q-1 -1 -2 -2 l-9 -7 q-6 -6 -9 -6 q-7 -6 -9 -6 q-1 0 -3 -1 l-7 -5 q-1 -1 -2 -2 q-3 -2 -5 -2 l-2 -2 q-1 -3 -2 -3 q-2 -1 -6 -2 q-4 -2 -6 -2 q-3 0 -3 3 Z" /><glyph glyph-name="uni4E8C" unicode="&#x4e8c;" d="M13 19 q0 2 1 2 l18 0 l17 1 l37 0 l27 2 l12 0 l34 2 l6 1 l25 0 q10 1 15 4 l1 1 l4 3 q7 4 10 4 q3 0 6 -3 q1 -1 3 -3 l2 -3 l1 0 l4 -3 l5 -4 q1 -1 5 -5 l2 -4 q2 -2 2 -3 l0 -2 q0 -4 -5 -7 q-5 -2 -12 -2 q-2 0 -9 2 q-6 3 -9 3 q-19 4 -39 4 q-8 1 -19 2 l-28 0 l-15 -2 l-9 0 l-12 -2 q-8 -1 -12 -1 l-5 -1 q-1 -1 -3 -1 l-7 -2 l-3 0 q-5 -2 -13 -4 l-14 -4 l-1 0 q-2 0 -4 3 q-2 1 -3 4 l-2 2 q0 1 -1 2 l-11 12 q-1 1 -1 2 ZM58 150 q-3 7 -8 13 l-7 5 q-4 3 -4 4 q0 3 3 3 l29 0 q16 0 29 1 l11 0 l24 2 l21 0 q5 2 14 8 l6 3 q3 2 6 2 q5 0 10 -5 l9 -8 q6 -6 6 -10 l0 -2 q0 -8 -11 -8 l-9 0 l-12 2 l-26 0 q-4 1 -10 1 q-5 -1 -13 -1 l-4 0 l-7 -1 l-7 0 l-25 -4 l-15 -5 q-1 0 -3 -1 l-4 0 q-2 1 -3 1 Z" /><glyph glyph-name="uni4E94" unicode="&#x4e94;" d="M10 0 l1 1 l2 0 q11 -2 21 -2 l36 1 q15 0 19 7 q2 3 3 8 l4 15 q1 5 3 11 l3 14 l2 7 q1 6 1 10 q0 7 -6 12 q-6 1 -17 1 l-5 0 l-5 -1 q-1 -1 -2 -1 q-3 0 -6 1 l-7 0 l-1 2 q-1 1 -2 2 q0 1 -1 2 l-2 4 q-1 2 -2 3 l-4 2 q-3 2 -3 4 q0 3 3 3 q1 0 3 -1 l2 -1 l13 -1 l14 0 l11 -2 l12 1 q8 0 12 7 q2 5 3 14 q3 11 4 19 q0 5 2 13 q2 8 2 13 q0 4 -4 6 q-2 1 -4 1 l-3 0 q-5 0 -13 -1 l-16 -2 l-2 0 l-2 -1 l-9 0 l-10 -2 q-3 -1 -5 -1 q-4 0 -9 6 l-2 3 q-1 1 -2 2 q-2 3 -4 4 q-1 1 -3 3 l-1 1 l-2 1 q-4 4 -4 7 q0 2 2 3 l6 0 l8 -3 q5 -1 13 -1 l13 0 l48 -3 l12 0 l60 1 q5 0 13 7 q4 4 5 5 q3 2 6 2 q3 0 7 -4 q4 -4 11 -11 l5 -6 l2 -3 q0 -2 -1 -3 q-1 -1 -3 -1 l-45 0 q-4 -1 -9 -1 l-32 0 l-2 -1 q0 -2 1 -3 q1 -1 2 -3 l1 -2 q1 -1 1 -2 q0 -3 -2 -7 l-2 -2 q-1 -2 -1 -4 q-3 -8 -6 -19 l0 -3 l-1 -4 l0 -2 l-1 -1 l0 -5 l-3 -7 l0 -2 q-1 -3 -1 -5 q0 -3 2 -4 l21 0 q1 0 2 1 l6 4 l2 1 q1 0 2 2 l2 2 q1 0 2 1 l1 2 q2 1 3 1 l10 -5 l7 -1 q4 -1 4 -4 q0 -1 -1 -3 l-1 -3 q-3 -5 -3 -7 q-1 -7 -3 -17 l0 -7 q-1 -1 -1 -2 l-1 -9 l-1 -3 l0 -4 q-1 0 -1 -4 l-1 -8 q-1 -6 -1 -8 l-3 -12 l0 -9 q0 -5 4 -5 q17 0 29 7 q1 0 3 2 l3 2 q4 3 6 3 q2 0 7 -5 q5 -4 7 -4 q13 -9 13 -20 q0 -3 -3 -5 q-2 0 -4 1 l-9 1 l-32 3 l-6 0 q-4 1 -9 1 l-18 0 q-4 0 -8 1 l-8 0 q-4 0 -8 -2 l-31 0 l-5 -1 l-12 0 l-7 -2 l-16 0 l-10 -2 q-3 -1 -5 -1 l-6 0 l-12 -4 l-6 0 q-4 0 -9 2 l-2 3 l-3 3 l-6 4 q-1 1 -2 2 q-3 2 -5 4 q-2 2 -2 3 ZM110 5 q0 -1 1 -2 q1 -1 2 -1 l36 0 q3 1 5 1 q3 1 3 2 l1 5 q1 3 3 5 l0 28 l1 0 l0 6 q1 6 1 11 l0 2 l1 7 q1 3 1 5 l0 2 l-1 3 q-1 4 -3 5 q-4 0 -9 1 q-6 1 -9 1 q-14 0 -16 -12 l-5 -18 l-1 -3 q-2 -4 -2 -8 l-3 -10 l-1 -2 q0 -3 -1 -6 l-1 -7 q-3 -9 -3 -14 l0 -1 Z" /><glyph glyph-name="uni4EA4" unicode="&#x4ea4;" d="M29 -23 q1 1 4 2 l10 5 l3 2 q1 0 3 1 l4 3 l7 3 l6 5 l4 3 q4 2 5 5 q3 0 8 6 l8 10 l9 8 l2 3 q1 1 1 2 l3 5 l2 1 q1 1 2 2 q1 2 3 4 q3 4 3 9 l0 2 l-4 10 q-1 3 -2 5 l-1 2 q-1 3 -2 4 q-2 5 -5 5 q-1 0 -3 -1 q-2 -2 -3 -2 l-1 -1 q-1 0 -2 -1 l-6 -5 q-1 -1 -2 -2 l-2 -2 l-12 12 q0 2 3 3 l3 1 l2 0 q3 2 8 4 l7 3 q5 2 9 10 q0 1 1 5 l2 4 q4 0 8 -3 q4 -4 4 -6 l0 -3 l-1 -2 l0 -5 q0 -5 3 -13 q3 -10 7 -10 q5 4 9 11 l5 10 q1 2 2 3 q0 3 1 6 l3 6 q2 7 2 11 l0 3 l-2 5 q-1 1 -1 2 q0 1 2 2 l3 2 q4 2 6 2 q1 0 4 -3 l3 -3 q1 -2 2 -3 q1 -1 2 -1 l3 -2 l2 -2 q7 -6 7 -13 q0 -2 -2 -4 q0 -4 -6 -9 l-2 -1 l-1 -1 q-1 -1 -2 -2 q-3 -2 -3 -4 q-1 -2 -3 -4 l-6 -6 l-1 -2 q0 -1 -1 -2 l-2 -5 q0 -1 -1 -1 l-7 -10 q0 -3 4 -5 l4 -2 q2 -1 3 -2 l4 -3 l4 -2 q3 -2 4 -3 q9 -5 18 -7 q1 0 3 -1 l1 -1 q1 -1 2 -1 q3 0 6 -1 l2 0 q2 -1 3 -2 q3 0 8 -1 q5 -1 7 -2 l10 -3 q0 -1 3 -1 l2 0 l3 -1 q8 0 9 -3 l17 0 q4 0 6 -1 q3 0 3 -1 q0 -2 -4 -3 q-4 -2 -5 -2 l-4 0 l-4 -2 l-2 0 q-4 0 -5 -1 q-1 -1 -2 -2 l-1 -1 l-1 -1 q-1 0 -3 -2 l-3 -4 q-1 -1 -1 -2 q-6 -8 -10 -8 q-7 0 -14 3 q-2 1 -5 3 l-6 3 l-8 3 q-4 2 -7 3 q-2 2 -5 4 q-1 0 -2 1 q-1 0 -3 1 q-2 1 -2 2 q-2 0 -3 1 q-3 2 -5 3 l-3 3 q-2 1 -3 2 q-4 3 -7 6 l-8 9 q-5 5 -9 7 q-3 0 -5 -1 q-2 -3 -5 -7 l-4 -3 l0 -1 l-1 -1 q-6 -7 -10 -10 q-5 -5 -13 -11 q-3 -2 -5 -4 l-5 -3 l-4 -2 l-8 -4 q-5 -3 -8 -4 l-3 -2 l-4 -2 l-3 -2 l-3 -2 q-3 0 -6 -3 l-3 -2 l-1 -1 q-1 0 -2 -2 l-2 -1 q-4 -3 -11 -4 l-5 0 q-3 0 -5 -1 l-2 0 l-10 -3 l-2 -1 l-2 -1 q-4 -2 -7 -2 q0 5 5 6 q0 1 2 1 l4 1 q2 1 3 1 l5 3 q2 1 3 2 l2 1 q4 5 8 5 l2 -1 ZM160.5 19 q-0.5 0 -0.5 -1 l0 -1 q1 0 1 1 q0 1 -0.5 1 ZM94 156 q0 1 -2 3 q-1 1 -2 1 l-1 0 q-10 -3 -21 -4 q-3 -1 -8 -3 l-8 -3 q-9 -3 -14 -3 q-4 0 -7 5 q-2 3 -4 8 l0 1 q0 3 -5 8 l0 1 l1 2 l41 1 l47 0 q9 0 9 12 q0 12 -1 17 q-2 9 -8 14 q0 2 2 3 q1 1 3 2 q5 3 7 3 q10 0 22 -7 l2 -1 l2 -2 q6 -3 6 -6 l0 -6 q-1 -4 -3 -5 q-3 0 -5 -6 q-2 -5 -2 -11 q0 -3 3 -6 l8 0 l7 2 l4 0 l4 -1 l11 0 l11 1 q3 0 7 3 q2 1 6 5 q7 6 11 6 q2 -2 6 -5 l4 -2 q2 -1 3 -3 q7 -6 7 -13 q1 0 1 -1 q0 -1 -5 -3 q-4 -3 -9 -3 q-1 0 -3 1 q-2 1 -3 1 q-10 2 -19 2 l-2 1 l-6 1 q-8 1 -10 1 l-16 -1 l-18 0 l-14 1 l-3 0 q-3 0 -5 -1 q-2 0 -3 -1 l-18 -2 q-2 0 -2 -3 q4 -5 8 -10 l2 -3 q2 -2 3 -3 l3 -2 q2 -2 2 -4 q0 -4 -6 -7 l-5 -2 q-2 -1 -3 -1 q-1 -1 -2 -1 q0 -1 -3 -3 l-2 -1 l-14 -10 q-1 0 -2 -1 q-1 0 -2 -1 q-1 -1 -1 -2 l-3 0 l-2 -2 l-2 -1 l-1 -1 q-5 -4 -11 -7 l-7 -4 q-1 -1 -2 -1 q-1 -1 -2 -1 l-9 -5 l-11 -6 q-12 -5 -19 -5 q0 3 8 7 l13 6 q3 1 6 4 l3 2 q1 2 2 3 l12 9 q3 1 7 6 l1 0 l1 1 q1 1 1 2 q2 2 3 2 q1 1 3 2 l0 1 l1 0 l5 7 l5 5 q5 5 7 9 q0 1 1 4 l4 8 l0 2 ZM189 120 q0 1 1 1 l3 0 q0 2 -4 3 l-3 1 q-1 0 -2 1 l-2 2 q-2 1 -3 2 q-1 1 -1 2 l0 1 q-6 3 -12 8 l-5 4 l-7 5 l-5 2 l-2 1 q0 2 1 3 l2 0 q13 0 19 -3 q6 0 13 -2 l22 -7 q5 -2 9 -4 q10 -5 10 -16 q0 -10 -7 -14 q-1 0 -2 -1 q-1 0 -1 -1 l-1 0 l-1 -1 l-1 0 q-3 0 -9 3 q-6 3 -7 4 l0 1 q0 1 -2 2 q-1 1 -2 1 q-1 1 -1 2 ZM28 165 q-1 0 -1 -1 q0 -1 1 -1 q1 0 1 1 q0 1 -1 1 Z" /><glyph glyph-name="uni4EAE" unicode="&#x4eae;" d="M40 -29 q2 1 4 2 l4 3 l1 0 l3 2 q0 1 2 2 l5 4 l2 1 q3 3 5 6 q3 1 6 5 q1 2 2 4 l2 3 q5 8 7 15 q3 9 3 20 q0 1 1 1 l1 2 q1 1 1 2 q0 5 -3 9 l-1 1 q-1 1 -1 2 q-1 1 -1 2 q0 1 1 2 q1 1 2 2 l6 2 l1 1 l2 2 q3 2 5 2 q0 -1 2 -2 l1 0 q0 -1 1 -1 l2 -1 q5 -3 5 -7 q0 -3 -2 -7 l-1 -2 l-2 -2 q-1 -3 -2 -7 l0 -3 q0 -2 -1 -4 l-1 -7 q-1 -4 -2 -6 q-2 -2 -3 -5 l-5 -10 q-1 -3 -2 -5 q-1 -1 -4 -4 q-4 -3 -5 -4 l-7 -5 q-4 -2 -8 -4 q-1 0 -4 -2 l-6 -4 q-10 -6 -16 -6 l0 1 ZM187 -16 q-1 0 -2 1 l-1 0 q-1 1 -3 1 q-3 0 -6 -1 l-17 0 q-8 1 -12 4 q-10 5 -10 22 l0 2 l1 1 l-1 1 l0 3 l1 4 q-2 3 -2 9 l0 4 q1 2 2 5 l0 2 l-2 4 l0 7 q0 4 -7 11 q0 2 3 3 l4 1 q1 0 1 1 l2 1 q1 1 2 1 q1 0 2 -1 l2 -1 l3 0 l3 -1 q4 -2 4 -5 q0 -3 -2 -7 l-1 -3 l0 -6 q0 -1 -1 -2 l-2 -2 q-1 -2 -1 -3 l0 -8 l-1 -7 q2 -1 3 -7 q1 -4 1 -11 q0 -6 10 -8 l16 0 q4 0 9 1 l7 1 l6 0 q7 0 12 9 l3 5 q1 1 1 2 q3 4 5 6 l1 -1 q0 -8 5 -27 q0 -5 -4 -9 q-5 -3 -10 -3 l-24 1 ZM151.5 2 q-0.5 0 -0.5 -1 l0 -1 q1 0 1 1 q0 1 -0.5 1 ZM88 7 l1 0 l0 1 l-1 -1 ZM143 23 l0 1 l-1 0 l1 -1 ZM34 46 q-3 1 -3 6 l3 11 q0 1 2 12 l1 9 q1 5 1 6 l0 2 q0 1 -1 2 l0 5 q1 0 1 -1 l0 -2 l6 -9 q3 -3 9 -3 q17 0 17 11 l0 16 l-1 8 l0 8 q0 3 -2 8 q-1 6 -1 8 q0 3 6 3 q2 0 5 -2 l4 -3 q8 -3 22 -4 l11 -1 l9 0 q7 2 17 2 q8 1 16 1 q2 0 4 2 q1 1 2 2 l1 2 l0 1 q5 6 8 6 q4 0 10 -4 q6 -3 6 -7 q0 -2 -1 -5 l-2 -4 l0 -25 q0 -6 -5 -12 l-1 -1 l-1 -1 q-1 -2 -1 -4 q0 -1 5 -2 q5 -1 9 -1 q2 0 4 1 l2 0 l1 1 l10 10 q3 0 6 -2 q3 -3 8 -6 l6 -4 q6 -5 6 -14 q-1 -6 -7 -8 l-9 -2 l-2 -1 q-2 -1 -4 -1 l-4 0 q-1 0 -2 -1 l-3 0 q-6 0 -6 7 l0 6 q0 5 -3 7 q-1 1 -3 1 l-16 0 l-3 1 l-1 0 q-5 -1 -9 -1 l-27 0 q-2 0 -2 1 l-1 -1 l-3 -1 q-1 0 -2 -1 l-2 2 q-5 -2 -9 -2 l-6 0 l-6 -1 l-10 0 l-17 -1 q-4 -1 -7 -1 l-7 0 q-4 0 -7 -1 q-5 -2 -5 -7 l2 -1 l0 -2 l-1 0 l1 -2 l1 -2 q0 -3 -4 -8 q-2 -3 -4 -5 q-2 -1 -3 -1 l-8 0 ZM143 57 l0 0 ZM96 63 q-1 0 -1 -1 q0 -1 1 -1 l0 2 ZM100.5 83 q-0.5 0 -0.5 -1 l0 -1 q1 0 1 1 q0 1 -0.5 1 ZM149.5 86 q1.5 0 2.5 -1 q1 -1 2 -1 q1 0 2 2 l1 0 l1 1 l1 0 l0 6 q-1 1 -2 7 l-1 4 q-1 2 -1 3 q0 1 1 2 l5 0 q1 0 1 1 q-1 0 -3 2 l-2 2 l0 12 l-3 3 l-58 0 q-7 -1 -9 -4 l0 -3 q-1 -2 -1 -3 l0 -1 q0 -7 8 -7 l17 1 l2 -1 l3 0 l3 1 l2 0 q2 1 3 1 q6 0 12 -1 l10 0 l5 -4 q-2 -1 -4 -1 l-7 -1 l-22 0 q-6 -1 -8 -1 l-15 0 q-9 -1 -9 -5 l0 -11 l1 -1 q2 -2 5 -2 l33 0 q1 0 3 -1 l14 0 q6 1 7.5 1 ZM164 105 l0 1 l0 -1 ZM31 169 q0 1 1 1 l5 0 q2 -1 3 -1 l24 -1 l0 -1 q1 1 2 1 l1 0 l8 -1 l13 1 l5 0 l8 -1 l2 0 q4 -1 6 -1 q3 2 3 8 l0 4 q0 2 1 2 l0 9 q0 5 -2 8 q0 1 -1 2 q-1 1 -3 2 l-2 1 q-2 2 -2 3 q0 3 7 5 l4 2 l2 0 l2 1 q2 1 3 1 q1 0 1 -1 l1 -1 l1 -1 q1 -1 3 -1 l2 0 q2 -1 3 -3 q0 1 1 2 l1 0 q3 0 6 -3 q4 -3 4 -4 q0 -1 -1 -3 l-6 -9 q-1 -3 -1 -4 l-1 -14 q2 -4 9 -4 l12 0 l1 -1 q22 0 38 10 l2 2 l3 1 q2 2 5 2 q2 0 4 -2 q2 -1 4 -4 q2 -2 3 -4 q2 -2 2 -3 q0 -12 -9 -12 q-3 0 -8 1 q-6 2 -9 2 q-3 0 -9 1 q-6 1 -8 1 l-8 -2 l-3 0 l-4 1 l-22 0 q-2 0 -2 1 q-1 0 -2 -1 l-1 0 q-1 -1 -2 -1 l-20 0 l-2 -1 l-7 0 q-3 1 -4 1 l-12 -2 q-6 0 -10 -1 l-3 -1 l-14 0 q-6 -1 -6 -2 l-10 0 l-4 3 q-1 0 -2 1 q-1 2 -3 4 q-1 2 -2 4 q-1 2 -1 3 Z" /><glyph glyph-name="uni4EBA" unicode="&#x4eba;" d="M9 -21 q1 3 5 5 l3 2 q2 1 4 2 q4 3 7 6 l12 9 q10 7 14 13 q2 1 4 3 l6 8 q2 2 4 4 q2 3 5 8 l4 8 q6 11 10 16 q0 3 2 8 q1 0 1 1 l0 1 l3 7 l1 2 l2 9 q0 3 1 3 q1 5 3 11 q1 4 2 11 l2 11 q1 6 3 10 q0 1 1 2 l0 2 l1 13 l0 12 l1 1 l1 7 l0 3 q0 5 -1 8 q-1 3 -4 4 q0 1 -2 2 l-1 0 q0 1 -1 1 l-1 1 q0 1 1 2 q1 1 3 2 q4 3 5 3 q2 0 6 4 q3 2 6 2 l2 0 l17 -8 l1 -1 l6 -3 q5 -2 5 -6 q0 -1 -1 -3 q-1 0 -2 -1 l-1 -1 l-3 -3 q-1 -2 -1 -3 l0 -23 q2 -3 2 -7 l0 -7 q2 -2 3 -6 l1 -6 l8 -22 q2 -6 7 -14 l8 -12 q1 -6 5 -10 q3 -3 8 -7 q0 -1 1 -2 l5 -6 q1 -1 2 -2 q1 0 1 -1 l6 -5 l4 -4 q5 -6 7 -6 q0 -1 2 -3 q1 0 3 -1 l8 -4 q3 -2 4 -4 q2 -2 7 -4 l8 -3 l9 -6 l0 -1 q0 -2 -5 -4 q-2 -1 -5 -2 l-4 0 q-2 0 -3 -1 q-1 0 -3 -1 l0 -1 l-1 0 l-1 -1 l-2 0 q-1 0 -6 -2 l-6 -2 l-3 -1 l-2 0 q-1 0 -3 1 l-23 24 q-1 0 -1 1 l-12 12 l-3 6 l-4 5 q-6 10 -10 16 q-4 9 -7 15 l-6 25 l0 3 l-1 3 q-2 3 -2 8 l0 13 q-1 2 -1 4 q-1 11 -1 17 l0 5 q-1 2 -2 2 q-2 0 -2 -1 l-2 -12 q-1 -1 -1 -3 l-1 -8 q0 -1 -1 -3 l-1 -2 q0 -3 -2 -9 l-3 -9 l-4 -15 q-1 -1 -1 -3 q-1 -1 -1 -3 l-2 -2 q0 -1 -1 -2 l0 -2 q0 -2 -2 -6 l-1 -3 l-9 -15 l-5 -9 q-5 -11 -15 -17 l-2 -3 q-2 -3 -3 -3 q0 -1 -3 -3 l-2 -2 q-1 -1 -2 -2 l0 -1 l-1 -1 q-1 -2 -2 -3 l-4 -3 l-10 -7 q-1 0 -3 -2 q-1 0 -1 -1 q-1 0 -1 -1 l-25 -17 q-8 -5 -11 -5 l-3 0 q-1 0 -1 1 Z" /><glyph glyph-name="uni4ECA" unicode="&#x4eca;" d="M131 1 q1 7 1 13 q0 1 1 3 l1 2 l0 12 l1 8 l0 5 q0 1 -1 4 q-2 4 -4 6 q-3 -2 -10 -3 l-4 -1 l-1 0 q-3 0 -5 -1 l-2 0 l-1 -1 q-1 -1 -4 -1 q-3 -2 -8 -4 l-2 -1 l-2 0 q-3 -1 -5 -2 q-1 -3 -7 -3 l-2 0 q-2 0 -2 1 q0 3 -2 6 l-6 10 q-1 2 -1 4 q0 1 4 1 q3 1 10 1 l12 0 l17 -1 q4 0 7 1 q8 0 14 3 q3 1 6 3 l6 4 l2 0 l3 -2 l2 -2 q2 -1 3 -1 q8 -5 8 -10 q0 -1 -1 -3 l-2 -5 q-1 -1 -2 -3 q0 -6 -1 -13 q0 -3 -1 -7 l-1 -7 q-1 -4 -1 -12 l0 -5 q-1 -4 -1 -5 l-1 0 q0 -2 1 -2 l0 -4 l-1 -2 l-1 -3 l-2 1 l0 -3 q0 -2 -2 -4 q-2 -3 -4 -4 l-1 0 q-1 0 -1 2 l0 -3 q-9 4 -9 15 l2 13 ZM137 -12 q-1 0 -1 -1 q0 -1 1 -1 q1 0 1 1 q0 1 -1 1 ZM137 -10 q-1 0 -1 -1 q0 -1 1 -1 q1 0 1 1 q0 1 -1 1 ZM134 -9 l1 0 l0 1 l-1 -1 ZM135 2 q-1 0 -1 -1 l1 0 l0 1 ZM142 44 l1 -1 l1 1 l-1 1 l-1 1 l0 -2 ZM101 142 q-1 0 -1 1 l0 1 q0 1 1 3 l2 3 q0 3 4 7 l5 6 l0 3 q1 0 1 1 l0 1 q1 2 3 2 q2 3 4 7 q2 5 3 7 q3 7 3 14 q0 3 -1 5 q-2 3 -5 3 q0 3 3 4 q1 1 2 1 l3 0 q2 0 3 -1 l3 -2 l2 0 q1 0 3 -2 q2 -1 3 -1 q5 0 10 -5 q6 -5 6 -11 q0 -3 -4 -6 q-5 -2 -5 -6 q0 -5 2 -10 q1 -2 2 -5 l2 -4 l0 -3 l2 -2 l2 -2 l0 -3 l1 -2 q1 -1 2 -1 l1 -1 q1 -1 1 -2 l15 -15 l2 -1 l3 -2 q4 -4 9 -7 q1 -1 2 -2 l1 -1 l1 0 l5 -4 q4 -4 9 -7 q2 -1 5 -2 l3 -1 q1 -1 3 -1 q0 -1 4 -3 l5 -2 q3 -1 4 -1 q1 -1 2 -1 l5 -1 l2 -2 q1 0 4 -1 l3 0 q2 -1 3 -1 l6 -2 l3 -2 q0 -3 -2 -3 q-4 0 -9 -1 l-5 -2 q-2 0 -4 -1 q-2 0 -5 -1 l-4 -2 l0 -1 q-6 -3 -10 -3 q-3 0 -6 2 l-1 1 q-1 1 -1 2 q-2 1 -3 2 l-3 1 l-3 2 q-1 1 -3 2 l-6 6 q-1 1 -2 2 l-5 3 q-1 1 -2 1 q-3 4 -6 6 l-3 3 l-1 0 l-3 3 q0 1 -2 4 l-2 2 q-1 1 -2 2 l1 1 l-3 0 l-2 2 q-1 3 -2 4 q-3 5 -6 9 l-3 6 q-3 4 -3 9 q-1 1 -2 2 q0 1 -1 3 q-2 5 -3 7 l-1 3 l0 1 l-1 3 q-1 3 -2 4 q-1 2 -3 2 l-1 -1 l0 -1 q-4 -2 -6 -5 l-4 -4 q-3 -6 -5 -6 q0 -3 -4 -7 l-2 -2 q0 -1 -1 -1 l-1 -2 q0 -1 -2 -3 q0 -1 -1 -1 l-1 -1 l-2 -2 q-1 -2 -2 -3 l-2 -2 q-2 -1 -2 -2 l-2 -1 q-1 -1 -2 -1 q-3 -3 -4 -7 l-23 -23 q-2 0 -2 -1 l-1 -3 q-1 -1 -3 -2 l-4 -3 q-1 -1 -2 -2 q-5 -5 -11 -10 q-4 -3 -13 -9 l-2 0 l-3 -4 q0 -1 -1 -1 l-1 -1 q-5 0 -10 -3 l-6 -4 q-1 0 -1 -1 q-3 -1 -6 -2 l-5 0 q0 2 4 3 l3 2 q2 0 2 1 l2 1 l17 11 l2 2 q2 2 4 2 q2 4 10 10 q8 5 11 9 l0 1 q0 1 1 2 l5 7 q1 2 4 3 l3 2 l0 1 q0 1 2 2 q0 1 1 1 l3 3 q2 5 7 8 q1 3 6 9 l2 3 q2 2 2 3 q2 1 2 2 q1 1 2 3 l1 0 q1 1 2 1 q1 1 2 2 ZM34 66 q-1 0 -1 -1 q0 -1 1 -1 l0 2 ZM262 83 q0 -1 1 -1 l0 1 l-1 0 ZM102 89 q-2 0 -4 4 q-2 4 -2 5 l0 1 q0 1 5 1 l24 2 l24 3 q1 0 2 1 l1 1 l1 0 l1 1 q1 1 2 1 q4 0 8 -4 q4 -4 4 -8 l-2 -1 l-3 -1 q-3 0 -4 -1 l-3 0 l-2 2 l-1 0 q-10 -3 -17 -3 l-2 0 q-1 -1 -5 -2 q-5 -1 -13 -1 l-2 -1 q-1 -1 -2 -1 l-10 1 ZM206.5 90 q-0.5 0 -0.5 -1 l1 0 q0 1 -0.5 1 ZM187 117 q-1 0 -1 -1 q0 -1 1 -1 q1 0 1 1 q0 1 -1 1 ZM165 122 q-1 0 -1 -1 q0 -1 1 -1 l0 2 ZM147 181 q-1 0 -1 -1 l1 0 l0 1 ZM147 183 q0 -1 1 -1 l0 1 l-1 0 ZM144 187 q-1 0 -1 -1 q0 -1 1 -1 l0 2 ZM139 188 l1 1 l-2 0 l1 -1 ZM155.5 190 q-0.5 0 -0.5 -1 l0 -1 q1 0 1 1 q0 1 -0.5 1 Z" /><glyph glyph-name="uni4ECB" unicode="&#x4ecb;" d="M26 -19 q0 2 4 4 q2 1 7 3 q6 2 8 3 q4 1 4 3 q4 0 5 1 q2 1 3 3 l1 1 l0 1 q1 1 2 2 q1 0 3 1 l3 2 q1 0 2 1 l13 13 q1 0 1 2 q1 0 1 2 l1 2 l1 1 q5 8 7 19 q1 4 2 10 l1 11 l1 4 l0 28 q0 5 -1 7 q-1 4 -9 4 q-4 0 -11 -6 l-5 -6 q-4 -4 -6 -6 q-4 -3 -10 -8 l-5 -3 q-2 -1 -3 -1 l-2 -2 l-2 -2 q-1 -1 -6 -4 l-3 -2 l-2 -2 q-2 -1 -5 -2 q-1 -1 -3 -1 q-2 -1 -3 -1 q-3 -4 -10 -7 l-5 -2 q-3 -2 -5 -2 l-2 0 q-1 1 -1 2 q0 1 2 2 l19 13 q1 1 2 1 l1 1 l2 2 l3 0 q0 3 7 9 l6 5 q4 3 7 6 q8 6 14 12 q6 5 10 9 q2 3 5 8 l19 22 l2 3 q0 1 3 5 q3 5 7 11 q11 15 15 19 q0 1 1 2 l1 2 q1 1 2 2 q1 1 1 2 l1 3 q0 1 1 3 l1 5 q1 4 4 4 l5 0 q3 0 5 -1 l2 -2 q1 -1 2 -2 q2 -3 2 -5 l1 -1 q1 -1 2 -3 q3 -4 3 -7 l-2 -2 q-1 -5 -5 -8 l0 -2 q0 -7 7 -14 q5 -6 15 -13 q1 0 2 -2 l2 -2 l1 -1 q4 -2 11 -8 q7 -5 11 -8 q7 -4 18 -7 q2 -1 6 -4 q5 -3 7 -4 q5 0 10 -1 l10 -4 q2 -1 5 -1 l11 -2 q3 -1 3 -2 q0 -2 -3 -3 l-4 0 l-4 -1 q-4 -1 -10 -3 q-7 -3 -12 -5 q-6 -2 -7 -4 l-7 1 q-7 1 -11 3 q-4 2 -8 5 l-7 5 q-2 2 -6 5 q-5 2 -7 4 q-3 2 -5 5 l-5 6 l-12 13 q-6 8 -8 16 q0 2 -1 3 q0 2 -1 3 q0 3 -2 10 q-1 3 -2 5 q-1 2 -2 2 q-2 0 -6 -2 q-3 -2 -3 -3 l-28 -30 q0 -1 -2 -3 l-3 -3 q-5 -5 -5 -8 q0 -2 3 -2 l2 1 l3 1 l2 0 q5 0 8 -4 q1 -2 3 -5 l3 -5 q0 -1 -1 -3 l-4 -6 q-1 -2 -1 -3 q-1 -3 -1 -7 l-1 -7 q0 -8 -3 -10 q1 -3 1 -6 q0 -3 -1 -6 l-1 -3 l0 -1 l-2 -5 q-1 -6 -3 -14 q0 -5 -6 -12 q-1 -1 -2 -2 l-2 -3 q-2 -2 -2 -3 q-2 0 -2 -1 l-1 -1 q0 -1 -1 -2 q0 -1 -2 -2 q-3 -3 -9 -8 l-1 1 q0 -2 -3 -3 l-1 0 l-1 -1 q-1 0 -1 -1 q-2 -1 -6 -4 q-5 -3 -10 -6 q-15 -8 -24 -8 l-2 0 q-1 1 -1 2 ZM149 8 l1 2 l0 5 q0 4 1 11 l1 7 q0 1 -1 4 l0 4 l1 2 l0 54 q0 4 -3 9 q-3 4 -3 6 l1 1 q2 1 4 2 l5 2 q6 0 14 -7 q6 -6 6 -9 q0 -2 -1 -4 l-2 0 q0 -2 1 -3 q0 -2 -2 -6 q-3 -3 -3 -7 l0 -4 q1 -2 1 -3 l0 -22 q0 -1 1 -2 l0 -33 l-1 -1 q0 -1 1 -2 l0 -9 q0 -5 -1 -9 q-3 -10 -10 -10 q-6 0 -8 5 l0 2 l-2 7 l0 3 l-1 2 l0 3 Z" /><glyph glyph-name="uni4ED5" unicode="&#x4ed5;" d="M82 12 l0 7 q1 3 1 6 l0 64 l-1 4 l0 12 q0 3 -1 5 q-1 2 -2 2 q-2 0 -4 -3 l-2 -2 q-2 -2 -2 -3 q0 -1 -1 -2 l-3 -4 q-1 -1 -1 -2 l-16 -20 q-2 -2 -3 -3 q-1 0 -3 -1 l-4 -6 q-1 -2 -2 -3 q-5 -5 -9 -9 q-3 -2 -6 -5 l-2 -1 l-1 -1 l-3 -3 q-8 -6 -12 -10 q-6 0 -6 3 q0 1 2 2 l13 10 l14 16 q8 9 13 15 q5 7 11 17 l9 16 q0 1 1 3 q1 2 2 2 q1 2 3 7 l1 3 q1 1 2 2 q0 3 2 7 l2 3 q1 2 2 4 l0 3 q1 2 2 3 l1 3 l3 8 l9 24 q1 4 1 7 q0 1 -1 3 l-1 2 q-1 1 -2 2 q-1 1 -1 3 q0 2 4 2 l2 0 l4 1 l4 1 q3 1 5 1 q3 0 6 -3 l3 -3 q1 -1 3 -2 q5 -4 5 -8 q0 -6 -3 -10 q-1 -1 -2 -2 l-5 -4 q-1 -2 -3 -6 l0 -3 q-1 -1 -2 -3 l-2 -3 q-2 -2 -2 -3 q0 -2 -3 -5 q-3 -4 -3 -7 q0 -1 1 -3 l4 -4 q1 -2 1 -3 q0 -2 -1 -6 l-2 -3 q0 -1 -1 -2 l0 -42 l1 -2 l0 -21 l-1 -4 l2 -11 l0 -28 l1 -18 l0 -6 q1 -2 1 -3 l0 -6 q0 -1 -2 -3 q-1 -1 -4 -3 q-5 -4 -8 -4 q-1 1 -2 2 l-1 0 l0 1 q-2 1 -2 3 q-1 3 -1 9 l1 1 q0 1 -1 2 l0 1 q-1 0 -1 1 l0 1 l-1 18 ZM121 19 q6 0 15 1 q9 1 13 1 l15 0 q10 1 10 8 l-1 9 l0 18 q-2 10 -2 18 q-1 10 -1 18 l0 1 q0 2 1 2 q-1 0 -2 3 l0 3 l-1 3 q-1 4 -7 4 q-4 -1 -10 -1 l-9 0 q0 -1 -3 -2 q-3 -1 -6 -1 q-3 0 -8 -1 q-5 -1 -7 -1 q-5 0 -8 7 q1 0 1 1 l-1 1 l-1 2 l-1 2 q-1 2 -1 3 q6 2 13 2 l21 0 q1 1 2 1 l4 0 l9 1 q9 0 11 1 q2 1 2 5 l0 5 l-1 4 q-1 1 -1 2 l1 5 l0 13 l-1 13 q0 12 -3 23 q0 1 -1 2 l-4 3 q-1 1 -1 2 q0 1 1 2 l5 2 l4 2 q0 1 3 2 l3 1 q2 1 3 1 q2 0 3 -1 q1 -1 2 -2 l2 -1 q1 -1 3 -2 l3 0 l1 -1 q3 0 4 -1 q2 -2 8 -5 l2 0 l2 -1 l0 -2 l-1 -2 l0 -1 q0 -1 -1 -3 l0 -3 q0 -1 -2 -4 l-4 -4 q-3 -3 -4 -6 q-2 -3 -3 -5 l0 -3 l-1 -3 l0 -1 l1 -18 q0 -11 1 -14 q1 -3 7 -3 l17 0 l13 1 l2 2 q2 2 3 2 l2 0 q1 1 2 2 l1 0 l1 1 q1 1 2 1 l1 0 q5 0 12 -7 q8 -8 8 -14 q0 -3 -4 -4 q-2 -1 -4 -1 l-2 0 q-3 0 -9 2 l-5 2 l-2 0 l-18 1 l-6 0 l-17 -1 q-3 0 -4 -3 l0 -2 q-1 -1 -1 -2 l0 -14 q0 -5 1 -14 l0 -13 q1 -8 1 -16 q0 -6 1 -14 q0 -4 1 -7 l1 -3 q14 0 19 2 l13 8 l1 0 q2 0 4 -1 q1 0 2 -1 q1 -1 2 -2 q14 -8 14 -17 q-2 -6 -8 -6 q-1 0 -3 1 l-2 0 l-1 1 q-10 1 -22 1 l-33 0 l-32 -1 l-1 1 q-3 -3 -7 -3 l-5 0 q-4 -1 -7 -1 l-1 0 q-3 0 -6 5 q-3 5 -3 9 ZM177 67 l0 -1 q1 0 1 1 l-1 0 Z" /><glyph glyph-name="uni4EE3" unicode="&#x4ee3;" d="M72 -10 q0 1 1 3 l0 3 q0 1 1 2 l0 71 l-1 3 l0 2 l1 27 q-1 13 -6 15 l-1 -1 q-1 -2 -2 -2 q-3 -3 -6 -8 l-6 -7 q-6 -8 -11 -14 q-6 -7 -13 -12 q-1 -1 -2 -1 q-1 -1 -2 -2 l-1 -1 q-1 -1 -2 -1 l-1 0 q-2 -3 -7 -6 q-4 -2 -6 -2 l-1 0 q3 3 8 8 l4 4 q3 2 5 4 q1 1 2 3 l3 3 q3 5 6 8 q1 1 2 2 l1 2 q3 5 4 6 q6 6 9 11 l3 5 l2 4 l7 11 l10 18 q5 9 7 15 q0 3 2 7 l1 3 q1 1 1 3 q0 2 1 7 q1 4 1 7 l0 3 q0 3 -1 6 l-1 3 l0 3 q0 2 4 2 l7 0 l3 -1 q-1 0 2 -1 q5 -2 8 -3 q12 -7 12 -15 q0 -2 -1 -3 l-3 -1 q-6 -6 -17 -22 l-2 -3 q-3 -5 -7 -8 q0 -1 -1 -2 l-4 -4 q-1 -1 -1 -2 l1 -8 q1 0 4 -3 q1 -1 2 -2 l1 -2 q0 -3 -3 -7 q-4 -4 -4 -7 q0 -2 1 -7 q1 -4 1 -7 l-1 -21 l0 -11 l1 -20 q1 -5 1 -10 l0 -3 l1 -3 l1 -20 q1 -7 1 -13 l-2 -14 l0 -5 q0 -2 -2 -3 q-1 -1 -2 -2 q-4 -2 -5 -2 q-1 0 -3 2 q-1 2 -2 6 q-3 7 -3 10 ZM149 104 l-1 0 q-1 0 -6 -1 l-10 -4 q-2 0 -5 -1 l-6 -4 l-3 -1 q-2 -1 -5 -1 q-3 0 -6 3 l-1 2 q-1 0 -1 1 q-1 1 -1 2 q-1 0 -2 1 q0 1 -2 2 l-1 1 l-1 1 q-2 2 -2 5 l2 1 l5 1 l16 0 l14 3 q5 1 8 1 q9 0 12 8 q1 4 1 9 l-1 44 q-1 1 -1 3 l0 3 q0 8 -2 13 l-1 2 l-1 2 l0 5 q0 1 1 2 l9 5 q5 0 7 -2 q4 0 11 -5 q9 -6 9 -11 q0 -2 -3 -5 l-1 -3 l0 -2 l-2 -2 l-2 -3 l-3 -6 q-1 -4 -4 -5 l0 -11 l-1 -3 l0 -26 q0 -6 5 -6 q5 0 10 1 l5 0 l5 1 l9 0 q5 1 9 2 q1 0 2 1 q1 1 2 2 l1 1 l3 3 q1 0 3 1 q1 1 2 2 l3 2 l1 1 q2 0 5 -1 q4 -2 7 -4 q10 -6 10 -13 l0 -2 q0 -1 -1 -3 q-1 -3 -3 -3 q-7 0 -13 3 q-1 1 -1 2 l-1 2 l-1 1 q-1 1 -3 1 q0 -2 -2 -3 l-2 -3 l-9 0 l-14 -1 q-4 -1 -7 -1 q0 -1 -4 -1 l-8 0 q-12 0 -12 -8 l1 -2 l0 -2 q1 -3 1 -5 l0 -5 q1 -6 2 -9 q3 -9 8 -21 q2 -1 4 -4 l2 -3 q1 -2 1 -3 q4 -6 9 -12 l15 -14 q10 -10 18 -10 q3 0 5 3 q2 2 4 6 l1 3 q1 1 2 2 q1 2 2 2 l1 -1 l0 -5 l2 -6 q2 -9 4 -16 l4 -12 q0 -13 -13 -13 q-4 0 -7 1 l-3 2 q-2 0 -4 1 q-13 4 -21 9 q-4 3 -9 11 l-6 8 q-3 4 -5 7 q-7 9 -11 18 l0 1 q-1 1 -2 2 l-1 2 q-1 1 -1 2 q-10 20 -16 43 l-1 7 l0 2 l-1 3 q-1 7 -6 7 ZM234 -15 q-1 0 -1 -1 q0 -1 1 -1 q1 0 1 1 q0 1 -1 1 ZM239 -13 q-1 0 -1 -1 l1 0 l0 1 ZM241 -8 q0 1 -1 1 l0 -1 l1 0 ZM193 26 l0 0 ZM78 40 q-1 0 -1 -1 q0 -1 1 -1 l0 2 ZM190 180 q1 -1 3 -2 l6 -4 l5 -2 q4 -2 6 -3 q7 -5 7 -11 l0 -2 q0 -1 -1 -2 q0 -1 -1 -2 q-1 -1 -4 -3 l-5 -4 l-1 0 q-3 1 -5 6 q-2 3 -3 8 q0 2 -1 5 q-1 2 -4 6 l-3 5 q-2 3 -2 5 l3 0 Z" /><glyph glyph-name="uni4EE5" unicode="&#x4ee5;" d="M61 -16 q4 2 9 4 l16 8 q5 2 10 4 q1 1 2 2 l1 0 l1 1 q1 0 1 1 q3 2 7 2 q1 0 2 1 l2 2 q5 2 11 3 l2 2 q1 2 2 2 q1 0 5 3 l5 4 q24 15 40 36 q3 2 4 8 q1 0 1 1 l0 1 l1 2 q1 2 1 3 q0 3 1 6 l2 8 l0 1 l3 18 q0 6 1 9 l0 22 q1 3 1 4 q1 2 2 2 l2 -1 l1 0 l0 4 q-1 1 -1 2 l-1 2 l-1 1 q0 4 3 6 l0 3 q-1 1 -1 2 q0 1 -1 1 l0 1 q-1 1 -1 2 l0 8 q0 5 -1 9 q-1 11 -5 17 q-2 1 -4 3 q-2 2 -2 3 l1 1 l13 0 l5 -2 q3 -2 6 -3 q6 -2 11 -4 l8 -2 q5 -2 5 -7 q0 -5 -6 -9 q-4 0 -6 -10 q-1 -4 -1 -8 l0 -5 l-1 -9 l0 -20 l-2 -16 q-1 -2 -1 -7 l-1 -2 l0 -5 q-1 -3 -2 -6 l-1 -3 q-1 -4 -1 -6 l0 -2 l-2 -9 l-4 -7 l0 -2 l-3 -9 l-2 -2 q-2 -3 -2 -4 l-1 -1 q0 -1 1 -2 l1 -1 q10 -3 19 -7 q6 -3 14 -8 q8 -3 8 -17 q0 -2 -1 -3 l-3 -3 l-2 -1 l-1 -1 l0 -1 q-1 -1 -2 -2 q-5 -4 -10 -4 l-3 0 q-6 0 -8 4 l-4 11 l-1 3 q-1 1 -1 2 l-1 3 q0 1 -1 1 q0 1 -1 2 l-3 6 q-1 1 -2 2 q-4 6 -6 6 q-4 0 -10 -5 l-4 -4 q-3 -2 -5 -3 q-3 -1 -6 -3 l-5 -3 q-1 -1 -2 -1 q-9 -6 -15 -7 q-1 -1 -2 -1 l-1 0 q-1 0 -3 -1 l-8 -4 q-2 0 -5 -2 l-3 -2 q-2 -1 -4 -1 q-1 -1 -2 -2 l-1 0 l-1 -1 q-1 -1 -2 -1 q-11 -2 -16 -7 q-7 -1 -16 -5 q-2 0 -6 -2 l-9 -3 q-5 -3 -8 -3 q-3 -1 -5 -1 l-2 0 l2 2 l12 6 ZM30 -8 q1 9 2 18 q0 2 -1 3 l-2 1 q-1 1 -1 2 q-1 1 -1 3 l0 1 q0 1 1 2 l3 2 q2 2 4 5 q3 3 4 5 l4 3 q2 2 2 4 q0 5 1 6 l0 16 l-1 30 l0 3 q0 1 -1 2 l0 1 q-1 4 -1 7 l-1 11 l-1 44 l0 11 q0 8 -1 12 l0 1 q-1 1 -1 2 l0 4 l-4 5 l0 4 l4 1 l11 0 q21 -1 21 -13 q0 -3 -3 -7 q-3 -4 -3 -6 q1 -2 1 -5 l-1 -17 q-1 -6 -1 -15 l1 -24 l0 -46 l1 -1 l1 0 q4 0 9 6 l6 9 l2 2 q2 1 2 2 l0 2 q2 1 5 4 q1 2 4 6 l5 6 q2 3 4 3 l2 5 q3 5 6 7 q1 0 2 1 l2 2 l0 1 q3 4 6 4 q1 0 2 -1 q-2 -3 -3 -5 l-6 -6 q-1 -1 -2 -3 q-3 -3 -6 -8 q0 -2 -1 -2 l-2 0 l-1 -1 q-1 -1 -1 -2 l-1 -3 q0 -2 -1 -3 q0 -1 -1 -2 l-2 -2 q-2 -1 -2 -2 q-1 -1 -1 -4 q-5 -4 -9 -12 l-3 -6 q-2 -3 -4 -5 q-1 -1 -1 -2 q0 -1 -1 -2 l0 -3 l-1 -1 q-1 -1 -2 -2 l-2 -4 q-1 0 -1 -1 q-1 -1 -1 -2 l0 -2 l-1 -1 q-1 -2 -2 -4 l-2 -4 q-2 -6 -4 -8 q0 -2 -1 -4 l-5 -18 q-2 -6 -6 -10 l-4 -2 l-1 0 l-3 -1 q-3 -1 -4 -2 l-2 0 q-4 0 -4 5 ZM51 105 l1 1 l-1 0 l0 -1 ZM104 106 q-1 0 -1 -1 q0 -1 1 -1 l0 2 ZM47 137 q0 -1 1 -1 l2 0 l0 3 q-1 0 -2 -1 l-1 -1 ZM124 196 q0 2 3 2 q4 0 9 -6 l3 -3 l1 -1 q2 -2 3 -3 q2 0 7 -4 q6 -5 6 -9 q0 -6 -9 -12 l-2 0 l-2 -2 q-1 -1 -3 -2 q-2 -1 -4 -1 q-7 0 -9 8 l0 16 q0 3 -2 8 q-1 5 -1 8 l0 1 ZM208 160 q-1 0 -1 -1 l2 0 q0 1 -1 1 ZM208 168 q0 -1 0 -2 q0 -1 1 -1 q1 1 1 2 l0 3 q-2 -1 -2 -2 ZM210 190 q0 -2 1 -3 l0 6 q-1 0 -1 -1 l0 -2 ZM217 193 q0 -2 1 -2 l1 2 l-2 0 Z" /><glyph glyph-name="uni4F30" unicode="&#x4f30;" d="M72 -2 l2 11 l0 8 q0 6 1 8 l1 34 l0 2 l-1 19 l1 1 q0 1 -1 1 q0 5 -1 11 l-2 14 q-2 9 -6 9 q-1 0 -3 -1 q-1 -1 -2 -3 l-5 -5 q-1 -1 -2 -1 q-2 -1 -2 -2 l-3 -3 q-2 -3 -4 -4 q-11 -13 -12 -13 l-1 -1 q-1 -1 -3 -2 q-3 -3 -6 -6 q-8 -7 -11 -7 l0 -1 q0 -1 -3 -1 l-3 0 q0 1 2 3 q3 3 4 3 l4 5 q1 2 2 2 l8 10 l3 2 q2 3 5 7 l14 20 l7 8 q5 5 7 9 l5 8 l12 18 q6 9 7 13 l0 16 q0 1 2 2 q2 2 5 3 q2 1 5 2 q2 1 3 1 q5 -1 10 -7 q5 -6 5 -11 q0 -4 -3 -7 l-1 -1 l0 -1 l-1 -1 q-2 -2 -2 -4 l-10 -9 l-1 -1 l0 -2 q-11 -8 -14 -18 l0 -3 q0 -1 2 -3 l1 -1 q0 -1 1 -1 q1 -2 1 -3 q0 -3 1 -9 l0 -3 q1 -2 1 -4 l1 -26 l0 -32 l-1 -3 l1 -29 l0 -24 q-1 -8 -7 -15 q0 -1 -2 -2 l-2 0 q-4 0 -7 4 q-2 4 -2 7 l0 9 ZM127 7 q0 1 1 2 q0 5 -1 11 l-2 23 q-1 7 -1 12 q0 1 -1 2 q-1 2 -1 3 q0 2 -1 3 q0 1 -1 3 l-2 2 l0 3 q0 2 4 4 q3 1 5 1 l3 0 q2 0 4 -1 l4 -1 q2 -1 3 -2 q1 0 1 -1 l4 -3 q2 -2 6 -2 q4 0 5 4 l0 2 l1 5 l0 1 q0 1 1 3 l0 2 q0 2 1 4 l1 10 l0 6 l1 5 q0 2 -1 4 q-1 4 -6 4 l-1 -2 q-4 -1 -10 -1 l-19 -3 l-9 -1 l-3 -1 l-3 -1 l-1 0 q-2 0 -4 5 q-2 5 -2 10 l0 1 q1 1 2 1 l11 -1 l36 3 q6 0 12 1 q2 3 3 10 l1 10 l1 13 l1 5 l0 16 q0 3 -3 7 q-2 5 -2 7 q0 4 2 5 l2 0 q1 1 2 1 q1 2 3 2 q0 1 1 1 l2 0 q0 1 1 2 l5 0 q1 0 2 -1 q2 0 7 -5 q4 -4 8 -4 l1 1 l3 -3 q1 -2 1 -3 q0 -6 -4 -9 l-4 -3 q-1 -2 -2 -5 q0 -2 -1 -5 l-2 -10 q-1 -3 -1 -6 l-2 -10 q0 -2 -1 -3 l0 -8 q0 -1 1 -2 q1 -1 3 -2 q4 -1 7 -1 l6 1 q7 1 11 1 l5 0 q4 0 6 1 q1 0 3 2 l3 4 q5 5 7 5 q3 0 5 -3 l2 -3 q1 -2 2 -2 l4 -4 q3 -1 4 -3 q0 -7 -5 -10 q-2 0 -5 1 l-7 0 q-1 1 -2 1 l-10 0 q-2 0 -4 1 q-7 0 -8 -1 l-24 0 q0 -1 -2 -1 l-4 0 q-6 0 -6 -4 l1 -1 l0 -4 q-1 -1 -1 -2 l0 -3 q-1 -1 -1 -2 l0 -4 l-1 -10 q-2 -7 -5 -15 q0 -1 2 -2 q1 -1 2 -1 l10 0 q4 0 8 1 l2 0 q3 0 7 5 l2 3 q2 1 3 2 q3 3 5 3 q4 0 10 -4 q8 -5 8 -10 q0 -4 -1 -6 l-2 -9 l0 -52 q0 -4 -6 -8 l-6 -2 q-3 -1 -4 -3 q-6 0 -10 4 l-2 4 q-1 1 -2 2 l-12 1 l-4 -1 l-16 -2 l-4 -1 l-5 0 q-7 0 -9 -3 q0 -1 -1 -1 l0 -2 q-1 -1 -1 -2 l-1 -2 q-1 0 -3 -2 q-3 -4 -7 -4 q-1 0 -4 3 q-3 4 -3 5 q0 3 -1 9 l-1 4 l0 6 ZM143 -2 q-1 0 -1 -1 q0 -1 1 -1 q1 0 1 1 q0 1 -1 1 ZM144 12 q3 -8 9 -8 q11 0 22 1 q5 1 10 1 l11 2 l2 0 q1 0 3 2 q1 2 1 5 l0 15 l1 2 q0 4 -1 10 l0 10 q-1 6 -9 7 l-9 0 q-2 0 -4 -1 l-11 -2 q-4 -1 -9 -1 l-4 0 q-2 -1 -4 -2 q-3 0 -5 -1 q-2 -1 -3 -2 l0 -28 q1 0 1 -1 l1 -2 q0 -1 -1 -2 l0 -3 q-1 -1 -1 -2 ZM171 107 q0 -1 1 -1 l1 0 q3 0 3 5 q-2 0 -3 -1 q-2 -2 -2 -3 Z" /><glyph glyph-name="uni4F5C" unicode="&#x4f5c;" d="M159 -26 l0 20 l-1 69 q0 16 -1 30 l-2 30 q-1 1 -1 2 q0 5 -4 5 q-7 0 -9 -2 l-2 -3 q-1 -1 -2 -2 q-1 -2 -2 -3 q-4 -3 -7 -7 l-14 -14 q-4 -4 -7 -6 q-1 -1 -2 -1 l-3 0 l0 4 q5 4 9 12 l4 5 q2 4 4 6 l2 2 q2 2 2 3 q4 6 9 14 q3 6 7 14 q3 6 7 15 l3 7 l5 11 q0 1 1 2 l0 2 q2 5 2 9 q0 6 -9 10 l0 1 q0 2 5 5 q6 3 7 3 q3 0 8 -3 l7 -4 q1 0 2 -1 l4 -4 q1 -2 2 -2 l5 0 q2 -1 2 -5 q-1 -4 -4 -8 l-2 -3 l-1 0 l-3 -4 q-4 -6 -8 -12 l-8 -12 q0 -1 -1 -2 l-2 -2 q-2 -2 -2 -5 q0 -1 2 -2 l2 -1 l29 0 q4 0 9 1 l5 0 l1 1 l3 0 l3 1 q4 0 10 7 q6 6 10 6 q1 0 3 -2 q1 -1 2 -3 l9 -9 q3 -3 6 -5 l0 -1 q0 -6 -12 -7 l-11 -1 q-7 0 -10 -1 l-32 0 q-2 -3 -5 -5 l-4 -2 q-4 -1 -4 -5 q0 -25 2 -29 l1 -2 l16 0 q1 0 3 1 q3 1 6 3 q3 1 9 7 l3 4 q2 2 5 2 l2 -2 l5 -6 q3 -4 6 -7 q4 -4 8 -7 q1 0 1 -3 q0 -2 -5 -3 l-25 -1 q-12 -1 -19 -1 l-9 0 q-5 0 -7 -4 l0 -18 q0 -6 1 -9 q0 -4 2 -4 l27 0 l13 2 q2 1 5 3 q2 2 6 5 l1 1 l3 3 l2 2 q3 0 10 -8 l6 -7 q3 -4 6 -7 l-1 -2 q-1 -1 -1 -2 l-4 -1 q-3 0 -9 -1 l-17 0 q-1 1 -2 1 l-2 0 q-5 1 -7 1 l-5 0 l-3 -1 l-3 0 q-4 1 -7 1 l-7 0 q-8 0 -10 -2 q-2 -2 -2 -6 l0 -48 q0 -2 -2 -3 q-1 -1 -2 -1 l-1 -1 q-3 -4 -7 -4 q-2 0 -4 2 l-4 4 ZM72 -16 l0 8 l1 4 l0 7 l3 58 q-1 0 -1 7 l0 15 l-1 10 l0 10 q0 11 -4 11 q-3 0 -7 -4 l-2 -2 q0 -1 -1 -2 l-3 -4 q-4 -4 -9 -9 l-29 -27 q-1 0 -2 -1 l-3 -3 q-5 -5 -8 -5 q-1 0 -1 1 q-1 1 -1 2 q0 1 4 5 q3 4 7 7 q1 1 3 4 l3 3 q4 5 7 7 q2 3 6 8 l7 7 q9 10 17 23 q8 10 16 23 q1 7 7 18 q1 1 2 2 l1 2 q1 3 2 5 q3 5 4 9 l2 5 l0 2 q0 3 -3 5 q-4 2 -4 3 q0 1 2 3 q1 1 3 3 q5 2 8 2 l2 0 l2 -2 l7 -5 q11 -9 11 -14 q0 -6 -4 -12 q-1 -2 -4 -5 l-2 -2 q-1 -2 -2 -3 q-1 -2 -3 -5 q-1 -1 -3 -3 l-2 -2 q-5 -8 -7 -12 l-1 -4 l0 -8 l-1 -12 l2 -49 q0 -8 -1 -17 l-2 -53 l1 -6 q0 -10 -9 -15 l-1 0 q-3 0 -5 2 l-1 1 l-3 4 ZM77 83 q0 -4 4 -6 l2 0 q0 6 -6 6 Z" /><glyph glyph-name="uni4F63" unicode="&#x4f63;" d="M220 193 q2 3 6 3 q4 0 9 -2 q11 -6 12 -6 l1 -1 l-1 0 q-1 -1 -4 -5 q-2 -4 -2 -47 l0 -32 q1 -75 3 -92 l0 -3 q0 -16 -16 -24 q-9 -5 -14 -5 q-3 0 -3 3 l0 4 q0 6 -4 9 q-5 2 -6 2 q-1 0 -1 1 l0 2 l1 0 q1 0 11 -1 l1 0 q7 0 7 7 l0 2 q-1 10 -1 39 q-1 29 -13 29 q-12 -1 -12 -26 q0 -25 1 -35 l0 -2 q0 -9 -7 -16 q-8 -8 -9 -9.5 q-1 -1.5 -2 -1.5 q-1 0 -2.5 0.5 q-1.5 0.5 -1.5 2.5 l0 67 q0 18 -11 18 q-12 -1 -12 -28 q0 -2 1 -3 l0 -1 q0 -29 -40 -51 q-41 -23 -42 -23 q0 -1 -1 -1 l0 2 q0 1 0.5 1.5 q0.5 0.5 20.5 15 q20 14.5 25.5 27 q5.5 12.5 12 25 q6.5 12.5 6.5 38.5 l0 58 q0 33 -0.5 47 q-0.5 14 -0.5 15 l1 0 q1 0 10 -5 q7 -5 31 -5 l10 0 q32 1 36 7 ZM38.5 86 q-19.5 -15 -20.5 -15 q0 -1 -1 -1 l0 1 q-1 0 -1 1 q0 1 0.5 1.5 q0.5 0.5 31.5 26 q31 25.5 45 68.5 q11 37 20 37 l3 0 q10 -7 12 -7 l0 -3 q-2 -2 -8.5 -15.5 q-6.5 -13.5 -14.5 -24 q-8 -10.5 -8.5 -71.5 q-0.5 -61 -1 -68.5 q-0.5 -7.5 -6.5 -13.5 q-6 -6 -9 -8 q-1 -2 -2 -2 q-1 0 -1 2 q-1 1 -1 5 q0 9 1 31 q1 32 2 63 l0 2 q0 20 -6 20 q-2 0 -4 -3 q-11 -11 -30.5 -26 ZM195 172 q-1 -1 -1.5 -8 q-0.5 -7 -0.5 -19 q0 -13 12 -13 l1 1 q12 0 12 22 l0 2 q-1 24 -19 24 q-14 -1 -14 -3 l2 -1 q6 -3 7 -3 l1 0 l0 -2 ZM206 128 q-13 -1 -13 -23 q0 -1 1 -1 q0 -24 11 -24 q1 0 1 1 q12 0 12 24 q0 23 -12 23 ZM151 114 l0 -30 l-1 0 q0 -5 9 -5 q1 0 3 1 q11 0 11 24 q0 23 -10 23 l-1 0 q-11 -1 -11 -13 ZM173 138 l0 35 q-1 7 -10 7 l-1 0 q-11 -1 -11 -25 q0 -24 10 -24 q1 0 1 1 q11 0 11 6 Z" /><glyph glyph-name="uni4F73" unicode="&#x4f73;" d="M71 -19 l1 4 l0 9 q0 5 2 6 q-2 1 -2 6 l0 3 l1 6 l0 43 l-1 47 q0 3 -1 5 q-1 7 -4 9 q-3 0 -9 -5 q-2 -2 -5 -5 l-8 -7 q-2 -2 -4 -4 q-2 -1 -4 -3 l-9 -8 q-2 -2 -5 -3 l-4 -2 l-4 -2 q-1 -1 -2 -2 l-2 -2 q-1 -1 -3 -1 q-3 0 -3 2 q1 3 5 5 l3 2 q2 1 3 2 l12 10 q6 7 11 11 q3 4 7 10 q1 1 2 2 q0 1 1 2 l6 8 q1 0 1 1 l4 4 q0 1 1 2 l4 6 l2 4 q3 5 6 7 q0 1 2 2 l2 2 q0 1 2 5 l10 17 l2 4 q0 5 -5 8 q-4 2 -4 4 q4 8 15 8 q1 0 2 -1 l1 -1 q9 -5 16 -13 q0 -1 2 -3 l1 -1 l0 -1 l2 -2 q1 -1 1 -3 q0 -5 -2 -8 q-1 -3 -3 -4 l-2 -1 q-1 -1 -2 -1 l-1 0 q-2 -1 -4 -4 q-2 -3 -9 -9 l-5 -3 q-2 -3 -4 -4 q-2 -3 -2 -9 l0 -9 l-1 -5 q0 -7 1 -18 l2 -42 l0 -54 q1 -1 1 -2 l-1 -15 q0 -5 -4 -13 q-4 -8 -7 -8 q-4 0 -6 3 q-2 3 -2 7 l0 2 ZM141 6 l4 1 q4 1 5 4 l0 29 l-2 2 q-4 0 -9 -1 q-3 0 -10 -1 l-10 -1 l-10 0 l-3 6 q-2 4 -2 7 q0 3 2 3 l37 0 q3 0 6 1 q4 2 4 4 l-2 3 l0 8 q1 3 1 5 q0 2 -1 3 q0 8 -7 8 q-4 0 -9 -1 l-20 -4 l-9 0 q-5 0 -7 5 l-2 6 q0 1 -1 3 l0 2 q2 1 5 2 l3 0 l15 -1 l11 2 l14 -2 l6 2 l1 2 l0 24 q0 5 -5 5 l-22 -2 q-1 0 -3 -1 l-4 0 q-6 0 -6 12 q0 2 1 3 l28 0 q8 1 10 3 l0 7 q0 2 1 3 l0 3 l1 9 l-1 23 q-1 4 -5 5 q-4 2 -4 4 q0 3 2 4 l4 3 q1 1 2 2 l2 2 q1 2 2 2 q1 1 2 1 q1 0 6 -2 q4 -3 10 -6 q6 -3 9 -6 q5 -3 5 -4 q0 -4 -4 -8 l-1 -2 l-1 0 q-1 -1 -1 -2 q-2 -1 -2 -3 q-1 -2 -1 -5 q-1 -5 -1 -10 l1 -13 l-1 -1 l0 -5 q0 -1 1 -1 l4 0 l2 -1 l2 0 q2 0 8 1 l4 0 q2 1 3 2 q2 0 6 6 q5 6 8 6 q2 0 3 -1 q2 -4 7 -7 l3 -3 q2 -1 3 -2 q1 -2 2 -3 q1 0 2 -1 l2 -1 q1 -1 1 -3 q0 -4 -3 -4 q-4 0 -13 -1 l-11 0 l-11 1 l-9 0 q0 -1 -5 -2 l-3 0 q-1 0 -2 -1 q-2 -1 -2 -2 l0 -24 q0 -6 10 -6 l23 0 q2 0 3 1 l12 11 l3 2 q2 1 3 1 q4 0 8 -7 l3 -4 l0 -1 q2 -4 4 -5 l2 -1 l2 -2 q3 -3 3 -7 q0 -1 -1 -1 l-2 -2 l-6 0 q-2 0 -3 1 l-11 0 q-2 0 -6 1 l-21 0 q-4 1 -13 1 l-9 0 q-3 0 -4 -1 q-1 0 -1 -1 l0 -1 l2 -4 q1 0 1 -1 q0 -3 -2 -7 l-1 -1 l0 -1 l-1 -1 q-1 -2 -1 -4 q0 -5 -1 -7 l0 -1 q0 -3 7 -5 l6 0 q1 -1 3 -1 l1 0 q10 0 14 7 l1 1 l1 1 q1 2 1 3 q2 2 6 2 q5 0 7 -5 l2 -2 l7 -6 l4 -3 q0 -7 -5 -7 l-41 0 q-15 0 -15 -10 q0 -21 2 -24 q1 -2 11 -2 l21 0 q2 0 5 1 q4 0 7 2 l3 2 l2 2 q1 0 2 1 l4 0 l1 1 q1 0 2 1 l1 2 l1 1 l0 -1 q1 0 3 -1 l4 -3 l5 -4 l2 -2 q2 -2 4 -4 q3 -3 4 -5 q2 -3 2 -4 q0 -5 -5 -5 q-2 0 -3 1 l-9 3 l-21 0 l-16 -1 l-3 1 l-45 0 l-9 -2 l-11 0 q-1 0 -3 -1 q-2 -1 -3 -1 l-20 0 q-5 -1 -7 -1 q-1 0 -2 2 l-6 10 q-1 2 -1 3 l47 0 ZM167 21 l2 0 l0 1 l-2 0 l0 -1 ZM170 139 l-3 0 l3 0 ZM221 142 q-1 0 -1 -1 q2 0 2 1 l-1 0 Z" /><glyph glyph-name="uni4F8B" unicode="&#x4f8b;" d="M84 -23 q-6 5 -6 14 l1 5 l0 48 l-2 26 l0 45 l-1 0 l-1 2 l-1 0 l-19 -18 q-4 -3 -4 -4 l0 -2 l-12 -11 l-2 -2 l-9 -9 q-1 -1 -2 -2 q-2 -1 -3 -2 l-3 -3 q-1 -1 -2 -1 q-5 0 -5 4 q2 3 5 5 l6 3 q7 5 11 11 q1 3 5 6 l1 1 l2 1 l3 3 l3 5 l3 5 q2 3 4 5 l2 4 q2 3 3 5 q0 3 1 4 l1 1 q1 1 1 2 q5 5 9 14 q5 8 5 11 l0 2 q0 1 1 2 l2 4 q2 5 4 13 q1 2 1 6 l1 7 q0 5 -3 8 q-3 4 -3 6 q2 4 6 5 q2 1 4 1 l6 -1 q-1 0 2 -1 l3 -2 q2 -1 4 -2 q11 -7 11 -14 q0 -4 -3 -8 l-6 -6 q0 -1 -3 -6 l-7 -9 l0 -3 q-1 -1 -2 -3 l-1 0 l0 -1 q-1 -1 -1 -2 q-1 -1 -1 -2 l-3 -3 q-1 -2 -1 -4 q0 -1 1 -2 l2 -2 q1 -1 2 -2 l0 -3 q-1 -3 -1 -6 l0 -5 l1 -4 q0 -2 -1 -5 l-1 -10 l0 -7 q0 -1 1 -3 l0 -3 q1 -1 1 -2 q0 -1 -1 -2 l-1 -3 q-1 0 -1 -1 q0 -3 3 -4 l0 -24 l1 -6 q0 -5 -1 -6 l0 -55 q-1 -3 -4 -6 q-2 -3 -4 -3 l-2 1 ZM197 -7 l0 1 q0 1 1 2 l4 0 q11 0 14 4 q4 5 4 19 l0 1 q1 2 1 3 q1 4 1 12 l1 4 l0 4 l1 36 q0 2 -1 3 l0 15 l-1 29 l0 34 l-1 2 l0 1 q0 9 -1 15 q-1 4 -3 7 q0 1 -1 2 l-2 3 l-2 3 l3 3 l4 5 q3 3 6 4 q3 2 4 2 q1 0 3 -2 l1 -1 l1 -1 q1 -1 1 -2 l2 -1 l5 -3 q1 -1 2 -2 q6 -5 6 -9 q0 -3 -1 -6 l-4 -7 q-1 -1 -2 -3 q-1 -3 -1 -7 l0 -32 q-1 -3 -1 -4 l0 -7 q1 -5 1 -7 l-1 -14 l0 -44 l1 -22 q0 -3 -3 -7 l1 -1 l0 -17 q-1 -9 -5 -15 q1 -1 1 -2 q0 -2 -5 -7 q-7 -7 -13 -7 q-4 0 -5 5 q-1 0 -1 1 l0 3 q-1 2 -2 3 q-4 3 -13 4 ZM229 -4 q0 1 -2 1 q-1 0 -1 -1 l3 0 ZM104 8 l10 9 q2 5 4 7 l1 2 q2 1 2 2 q2 2 5 7 q1 3 2 4 q1 3 1 4 q0 1 1 2 l0 1 q1 1 1 2 q3 3 3 5 l2 7 q3 5 3 11 q0 1 -1 1 q-2 0 -3 -1 l-1 0 q-3 0 -5 9 l0 7 l-1 5 l-1 2 q-1 1 -1 2 l0 1 l-1 1 l0 2 q-2 3 -4 3 l-1 -1 l-1 0 q0 -3 -1 -7 l-3 -6 q-1 0 -2 -1 l-3 -6 l-1 -2 q-1 -2 -2 -2 q-1 0 -1 1 q-1 0 -1 1 l0 2 l4 7 q0 2 1 3 q0 1 1 3 l2 6 l0 2 q0 1 1 4 l2 2 q1 2 1 3 l0 5 l3 9 q1 1 2 2 q1 4 1 6 q1 4 2 6 l0 1 q0 1 1 2 l0 1 l2 4 q2 5 2 9 l0 1 q0 2 -3 3 q-3 2 -8 2 l-2 -1 q-3 1 -3 5 q0 1 2 2 q3 1 7 2 q8 1 17 1 l3 0 l6 1 l6 0 q1 1 3 3 q1 1 2 2 l2 2 l3 3 q2 1 3 1 l2 0 q1 0 1 -1 l8 -9 l0 -4 q0 -3 -6 -4 l-4 0 q-2 0 -2 -1 l-3 0 q-1 0 -1 1 l-2 0 q-1 0 -3 -1 q-1 -1 -2 -1 l-3 0 l-4 -1 q-7 0 -7 -3 l1 -1 l1 -5 q0 -3 -2 -6 q0 -1 -1 -3 l-5 -7 q-1 -3 -1 -5 q0 -4 9 -4 q1 0 3 1 l3 0 q5 0 7 2 l3 5 q2 2 4 2 l1 0 l5 -7 q3 -4 3 -8 q0 -1 -1 -2 q0 -1 -1 -3 l-2 -2 q-1 -1 -1 -2 l-5 -15 l-1 -1 l-2 -7 l-1 -5 q0 -2 -1 -2 q0 -2 -1 -2 q-3 -5 -4 -11 l-4 -9 q-2 -5 -4 -9 l-2 -5 l-1 -4 l-1 -2 l-3 -4 l-3 -5 q-2 -1 -3 -4 q-1 -1 -1 -2 q-1 -2 -2 -3 q-2 -3 -5 -6 q-2 -1 -4 -3 l-4 -5 q-5 -6 -9 -6 q-3 0 -3 2 l0 1 ZM91 25 q-1 0 -1 -1 l1 0 l0 1 ZM234 32 q-1 0 -1 -1 q0 -1 1 -1 l0 2 ZM183 54 l0 15 l1 14 l-1 6 l-1 13 q-1 3 -1 6 l1 16 q0 1 -1 2 l0 18 q0 4 -5 9 l0 2 l4 5 l2 0 q1 0 4 -2 q1 0 3 -1 l3 -2 q9 -6 9 -13 q0 -2 -1 -7 q-1 -5 -1 -8 l0 -65 q-1 -5 -1 -9 q-2 -11 -7 -11 l-1 0 l-3 2 l-2 2 q0 2 -1 5 l-1 3 ZM138 78 q0 -2 1 -2 l0 2 l-1 0 ZM232 80 q-1 0 -1 -1 q0 -1 1 -1 l0 2 ZM124 110 q0 -3 2 -6 q1 -2 4 -4 l2 -3 q2 -1 2 -2 q2 -1 2 -2 q0 -1 3 -4 q2 -3 4 -3 q1 0 2 2 q1 1 1 4 l1 6 q1 3 1 5 q1 2 2 6 q1 4 1 7 l0 3 q-1 0 -2 1 l-3 0 q-2 1 -4 2 q0 -1 -5 -2 l-5 0 q-2 -1 -3 -2 q0 -1 -1 -2 q0 -1 -1 -2 l-2 -2 q-1 -1 -1 -2 ZM221 191 q-1 0 -1 -1 l1 0 l0 1 Z" /><glyph glyph-name="uni4F9B" unicode="&#x4f9b;" d="M71 -29 q0 1 1 2 l2 1 q0 1 2 2 l6 3 l2 1 q3 2 4 5 q6 4 14 12 q7 4 14 15 l5 8 q4 6 6 9 q1 3 4 6 l0 1 q0 1 1 2 l1 2 q1 1 1 2 q0 6 -2 11 l-1 3 q-1 2 -1 4 q0 2 6 2 q5 -1 11 -7 l4 -4 q2 -2 3 -2 l0 -5 q0 -3 -5 -9 l-4 -5 q-2 -3 -3 -5 q0 -1 -1 -2 l-2 -1 q0 -1 -1 -1 q-1 -1 -2 -2 q-1 -1 -1 -2 q-1 0 -1 -2 l-2 -4 q-3 -6 -8 -6 q-6 -11 -17 -20 q-9 -7 -23 -14 q-6 -3 -10 -3 q-1 0 -2 1 q-1 1 -1 2 ZM69 -2 q-1 4 -1 11 q0 8 1 14 q-2 2 -2 7 l1 5 l-1 9 l0 32 q-2 6 -3 17 l-1 9 q0 5 -1 9 q-3 0 -10 -8 l-5 -6 q-3 -4 -5 -5 l-1 -2 l-1 -3 q-1 -4 -4 -6 q-2 0 -3 -2 l-3 -3 l-1 -2 q-1 0 -2 -1 l-2 -1 q-1 -1 -2 -2 q-2 -3 -7 -7 l-2 -1 l-1 -1 l-1 -1 q-1 0 -2 1 l0 1 q0 3 5 8 l8 7 q0 2 4 6 q3 5 3 9 l8 10 q0 1 1 2 q5 7 8 12 q9 14 13 27 l3 9 l1 1 q1 1 1 2 q1 2 1 3 q1 2 1 3 l1 5 q1 2 1 3 l2 5 l0 3 l2 5 l1 3 l1 4 l0 4 q0 1 -2 2 l-5 2 l-3 2 l-1 1 q0 2 3 4 q1 1 2 2 q0 1 1 2 q1 0 1 1 q3 3 7 3 l2 -2 l6 -3 q7 -5 8 -7 q7 -2 7 -10 q0 -3 -3 -8 l-3 -4 l-1 -2 l-3 -9 l-7 -11 q-4 -7 -6 -11 q0 -12 1 -22 l1 -30 q0 -16 1 -20 q0 -3 1 -7 l0 -3 l2 -8 l0 -28 l1 -13 l-1 -6 l0 -5 q0 -4 -1 -7 q-2 -1 -4 -4 q-2 -1 -2 -2 l0 -1 l-1 1 l-2 0 q-1 0 -2 1 l-1 4 q-1 2 -2 3 ZM198 16 l-1 2 l-5 7 l-2 3 l-1 1 q-2 2 -2 5 q0 1 -2 3 l-4 3 q-5 5 -5 9 q-1 3 -6 7 l-3 3 l-6 4 q-2 2 -2 4 q0 2 3 2 l2 0 l2 1 q4 0 7 -3 l5 -5 q6 -4 16 -10 l7 -6 q4 -3 7 -5 l7 -3 q4 -3 6 -4 l8 -9 q3 -4 3 -9 l0 -7 q0 -3 1 -3 l-1 -2 l-1 -2 q-2 -1 -4 -3 l-1 0 l-2 -2 q-3 -3 -8 -3 q-1 1 -2 2 q-1 1 -3 2 l-1 1 l-4 2 q-5 3 -5 10 l-2 2 l-1 1 l0 2 ZM221 11 l0 1 l0 -1 ZM222 16 q-1 0 -1 -2 l2 0 q0 2 -1 2 ZM128 22 q0 -2 1 -2 l0 2 l-1 0 ZM132 60 q-1 0 -1 -1 l1 0 l0 1 ZM95 81 l1 2 l0 1 l10 1 l18 1 q5 1 7 2 l0 21 l-1 2 l0 2 l1 1 q-1 2 -1 3 l0 8 q0 5 -2 11 l-1 1 l-15 0 l-2 -1 l-4 0 q-4 0 -7 5 q-1 2 -2 4 l0 2 q0 2 1 2 l3 0 l22 2 q5 0 5 2 l0 26 q0 1 -2 3 q-1 1 -2 2 l-2 1 l-1 1 q-1 1 -1 2 l2 4 q0 1 1 2 q1 3 5 3 q1 0 9 -4 q8 -4 11 -7 l0 -19 q0 -4 1 -7 q1 -8 6 -8 l17 1 l3 4 l0 34 q0 5 -4 7 q-3 2 -3 5 l4 7 q2 3 3 4 q1 2 3 2 q2 0 6 -4 l4 -2 q2 -2 3 -3 q2 0 7 -3 q3 -2 4 -4 q2 -1 2 -3 q0 -2 -2 -4 l-4 -5 q-1 -1 -1 -2 q-2 -2 -2 -5 l0 -2 q0 -1 1 -2 l0 -16 q1 -6 5 -6 q3 0 6 2 q1 0 2 1 l3 4 q1 1 2 2 q2 2 4 2 q2 0 6 -4 l1 -1 q1 -1 2 -2 q2 -1 3 -2 q1 -1 3 -3 q1 -1 2 -1 l1 -1 q4 -4 4 -7 q0 -5 -9 -5 l-13 1 l-6 -1 l-6 0 q-6 0 -8 -3 l0 -14 l-1 -8 q0 -12 1 -21 q0 -1 2 -2 l4 0 q8 0 14 6 l3 5 q3 2 5 2 q3 0 7 -3 q4 -3 8 -3 q0 -2 2 -5 q0 -1 2 -2 l5 -4 q1 -1 2 -2 q1 -2 1 -4 l0 -1 q0 -1 -2 -3 q-2 -2 -3 -3 l-7 1 l-3 0 q-4 0 -8 2 q-2 0 -3 1 l-1 1 l-2 -3 q-2 -1 -4 -1 q-6 0 -14 1 l-6 1 l-8 0 q-1 -1 -2 -1 l-3 0 l-3 1 l-2 0 q-3 -1 -7 -1 l-3 -1 l-14 -2 l-18 0 q-1 0 -2 -1 q-2 -1 -5 -1 l-13 -2 q-3 0 -5 -1 l-2 0 q-1 0 -1 1 q-1 -1 -2 -1 q-1 0 -2 -1 l-3 0 q-3 -1 -7 -1 l0 2 l-3 12 ZM150 96 q1 -9 11 -9 l7 1 l5 0 l2 1 l1 10 l0 18 q-1 12 -1 20 l-1 1 q0 1 -1 2 q-2 0 -6 1 l-7 0 q-3 0 -7 -1 q-4 -2 -4 -3 l0 -9 l1 -18 q1 -5 1 -10 l-1 -4 Z" /><glyph glyph-name="uni4FE1" unicode="&#x4fe1;" d="M125 -14 q0 3 1 7 q1 5 1 7 l0 50 q0 2 -1 3 q-1 1 -2 3 l-1 0 l0 1 l-1 1 q-1 1 -1 2 q0 1 2 1 q1 1 3 2 q5 2 7 2 q2 0 5 -2 l2 -1 l6 -5 q2 -2 4 -2 l1 1 l2 0 q1 1 2 1 l11 0 q1 1 3 1 l8 1 q7 0 11 -1 l5 0 l3 2 l3 0 l2 2 q1 1 2 3 q1 1 3 3 l4 3 l1 1 q2 0 3 -1 l2 -2 l5 -2 l2 -1 q1 0 2 -1 l2 -2 l1 -1 l3 -2 q1 -1 1 -2 q4 -3 4 -5 q0 -1 -1 -2 q0 -2 -1 -3 l-1 -1 l-1 -2 q0 -1 -1 -2 l0 -2 l-1 -3 q-1 -2 -1 -3 l0 -3 q0 -20 -3 -27 q-4 -7 -17 -11 l-3 0 q-2 0 -3 1 q-9 16 -14 16 q-4 0 -9 -1 q-3 0 -8 -1 l-13 0 l-5 -1 l-5 0 q-1 0 -2 -5 l0 -12 q-1 -7 -4 -11 q-3 -5 -10 -5 q-8 0 -8 11 ZM60 -1 q5 11 6 27 l0 14 l1 15 l0 6 l-1 28 q-1 12 -1 18 q-1 9 -2 9 q-1 -1 -3 -3 l-3 -3 q-5 -5 -7 -8 q0 -3 -7 -10 l-7 -8 q-1 -1 -2 -1 q0 -1 -2 -3 q-2 -2 -5 -5 q-3 -3 -6 -5 q-3 -3 -5 -4 q-2 -1 -4 -3 l-3 -2 q-3 -2 -7 -2 q0 1 2 5 q3 4 6 5 l9 9 q5 5 8 9 q5 3 9 9 q0 1 1 3 l4 8 l2 1 l1 2 q3 4 4 6 l2 5 q0 1 1 3 l2 4 l12 22 q1 5 3 9 l3 5 q2 3 4 9 q3 8 5 21 l1 1 q0 1 -1 2 q0 1 -1 2 l0 1 l-1 2 l0 2 q0 1 2 2 q2 1 5 2 q6 1 11 1 q3 -2 6 -6 q3 -5 3 -8 q6 -2 6 -9 l0 -4 q-1 -1 -2 -2 l-3 -2 q-2 -1 -2 -2 l-6 -8 q-4 -4 -5 -7 l-2 -3 q-1 0 -1 -1 l-3 -4 q-3 -3 -4 -5 q-2 -3 -2 -6 q0 -2 1 -4 l4 -4 l0 -3 q0 -2 -1 -6 l-2 -5 l0 -57 l1 -2 l0 -50 q0 -8 -4 -17 q-5 -11 -10 -11 q-10 0 -10 13 l0 3 ZM147 35 q0 -11 1 -14 q3 -3 12 -3 l8 0 l15 1 q9 1 13 1 q2 2 2 7 l1 16 q0 5 -2 7 l-12 0 l0 3 q-2 0 -2 -1 l0 -1 l-1 -1 q-1 0 -4 -1 l-11 0 q-2 0 -3 -1 q-14 0 -16 -2 q-1 -1 -1 -11 ZM136.5 30 q-0.5 0 -0.5 -1 l1 0 q0 1 -0.5 1 ZM131.5 32 q-0.5 0 -0.5 -1 l1 0 q0 1 -0.5 1 ZM131 34 l0 1 l-1 0 l1 -1 ZM123 87 q6 -1 11 -1 l13 0 l7 1 l27 1 q4 1 8 1 l6 0 q5 1 7 3 q4 3 6 5 l4 3 q1 1 2 1 l3 -4 q1 1 2 1 q1 0 2 -1 l2 -1 l2 0 q2 -2 4 -3 l3 -2 q3 -1 3 -4 q0 -3 -2 -5 q-3 -1 -5 -1 l-8 2 l-13 0 q0 1 -1 1 q-1 0 -2 -1 l-1 -1 l-3 0 l-2 1 l-10 -2 q-12 -1 -17 -1 q-2 -2 -3 -2 l-10 0 l-10 -2 q-3 -1 -6 -1 q-7 -3 -14 -3 q-2 0 -2 3 l-1 2 l0 1 q0 1 -1 3 l-1 3 l0 3 ZM124 119 l6 0 q2 -1 3 -1 l11 0 l1 1 l7 -1 q1 0 2 1 l23 0 q4 1 6 1 q7 0 12 1 q3 1 7 4 l7 5 q1 0 5 -2 q3 -2 6 -4 q8 -7 8 -11 q0 -1 -1 -2 q-1 -1 -2 -1 l-37 0 l-14 -2 q-16 0 -30 -4 l-7 -2 l-3 0 q-2 0 -6 6 q0 1 -1 3 q0 2 -1 3 q-1 3 -2 4 l0 1 ZM96 150 l0 2 l1 0 l4 -1 l1 0 l6 -2 q2 0 4 1 l34 0 l39 2 l3 -1 l11 0 l8 1 l2 -1 l2 0 q5 0 12 5 l5 4 q2 2 3 2 l3 1 q2 2 3 2 q3 0 7 -3 l11 -9 q1 -1 2 -2 q4 -5 4 -9 q0 -7 -7 -7 l-2 0 q-1 0 -2 1 l-6 0 l-2 2 l-2 1 q-1 1 -6 1 l-8 1 q-6 1 -8 1 q-5 1 -6 2 l-21 0 q-11 -1 -20 -2 l-5 -1 l-5 0 q-1 0 -2 -1 l-6 0 l-7 -1 l-2 0 q-1 -1 -2 -1 l-2 0 q-2 0 -6 -1 l-13 -3 q-7 -1 -11 -1 l-3 -1 l-3 0 q-1 0 -2 1 q-1 0 -1 2 l0 1 l-5 14 ZM68 142 q-1 0 -1 -1 l0 -2 q1 0 1 3 ZM69 147 q-1 0 -1 -1 q0 -2 1 -2 l0 3 ZM129 172 q0 2 -1 6 l-1 5 l0 2 q0 2 2 2 l2 0 q6 -1 14 -1 l28 0 q7 0 12 1 l9 10 q1 0 3 1 l3 2 q4 3 7 3 q1 0 3 -1 l3 -3 q4 -3 6 -5 q4 -3 5 -7 q1 -1 1 -2 q0 -1 -1 -3 q-2 -3 -4 -3 l-1 0 l-23 1 l-3 0 l-3 -1 l-14 0 q-3 0 -8 -2 q-4 -1 -7 -1 l-22 -5 q-4 -1 -7 -1 l-2 0 q-1 1 -1 2 Z" /><glyph glyph-name="uni500B" unicode="&#x500b;" d="M71 -9 l1 8 l1 2 l-2 73 q0 22 -1 31 q-1 3 -1 4 q0 1 -1 1 l-1 -1 q-5 -3 -10 -9 l-10 -11 q0 -1 -2 -3 l-1 -1 l-2 -3 l-7 -7 q-8 -8 -17 -11 l0 3 q5 3 11 10 l2 2 q2 1 2 2 l17 29 q3 4 4 4 q1 -1 1 -2 q1 0 1 2 l1 1 l0 2 l-1 0 l0 1 l1 3 l1 2 l1 2 q0 1 1 2 l1 4 q1 2 3 6 l1 1 l3 5 q1 3 2 6 l2 4 l0 1 q2 7 4 10 q4 8 5 14 q2 8 2 15 q0 1 -1 2 l-1 1 l-1 2 l0 2 q0 3 5 5 q5 2 9 2 q2 0 5 -4 l2 -3 q1 -2 2 -2 l2 -3 q1 -1 2 -2 q2 -2 3 -4 q3 -5 3 -8 q0 -5 -4 -9 q-6 -3 -10 -10 q-2 -2 -4 -6 l-2 -6 l-3 -4 q0 -1 -1 -1 q-1 -2 -1 -3 q-1 -2 -1 -3 q0 -1 1 -2 l1 -1 l1 -1 q1 -1 2 -2 q1 -1 1 -3 q0 -1 -1 -3 l-2 -4 l0 -3 l-1 -6 l0 -49 q1 -6 2 -13 l0 -28 q1 -9 1 -14 l0 -6 q0 -6 -2 -11 q-4 -16 -14 -16 q-6 0 -6 10 l1 4 ZM117 -10 q1 5 2 12 l0 1 l2 10 l0 62 l-1 5 l-1 41 l-1 9 l1 6 l-1 7 q0 12 -2 21 l-1 2 l-2 3 q0 1 1 3 q1 2 3 4 q4 3 7 5 l3 0 l7 -3 q2 -1 4 -2 l4 -3 l0 -1 l1 0 q1 -2 2 -2 q1 -1 2 -1 l30 0 l7 1 l18 0 q1 0 7 4 q7 5 14 13 q4 0 6 -2 q7 -4 10 -9 q3 -3 6 -9 q0 -7 -4 -8 q-3 -5 -5 -13 l-1 -7 l0 -79 q0 -5 1 -10 l0 -30 q0 -8 -3 -16 q-4 -10 -11 -15 q-5 0 -9 6 q-5 11 -8 12 l-15 0 l-30 -2 q-10 -1 -16 -2 q-3 0 -4 -1 q-2 -2 -2 -6 l0 -2 q1 -1 1 -2 q0 -3 -3 -5 l-3 -2 l-2 -2 q0 -1 -2 -2 q-1 0 -3 -1 q-2 1 -3 1 q-1 1 -3 2 q-3 4 -3 7 ZM136 81 l1 -10 q1 -3 1 -6 l1 -38 l0 -4 q1 -11 5 -11 l12 1 l5 0 q2 1 4 1 q5 0 9 2 l33 2 l2 0 q3 1 5 2 q3 2 4 12 l0 23 l-1 1 l1 17 q-1 9 -2 16 l0 8 l1 5 l0 4 l-1 19 l-1 4 l0 12 q-1 8 -2 13 q-1 7 -2 9 l-18 -1 q-8 -1 -11 -1 q-1 0 -2 -1 l-1 -1 q0 -1 1 -2 l2 -2 q2 -1 2 -2 q1 -1 1 -3 l0 -2 l-1 -2 l0 -4 q0 -5 -1 -7 l0 -3 q0 -2 1 -3 q1 -4 4 -4 q4 0 8 3 l3 2 q1 1 2 1 l1 0 l1 -1 l6 -6 l0 -1 q0 -6 -7 -6 l-2 1 l-6 0 q-5 -1 -9 -1 q-4 -3 -5 -8 l0 -9 q0 -3 -1 -7 q-2 -4 -2 -7 l0 -2 q1 -1 2 -1 q3 0 7 4 q4 4 7 4 q10 0 13 -11 q-3 -8 -4 -18 l0 -18 q0 -1 -1 -2 l-3 0 l-12 1 l-11 -3 q-6 -1 -9 -2 l-3 -1 q1 0 1 -1 q0 -1 -1 -3 q0 -2 -1 -5 q-1 -2 -2 -3 l-1 -1 q-9 0 -9 30 l1 6 q0 5 -1 9 l-1 3 q0 2 -1 3 l-1 5 q-1 3 -1 5 q0 2 1 3 q2 3 4 3 q1 0 3 -1 l2 -1 q2 -1 3 -1 q1 -1 2 -1 q3 0 4 9 q1 4 1 8 l0 6 q0 5 -5 5 q-2 0 -6 -1 q-3 -1 -5 -1 l-2 0 l-1 1 l-2 3 q-2 4 -2 6 l0 1 l16 0 q5 0 9 7 q0 3 -1 6 q0 5 -1 9 q-2 11 -7 11 l-15 0 l-3 -1 q-2 -1 -3 -3 q0 -2 -1 -9 q-1 -8 -1 -10 l1 -3 l-1 -31 l0 -19 ZM164 65 l0 -11 q1 -3 2 -5 l11 0 q8 0 8 10 q0 10 -3 12 q-1 2 -8 2 l-6 0 q-5 -1 -5 -4 l1 -4 ZM122 96 l0 -2 l0 2 ZM84 153 l0 -1 l-4 -11 q-2 -5 -2 -11 l0 -1 q2 1 2 4 l0 3 q3 4 3 7 q1 2 2 5 l1 4 l-1 1 l-1 0 ZM225 172 q-5 -4 -7 -11 q7 7 7 11 Z" /><glyph glyph-name="uni5011" unicode="&#x5011;" d="M61 -13 q0 3 1 10 l2 9 l0 7 q1 1 1 3 l0 50 l-1 7 l0 47 q0 3 -2 3 l-2 -1 l-3 -2 l-7 -11 l-8 -10 q-9 -11 -18 -19 q-2 -4 -8 -4 q0 3 5 9 l8 9 q3 4 5 9 l5 11 q5 7 8 12 l6 13 l3 5 q0 1 1 4 l4 6 q3 6 5 9 q2 5 4 10 q4 10 4 21 l-1 3 l0 7 q0 4 7 5 l8 2 q1 0 3 -3 l4 -6 q3 -3 5 -5 q3 -3 4 -3 q4 0 7 4 q3 3 6 3 q3 0 5 -2 q1 0 2 -2 l4 -4 l3 -2 q2 -2 5 -2 l4 0 q3 0 4 1 q1 0 3 2 l3 3 q3 5 6 5 q1 0 2 -1 q2 -1 4 -3 q1 -2 4 -4 q0 -1 2 -2 l1 -2 q2 -2 2 -7 l-1 -2 l-2 -2 l-2 -12 l0 -52 q0 -1 -2 -2 l-13 -1 q-4 -1 -5 -1 l-19 -3 l-1 -1 q-1 -2 -1 -5 l1 -23 l-1 -7 l0 -4 q1 -3 2 -5 l-1 -6 l0 -21 l1 -8 l0 -17 q0 -3 -2 -9 q-1 -6 -1 -9 q-1 0 -2 -2 l-3 -3 q-4 -5 -7 -5 q-1 0 -3 2 q-1 1 -2 4 q-3 5 -3 8 q0 2 1 4 l0 2 l1 2 q2 9 2 22 l0 52 q0 4 -1 5 l0 69 q0 13 -1 20 q-1 8 -3 8 q-6 0 -10 -5 q-2 -2 -4 -4 l-2 -5 q-1 -1 -1 -2 l-4 -5 q-2 -5 -2 -8 q0 -3 3 -6 q3 -4 3 -7 q0 -1 -1 -3 q0 -1 -1 -3 l-1 -2 l0 -8 l-1 -1 l0 -3 q-1 -3 -1 -4 l0 -104 q0 -13 -1 -19 q-1 -4 -6 -10 l-1 -1 l0 -1 q-1 -1 -2 -2 q-1 -2 -3 -2 q-4 0 -6 5 q-1 4 -1 8 ZM216 5 q2 6 3 14 q1 5 1 14 l0 16 q0 6 -1 11 l0 35 l-1 8 q-1 10 -4 10 q-6 0 -15 -1 q-5 -1 -7 -1 l-6 0 q-3 1 -5 6 l-1 4 l0 9 l1 8 l0 3 q1 3 1 6 l-1 5 l0 15 q0 3 -1 6 q0 7 -1 11 q-1 1 -2 3 l0 1 l-1 1 q-1 2 -1 3 q-1 1 -1 2 q0 1 3 3 q3 1 5 1 q1 0 3 -1 l3 -2 l6 -2 q3 -1 7 -1 q3 0 9 1 q1 0 2 1 l1 0 l6 1 q1 1 2 3 l3 4 q3 4 5 4 l1 0 l10 -6 q7 -6 7 -12 q0 -4 -2 -6 q0 -2 -1 -3 l-2 -2 q-3 -5 -3 -14 l2 -12 l1 -27 l0 -50 q1 -1 1 -3 l0 -7 q1 -2 1 -4 l1 -12 q1 -8 1 -13 q0 -7 -1 -14 l-3 -15 l0 -1 q0 -1 -1 -2 l-1 -1 l0 -1 q-1 -4 -7 -10 q-7 -6 -11 -6 q-1 0 -4 2 q-2 3 -2 5 l0 13 ZM115.5 -2 q-0.5 0 -0.5 -1 l1 0 q0 1 -0.5 1 ZM115 30 q-1 0 -1 -1 l1 0 l0 1 ZM115.5 40 q-0.5 0 -0.5 -2 l0 -1 q1 0 1 1 q0 2 -0.5 2 ZM115 47 l1 2 l-1 -2 ZM116 55 l0 -1 l0 1 ZM116 59 l0 -1 l0 1 ZM117 65 q-1 0 -1 -1 l1 0 l0 1 ZM124 122 q0 -1 1 -2 q1 -2 2 -2 q13 0 16 3 q4 3 4 13 q0 10 -7 10 q-7 0 -10 -2 q-6 -2 -6 -7 l0 -13 ZM197 137 q0 -12 7 -12 q5 0 7 1 q4 1 6 4 l0 14 q0 4 -7 4 l-2 -1 l-4 1 q-2 0 -5 -3 q-3 -3 -3 -5 q0 -1 1 -2 l0 -1 ZM124 163 q0 -10 11 -10 q7 0 9 6 q1 2 1 5 l0 5 q0 2 -1 4 l-1 1 l-14 0 q-1 0 -2 -1 q-1 -1 -2 -4 l0 -4 l-1 -2 ZM197 164 q0 -5 3 -7 l5 -1 q2 0 4 1 q8 1 8 7 l0 1 l-1 12 q0 4 -6 4 q-3 0 -7 -1 q-2 0 -3 -1 q-2 -1 -2 -2 l-1 -3 l0 -10 Z" /><glyph glyph-name="uni5047" unicode="&#x5047;" d="M99 -16 q1 0 3 1 l3 0 q2 1 3 1 q6 3 13 7 l12 7 q6 3 7 5 q1 0 2 2 l2 2 q3 2 4 4 q2 2 3 3 q2 2 2 4 q0 2 2 5 l7 9 q2 2 2 5 q0 6 -3 12 q-2 5 -2 9 q-2 6 -2 15 q0 3 -2 8 q-1 5 -1 8 q0 2 -3 5 q-3 3 -3 6 q0 3 5 3 l9 0 q1 0 3 1 l17 0 q7 0 14 5 l4 4 l1 1 q3 3 6 4 l1 0 q4 0 6 -3 l2 -2 q1 -1 1 -2 q3 -3 7 -6 l0 -1 q0 -3 -3 -7 q-3 -5 -7 -5 q-1 0 -2 -3 l-1 -3 q-1 -2 -2 -3 l-2 -2 q-1 -1 -1 -2 l-11 -20 l-4 -6 q-3 -5 -3 -9 q0 -7 10 -13 l7 -4 q4 -3 5 -6 l4 0 l4 -1 q2 -1 3 -1 q0 -1 6 -3 l12 -5 q8 -3 12 -5 q5 -2 5 -3 q0 -2 -7 -2 q-1 -2 -2 -3 l-3 0 l-1 -1 l-3 0 l-17 -9 q-3 0 -7 3 q-3 4 -6 4 q-3 4 -8 7 l-9 7 q-2 1 -4 4 l-4 5 q-5 7 -9 7 q-1 0 -2 -1 q-1 -1 -3 -2 q-1 -1 -2 -3 l-2 -1 q0 -3 -5 -7 l-5 -3 q-2 -2 -3 -4 q-1 -1 -3 -1 q0 -1 -1 -1 l-1 0 l0 -1 q-3 -1 -3 -2 q-2 -1 -5 -3 q-1 -1 -3 -2 l-3 0 q0 -1 -2 -1 l-4 -3 l-2 -1 l-11 -4 q-1 0 -2 -1 l-2 -1 q-2 -1 -3 -1 q-1 1 -2 1 l-1 -1 q-1 0 -3 -1 l-2 -1 l-3 0 q-1 0 -1 1 l2 1 ZM56 8 l2 42 l1 3 l1 28 l0 22 q0 13 -4 13 q-1 0 -3 -2 l-3 -4 l-12 -14 q-8 -8 -15 -13 q-3 -4 -6 -7 q-5 -3 -9 -3 q0 4 6 7 l4 4 q2 1 3 3 q1 1 2 4 l1 1 l0 2 l1 1 l1 2 q2 1 2 2 l2 3 l1 3 l10 15 q5 8 8 15 l1 1 q0 1 1 3 l2 4 l4 14 q0 4 2 7 l2 7 q3 8 3 14 q0 7 -1 9 l-2 2 l-1 1 l0 2 q0 4 4 4 q3 0 6 -2 l2 -1 l0 -1 l4 -2 l3 -1 q1 0 3 -1 q2 0 3 -1 q9 -5 9 -10 l-1 -2 l0 -2 q-9 -9 -16 -21 q-5 -10 -10 -23 l1 -2 l5 -6 l1 -1 l0 -6 q-1 -5 -1 -10 l-1 -2 l0 -22 l-1 -12 l1 -5 l-1 -4 l-1 -3 l1 -1 l0 -24 q1 -3 1 -6 l0 -13 q-1 -5 -2 -13 l-1 -11 q-2 -6 -7 -6 q-4 0 -5 6 q-1 2 -1 4 l0 9 ZM96 43 l-1 2 l0 1 q0 1 1 2 l0 32 l-1 2 l0 44 l1 2 l-2 8 l0 17 l-1 4 q-1 1 -1 2 l0 2 q0 1 -1 2 l-1 2 l0 1 q0 3 3 4 q2 1 4 1 l3 0 l9 -6 l3 0 l1 1 l1 1 q9 0 13 5 l1 1 l1 3 q2 4 5 5 l2 -1 l5 -3 q7 -4 7 -9 q0 -2 -1 -4 l-3 -4 l-1 -14 l0 -9 l1 -5 l1 -4 l0 -7 q-1 -1 -2 -1 l-3 0 q-1 1 -2 1 l-1 0 q-3 0 -8 -1 q-5 -2 -8 -2 l-10 0 q-4 -1 -4 -6 l1 -12 l0 -5 q1 -8 5 -8 l15 1 l6 -1 l2 1 q2 1 3 1 l1 -1 l0 -2 q0 -4 -2 -5 l-13 -1 q-17 0 -17 -5 q1 -3 1 -7 l0 -5 q0 -10 8 -10 l22 0 q2 0 2 -3 l0 -4 q-1 -2 -2 -3 l-7 0 q-5 -1 -10 -1 q-13 -1 -13 -5 l0 -12 l-1 -2 q0 -1 1 -3 l0 -3 q0 -17 -10 -17 q-1 0 -2 1 q-1 1 -1 2 l0 40 ZM61 47 q-1 0 -1 -1 l2 0 q0 1 -1 1 ZM160 93 q0 -9 5 -17 q0 -2 2 -3 l2 -4 q3 -4 4 -7 q3 0 5 2 q0 1 1 3 l1 4 q0 1 1 2 l4 8 q1 3 2 5 l-1 1 q0 1 1 2 l2 4 q1 1 1 2 q0 2 -4 3 q-2 1 -6 1 l-4 -1 l-5 0 q-11 0 -11 -5 ZM103 85 q0 -2 3 -2 l2 0 l0 2 q0 1 -2 1 l-1 0 q-2 0 -2 -1 ZM205 87 q0 -1 1 -1 l0 1 l-1 0 ZM160 150 q2 0 6 -1 q4 -2 6 -2 q6 0 12 6 q6 6 6 12 q0 3 -6 3 q-2 0 -5 -1 l-10 -1 l-5 0 q-6 0 -9 9 q0 1 1 2 q1 1 4 1 l5 0 l8 -1 q1 1 5 1 q4 1 8 1 l5 0 q9 0 13 3 l2 2 l1 1 l1 1 q1 2 2 3 q1 1 2 1 l2 -2 l11 -6 q3 -2 3 -3 l0 -2 q0 -7 -9 -11 q-1 -1 -4 -2 q0 -1 -2 -1 l-1 -1 q-4 -2 -5 -3 q-1 0 -3 -2 l-2 -1 q-1 -1 -4 -3 l-6 -3 q-7 -3 -7 -6 q0 -3 3 -5 q1 0 2 -1 l3 -1 q8 -3 8 -10 q0 -3 -7 -7 q-5 -4 -10 -6 q-5 0 -7 3 q0 1 -1 2 l-2 4 l-2 4 l-1 4 l0 3 q-2 4 -4 7 l-3 4 q-4 3 -4 5 ZM108 137 q1 -9 9 -12 q4 0 8 4 q3 4 3 5 l0 16 q-2 6 -11 6 l-7 0 l-1 -1 q0 -1 -1 -4 l0 -14 Z" /><glyph glyph-name="uni50B3" unicode="&#x50b3;" d="M67 8 l-1 8 q1 7 3 10 l-2 9 l0 8 l1 40 l1 3 l1 3 l0 2 q-1 2 -1 3 l0 10 q-1 9 -5 9 q-2 0 -4 -4 l-2 -4 q-1 -2 -1 -3 q-3 -4 -9 -10 q-4 -4 -11 -10 l-1 -1 l-2 0 q-2 -1 -3 -3 q-1 -3 -2 -4 l-1 -1 l-1 -1 l-6 -7 q-2 -3 -4 -4 q-2 -2 -3 -2 q-1 0 -1 1 q-2 -4 -6 -7 q-4 -4 -5 -4 l-2 0 q-1 1 -1 2 l11 12 l0 1 l13 13 l1 2 q1 2 2 3 q1 1 2 2 l2 0 q1 1 1 2 l0 1 l13 21 l12 20 l1 1 l2 2 q4 7 6 13 l0 1 l2 4 q3 6 5 9 q2 3 3 8 l1 3 l1 6 q0 1 1 2 l1 2 l0 4 q0 3 -1 5 q0 2 -1 3 q-1 1 -2 2 l-4 4 q-1 2 -1 4 l0 3 l4 0 q1 1 2 1 l2 0 q4 2 7 2 q5 0 9 -2 l11 -8 l1 0 q1 -1 2 -2 q1 -1 2 -2 q0 -2 -1 -4 l0 -2 l-1 -1 q-1 -1 -1 -2 l-9 -21 q-3 -7 -5 -11 q-3 -6 -6 -11 l-1 -2 q-2 -1 -2 -2 q0 -2 1 -4 l2 -3 l1 -1 q1 -1 1 -3 q1 -3 1 -8 l1 0 q0 -1 -1 -2 l-3 -9 q0 -2 1 -3 q1 -2 1 -5 q0 -2 -1 -6 l-1 -4 l0 -34 l-1 -3 l0 -2 l1 -15 l0 -5 q1 -1 1 -2 l0 -2 q0 -6 -3 -7 l3 -7 l0 -21 l-1 -2 l0 -4 q0 -8 -3 -13 q-2 -6 -7 -6 q-10 0 -10 9 l0 33 ZM184 -18 q1 1 2 2 l5 0 q7 0 8 10 l0 10 q0 7 1 12 l-1 1 q0 10 -2 13 q-2 2 -10 2 q0 1 -2 1 q-2 0 -7 -1 l-9 -1 l-13 0 q-1 -1 -1 -3 q0 -1 2 -3 l2 -3 q1 -1 2 -2 l6 -3 q3 -2 6 -5 q7 -6 7 -12 q0 -1 -1 -1 q-2 -1 -5 -3 l-3 -3 l-1 -1 q-4 -4 -7 -4 q-2 0 -4 2 q-3 2 -3 4 l1 2 l0 5 q0 9 -3 17 l-1 3 l-2 2 q-1 1 -1 3 l0 3 q0 1 -2 2 q-2 1 -5 1 q-5 0 -14 -1 q-9 -1 -14 -1 q-7 0 -11 7 q4 2 12 3 l28 0 q6 1 11 1 l17 0 l7 1 q9 1 14 1 q4 0 6 6 q1 3 1 9 q0 5 -6 5 l-51 0 q-9 0 -16 -1 l-1 -1 l-6 0 q-6 -1 -9 -1 l-1 0 q-3 0 -5 4 q-2 4 -2 7 l0 2 q0 1 1 1 l10 0 q3 0 4 1 q2 0 3 1 l0 18 q0 2 1 4 l0 8 l-2 13 l0 4 q0 6 -1 9 q0 3 -1 6 q-1 2 -2 5 l-2 3 q-1 2 -1 3 q0 1 2 3 q2 2 3 2 q1 0 4 -1 q2 -1 5 -3 l10 -6 q1 0 2 -1 l2 0 l1 1 l2 1 l5 0 l1 1 l2 0 q13 0 13 11 l0 2 q0 2 -1 3 q-1 2 -4 2 l-7 -1 l-34 0 q-2 0 -5 2 q-4 3 -4 5 l1 1 q1 1 2 1 l27 1 l7 0 l4 -1 l4 0 q9 0 9 6 l0 1 l-1 9 q0 8 -3 12 q-2 4 -7 9 l-1 1 l-3 0 q-1 1 -2 2 q-1 1 -1 2 q4 5 10 5 q7 0 16 -3 q10 -4 10 -9 l0 -1 l-2 -4 l0 -3 q0 -2 1 -7 l0 -6 q0 -13 9 -13 l15 0 q10 3 21 11 l4 3 q1 2 3 2 q1 0 4 -2 l2 -1 q1 -1 3 -2 l6 -5 q6 -3 6 -8 l0 -2 q0 -1 -1 -2 l-8 0 q-3 1 -6 1 q-3 0 -6 -1 q-7 0 -11 -1 q-5 -1 -5 -3 q0 -2 2 -5 q1 -1 6 -5 q4 -3 5 -5 q3 -3 3 -5 l-3 -5 q-1 -4 -1 -6 l0 -1 q0 -1 1 -2 l0 -35 q-1 -1 -2 -4 q-1 -3 -1 -5 q0 -2 3 -4 l6 -4 q4 -2 6 -4 q2 -2 2 -4 q0 -2 -4 -6 q-4 -4 -7 -4 l-2 0 l-2 2 q-2 1 -3 1 q-1 1 -3 1 q-6 0 -7 -4 q3 -8 7 -12 l0 -1 q0 -1 2 -2 q2 -1 3 -1 q4 0 7 2 q2 1 4 2 l3 2 l2 2 q2 1 3 1 l3 -1 q2 -2 5 -4 q3 -3 6 -5 q2 -2 3 -2 l0 -5 q0 -3 -3 -3 l-10 0 l-7 1 l-12 0 q-2 0 -4 1 q-6 0 -8 -6 l0 -22 q0 -1 -1 -3 l0 -1 l-1 -1 l0 -5 q1 0 1 -2 l0 -2 q1 -1 1 -2 l-1 -3 q-1 -2 -2 -4 q-2 -1 -4 -2 q-1 -1 -1 -2 l-2 -3 q-2 -2 -5 -4 q-1 -1 -5 -3 q-1 0 -2 -1 q-1 -1 -3 -2 q-1 -1 -2 -1 q0 4 -4 9 q-2 4 -5 8 ZM206 -18 q-1 0 -1 -1 q0 -1 1 -1 l0 2 ZM168 9 q-1 0 -1 -1 q0 -1 1 -1 q1 0 1 1 q0 1 -1 1 ZM18 65 l-1 0 q0 -1 1 -1 l0 1 ZM178 89 l1 -7 l0 -1 q2 -4 5 -7 l3 -1 q2 -1 4 -1 l4 0 q17 0 17 4 q0 3 -3 6 l-2 3 q-1 2 -2 3 l0 2 q0 5 -6 5 l-14 -1 q-1 0 -1 1 l-2 0 l-1 1 l-2 0 q-2 0 -2 -2 l1 -5 ZM136 84 q0 -7 7 -9 q3 -1 6 -1 l12 0 q3 1 3 3 l0 11 q0 1 -2 3 l-1 1 l-1 1 l-19 0 q-3 0 -4 -3 q-1 -2 -1 -3 l0 -3 ZM136 103 l1 -2 q0 -4 2 -4 l13 2 l9 0 l3 4 l0 12 l-2 1 l-9 1 q-5 0 -10 -2 q-6 -1 -7 -10 l0 -2 ZM179 108 q0 -2 1 -3 q1 -4 2 -4 l21 0 q1 0 3 2 q2 1 2 2 l0 13 q0 4 -5 4 l-4 0 l-16 -2 l-1 0 q-1 0 -2 -3 q-1 -3 -1 -7 l0 -2 ZM138 134 q0 -12 8 -12 l12 0 q6 2 7 7 l0 7 q-2 5 -6 5 l-5 -1 l-11 0 q-5 -1 -5 -6 ZM190 125 q6 0 11 1 q7 3 7 8 l0 8 q-1 5 -6 5 q-2 0 -7 -1 l-3 -1 l-3 0 q-9 -1 -11 -11 q0 -5 4 -8 l8 -1 ZM179 160 q0 -7 4 -10 l7 0 q5 0 8 1 q9 1 13 7 q2 2 2 4 q0 2 -4 3 l-4 1 l-5 -1 l-7 0 l-2 1 l-3 0 q-3 -1 -4 -1 q-5 -2 -5 -5 Z" /><glyph glyph-name="uni50F9" unicode="&#x50f9;" d="M85 -27 q0 -5 -3 -5 q0 2 1 3 q1 2 2 2 ZM93 -22 l1 -1 q0 -2 -2 -2 l-3 1 q0 1 1 1 q0 1 2 1 l1 0 ZM205 20 q2 0 6 -1 q3 -1 7 -4 q1 0 2 -1 l5 -3 q5 -2 8 -3 q3 0 6 -3 l3 -2 q2 -2 3 -2 q6 -3 7 -8 l0 -8 q-1 0 -1 -1 l-2 -1 l-1 -1 q-1 0 -1 -1 q-4 -2 -7 -2 q-6 0 -11 6 q-3 2 -5 5 l-4 6 q-1 0 -1 1 l0 2 q0 1 -1 3 q-1 1 -4 3 q-1 1 -2 3 l-7 10 l0 2 ZM104 -13 q0 1 1 2 l4 0 q1 1 2 1 l2 0 q2 0 3 1 q1 0 3 1 l2 2 q1 1 2 1 l3 2 q2 0 3 1 q2 0 3 1 q0 1 1 2 l6 3 q2 1 3 2 q0 2 3 4 l5 2 q7 4 7 7 l0 1 q0 1 -1 2 q-4 0 -9 -1 l-10 0 q-1 1 -2 2 l-1 1 q-1 1 -1 2 l0 5 q0 1 1 2 l0 13 q1 0 1 3 l0 4 q0 1 1 2 l0 25 l-1 11 l0 5 l1 1 l0 1 l-1 1 q-1 6 -5 10 q-4 6 -4 16 l0 10 q1 5 1 8 l-1 7 q-1 6 -1 10 l0 4 q0 3 2 4 l1 0 l1 -1 l0 -1 q1 0 2 -1 l4 0 q2 1 3 1 q1 0 2 -1 l3 -2 l14 0 q2 0 3 2 l0 4 q-1 3 -1 7 l0 1 l-1 4 q-1 6 -6 6 q-4 0 -12 -2 l-1 0 l-7 -1 l-2 0 q-9 0 -9 9 q0 2 10 3 q3 0 7 1 l5 0 q1 0 2 -1 l6 0 l4 1 l21 0 q6 1 12 2 q1 0 2 -1 l6 1 l5 -1 l2 0 l7 1 l5 0 q9 1 15 1 l11 8 q2 1 3 1 l1 0 q1 -1 3 -3 l3 -2 q4 -3 4 -6 q0 -4 -4 -5 l-12 -2 l-25 1 q-1 0 -2 -1 q-1 -1 -3 -2 q0 -1 1 -3 q0 -1 1 -2 l1 -2 q1 -1 1 -2 l-1 -7 q0 -3 2 -4 l5 -2 q5 0 9 4 l4 2 q2 2 4 3 l3 -2 l2 -1 l3 -3 q5 -4 7 -6 l1 -1 q0 -6 -2 -9 l0 -16 l-1 -2 q-1 -1 -1 -2 l2 -1 q0 -1 -2 -3 q-1 -1 -1 -2 q-1 -1 -1 -3 q-1 0 -2 -2 q-1 -1 -2 -2 l-3 -3 q-4 -3 -4 -5 l0 -3 q1 -1 2 -2 l1 -1 q1 -1 1 -2 q0 -2 -1 -3 l-3 -5 q-1 -2 -1 -4 q0 -1 1 -3 l0 -2 q0 -2 1 -3 l0 -16 q1 -7 3 -13 l0 -10 q0 -5 -1 -8 q-1 -8 -8 -13 q-1 0 -2 -1 l-1 -1 l-2 -2 l-2 -1 l-2 0 q-2 0 -3 1 l0 1 l-1 1 q0 2 -1 3 l-2 2 l-2 2 q-5 0 -14 -1 q-8 -2 -13 -2 q-1 0 -2 1 l-3 0 q-2 -1 -4 -1 q-6 -2 -6 -5 l3 -8 q0 -2 -2 -4 l-3 -2 q-2 -5 -10 -9 l-26 -10 l-1 -1 l-9 -3 l-2 0 q-1 0 -2 -1 q-1 -1 -2 -1 q-1 -1 -3 -1 l-2 0 l-3 1 q-4 1 -4 4 ZM72 12 l1 11 l0 8 q0 8 2 12 l-1 3 l0 12 l1 13 l0 1 l-1 31 q0 2 1 3 l-1 6 q0 1 1 1 l-1 6 l0 2 q0 6 -4 6 l-1 -1 l-7 -9 q-2 -2 -3 -3 q-3 -1 -5 -7 l-8 -5 q-5 -4 -10 -9 q-3 -1 -8 -5 l-2 -1 q-2 -1 -3 -2 q-3 -2 -5 -3 l-2 -2 q-2 -1 -3 -2 l-4 -2 l-1 0 l2 4 l15 16 q2 0 3 1 q2 2 2 3 q3 3 7 7 l4 4 q2 2 3 4 q9 8 13 16 q0 1 1 3 l3 2 q4 5 4 7 l1 2 l2 1 l0 1 q0 1 2 3 q3 4 3 7 q0 1 1 3 l1 3 q1 4 2 7 q2 1 2 4 l1 3 q1 1 2 3 l0 5 q1 1 2 2 l0 6 q0 3 1 4 q0 3 -1 8 l0 4 q-1 3 -1 4 q0 2 2 2 q0 1 2 1 q2 0 4 -1 l1 1 q4 0 11 -7 q8 -8 10 -14 q0 -1 -1 -3 l-3 -6 q-1 -1 -1 -2 l0 -1 l-6 -10 q0 -1 -1 -2 l-2 -2 q-1 -3 -2 -5 l-4 -4 q-1 -1 -1 -2 l0 -20 l-1 -12 q1 -18 1 -35 q2 -9 2 -26 q1 -5 1 -12 l0 -10 l-2 -34 q0 -3 -5 -10 q-2 -3 -4 -5 q-3 -2 -4 -2 q-1 0 -2 2 q-2 2 -3 5 q-3 5 -3 6 l0 7 ZM153 38 q0 -2 3 -3 q3 -1 5 -1 l2 1 l3 0 q9 2 17 2 l7 0 l3 1 l2 0 q11 0 17 -1 q2 0 3 1 q1 0 2 2 l1 1 q0 1 1 2 l-1 2 l0 2 l1 14 q-2 8 -2 15 l0 13 q-1 8 -4 11 l-13 0 q-3 -1 -5 -1 l-7 0 q-2 0 -8 -1 q-6 -1 -9 -1 l-11 0 q-7 -1 -8 -4 q-1 -1 -1 -2 q0 -1 -1 -2 q0 -1 1 -2 q1 -1 2 -2 l1 -2 l1 0 l1 -1 l7 -1 l2 1 l16 0 q9 0 15 1 q2 0 3 1 q1 0 2 1 l2 1 l2 0 q3 0 3 -3 q0 -5 -7 -5 q-5 0 -10 -1 l-19 -2 l-13 0 q-7 0 -7 -9 q0 -5 4 -8 l9 0 q1 1 2 1 l5 0 l13 1 q5 0 9 3 q3 4 6 4 q2 0 4 -3 q2 -3 2 -5 q0 -4 -4 -4 l-5 0 q-2 -1 -4 -1 l-8 0 q-1 0 -2 -1 l-3 0 l-9 -1 l-3 0 l-4 -1 l-5 0 q-2 0 -4 -1 q-2 -1 -2 -2 l0 -10 ZM225 53 l1 0 l0 1 l-1 0 l0 -1 ZM225 96 l0 -1 l0 1 ZM143 101 q0 -1 2 -1 l0 2 q-2 0 -2 -1 ZM77 102 q-1 0 -1 -1 q0 -1 1 -1 q1 0 1 1 q0 1 -1 1 ZM147 102 l-1 0 q0 -1 1 -1 l0 1 ZM137 109 q0 -1 4 -2 q4 -2 6 -2 l23 1 l8 0 q8 0 12 2 l12 0 q6 0 8 3 q3 2 6 5 q2 1 4 2 l3 0 l7 -2 q2 0 2 1 q1 1 1 3 q0 3 -1 6 q-1 4 -3 5 l-6 0 q-4 0 -4 1 q0 -1 -3 -2 q-3 -1 -7 -1 l-3 -1 l-20 0 q-7 -1 -12 -2 l-4 0 q-1 0 -2 -1 l-6 0 q-2 0 -4 -1 l-2 0 q-1 0 -1 -1 l-3 0 q-2 -1 -3 -1 l-5 0 l-7 -7 l0 -6 ZM140 145 q0 -13 10 -13 l3 0 q2 1 3 2 l2 0 l2 2 q1 2 2 2 q-1 0 -1 2 l0 5 q-1 6 -5 7 l-10 0 q-6 -2 -6 -7 ZM176 137 q2 -3 7 -3 l3 0 l4 1 q5 1 5 4 l-2 13 l0 1 l-2 3 q-7 0 -12 -1 q-3 -1 -4 -7 l1 -11 ZM232 141 q0 6 -1 11 q-2 8 -5 8 l-10 0 q-1 0 -3 -2 q-2 -2 -2 -3 l0 -15 q0 -2 4 -4 l5 0 q12 0 12 5 ZM209 148 q-1 0 -1 -1 q0 -1 1 -1 l0 2 ZM172 185 q0 -2 1 -2 q1 -1 2 -2 l2 -2 l0 -10 q0 -2 3 -3 q2 -1 4 -1 q7 0 9 5 l0 8 l-1 8 q-2 3 -7 3 l-4 0 l-5 -1 q-4 -1 -4 -3 ZM196.5 188 q-0.5 0 -0.5 -1 l1 0 q0 1 -0.5 1 ZM88 213 l1 0 l0 1 l-1 0 l0 -1 Z" /><glyph glyph-name="uni5143" unicode="&#x5143;" d="M19 -20 q3 2 6 5 l5 4 q7 5 11 10 l6 5 l4 4 q2 1 3 1 q0 2 3 6 q5 6 9 8 l6 11 l2 2 l0 2 l2 6 q1 1 1 2 q0 1 2 3 q1 2 1 3 q2 2 4 8 l6 18 q3 10 3 19 l0 3 l-3 2 q-5 0 -11 -2 l-20 -5 q-5 -1 -9 -1 q-4 0 -6 4 l-2 6 q0 1 -1 3 l-7 6 q-1 1 -1 2 l-1 2 q0 1 2 2 q1 1 2 1 q2 0 6 -1 l7 0 q6 0 18 1 l4 1 l5 0 l9 1 l5 -1 l3 0 q1 1 2 1 l1 0 q5 1 8 1 l10 0 l24 1 q1 0 3 -1 l22 0 l1 1 l4 0 l3 -1 l10 0 q4 3 10 8 l5 4 q2 2 5 4 l2 0 q2 -1 3 -2 l2 -2 q2 -1 3 -1 l15 -15 l1 -2 l0 -3 q0 -6 -6 -6 q-5 0 -14 1 q-10 1 -14 1 l-8 0 l-17 -1 l-15 0 q-3 0 -3 -3 q0 -1 3 -2 l3 -1 q2 -1 3 -2 q0 -1 1 -2 q1 0 1 -1 q1 0 2 -1 q3 -2 3 -6 q0 -1 -1 -3 q-1 -2 -3 -4 q-4 -4 -7 -7 l0 -3 l1 -7 l0 -20 q1 -1 1 -2 l0 -6 q1 -2 1 -3 l0 -18 q1 -10 6 -14 q8 0 20 2 l25 4 q10 0 14 10 q1 1 1 4 l2 5 q1 8 4 8 l1 -6 l2 -11 q1 -3 1 -6 l-3 -6 q-1 -1 -1 -2 q-1 -3 -1 -6 q1 0 3 1 l2 2 l1 2 q2 1 3 1 q1 0 2 -1 q0 -2 2 -4 l1 -3 q1 -2 1 -3 q0 -3 -3 -5 q-2 -2 -5 -2 l-5 0 l-3 1 l-7 0 l-4 -1 l-5 -2 l-2 0 q-4 0 -7 -1 q-1 -1 -2 -1 q-1 -1 -2 -1 l0 -1 l-1 0 q-1 -1 -2 -1 q-2 -1 -5 -1 l-14 0 q-3 0 -7 -1 l-3 0 l-7 -1 q-3 -1 -4 -1 q-5 0 -6 2 q-9 8 -11 14 q-1 4 -1 13 l-1 15 l1 5 l0 70 q-1 11 -8 11 l-3 0 l-3 1 q-4 0 -10 -2 q-3 -1 -5 -2 q-2 -1 -2 -2 q0 -1 3 -3 q2 -3 3 -4 l6 -4 q1 -1 2 -3 q1 -1 1 -2 l0 -3 q-1 -1 -2 -3 q-1 -1 -2 -2 l-1 -2 q-3 -5 -6 -11 l-7 -11 q-3 -3 -5 -6 l-1 -3 q-1 -2 -1 -3 q-12 -21 -27 -34 q-6 -6 -13 -10 q-2 -2 -6 -4 l-7 -4 l-2 -1 l-2 -2 l-2 -1 l-7 -3 l-2 -1 q-1 0 -2 -1 l-1 -2 q-1 -1 -2 -1 q-1 -1 -2 -1 q-3 0 -3 3 ZM147 86 l0 0 ZM143 89 l0 0 ZM67 193 q0 2 1 3 l5 0 q1 0 3 -1 l3 0 q2 -1 3 -1 l6 0 q3 0 4 -1 q3 0 6 1 l11 2 l5 0 l19 -1 l29 1 q5 0 12 5 l6 4 q3 2 4 2 q2 0 3 -2 l1 0 l6 -4 q3 -2 4 -4 q5 -4 5 -10 q0 -6 -7 -6 l-3 0 l-6 1 l-3 0 q-11 -1 -21 -1 l-24 0 q-4 0 -12 -2 q-9 -1 -13 -1 q-5 0 -17 -2 q-6 0 -10 -1 q-5 -1 -6 -2 q-4 0 -6 5 l0 3 l-1 2 q-1 3 -2 4 l-3 3 q-2 2 -2 3 Z" /><glyph glyph-name="uni5148" unicode="&#x5148;" d="M13 -31 q0 1 2 3 q2 1 5 2 l10 4 l10 6 q5 3 9 6 q2 0 3 1 q1 1 2 3 q0 1 1 2 l4 3 l1 2 q2 3 4 7 q1 3 3 5 q2 3 7 10 q0 1 1 2 l12 21 q4 7 4 9 l3 7 q2 4 3 6 q3 7 3 14 l0 3 q0 2 -1 3 q-1 4 -6 4 q-5 0 -12 -1 l-24 -4 l-2 0 q-9 -2 -14 -3 l-5 -2 q-5 -2 -6 -2 q-2 1 -4 5 l-1 3 l-1 2 q-2 2 -5 5 q-2 4 -2 5 l1 2 q10 0 12 -1 l3 0 l2 1 l5 0 q2 -1 4 -2 q2 0 5 1 q2 1 4 2 q1 1 2 2 q2 9 6 14 q4 6 6 13 q2 4 4 13 l1 1 l2 3 l0 1 q4 13 4 29 q0 1 -1 2 l-1 1 l-1 0 q-1 1 -1 2 q-1 1 -1 2 q0 3 3 4 l5 2 q1 0 2 1 l3 2 q1 1 2 1 q1 1 3 1 q3 0 6 -4 l4 -5 q7 -6 10 -11 q0 -2 1 -3 q0 -1 2 -2 q0 -1 -2 -3 l-7 -6 q-2 -1 -2 -2 q-2 -3 -2 -5 q0 -6 5 -6 l2 0 l2 1 l2 0 q2 1 3 1 q0 -1 2 -1 q1 0 3 1 l2 0 q2 1 3 1 l3 0 q3 0 4 8 l0 12 q0 13 -3 20 q-2 5 -9 12 l0 2 q1 1 2 2 l3 1 q2 1 2 2 q1 0 2 2 q2 1 3 1 l1 1 q1 1 2 1 l0 -1 q1 1 2 1 q2 0 4 -1 q5 -2 10 -4 q14 -7 14 -15 l0 -1 q-1 -1 -1 -2 q0 -2 -1 -3 l-2 -2 q-2 -1 -2 -2 q-1 -2 -1 -5 l0 -25 q0 -1 2 -2 l3 0 l10 1 l3 0 l3 2 l2 2 l2 0 l11 9 l2 2 q1 1 2 1 l5 -4 q3 -2 5 -3 q2 0 5 -6 q2 -5 2 -10 q0 -6 -8 -6 l-6 0 l-13 2 l-17 -2 l-14 0 l-1 -17 l0 -7 q1 -10 5 -10 l2 0 l5 2 l3 0 l1 -1 q2 1 10 2 q7 1 13 1 q5 0 11 6 q6 7 10 7 q1 -1 3 -1 q2 -1 4 -3 q4 -2 6 -5 l3 -3 q1 -2 3 -4 q3 -5 3 -9 q0 -3 -3 -4 l-2 -1 l-3 0 q-1 0 -3 1 l-3 0 q-1 1 -2 1 l-15 0 l-5 1 l-21 0 l-1 1 l-1 0 l-10 -2 l-3 0 q-3 -1 -3 -2 l10 -10 q0 -1 1 -2 l0 -2 q0 -2 -3 -5 q-2 -2 -5 -3 q0 -5 1 -7 l-1 -28 l1 -10 l0 -3 q0 -8 8 -8 l6 0 q4 0 5 -2 q8 0 17 2 q7 1 17 4 q5 0 9 10 q1 1 2 5 l2 11 q1 2 1 4 q2 3 3 3 q3 0 3 -7 l0 -11 q0 -5 2 -10 l4 -8 l3 -9 q2 -4 2 -8 q0 -6 -5 -9 q-4 -2 -10 -3 l-9 0 l-19 -1 l-12 0 l-3 -1 l-3 -1 l-9 0 l-2 1 l-2 0 l-5 -1 q-2 0 -7 1 q-4 0 -4 1 l-3 0 q-7 0 -15 13 l1 25 l0 40 l2 0 q1 1 1 2 l-1 0 l0 1 q-1 2 -1 4 l0 3 l-1 3 l1 4 q0 2 1 3 l0 2 q-2 6 -5 8 l-10 0 l-9 -2 l-8 0 q-6 0 -6 -2 q0 -4 6 -7 l3 -2 q1 -1 2 -1 q3 -2 4 -3 l1 -1 q1 -1 3 -2 l1 -1 q0 -1 1 -1 l1 -2 l1 -1 q0 -2 -5 -6 q-5 -4 -5 -9 q-2 -3 -5 -7 l-4 -7 l-4 -6 q0 -1 -1 -2 q-3 -2 -5 -5 q0 -1 -1 -3 l-3 -5 q-1 -1 -2 -2 q-2 -3 -5 -4 l0 -1 q0 -3 -5 -7 l-4 -3 q-1 -1 -1 -2 l-5 -5 q-4 -4 -7 -4 l-7 -7 q-4 -2 -9 -4 l-9 -5 q-1 0 -2 -1 l-8 -4 q-2 -1 -4 -2 q-3 0 -7 -2 q-5 -2 -7 -2 q-3 0 -3 2 ZM198 10 l0 -1 q1 0 1 1 l-1 0 ZM152 25 l0 1 l-1 0 l1 -1 ZM97 63 q0 -1 1 -2 l2 0 q0 1 -1 1 q-1 1 -2 1 ZM150 70 q-1 0 -1 -1 l1 0 l0 1 ZM147 93 q1 -1 2 -1 l4 0 q2 1 2 3 l0 4 q0 2 -2 2 l-1 -1 l-2 -3 q-3 -3 -3 -4 ZM135 101 q1 0 1 2 l-1 0 l0 -2 ZM61 106 l1 -1 l1 -1 l7 0 l14 2 l8 0 q18 2 32 2 q6 0 7 5 l1 4 q0 2 1 2 q-1 2 -1 4 l0 3 q-1 1 -1 4 l-1 4 q-2 6 -6 6 q-2 0 -7 -1 q-5 -1 -7 -1 l-6 0 q-1 0 -3 -1 l-7 0 q-3 -1 -7 -1 q-1 0 -4 -5 l-8 -9 l-5 -6 q-1 -1 -2 -2 q-4 -4 -7 -7 l0 -1 ZM100 139 q1 0 1 2 q-2 0 -2 -1 l1 -1 ZM94.5 143 q-0.5 0 -0.5 -1 l1 0 q0 1 -0.5 1 ZM86 152 l0 -1 l-1 0 l1 1 ZM186.5 160 q-0.5 0 -0.5 -1 l1 0 q0 1 -0.5 1 ZM141.5 175 q-0.5 0 -0.5 -1 l0 -1 q1 0 1 1 q0 1 -0.5 1 Z" /><glyph glyph-name="uni516B" unicode="&#x516b;" d="M5 -14 q3 3 12 10 q5 3 7 5 q4 3 6 5 q10 8 17 17 l15 18 q2 3 5 9 q0 1 1 2 l0 1 l1 1 l8 18 l2 4 q0 3 1 5 l3 4 l2 9 q0 1 1 3 l2 6 q1 3 2 6 q2 8 2 14 l0 2 q-1 2 -2 3 q0 1 -1 2 l-6 4 q-1 1 -1 2 q0 2 2 2 l12 3 q4 1 6 3 q1 0 2 -1 q2 -1 3 -1 l2 -1 l3 -3 l2 -2 l0 -1 l1 0 l1 -1 q1 0 3 -2 l4 -3 l4 -3 l1 -2 q0 -3 -3 -6 l-2 -2 q-1 -1 -1 -2 q0 -1 -2 -4 l-3 -8 q-1 -1 -2 -4 l-4 -7 l-1 0 q-3 -10 -8 -17 l-3 -5 q-2 -5 -3 -6 q-4 -7 -6 -10 l-2 -2 q-1 -1 -2 -3 l-9 -11 l0 -1 q-2 -2 -4 -4 l-7 -8 q-2 -2 -3 -4 q-3 -1 -5 -4 l-7 -5 q-2 -2 -3 -2 q-2 -3 -5 -4 l-10 -7 q-3 -1 -7 -4 l-1 -1 l-6 -4 q-8 -4 -12 -4 q-2 0 -2 1 ZM144 140 q0 5 1 11 l1 11 l-1 1 q0 2 -1 2 q-1 3 -2 3 l-19 0 q-1 0 -2 -1 l-2 0 l-2 -1 l-1 0 q-4 0 -7 5 q0 1 -1 3 l-4 7 l-1 1 l0 2 q0 1 1 2 l5 0 l3 -1 q2 -1 3 -1 l2 1 l22 0 q2 0 5 3 q2 1 6 5 l4 5 l2 2 q6 -3 14 -13 q7 -7 7 -8 l0 -1 q0 -1 -1 -2 q-1 -2 -3 -4 l-6 -5 q-8 -8 -8 -14 l0 -19 l1 -4 l0 -3 q0 -7 5 -18 l8 -18 l3 -4 l2 -3 l5 -6 q4 -7 13 -14 q11 -10 19 -17 q10 -9 20 -17 q3 -3 9 -5 l1 -1 l5 -2 q8 -4 8 -6 q0 -1 -2 -2 q-1 -1 -4 -1 q-5 -1 -9 -1 l-9 -3 q-3 0 -8 -2 q-5 -3 -8 -3 q-3 0 -6 2 q0 1 -2 3 l-2 2 q-3 2 -7 5 l-7 6 q-9 6 -13 12 q-2 1 -4 4 l-4 5 q-7 7 -12 16 q-2 3 -4 8 l-4 9 q-2 5 -3 12 l-1 6 q0 4 -1 6 l-2 14 l-2 26 Z" /><glyph glyph-name="uni516C" unicode="&#x516c;" d="M158 5 l-5 -1 q-5 0 -11 -1 l-19 -2 q-6 -1 -10 -1 l-2 1 l-1 0 q-7 -2 -17 -3 l-8 -1 q-5 -1 -9 -1 l-6 -2 q-4 -2 -7 -2 l-1 1 l-1 0 q0 4 -1 8 l-1 4 l-1 3 l0 4 q0 1 1 1 l6 0 l7 -1 q3 -1 5 -1 q3 0 7 7 l6 11 q3 3 5 7 l10 17 q3 4 5 7 q2 1 3 5 l1 2 l1 2 q1 3 4 5 l0 5 l-1 2 q-1 3 -3 3 l0 1 q0 1 1 2 q1 1 3 2 q5 1 10 1 l5 0 q2 0 3 -1 q1 -1 2 -2 l1 -1 q1 -1 2 -2 l3 -2 q3 -4 3 -6 l0 -2 q-1 0 -1 -1 l-1 0 q-1 -4 -5 -5 l-3 0 q-2 -1 -3 -2 q-2 -1 -5 -5 q-2 -3 -4 -5 q-1 0 -2 -1 l-2 -3 q0 -1 -1 -2 q-1 -4 -6 -9 l-3 -3 l-1 -1 l-4 -5 q-1 0 -2 -2 l0 -1 l-2 -2 l-4 -5 q-3 -4 -3 -6 q0 -3 3 -5 l6 0 l12 -1 l33 0 q1 0 2 1 q1 0 2 1 l2 2 l1 0 q0 1 2 2 q1 0 1 1 q0 5 -6 16 q-5 9 -10 13 q0 1 1 1 q0 -1 4 -2 l4 -2 q2 -1 4 -2 q1 0 3 -1 l2 -2 l1 0 q4 -4 6 -4 q5 0 18 -13 l3 -2 l1 -1 q2 -1 2 -2 l9 -17 q0 -1 -1 -3 q-1 -2 -4 -5 q-7 -7 -15 -7 q-4 0 -9 11 q-5 10 -10 10 l-5 0 ZM8 22 q0 1 4 3 l4 2 q2 1 4 3 l4 4 q2 4 5 6 l2 2 l1 1 q1 0 2 1 l2 1 q3 2 5 6 l6 9 l2 2 q1 1 1 2 q1 1 2 2 q15 25 26 51 q0 1 1 5 q2 4 3 7 q-3 5 -9 12 l0 1 q0 2 4 4 q5 2 9 2 q4 0 8 -4 l8 -7 q1 0 2 -1 l2 -2 q3 -1 3 -4 q0 -1 -2 -5 l-11 -17 q-3 -5 -4 -9 l-3 -6 q-2 -4 -3 -7 q-4 -8 -8 -13 q0 -1 -2 -3 l-13 -16 l-10 -9 q-8 -7 -20 -15 l-12 -6 q-6 -4 -11 -4 q-1 0 -2 1 l0 1 ZM150 167 q-7 0 -15 -1 q-9 -1 -15 -4 l-1 0 q-3 0 -5 3 q-3 3 -3 7 q0 2 2 2 l10 0 q7 0 11 1 q11 1 17 5 l1 2 l1 2 l0 1 q1 0 1 1 l1 1 q0 1 1 3 l0 1 l1 1 l0 2 q2 5 6 6 l4 -4 q0 -2 1 -3 l4 -3 q1 0 1 -1 q0 -1 1 -3 l0 -2 q1 -2 1 -3 l0 -2 q0 -3 -3 -7 q0 -1 -1 -2 q-1 -1 -2 -2 l-2 -4 l0 -7 q0 -1 1 -3 l1 -4 l0 -2 l1 -1 l0 -3 q0 -1 1 -4 q2 -5 5 -12 l6 -11 l4 -6 l18 -18 q3 -1 7 -5 l1 -1 q1 -1 2 -2 q1 -1 2 -2 q4 -2 7 -4 l5 -5 q1 -1 2 -1 q1 -1 3 -2 l1 0 l13 -8 l6 -3 q2 -1 2 -2 q0 -2 -3 -3 q-3 -1 -5 -1 q-7 0 -11 -2 l-16 -7 q-2 -1 -3 -1 q-1 0 -3 1 l-8 6 l-8 7 q-1 0 -5 3 q-5 4 -6 6 q0 1 -3 4 l-2 2 l-2 3 q-1 2 -5 7 l-4 4 q-2 2 -2 4 q-11 11 -14 28 q-1 7 -2 16 l0 15 q0 3 -1 8 l0 6 l-2 3 Z" /><glyph glyph-name="uni516D" unicode="&#x516d;" d="M13 -16.5 q0 0.5 1 2.5 l1 1 l6 3 l6 3 q1 0 3 2 l0 1 l3 2 q0 1 2 2 l3 1 l1 0 l1 1 q2 0 3 1 l2 2 q1 1 2 1 l2 2 q2 0 3 1 q0 2 6 5 q1 1 2 1 q2 1 3 2 q2 3 4 6 q1 1 2 2 q1 2 3 3 l5 4 q1 1 2 2 q2 1 4 3 l3 3 q1 2 2 3 l1 2 l2 3 q1 0 1 1 q5 5 5 8 q0 2 -1 3 q-1 1 -2 3 q0 1 -1 2 l-2 2 q0 3 4 3 l5 0 l3 -1 l14 0 q1 -1 4 -3 q2 -2 4 -5 q3 -3 4 -6 q2 -3 2 -4 q0 -3 -4 -6 l-2 -1 l-2 -1 q-3 -2 -4 -3 q-1 -2 -2 -3 q-1 -1 -2 -1 l-1 -1 q-1 -1 -2 -1 l-3 -3 q0 -1 -2 -1 l-2 -1 l0 -1 q-3 -1 -3 -2 q-5 -5 -12 -9 q-2 -1 -6 -3 l-6 -4 l-18 -11 q-4 -2 -9 -4 l-8 -3 q-9 -5 -17 -6 q-1 -1 -5 -3 q-5 -1 -7 -1 q-1 1 -1 1.5 ZM169 56 q-5 12 -14 16 q-3 4 -9 7 l-9 6 q0 1 -3 3 q-5 3 -8 4 l-1 1 q-2 0 -3 1 q-3 1 -3 3 q0 1 1 1 l2 0 q5 0 11 -4 l5 -3 q2 -2 4 -2 q2 0 5 -2 q1 0 2 -1 l4 -3 l2 -1 q2 -2 5 -2 l11 -5 q8 -3 13 -5 q4 -2 11 -5 q8 -3 12 -5 l2 -2 l1 -2 q2 0 7 -3 q4 -2 5 -4 q7 -3 9 -10 q2 -4 2 -12 q0 -5 -1 -8 l-7 -6 q-5 -4 -9 -4 q-7 0 -15 9 q-3 3 -5 7 q-1 1 -2 2 l-1 2 q-3 7 -11 15 l-13 12 ZM217 34 q-1 0 -1 -1 q0 -1 1 -1 l0 2 ZM11 123 q0 2 2 3 q5 0 9 -1 q5 -2 5 -4 l-1 -1 q2 1 4 2 q2 1 3 1 q10 -1 23 -2 l11 0 l54 1 q2 0 3 2 q0 1 1 3 l1 4 l0 30 l-1 6 l0 7 q0 5 -7 7 l-5 2 q-2 1 -2 2 q0 3 4 5 l2 0 l2 1 q2 1 3 2 q2 0 7 5 q5 4 8 4 l4 -1 q1 -1 2 -1 l4 -2 l3 -2 q2 -1 3 -2 l1 0 q1 0 3 -1 l3 -2 q3 -1 3 -3 q3 0 3 -3 q0 -3 -3 -7 l-4 -6 q-2 -8 -2 -12 l0 -25 q0 -12 8 -12 l20 2 q11 1 20 1 l7 2 l2 0 q1 1 3 1 l5 4 l2 1 q2 1 3 2 l2 1 l1 1 l3 3 l3 0 q1 0 4 -2 q2 -2 4 -5 q5 -7 7 -11 l1 0 l1 -2 l0 -1 q0 -5 -7 -10 l-29 1 l-3 0 l-11 -1 l-2 0 l-2 3 q-2 0 -2 -2 l-9 0 q-5 0 -8 1 l-16 0 l-41 -1 l-12 -1 q-5 -1 -12 -1 l-6 -1 l-6 0 l-17 -1 l-3 -1 q-5 0 -14 -1 l-13 -1 q-7 -1 -13 -1 l-4 0 q-1 1 -2 2 l0 2 q0 2 -1 2 q-1 3 -3 5 q0 1 -1 2 l-4 5 q-1 1 -1 2 ZM25 117 q-1 0 -1 -1 l2 0 q0 1 -1 1 ZM151 151 q-1 0 -1 -1 l1 0 l0 1 Z" /><glyph glyph-name="uni5171" unicode="&#x5171;" d="M28 -20 q1 6 6 6 l2 0 l7 4 q15 8 26 19 q2 0 3 1 l7 9 q3 3 5 7 q3 4 5 5 l5 6 l-1 0 q0 2 2 7 q1 4 1 6 l0 2 l-2 4 l0 3 q0 1 2 1 l3 0 q3 0 9 -6 l5 -6 q4 -3 6 -5 q0 -2 -1 -3 q0 -1 -1 -2 l-1 -1 q-1 -2 -1 -4 l-2 -1 l-2 -2 q0 -1 -1 -3 l-2 -2 q-5 -6 -12 -11 l-14 -10 q-2 -2 -5 -4 l-7 -3 l-2 -2 l-1 -1 l-3 -2 q-1 -1 -2 -1 q-4 -2 -12 -5 l-12 -4 q-1 0 -2 -1 l-1 0 l0 -1 q-2 -1 -4 -1 q-3 0 -3 1 ZM120 67 l-4 0 l-2 1 l-7 0 l-10 -2 l-12 0 q-3 0 -4 -1 l-2 0 l-4 1 l-2 0 q-5 0 -12 -1 l-27 -3 l-14 0 q-5 0 -7 8 l-2 3 q-1 2 -1 4 q0 1 4 1 l7 0 q2 0 2 -1 l66 0 q3 1 3 4 l0 22 q-1 1 -1 2 q0 19 -1 24 q-1 3 -6 3 l-22 -1 l-2 0 q-1 0 -3 -1 l-6 0 q-3 0 -6 6 l-1 2 l-1 3 q-2 2 -4 3 q0 2 1 2 l1 0 l2 -1 l23 0 l23 -1 q1 0 1 2 l1 3 q1 5 1 6 q-1 2 -1 7 q-1 4 -1 7 q-2 7 -8 9 l-2 1 l-2 0 q-2 0 -2 2 q0 3 5 5 l1 0 l3 2 q2 1 3 3 q2 2 4 3 q5 -5 10 -6 l3 0 l2 -1 l3 -1 q2 0 5 -1 q6 -1 6 -5 q0 -3 -3 -7 l-1 -2 q-1 -1 -1 -2 q-1 -1 -2 -3 q0 -2 -1 -5 l0 -5 q0 -10 5 -11 l7 0 q2 0 3 -1 l26 0 l3 3 l-1 10 l1 6 l0 2 l-2 7 q-1 6 -1 10 l0 4 l-2 2 l-2 3 l-3 0 q0 1 -2 1 l-4 0 q-2 1 -2 2 q4 4 10 8 q7 4 10 4 q5 0 14 -5 l1 -1 q1 -1 2 -1 q1 -1 3 -2 q3 -2 5 -2 q5 0 5 -5 l0 -2 q0 -1 -1 -1 l0 -1 l-1 -2 q-1 -2 -1 -3 l0 -1 l-4 -5 l0 -24 q0 -5 4 -5 q6 0 10 1 l7 5 q1 0 3 1 l3 2 q2 0 3 1 q1 0 2 1 l2 1 q2 1 3 1 q1 0 2 -1 l3 -3 q1 -1 4 -4 l3 -3 l1 -1 l0 -2 q0 -8 -9 -9 l-31 1 q-3 -1 -5 -1 q-5 -1 -5 -5 l1 -7 q0 -5 -1 -14 q-1 -10 -1 -15 q2 -3 2 -7 l0 -7 q1 0 3 -1 l5 -1 l11 0 l9 1 q3 0 5 1 l4 2 q5 3 9 3 l0 2 l5 5 q5 0 10 -5 q5 -5 7 -9 q0 -1 1 -1 l0 -1 q0 -2 1 -2 q0 -2 -4 -6 l-3 -4 q-1 -1 -2 -1 q-3 0 -7 1 q-5 1 -7 1 l-11 0 q-3 1 -19 2 q-14 1 -19 1 l-17 0 q-11 0 -19 -1 l-1 -1 q0 -1 1 -2 l1 -1 q3 0 6 -3 l2 -1 q1 -1 2 -1 q1 -1 2 -1 l3 -1 l2 0 l3 -1 l3 -2 q2 -1 3 -1 q7 -3 15 -6 l6 -2 l3 -2 q5 -3 10 -7 l12 -10 l2 -2 q1 -1 2 -3 l0 -4 q0 -13 -9 -20 q-9 0 -15 2 q-8 3 -11 10 q0 3 -4 7 q0 1 -1 2 l-2 2 q-2 2 -3 3 q-14 20 -33 36 l-9 4 q-5 2 -8 6 l-7 -2 ZM164.5 56 q-0.5 0 -0.5 -1 l0 -1 q1 0 1 1 q0 1 -0.5 1 ZM19 71 l0 0 ZM112 95 q0 -15 4 -17 l2 0 l5 -2 l2 -1 q1 0 2 1 q1 1 2 1 l20 0 q10 1 11 6 l0 14 q-1 1 -1 2 l0 6 q0 1 -1 2 l0 19 q-1 3 -1 5 q-2 5 -5 5 l-1 0 l-11 -1 l-17 0 q-10 -1 -10 -5 l-1 -30 l0 -5 ZM227 76 q0 -1 2 -1 q0 3 -2 4 l0 -3 Z" /><glyph glyph-name="uni5173" unicode="&#x5173;" d="M14 -34 q0 1 1 2 l8 2 q2 1 3 2 l12 6 q8 3 12 6 q13 7 21 15 l9 10 q4 2 6 6 l2 3 q1 2 2 3 q1 1 2 2 l5 5 l0 2 q7 8 9 14 q4 7 4 15 q0 2 -2 3 l-15 0 q-10 0 -13 -2 q-6 0 -9 1 q-6 -2 -16 -3 l-17 0 q-1 0 -1 1 q-2 11 -9 15 l0 1 l3 0 q3 0 8 -1 q3 0 8 -1 l6 -1 l4 1 q7 -1 17 -1 l29 0 l12 1 q6 13 6 28 q0 8 -6 9 q-1 1 -3 1 q-2 0 -4 -1 l-8 0 q-5 0 -7 3 l-2 3 q-2 2 -3 3 l-1 1 q-2 0 -6 -2 q-3 -2 -9 -6 l-7 -7 q-4 -2 -5 -2 l-7 -4 l-9 -5 q-3 0 -10 -3 q-1 -1 -3 -2 l-5 -3 q-1 -1 -3 -1 q-2 -2 -7 -2 l-7 -2 q-1 0 -1 2 q5 2 12 6 q7 4 17 12 l6 4 q1 1 2 2 q4 4 8 6 l1 2 l3 3 l1 1 q4 3 8 8 l13 16 q3 4 5 7 q6 9 6 18 q0 4 -5 7 l-1 1 l-2 1 q-1 1 -2 2 q0 1 1 2 l2 0 l7 -1 l7 0 q2 0 4 -1 l2 -2 l13 -7 q8 -6 8 -9 q-1 -3 -5 -5 q-5 -3 -6 -6 l-16 -17 l-7 -8 l0 -2 q0 -3 8 -4 l10 -1 l7 0 l5 1 q4 0 8 -1 l2 0 l6 -1 q0 -1 1 -1 l1 -1 q2 0 2 1 l-1 1 l0 1 l8 0 q10 0 15 2 q9 2 13 8 l1 3 q0 1 2 1 l1 -1 l2 -2 q2 -1 3 -1 q1 -1 2 -1 l-2 2 l-2 2 q-2 1 -2 2 q-1 3 -5 6 l-3 3 q-1 2 -2 3 q-7 8 -10 16 q-1 3 -2 8 l-2 9 q-2 10 -6 10 l-9 -2 l-2 0 q-4 0 -6 -1 l-3 0 q-4 0 -6 3 q-1 0 -1 1 l-2 4 q0 1 -1 2 l0 2 q1 0 2 1 l8 0 q6 -1 8 -1 q9 0 12 2 q1 0 2 2 l1 1 q0 1 1 1 l6 9 l1 4 q0 2 3 2 q1 0 3 -2 q0 -1 1 -2 q0 -1 1 -1 l2 -3 l1 -1 q2 -2 2 -4 q0 -3 -2 -5 l-4 -6 q-1 -1 -1 -2 q-1 -3 -1 -5 q0 -1 1 -2 l0 -1 l1 -1 q1 -1 1 -2 q1 -1 1 -2 q0 -2 2 -4 l3 -2 q2 -6 6 -10 l3 -2 q1 -1 1 -2 q0 -2 2 -3 l5 -3 q2 0 6 -4 l3 -3 q2 -2 3 -2 q1 0 4 -2 q1 -1 2 -2 q1 -1 2 -1 q3 0 8 -2 q2 -1 4 -2 l13 -8 q4 -2 8 -2 l1 -1 l8 -3 q2 -1 2 -2 q0 -1 -3 -2 q-1 -1 -3 -1 q-1 -1 -4 -1 l-7 -2 q-4 -1 -5 -2 l-6 -4 q0 -1 -2 -1 l-4 0 q-3 1 -6 3 l-7 4 q-9 6 -14 8 l-1 -1 q0 -9 -17 -9 l-2 0 l-9 1 l-6 -2 l-2 0 q-1 0 -2 1 l-9 0 q-4 -1 -4 -2 q0 -2 4 -4 q4 -2 4 -3 l0 -1 q0 -5 -5 -12 q-6 -8 -6 -13 q0 -2 5 -3 q5 -1 9 -1 l20 0 q13 0 22 6 q2 1 6 4 q4 3 6 4 l2 -1 l2 0 q0 -2 1 -3 l2 -2 q0 -1 1 -1 l2 -1 q1 -2 2 -3 q2 -4 5 -6 l0 -1 q0 -5 -10 -5 l-21 0 q-3 0 -7 -1 q-4 0 -6 1 l-27 0 l-1 -1 l0 -3 q0 -3 3 -7 q1 0 2 -1 q1 -1 2 -2 l1 -2 l1 -2 q2 -1 5 -4 q1 -2 3 -3 l3 -3 q3 -4 5 -5 q3 -2 6 -2 q2 -2 5 -3 q1 -1 2 -2 l3 -2 q1 -1 2 -2 q1 0 3 -1 q3 -2 6 -3 l9 -4 q5 -2 8 -4 q1 -1 5 -2 l5 -1 l1 0 l1 -1 l3 0 q6 -2 8 -3 q4 -1 4 -2 q0 -2 -3 -3 l-5 -2 q-7 -1 -15 -5 l-4 -3 l-1 0 q0 -1 -1 -1 q-4 -2 -7 -4 q-2 0 -3 1 q-2 0 -3 1 l-6 4 l-1 0 l-4 2 l-1 1 q-1 0 -2 1 l-2 2 q-3 0 -8 5 l-2 1 q-1 1 -2 2 q-2 1 -3 2 q-10 9 -20 23 q0 1 -2 4 l-1 2 q-1 2 -1 3 l0 2 l-1 3 q-2 5 -2 7 l-2 8 l0 3 q-3 5 -8 6 q-1 0 -2 -1 l-1 -2 l-3 -10 q-5 -7 -6 -17 l-10 -14 q0 -1 -4 -5 l-4 -4 l-3 -2 q-1 -1 -4 -3 l-4 -4 l-10 -6 l-2 -2 l-2 -2 q-1 0 -2 -1 l-6 -2 q-1 -1 -2 -1 q-2 -1 -5 -3 q-4 -2 -6 -3 q-4 -1 -10 -3 l-11 -5 q-7 -4 -12 -5 q-7 -2 -13 -2 l-3 0 ZM170 34 l1 0 l-1 1 l0 -1 ZM154.5 43 q-0.5 0 -0.5 -1 l1 0 q0 1 -0.5 1 ZM139 81 q-1 0 -1 -1 l2 0 q0 1 -1 1 ZM105 150 q-1 0 -1 -1 l1 0 l0 1 ZM183 157 q-1 0 -1 -1 q1 0 1 1 Z" /><glyph glyph-name="uni5177" unicode="&#x5177;" d="M17 -30 q6 0 11 4 l5 3 l5 3 q4 1 7 6 q1 1 1 2 l1 1 q2 2 5 3 q0 1 1 2 l6 3 q1 1 1 2 q1 2 2 2 l3 3 q2 2 5 4 q5 5 8 9 q2 5 9 13 q4 5 5 7 q3 4 4 7 q0 2 1 5 l5 9 q1 2 1 5 l0 1 q-1 0 -2 1 q-11 0 -24 -2 l-24 -4 q-5 0 -10 -2 q-3 0 -8 -2 q-11 -3 -15 -3 q-3 7 -7 11 l-4 2 q-3 2 -3 3 l1 1 l13 0 l1 -1 q1 0 3 1 l2 1 l2 0 l5 1 q7 1 11 2 l27 0 q7 0 9 5 q0 2 1 5 l-1 9 l0 66 l-1 5 l0 17 q-1 10 -3 17 q0 2 -4 5 l-1 0 l-3 3 q-2 2 -3 4 l0 1 q0 2 2 3 l5 2 q1 0 2 1 l2 2 q2 0 3 -1 l3 -2 l2 0 l2 -2 q1 -1 2 -2 q2 -1 4 -1 q4 -2 8 -2 l1 0 l5 -1 q2 0 5 1 l9 1 l10 0 q1 0 1 2 l1 1 q0 1 1 1 q1 0 3 -1 q2 -1 2 -2 q14 0 16 1 l5 0 q4 -1 6 -2 q1 0 4 1 q0 1 2 2 l1 1 q6 5 9 5 q8 0 11 -4 q1 0 7 -4 q6 -4 6 -7 q0 -2 -2 -5 q-1 -2 -3 -3 l-2 -3 q0 -2 -1 -5 l-1 -10 q-1 -3 -1 -6 l0 -71 l-1 -3 l0 -4 q0 -1 2 -5 l1 -4 q0 -1 1 -1 l17 0 q2 0 3 1 q1 0 3 1 l2 1 l3 0 q1 1 3 2 l1 1 q1 0 1 1 q1 1 2 1 q1 1 3 1 q1 0 4 -2 l3 -4 q5 0 10 -6 q5 -5 5 -8 l0 -3 q-1 -2 -2 -3 q-6 0 -12 1 l-12 2 l-24 1 q-14 1 -26 1 l-9 -1 q-6 0 -12 -1 l-16 0 l-14 -1 l-14 -1 q-4 0 -4 -3 q0 -4 3 -8 q0 -1 1 -2 l3 -5 q0 -2 1 -3 l1 -2 l1 -1 l2 -2 q1 -1 1 -3 q0 -2 -3 -3 l-2 -1 q-1 0 -1 -1 q-22 -21 -42 -34 l-6 -4 l-1 -1 q-5 -3 -7 -5 l-19 -10 q-6 -4 -14 -9 q-9 -4 -12 -4 q-2 0 -2 3 l0 1 ZM152 54 q0 1 2 2 l2 0 q3 -1 7 -1 q6 -3 14 -8 l15 -7 l2 -2 l1 -1 q14 -5 20 -11 q7 0 7 -7 q0 -11 -5 -17 l-2 -2 l-1 -1 l-3 -3 q-6 -5 -9 -5 q-5 0 -6 4 l-1 4 q0 2 -1 3 l-1 3 q-1 1 -2 2 l-2 6 q-2 3 -3 5 q-1 2 -1 4 l-1 2 q-1 1 -2 3 l-2 3 l-3 3 l-6 6 q-5 5 -9 7 q-1 1 -2 2 l-4 2 q-2 1 -3 2 q-1 1 -1 2 ZM97 84 q0 -2 1 -4 q0 -2 1 -4 l11 0 q5 0 11 2 q7 0 14 1 l24 2 q5 1 9 1 l2 -1 q2 0 4 4 q1 3 1 6 l0 54 q1 0 1 3 l-1 23 l0 16 q0 12 -4 13 l-16 1 l-3 -1 q-2 0 -3 1 l-3 0 q-1 -1 -2 -1 l-3 0 q-1 0 -2 1 l-2 0 l-1 -1 q-2 0 -5 -1 q-8 -2 -20 -2 l-8 0 q-5 -1 -7 -4 l0 -8 q-1 -5 -1 -8 q0 -1 1 -3 q0 -1 2 -2 q4 0 11 1 l6 0 q2 1 3 1 l19 3 q1 0 4 2 q4 3 7 6 l1 0 q6 -5 10 -15 l0 -1 q0 -1 -3 -1 l-8 0 l-6 -1 q-9 -1 -13 -1 q-5 -1 -11 -1 l-12 -2 q-11 0 -11 -6 l0 -9 q1 -4 2 -6 l33 3 q2 0 8 4 q5 3 8 3 q3 -1 6 -5 l5 -7 q0 -4 -4 -4 l-13 1 l-2 0 q-1 0 -2 -1 l-1 0 q-4 0 -12 -1 l-2 0 l-12 -1 q-14 -1 -14 -7 l1 -13 q0 -4 8 -4 l10 1 q10 0 15 2 q3 0 7 2 q4 2 6 2 q1 0 2 1 q1 0 1 1 l2 1 q4 4 7 4 q2 0 3 -3 l4 -10 q1 -4 1 -7 l-2 -2 q-2 -1 -3 -1 l-8 1 q-4 0 -8 -1 l-2 0 l-5 -1 l-18 0 q-3 0 -6 -1 q-13 -1 -13 -5 l0 -10 Z" /><glyph glyph-name="uni518A" unicode="&#x518a;" d="M161 -6 q0 1 2 1 q1 0 2 -1 q1 -2 2 -2 q1 0 5 1 l5 2 l1 0 q7 0 10 8 q1 3 2 8 q0 6 1 8 l0 32 q1 1 1 2 l0 7 q0 4 -2 6 l0 14 q0 1 -1 2 q-2 2 -5 2 q-13 0 -16 -2 q-3 -1 -3 -7 l0 -29 q-1 -2 -1 -6 l0 -6 q0 -6 -1 -18 l-1 -14 q-1 0 -2 -2 l-4 -4 l-1 -1 q-4 1 -5 6 q-1 4 -1 9 l0 24 l-1 2 l0 6 l1 2 q0 1 -1 2 l0 9 l1 8 l-2 16 l0 2 l-1 2 l-9 0 q-5 0 -9 -1 q-10 -1 -10 -10 q0 -3 1 -9 q1 -6 1 -9 q0 -5 -1 -8 l0 -39 l-1 -5 q-3 -8 -9 -8 q-5 0 -5 13 l0 21 l-1 10 l0 28 q0 14 -3 14 l-12 0 l-5 -2 q-2 -1 -3 -1 q-5 -3 -5 -6 l-2 -40 l0 -18 q-1 -8 -1 -13 q0 -1 -4 -5 q-4 -3 -6 -3 q-7 0 -7 9 l1 24 l-1 12 l1 35 q0 3 -3 4 l-6 0 l-5 -1 l-7 0 l-7 -1 l-2 0 q-3 -1 -5 -1 q-2 0 -3 1 q-1 1 -2 2 l-1 3 q-1 1 -2 3 l-3 2 l-1 1 q-3 2 -3 4 l1 1 l4 0 q2 -1 3 -1 l7 0 q5 0 6 -1 l3 1 l20 0 q8 1 8 7 l-1 12 l-1 2 q0 39 -3 52 q0 1 1 3 l-1 2 q0 8 -8 13 l-6 3 q-2 2 -2 4 q0 1 2 2 q1 1 3 2 q2 0 4 2 l1 1 q1 0 1 1 q1 1 3 1 q1 1 4 1 l3 -1 q3 -1 4 -2 q4 -3 5 -5 l2 0 l1 1 l2 0 q1 0 3 -1 q2 -2 3 -2 l14 0 l1 -1 l2 0 l2 1 l14 0 l2 1 l2 0 l3 -1 q1 0 2 1 l4 1 q2 1 3 1 q1 1 2 1 l0 -1 l7 1 l1 1 l5 0 q1 0 2 -1 l3 0 q1 -1 2 -1 l2 1 l5 1 q1 1 2 1 l3 -1 q2 0 7 1 q5 2 8 2 q5 0 8 2 l2 2 l2 4 q1 1 2 1 q2 2 6 2 q-1 0 -1 -1 l3 -1 l4 -2 q1 0 2 -1 l2 -1 q1 -1 2 -1 q1 -1 2 -1 l2 0 q2 -1 2 -5 q0 -2 -3 -8 q-3 -5 -3 -8 l0 -8 q-1 -5 -1 -9 l0 -50 l1 -4 l0 -7 l3 -1 q2 -1 3 -1 q1 0 3 1 l4 0 l4 1 l2 2 l1 1 l3 2 q1 1 2 1 q1 0 3 -2 l4 -2 q1 0 3 -1 q2 -1 3 -2 q2 -1 4 -3 l2 -2 l1 0 q1 -1 2 -1 q2 -1 2 -3 l1 0 l-1 -1 l-3 -2 q-6 -3 -8 -3 l-6 0 q-2 0 -7 1 q-9 1 -14 1 l-3 0 q-3 -1 -4 -1 q-5 -2 -5 -6 l0 -79 q0 -2 -2 -4 q-1 -1 -2 -2 l-1 -1 l-3 -4 q-2 -2 -4 -4 q-3 -2 -7 -4 l-2 -1 l-4 1 q-1 0 -3 -1 l-2 -1 l-2 0 q-2 0 -5 4 q-1 1 -1 3 l-1 1 l-1 1 q-2 3 -3 4 l-2 1 q-1 1 -1 2 ZM204 46 q-1 0 -1 -1 q0 -1 1 -1 l0 2 ZM74 107 q0 -5 1 -9 q0 -5 5 -6 q2 -1 6 -1 l12 0 q6 2 6 7 q-1 3 -1 4 l1 2 l0 12 q0 6 -1 9 q-2 5 -11 5 l-9 -1 l-3 0 q-2 -1 -3 -1 q-3 -1 -3 -5 l0 -16 ZM130 133 q-1 -1 -3 -2 l-4 -1 q-5 -1 -5 -5 l0 -24 q0 -5 8 -8 l6 1 l1 0 q1 0 2 -1 l9 0 q2 0 3 3 l1 2 l-1 14 l0 2 l1 2 q0 3 -1 8 l0 6 l-2 1 l-3 1 q-6 1 -12 1 ZM164 101 q2 -5 8 -6 q2 -1 5 -1 l4 0 q11 0 11 12 l-1 1 l0 5 q0 3 1 4 q-1 1 -2 3 l0 5 q0 8 -5 9 l-10 0 q-9 0 -12 -4 l1 -26 l0 -2 ZM236.5 95 q-0.5 0 -0.5 -1 l0 -1 q1 0 1 1 q0 1 -0.5 1 ZM73 147 l1 -1 q-1 -1 -1 -2 q0 -2 3 -4 q3 -3 6 -3 l15 1 q6 3 6 14 l0 15 q0 3 -1 6 q-2 4 -4 5 l-21 -1 q-3 -2 -3 -7 l0 -4 q0 -2 -1 -5 l0 -14 ZM118 144 q4 -5 11 -5 l8 2 l6 1 q3 1 3 2 l0 25 q-1 1 -1 3 l0 3 q-1 1 -1 2 q-1 5 -3 5 l-5 0 l-6 -1 q-8 0 -9 -3 q-1 -3 -2 -6 l0 -11 q-1 -3 -1 -4 l0 -13 ZM161 160 l0 -13 q1 -6 5 -6 l1 0 l9 1 l5 0 q9 0 9 8 l-1 0 l0 14 q-1 3 -1 6 q0 6 -1 12 q0 3 -1 3 l-1 1 l-7 0 q-4 -1 -7 -1 q-7 -1 -9 -5 q-1 -2 -1 -5 l0 -5 l-1 -9 l1 -1 ZM58 150 l0 0 ZM148 163 q-1 0 -1 -1 l1 0 l0 1 Z" /><glyph glyph-name="uni51FA" unicode="&#x51fa;" d="M41 -24 q0 4 2 8 l0 6 l2 12 l0 4 q0 2 -1 3 l0 33 q0 10 -3 17 q0 1 -1 2 l-1 2 l-1 1 q3 6 12 6 l2 0 q1 -1 3 -1 l2 -2 q2 -1 3 -1 l6 -3 q3 -2 4 -5 l0 -1 q0 -1 -1 -2 l-2 -3 l0 -2 q-3 -7 -3 -19 l0 -17 q1 -2 5 -3 l3 0 l30 1 l6 2 l2 0 l3 3 l2 9 l0 70 q0 1 -1 2 q-1 2 -5 2 l-2 0 l-14 -1 l-13 -1 q-7 0 -11 -2 q-1 -1 -2 -4 q-1 0 -1 -1 l-3 -3 q-4 -6 -8 -6 q-3 0 -7 2 q-4 2 -4 5 q4 15 4 31 q0 4 -1 9 l-1 18 l-1 12 q0 1 -1 3 l0 4 q-1 2 -4 5 l-3 1 q-1 1 -1 2 q0 3 7 5 l7 2 q1 0 4 -2 q4 -2 7 -5 q1 0 3 -1 l1 -1 q2 -1 3 -2 q2 -1 2 -8 l-3 -9 l0 -11 l-1 -4 q-1 -3 -1 -4 q1 -1 1 -5 l0 -8 q1 -4 7 -5 q2 -1 5 -1 l16 1 l1 -1 q1 1 3 1 l11 0 q9 1 9 8 l-1 32 l0 3 l1 13 q-2 2 -2 12 q-1 2 -1 4 l0 7 q0 2 -1 4 l-1 3 l0 1 q-3 5 -3 8 q6 10 14 10 l2 0 q2 -3 6 -5 l3 -1 q1 -1 3 -2 q0 -1 1 -2 l3 -2 q2 -1 3 -2 q1 -2 1 -3 q0 -5 -4 -11 q-3 -4 -3 -16 l-1 -19 l0 -9 q-1 -3 -1 -8 l-1 -7 q-1 -4 -1 -8 q0 -5 1 -7 q0 -2 1 -3 l5 -1 q1 0 2 -1 q7 2 14 3 l3 0 l7 1 l14 0 q8 0 9 3 l0 30 q0 15 -3 25 q0 1 -2 3 l-3 3 q0 3 5 6 q4 2 7 2 l6 0 l2 -2 l1 -1 q1 0 2 -1 l6 -3 l2 -1 q2 -2 4 -3 l1 -1 l1 -1 q1 -1 2 -2 q1 -2 1 -6 l-2 -3 l-1 -3 q-1 -1 -2 -4 q-1 -2 -1 -6 l0 -16 l1 -6 q0 -2 -1 -8 l-1 -6 l1 -1 q1 -1 1 -2 q0 -2 -1 -6 q-2 -4 -4 -8 q-5 -12 -14 -12 q-6 0 -9 9 q-2 9 -7 9 l-3 0 l-2 -1 l-1 0 q-6 0 -18 -1 l-14 -1 q0 3 2 3 q-1 0 -3 -1 q-2 -2 -3 -2 q-4 0 -5 -6 l0 -20 l1 -22 q1 -6 1 -11 l0 -19 q1 -12 11 -12 l12 1 q7 1 10 1 l12 -1 l2 0 l1 1 l3 0 q2 1 3 1 q3 0 4 2 q2 2 2 7 q0 18 -3 35 q0 3 -2 8 l-2 3 l0 2 q0 1 1 3 q1 1 4 2 l4 3 q2 1 3 1 q1 0 4 -2 l1 0 l2 -3 q2 -1 4 -1 l6 -3 q1 -1 2 -1 q5 -3 5 -8 q0 -1 -1 -3 q0 -1 -1 -1 q0 -1 -1 -2 l-1 -5 q-2 -6 -2 -10 q0 -7 1 -14 q1 -6 2 -9 q0 -14 -1 -19 q-2 -8 -9 -16 l-1 -2 l-1 0 q0 -1 -1 -1 l-4 -4 l-3 -2 q-3 -2 -6 -2 q-2 0 -5 2 q-2 2 -2 4 l0 8 q0 2 1 4 l1 1 l0 2 q1 1 1 3 q0 2 -1 3 q-1 1 -3 2 l-3 0 l-29 -3 l-14 0 l-20 -2 l-10 0 q-11 -1 -21 -2 l-17 0 l-2 -1 l-3 0 l-4 -1 q-2 -2 -3 -7 l0 -7 q-1 -6 -6 -11 q-4 -6 -9 -6 q-3 0 -6 5 q-2 4 -2 8 ZM60 -20 l1 0 l-1 0 Z" /><glyph glyph-name="uni5207" unicode="&#x5207;" d="M149 111 q1 1 1 3 l1 3 l1 2 l1 10 q2 10 2 16 q1 2 1 7 q0 5 2 8 q0 10 -8 10 l-5 0 q-5 -1 -7 -1 q-8 0 -11 4 q0 1 -1 4 l-1 1 l0 1 l-1 1 l0 1 q-3 4 -3 5 q0 3 4 3 q3 0 9 -1 q5 -1 9 -1 l7 1 l3 0 l3 -1 q6 1 14 1 l28 0 q8 0 15 1 q2 0 4 2 l2 2 q1 0 1 1 q5 3 8 3 q7 0 11 -6 q1 -3 2 -5 l2 -2 q2 -4 2 -7 q0 -4 -2 -9 l-1 -2 q-1 0 -1 -2 l-3 -4 q-4 -8 -6 -20 l-4 -21 q-2 -11 -4 -25 q-2 -12 -4 -26 l0 -4 l-5 -29 l-1 -6 q-2 -7 -6 -18 q0 -1 -1 -2 l0 -1 l-1 -4 q0 -1 -1 -2 q0 -1 -2 -4 l-5 -5 q-7 -6 -11 -9 q-2 0 -3 -1 q-1 0 -2 -1 l-2 -1 q-1 -1 -2 -1 q-3 0 -6 7 l-3 7 q-1 4 -4 6 l-12 6 l-1 1 l0 2 q0 1 3 2 q4 1 6 1 l2 0 l1 -1 q1 0 1 -1 l14 0 q3 0 7 9 l4 12 q2 5 4 11 l3 17 l4 24 q2 5 3 12 q0 4 1 12 l0 4 l1 3 q1 1 1 2 l0 6 l2 9 q1 3 1 5 q1 9 1 23 l0 11 q0 7 -3 7 l-10 -1 q-10 -1 -17 -3 q0 -3 3 -6 q4 -3 4 -5 l0 -1 q0 -1 -1 -1 q-5 -6 -8 -15 l-5 -16 q-1 -4 -3 -9 l-3 -8 q-1 -1 -3 -5 l-2 -4 q0 -1 -1 -3 l-2 -10 l-1 -2 l-6 -16 l-7 -14 q-1 -2 -1 -3 l-2 -2 l-2 -2 l-2 -4 q-1 -1 -1 -2 q-2 -4 -4 -5 q-12 -15 -24 -26 l0 1 l-1 -1 l-4 -3 q-6 -5 -9 -7 q-6 -6 -12 -9 l-5 -3 l-2 -1 q-5 -3 -13 -7 l-16 -8 q-1 -1 -2 -1 q-1 0 -1 1 l-9 -5 l-3 0 l0 1 q0 1 3 3 q4 2 7 2 q3 3 7 4 l2 1 q1 1 2 1 q2 1 3 2 l6 5 q2 1 3 2 l3 0 l3 2 l2 2 q6 0 27 21 l2 2 q1 1 3 2 l1 1 l1 0 q1 1 2 2 q2 2 4 5 l3 6 q5 5 7 11 q0 1 1 2 l0 1 l1 1 q1 3 2 5 q10 15 15 32 l6 19 l0 5 ZM71 89 l1 5 l1 2 l-1 24 q-1 4 -1 5 l-1 1 l-6 0 l-12 -4 l-12 -5 l-1 0 q-3 0 -5 2 l-3 4 l0 1 l-1 1 q-4 4 -12 8 l0 2 q3 0 8 2 q5 1 7 2 q15 0 36 6 q0 1 1 3 l1 3 l0 39 q0 9 -3 15 l-2 4 q-1 2 -1 4 q2 0 4 -1 l9 -3 q1 0 2 -1 l3 0 l7 -2 q8 -2 8 -6 q0 -1 -1 -2 l-2 -1 q-1 -1 -1 -2 q-2 -2 -4 -9 q-2 -7 -2 -12 l1 -11 l-1 -5 l0 -3 q0 -2 1 -4 q2 -2 5 -2 l1 0 l3 1 l7 2 q6 1 9 3 q4 1 4 4 q4 0 7 -2 q1 -1 2 -2 l3 -3 l1 0 l2 -1 q1 0 1 -2 l0 -2 q0 -4 -3 -5 l-9 -1 l-2 -1 l-6 -2 l-3 0 q-5 0 -12 -2 q-9 -2 -12 -6 l0 -11 q-1 -1 -1 -3 l1 -10 l0 -5 q0 -2 1 -4 l2 -4 q1 -1 1 -3 l4 -7 q1 -1 3 -2 l1 -1 q1 0 3 1 l2 0 l2 1 q6 2 9 2 q6 -2 9 -6 q5 -4 5 -9 q-2 -9 -11 -9 l-2 0 l-3 1 q-1 0 -2 -1 l-10 0 q-1 0 -2 -1 l-2 0 q-1 -1 -2 -1 l-1 0 q-6 0 -10 2 q-6 3 -10 13 q-2 4 -3 8 l0 8 ZM161 130 q0 -1 1 -1 l0 2 l-1 1 l0 -2 Z" /><glyph glyph-name="uni5217" unicode="&#x5217;" d="M16 -30 q0 1 1 3 q1 0 3 2 l3 2 q2 1 3 2 l2 1 q0 1 1 1 l1 2 q3 3 8 5 l7 8 q4 4 8 6 l2 3 l2 1 l0 2 q9 9 18 20 q7 9 15 21 l6 8 q4 6 4 10 q0 3 -3 7 l-5 7 q0 4 -7 9 l-5 3 q-3 2 -3 3 l-3 0 q-2 -2 -6 -5 q-4 -3 -5 -5 l-2 -2 l0 -1 l-1 -1 q-1 -1 -2 -2 l-1 -2 q-4 -5 -10 -8 q-1 0 -2 -2 l0 -2 l-1 -1 q-1 -1 -2 -1 l-5 -4 l-2 -1 q0 -1 -4 -2 l-1 -1 l-1 0 q-1 -1 -2 -1 q0 -1 -3 -3 q-3 -2 -5 -2 l-2 1 l0 1 q0 1 3 3 q1 0 5 3 q3 2 7 6 l12 13 l17 19 q3 7 6 12 q3 3 6 11 l6 13 l5 9 q2 3 2 5 q1 2 1 3 q1 1 2 2 l1 3 l1 2 q0 3 2 10 l0 1 l1 4 q1 2 1 5 q0 4 -8 4 q-2 0 -7 -1 l-18 -4 q-4 -1 -5 -1 l-8 0 q-1 1 -2 3 q-1 2 -3 5 l-2 5 l-1 3 l0 2 l1 1 l87 0 q2 1 4 2 l5 3 l2 2 l0 1 q2 2 4 2 q3 0 8 -6 l2 -3 q1 -2 2 -3 q2 -3 3 -4 l8 3 q3 1 6 1 l3 0 q3 -2 10 -7 q4 -3 6 -5 q2 -3 2 -4 l0 -3 q-1 -1 -3 -2 l-2 -1 q-2 -1 -2 -2 q-3 -5 -3 -15 l0 -13 l1 -11 l0 -8 l-1 -3 l1 -5 l-1 -16 q0 -2 1 -6 q1 -4 1 -6 l-1 -14 l0 -21 q-1 -3 -4 -7 q-4 -4 -7 -4 q-3 0 -5 6 q-3 5 -3 8 l0 17 l2 17 l0 9 l1 8 l0 22 q0 2 -1 4 l0 37 l1 2 l0 4 q-1 2 -1 4 q-1 5 -4 7 l-3 1 q-1 1 -2 2 q-1 0 -2 -1 l-2 0 l-1 -1 l-1 0 q-1 -1 -2 -1 l-4 1 q-2 -1 -3 -1 q-9 0 -15 1 l-13 -4 l0 -3 q0 -1 1 -3 l1 -3 l0 -3 q0 -2 -1 -4 l-3 -4 q-3 -4 -6 -11 q-4 -8 -4 -9 q0 -1 2 -2 q2 -1 3 -1 l8 0 q5 1 7 2 q1 0 3 1 l7 4 l4 3 l1 1 l2 -2 l7 -7 q5 -5 5 -10 l0 -2 q-1 -1 -2 -3 l-2 -1 l0 -1 q-2 -1 -2 -2 q-4 -4 -7 -11 l-5 -13 q-1 -1 -2 -5 l-4 -5 q-4 -8 -4 -12 q0 -4 4 -9 l1 -1 l4 -4 q0 -1 1 -1 q0 -1 2 -2 l1 -2 q1 -3 1 -7 l0 -5 q0 -5 -7 -9 q-5 0 -7 4 q0 2 -1 4 q-1 1 -2 2 l-1 1 l0 1 l-3 3 q-2 3 -3 3 q-5 0 -7 -3 l-2 -2 l-7 -8 q-1 -1 -2 -2 q-4 -8 -11 -15 q-3 -2 -6 -6 l-2 -1 l0 -1 l-4 -4 q-2 -4 -7 -7 l-1 0 q-1 0 -3 -2 l-3 -3 q-2 -2 -4 -4 l-4 -2 q0 -1 -1 -1 q-3 -2 -6 -5 l-16 -12 q-1 0 -3 -1 l-2 -2 q-4 -3 -6 -3 q-1 0 -1 1 q-1 0 -1 1 ZM179 1 q0 1 1 1 l16 0 q7 0 11 1 q7 1 7 8 l3 20 l0 109 l-1 5 l0 27 l-1 2 l0 9 q1 3 1 5 q0 2 -1 3 q0 9 -4 12 q-1 1 -2 1 l-3 0 q-3 1 -3 3 q0 1 1 2 q1 1 3 2 l3 2 l5 1 l3 1 q1 1 3 1 q5 0 15 -7 q11 -7 11 -15 l-1 -4 q-1 -3 -2 -4 q-4 -1 -6 -6 q-1 -3 -1 -7 l0 -2 l1 -5 l0 -2 q0 -1 -1 -5 l-1 -3 q0 -2 -1 -2 q3 -29 3 -44 l0 -10 q0 -4 -1 -6 l0 -3 l1 -2 q0 -2 -1 -6 l0 -7 l2 -56 q0 -1 -1 -3 l0 -12 q-1 -4 -3 -7 q0 -1 -1 -2 l-1 -2 q-3 -4 -3 -7 q-2 -2 -5 -4 l-2 -3 q-1 -1 -2 -2 q-5 -5 -11 -5 l-1 0 l-1 1 l-1 0 l0 1 l-2 1 q-1 7 -7 13 q-5 4 -12 7 q-1 1 -2 1 l-2 0 l-1 1 q-3 0 -3 2 l1 1 ZM124 47 q0 -1 1 -1 l2 0 q2 0 2 3 q0 1 -1 1 l-2 0 q-1 0 -1 -1 q-1 -1 -1 -2 ZM81 100 q4 -4 11 -9 l6 -3 q4 -2 6 -4 l2 0 q4 0 5 5 q1 1 1 2 l2 7 l1 1 q1 2 3 6 l2 6 q3 6 3 12 q0 1 -2 2 q-1 1 -3 1 q-2 -1 -6 -1 l-2 0 l-6 -1 q-11 -1 -15 -4 l-2 -2 l0 -2 l-6 -8 l0 -8 Z" /><glyph glyph-name="uni5236" unicode="&#x5236;" d="M191 -1 q5 1 12 1 q5 0 7 -1 q4 0 7 13 q2 11 2 21 l0 3 l1 2 q1 2 1 3 l0 2 q0 1 -1 3 l0 11 q1 0 1 2 l0 3 q-1 2 -1 3 l0 5 l1 7 l-1 10 q0 2 1 5 q0 4 1 4 l0 4 q-1 1 -1 3 l-1 5 l0 35 l-1 6 l1 2 l-1 7 l0 12 q1 3 1 4 l-1 7 l-1 4 q0 2 -1 2 l-1 2 l-1 3 q-2 5 -6 8 l0 2 l4 2 q3 2 4 2 q3 -1 8 -4 l3 -2 l2 0 l2 -1 q2 -1 4 -2 q7 -4 7 -8 q0 -1 -1 -2 l-1 0 l-1 -2 q-3 -6 -3 -12 l-1 -26 l0 -2 l1 -10 q-1 -1 -1 -2 q0 -4 -1 -4 l-2 0 q-1 0 -1 -2 q0 -1 1 -4 q1 -1 1 -3 l1 -2 q2 -6 2 -16 l0 -3 q1 -1 1 -2 l0 -25 l-1 -4 l1 -10 l0 -4 q1 -8 1 -14 q0 -9 -1 -21 l-1 -20 q-1 -5 -6 -12 q-3 -4 -9 -9 l-2 -2 l-4 -2 q-1 0 -2 -1 l-1 0 q-2 0 -4 3 l-7 15 q0 1 -2 2 q-1 1 -2 1 q0 1 -2 1 l0 1 l-2 0 l-1 1 q-2 1 -2 2 ZM104 -4 l0 3 l1 12 l0 54 l-1 1 l-1 1 l-18 0 q-3 0 -4 -6 l0 -4 q0 -2 -1 -2 l-10 0 l0 -1 q-1 -1 -1 -2 q0 -2 4 -3 q5 0 6 -2 l-6 0 q-3 0 -4 -1 l-2 0 l-2 17 q0 12 -6 17 l0 1 q0 2 3 3 l5 0 q3 0 5 -1 q1 -1 2 -1 l3 -2 q10 -5 20 -5 l3 0 q2 1 3 1 q4 2 5 6 l0 20 l-1 1 q-2 1 -3 1 l-21 0 l-2 1 l-2 0 q-1 1 -2 1 l-7 -1 l-1 1 q-3 -2 -7 -3 l-4 0 l-24 -2 l-4 0 q-1 0 -4 1 q-4 3 -4 7 q-1 0 2 1 l4 -1 l4 1 l2 1 l2 0 l2 -1 l2 0 q0 -1 1 -1 q11 0 13 8 l3 9 l3 10 q2 5 3 9 q3 11 3 19 l0 11 q0 1 -1 2 l-1 1 q-1 1 -2 2 l0 3 l-1 1 q0 1 4 2 q4 1 8 1 q3 0 5 -2 l6 -5 l1 -1 q0 -1 1 -1 l2 -2 q2 -2 3 -3 q1 -2 1 -3 q0 -2 -3 -8 q-3 -5 -3 -9 q0 -4 11 -4 q7 0 8 1 l1 1 l1 3 q0 1 1 3 q1 2 1 3 l0 4 q0 1 1 2 l0 24 l-4 6 q-3 5 -6 7 l0 -1 q-1 0 -2 1 l0 1 l1 2 q3 0 8 3 l3 1 l2 1 q5 0 14 -4 q1 0 6 -3 q5 -4 5 -7 q0 -3 -2 -4 l-2 -1 q-2 0 -3 -1 l0 -3 l-2 -7 q-1 -5 -2 -10 l0 -13 q0 -7 4 -9 q3 0 8 5 l8 8 l1 0 q1 0 2 -2 l1 -1 l1 -1 l1 -1 l1 0 q8 -3 8 -12 q0 -1 -1 -2 l-1 -1 l-2 -2 q0 -1 -1 -1 l-2 2 q-1 1 -2 1 q-2 1 -5 1 l-11 0 l-6 -1 q-4 0 -5 -1 q-1 0 -1 -1 l0 -1 l-1 -1 l0 -22 q0 -7 5 -7 q1 0 2 1 l1 0 q1 1 2 1 l2 0 l1 -1 q3 0 4 1 q2 0 3 1 q0 1 1 1 l2 3 l2 0 l2 3 l2 3 q1 1 2 1 l15 -14 q0 -6 -4 -6 l-5 1 l-29 -1 q-1 0 -2 1 l-5 0 q-4 0 -4 -2 l0 -2 l1 -1 q0 -1 1 -2 l0 -3 l-1 -13 q0 -4 5 -4 l8 0 q5 1 6 3 q1 0 2 1 l2 2 l0 1 q3 4 6 4 q1 -2 4 -4 q1 -1 2 -2 l5 -4 q1 -1 2 -1 q1 -2 1 -3 l0 -1 q-2 -1 -3 -10 q-1 -8 -1 -17 l0 -23 q-1 -1 -1 -2 l-1 -9 q-1 -3 -6 -7 q-4 -4 -9 -4 q-1 0 -1 1 q0 2 -1 3 l-4 5 q-1 1 -1 2 q-1 1 -5 5 q-3 2 -3 3 q0 1 2 2 l4 1 q7 1 8 5 l0 4 q0 1 1 2 l1 13 q0 3 1 3 q-1 0 -1 2 q0 1 1 2 l0 5 q0 2 -1 4 q0 2 -1 4 q-1 2 -2 3 l-15 0 q-6 -1 -6 -4 l0 -6 l-1 -3 l0 -3 l1 -4 l-1 -4 l1 -2 q0 -4 -1 -8 l0 -29 l-1 -1 q1 -1 1 -4 q1 -3 1 -5 q-1 -1 -1 -3 q-1 -1 -1 -3 q0 -5 -1 -7 q-6 -7 -7 -7 q-3 0 -5 7 l-1 4 l0 1 q0 2 -1 2 l1 5 ZM65 6 q0 6 1 7 l0 27 q1 1 1 2 q1 3 4 3 q0 -3 4 -3 l3 0 q1 0 2 -1 l0 -32 q0 -10 -8 -10 q-7 1 -7 7 ZM177 46 l0 12 l-1 52 l0 22 l-1 15 l1 5 q0 4 -5 8 q-4 4 -4 7 q1 0 2 1 q1 1 3 2 q4 3 5 3 l12 -6 l4 -3 q1 -1 1 -2 q0 -1 -1 -5 l-1 -3 l-1 -3 l0 -14 l1 -24 l1 -50 l0 -1 q1 -1 1 -2 l0 -1 q-1 -2 -1 -3 l0 -3 q0 -2 -1 -4 q-2 -9 -7 -9 q-3 0 -5 2 l-1 2 l-2 2 ZM147 60 l-1 0 l1 0 ZM60 113 q0 -3 2 -4 l2 0 l1 -1 l3 -1 q4 1 14 2 l19 0 q3 0 4 3 l1 2 l1 3 q0 15 -1 20 q-1 3 -5 4 q-2 1 -7 1 l-9 -1 l-2 0 l-3 1 q-4 -1 -6 -6 l-1 -2 l0 -2 q-1 -2 -2 -3 l-10 -12 q-1 -1 -1 -2 l0 -2 ZM184.5 138 q-0.5 0 -0.5 -1 l1 0 q0 1 -0.5 1 ZM185 142 q-1 0 -1 -1 l2 0 q0 1 -1 1 ZM120 142 l1 0 l-1 1 l0 -1 ZM128 145 l0 -2 l0 2 ZM117 149 l0 -1 q1 0 1 1 l-1 0 ZM227 180 q0 -1 1 -2 q0 -1 1 -1 q2 0 2 1 q0 3 -2 3 q-2 0 -2 -1 Z" /><glyph glyph-name="uni5247" unicode="&#x5247;" d="M190 -3 q0 1 -2 2 l-3 1 q-5 2 -5 4 l0 1 l2 1 q4 1 7 1 l4 0 q6 0 9 5 q2 3 2 9 l0 10 l1 8 l-1 3 l0 7 l1 1 l-1 3 q-1 3 -1 4 l1 40 q0 1 -1 2 l0 5 l1 3 q-2 18 -2 34 l1 1 l0 2 l-1 6 q-1 9 -1 23 l0 11 q0 5 -5 11 l-4 3 q-1 2 -1 3 q0 1 2 2 q1 1 4 1 q5 2 8 2 l1 0 q1 0 4 -2 l3 -1 q1 -1 2 -1 l8 -2 q5 -2 5 -7 q0 -2 -2 -4 l-2 -4 q-3 -6 -5 -11 l-1 -12 l0 -15 q0 -2 1 -7 l1 -3 l1 -47 l0 -8 q0 -3 1 -4 q0 -2 -1 -6 l0 -14 l1 -13 l0 -12 q1 -6 3 -8 l0 -9 l-1 -2 l0 -13 l-4 -7 q-3 -5 -7 -8 l-5 -5 q-2 -3 -6 -3 q-4 0 -7 7 l-2 5 l-1 1 q-1 2 -1 3 l-1 2 l0 1 ZM35 -14 q0 2 3 4 l3 1 q2 1 3 1 q1 0 3 2 q1 1 4 4 q1 1 3 3 l10 11 l1 2 l2 2 q1 2 1 3 q1 1 1 2 l1 2 q0 2 1 3 q2 3 4 3 l14 -14 l-1 -3 q-1 -2 -3 -3 l-4 -2 q-3 -2 -6 -5 l-2 0 l-3 -4 q-1 0 -2 -1 q-2 -2 -6 -4 l-7 -4 q-2 -1 -3 -2 l-1 -1 l-4 -3 q-1 -1 -3 -1 l-2 1 l-3 0 q-4 1 -4 3 ZM104 31 q4 0 7 -2 l2 -2 l2 -2 l11 -8 q1 -1 2 -2 l4 -3 q1 -2 3 -3 q0 -1 2 -1 l1 -1 q5 -3 5 -6 q0 -6 -4 -11 q-3 -5 -9 -5 q-2 0 -5 3 q-4 3 -4 5 l0 2 l-2 4 l0 2 l-1 2 l0 2 l-3 4 l-3 7 l-4 6 l-1 2 q-1 2 -2 4 q-1 2 -1 3 ZM219 6 q0 1 -1 1 l0 -1 l1 0 ZM52 38 q0 5 1 8 q0 5 1 6 l0 107 q0 9 -2 20 l1 1 q0 1 -1 1 l-1 1 l0 4 q5 0 10 -6 l1 0 l6 -3 q3 -2 6 -2 l6 1 l7 -1 l2 0 q1 0 2 1 l2 0 q1 1 2 1 l15 0 q2 0 3 1 l3 2 q3 3 7 3 q1 0 4 -1 q2 -1 6 -3 q3 -1 6 -2 l2 -2 q0 -2 -1 -2 l-2 0 l0 -1 l1 -2 l-4 -9 q-1 -2 -1 -3 q0 -3 -1 -6 l0 -4 l-1 -2 l0 -2 l2 -16 l-1 -5 q0 -3 2 -5 l0 -60 l1 -12 l-1 -4 q0 -3 -2 -5 q-3 -7 -9 -7 q-3 0 -4 2 l-4 7 q-1 1 -2 2 q-3 2 -7 2 l-4 -1 l-10 0 l-3 1 l-3 -1 l-2 0 q-10 0 -15 -2 q-1 -4 -2 -7 q0 -2 -1 -3 l-4 -4 q-1 -1 -2 -2 l-1 0 q-3 0 -6 5 l0 2 l-2 7 ZM210 32 q0 -1 1 -1 l0 1 l-1 0 ZM161 70 q0 3 -1 8 l0 12 q0 2 1 3 l-1 2 l0 21 q1 2 1 6 q0 2 -1 2 l0 7 l1 1 l0 1 l-1 2 l0 10 q0 6 -1 10 q0 11 -2 17 l-1 2 l-1 2 l0 2 l1 2 l6 -2 q1 -2 4 -3 l6 -3 q9 -3 9 -9 q0 -3 -3 -6 q-2 -4 -2 -7 q0 -3 -1 -7 l0 -7 l1 -2 q0 -2 -1 -5 l0 -23 l1 -4 l0 -42 q0 -2 -2 -6 q-2 -2 -3 -3 q-1 -2 -3 -2 q-2 0 -3 3 l-1 2 l-1 2 q-2 2 -2 6 q0 5 -1 7 l1 1 ZM68 58 q0 -6 10 -6 q6 0 12 1 l16 0 q8 1 10 4 l0 6 q0 3 1 4 l0 46 q0 1 1 3 l0 4 l-1 4 l0 6 l1 2 l0 6 l-1 3 l0 4 q0 4 -1 10 q-1 6 -2 8 q-10 3 -20 3 q0 -1 -4 -1 l-8 0 q-6 0 -8 -1 q-4 -1 -5 -3 l-1 -14 l-1 -3 l0 -3 q0 -6 3 -8 q1 -1 4 -2 l2 0 l1 -1 l6 0 l11 2 q3 1 6 1 q4 0 5 -2 q0 -6 -1 -7 q-1 -1 -3 -1 l-6 0 q-1 1 -2 1 l-8 -1 l-3 0 l-2 -1 q-2 -1 -3 -1 l-1 1 q-2 0 -5 -1 q-3 -2 -3 -3 l-1 -11 l0 -4 q0 -2 1 -5 q0 -3 1 -4 q1 -2 2 -2 q6 0 16 1 l20 0 q1 0 1 -3 l0 -4 q0 -3 -24 -3 q-2 -2 -7 -2 q-4 0 -6 -1 q-1 0 -2 -1 q-1 0 -1 -2 l0 -1 l-1 -1 l0 -2 l1 -1 l0 -14 ZM167 98 q-1 0 -1 -1 q0 -1 1 -1 l0 2 ZM124.5 106 q-0.5 0 -0.5 -1 l1 0 q0 1 -0.5 1 ZM174 107 l0 0 ZM161 125 l1 0 l-1 1 l0 -1 ZM61.5 129 q-0.5 0 -0.5 -1 l0 -1 q1 0 1 1 q0 1 -0.5 1 ZM171 130 q2 -2 3 -2 q0 1 -1 2 l-2 0 ZM127 133 q-1 0 -1 -1 l1 0 l0 1 ZM121 135 l0 0 ZM171 144 q-1 0 -1 -2 l1 0 l0 2 ZM174 147 l1 1 l-1 0 l0 -1 ZM121 148.5 q0 0.5 -1 0.5 l0 -1 q1 0 1 0.5 ZM123 151 l1 0 l1 -1 q3 0 4 2 l1 2 q1 2 2 3 q0 1 -2 2 q-2 2 -3 2 q-3 0 -4 -5 l0 -5 ZM172.5 159 q-0.5 0 -0.5 -1 l0 -1 q1 0 1 1 q0 1 -0.5 1 ZM162 160 l-1 0 l1 0 ZM211 193 q-1 0 -1 -1 q0 -1 1 -1 l0 2 Z" /><glyph glyph-name="uni524D" unicode="&#x524d;" d="M187 -8 l1 2 l2 1 q8 1 10 8 q0 3 1 7 q0 5 1 7 l0 23 q0 3 -1 8 q-1 5 -1 8 l0 14 l-1 14 l0 3 q-1 3 -1 5 l0 11 q-1 9 -5 18 q0 3 -4 6 q-1 1 -2 2 l-1 0 q0 2 1 4 q1 2 3 4 q2 2 3 3 q2 2 3 2 q3 0 7 -3 l1 -1 q1 0 1 -1 l3 0 q1 -1 4 -1 l6 -2 q8 -2 8 -6 q0 -2 -2 -4 l-2 -4 q-2 -4 -2 -9 l0 -43 l-1 -17 q0 -1 1 -2 l0 -12 l1 -15 q1 -5 1 -10 l0 -4 l1 -6 q0 -5 -1 -10 q0 -13 -6 -13 l1 -2 l-1 -2 l0 -1 q-1 -1 -2 -2 q-1 -1 -2 -2 q-1 -1 -3 -1 l-1 -1 q-1 -1 -2 -1 q-1 -1 -2 -2 q-2 -2 -5 -2 q-4 0 -6 6 l-1 2 q-2 2 -2 3 q0 1 -1 2 q0 1 -1 2 l-2 1 q-1 1 -1 2 q-1 2 -5 6 q-2 2 -4 3 q-2 2 -3 2 l14 0 ZM100 -2 l16 2 q3 0 5 13 q0 4 1 11 l0 20 l-1 12 l0 3 q1 2 1 4 q0 2 -1 7 q-2 5 -2 7 l0 17 q-1 2 -2 4 l0 5 q-1 6 -3 9 q-3 0 -8 -1 l-2 0 l-14 -2 q-5 0 -8 -1 q-10 -2 -10 -7 l0 -11 q0 -5 1 -10 l1 -13 l0 -9 q0 -4 1 -13 l0 -15 l1 -6 l0 -5 l1 -7 l-1 0 q0 -3 1 -5 l0 -5 l1 -5 l0 -5 q0 -3 -2 -9 q-3 -9 -8 -9 l-3 0 q-2 1 -4 4 q-6 7 -6 11 q0 1 1 3 l0 3 q0 1 1 2 l0 18 l1 13 l-1 12 l0 3 q0 1 -1 2 l0 16 q0 8 -1 16 q-1 10 -3 23 q0 2 -2 7 q-2 4 -2 7 l0 1 q0 1 1 2 q1 0 3 1 l3 2 q3 3 6 3 l1 1 q1 0 2 -1 l2 -1 q0 -1 1 -1 q6 -4 13 -4 l2 0 l3 1 l10 0 q4 0 5 1 q1 0 3 -1 l1 0 l1 -1 q5 2 8 6 q1 1 2 2 l4 4 q1 1 2 1 q1 0 1 -1 l5 -3 l4 0 l5 -6 q1 -1 2 -2 l-1 -2 l2 -2 q0 -1 -1 -3 l-3 -11 q-1 -3 -1 -5 l0 -7 l1 -4 q0 -2 1 -2 q0 -1 -1 -3 l0 -7 q1 -5 1 -7 q0 -2 -1 -2 q-1 0 -1 -2 l2 0 l0 -14 q0 -4 1 -13 q1 -9 1 -14 l0 -4 q0 -1 1 -2 l0 -22 q0 -5 -2 -7 q-1 -3 -9 -8 l-5 -4 q-3 -2 -4 -2 q-2 0 -4 3 l-1 2 q-1 2 -1 3 l-2 2 l-3 7 l-1 1 q0 1 -2 2 l-5 5 l-1 1 l1 1 ZM116 -18 q-1 0 -1 -1 q0 -1 1 -1 l0 2 ZM74 -6 q-1 0 -1 -1 q0 -1 1 -1 q1 0 1 1 q0 1 -1 1 ZM75 1 l0 0 ZM158 26 l1 10 l1 1 q1 6 2 10 q0 3 -1 9 l0 11 l1 4 l0 2 l-1 9 l0 3 q0 7 1 9 q0 1 -1 2 l-4 8 q0 1 -1 3 q0 1 -1 2 q-2 2 -2 3 l0 1 q0 7 7 7 l3 0 q2 0 5 -1 q4 -1 7 -2 q0 -3 4 -4 l3 -1 q1 -1 1 -2 l0 -2 l-3 -7 q-1 -5 -2 -10 l0 -23 l1 -12 l0 -9 l1 -7 l0 -7 q0 -3 -1 -5 q-1 -5 -7 -11 q-4 -5 -9 -5 q0 1 -1 2 l-3 2 q-3 3 -3 7 l2 3 ZM84 47 q5 0 14 -6 q10 -6 12 -10 q1 0 1 -1 l0 -2 q0 -8 -10 -11 l-2 2 q-2 1 -3 2 q-2 2 -3 5 l-1 2 l-2 7 l-1 2 q0 1 -1 3 l-2 2 q-1 1 -1 2 q-1 2 -1 3 ZM216.5 50 q-0.5 0 -0.5 -1 l1 0 q0 1 -0.5 1 ZM207 51 l0 -1 l0 1 ZM61.5 53 q-0.5 0 -0.5 -1 l1 0 q0 1 -0.5 1 ZM83 94 l2 -1 l2 0 l15 -15 q0 -2 4 -5 q4 -3 4 -6 l-1 -1 l-1 -1 l-1 -1 q-1 -1 -1 -2 q-1 -1 -1 -2 q-1 -1 -4 -2 l-2 0 l-2 1 q-2 1 -2 2 q-3 1 -4 7 l-2 10 q-1 2 -2 4 l-1 1 l-1 2 q-3 4 -3 8 l1 1 ZM97 115 q-1 0 -1 -1 l2 0 q0 1 -1 1 ZM115 120 q-1 0 -1 -1 l1 0 l0 1 ZM10 157 q0 2 2 2 l20 -1 l18 1 l10 0 l11 -1 q1 -1 2 -1 l15 0 q6 0 6 4 q0 2 -2 7 l-1 2 l0 2 q-1 3 -1 6 l0 2 q0 3 -1 6 l-3 5 l2 1 l-1 1 q-1 0 -3 3 q-2 3 -2 5 q-8 4 -8 9 q0 2 2 2 q2 0 3 -1 q1 0 3 -1 l5 -3 l2 -1 q2 -1 3 -1 l3 -2 q2 -1 3 -2 q2 -2 7 -4 l1 -1 q1 -1 2 -1 q1 -1 2 -2 l9 -9 l1 -3 q1 -4 2 -10 l0 -10 q1 -2 8 -2 q5 0 10 4 q3 3 6 10 q1 3 4 7 l4 7 l3 7 q0 1 1 2 l0 14 l-1 1 l-2 3 l0 2 q0 2 2 3 l4 2 q2 0 5 -2 l11 -6 q2 -1 3 -1 q1 -1 2 -2 l4 -2 l1 0 q2 -1 2 -2 l3 -4 q2 -2 3 -2 l0 -1 q0 -5 -5 -9 q-1 -1 -4 -3 l-5 -3 l-4 -1 l-1 -1 q0 -1 -1 -1 l0 -2 l-2 -2 l-4 -4 l-6 -5 q-5 -3 -6 -6 q0 -1 2 -2 l24 0 q14 1 25 3 q3 0 5 2 q1 1 2 2 l3 3 q1 1 2 2 q2 1 5 1 q8 0 16 -7 q2 -2 6 -6 l6 -7 q0 -1 -1 -3 q-2 -1 -3 -1 q-4 0 -9 1 q-3 0 -9 1 l-9 2 l-11 0 l-2 -1 l-13 2 l-1 -1 q-1 -1 -2 -1 l-58 0 l-8 -2 l-29 0 q-3 -1 -8 -2 l-4 0 l-20 -1 l-11 -2 l-9 0 q-4 -1 -5 -2 q-1 1 -3 1 q-1 0 -3 -1 l-2 0 l-9 -2 q-3 -1 -6 -1 q-5 0 -6 3 q0 3 -1 7 l0 1 l-1 2 l0 4 ZM67 149 l0 -2 l0 2 ZM199 156 l1 0 l0 1 l-1 0 l0 -1 ZM113 167 q-1 0 -1 -1 l1 0 l0 1 ZM166 180 q-1 0 -1 -1 q0 -1 1 -1 l0 2 ZM102 186 q-1 0 -1 -1 q0 -1 1 -1 l0 2 Z" /><glyph glyph-name="uni529B" unicode="&#x529b;" d="M133 -22 l-3 8 q-1 0 -1 2 l-1 2 q-3 6 -5 8 l-10 9 q-2 1 -2 2 q0 1 2 1 q5 0 11 -3 q1 0 2 -1 l2 -1 q10 -5 23 -5 q5 0 9 8 q1 3 3 7 q0 1 1 2 l1 3 q8 13 14 30 q2 7 6 16 l6 19 l1 6 q3 5 6 15 l6 18 l2 10 q0 6 -4 8 q-2 2 -10 2 q-1 0 -2 -1 l-3 0 l-2 -1 l-21 0 q-13 0 -16 -5 l0 -2 l-1 -6 l0 -2 q0 -1 -1 -2 l-1 -1 q-3 -6 -6 -15 l-3 -8 q-1 -4 -3 -7 l-1 -2 l-1 -1 q-1 -3 -3 -6 l0 -2 l-1 -1 l-1 -3 q-4 -7 -6 -11 q-1 -2 -3 -4 l-2 -4 q-3 -4 -5 -7 q-2 -3 -4 -6 q-1 -1 -2 -2 l-2 -3 q-4 -8 -9 -11 q-2 -3 -6 -6 q-5 -3 -6 -5 l-2 -3 l-7 -5 q-7 -6 -14 -12 l-6 -5 q-1 -1 -2 -1 q-1 -1 -3 -2 l-2 -3 q-4 -3 -6 -5 q-7 -6 -12 -6 q-4 0 -6 1 q-1 0 -1 1 l0 1 q0 1 1 2 q2 1 6 3 q0 1 1 1 q1 0 2 1 l4 2 q4 2 6 4 l4 4 q2 2 4 2 l19 19 l1 1 l11 14 q6 7 10 15 q8 13 16 31 l1 4 q2 4 2 7 l2 6 l1 3 l3 7 q3 5 4 9 q2 4 2 7 l0 2 q0 2 -2 6 q-3 5 -8 5 q-5 -2 -11 -2 l-8 -1 l-3 0 l-11 -2 q-7 -1 -12 -1 q-1 0 -3 3 q-2 2 -5 5 q-6 8 -6 12 q0 2 2 3 q4 0 13 -1 q9 -1 14 -1 l20 0 l0 -1 l6 1 l2 0 q4 1 7 1 l9 -1 q4 0 6 6 l0 5 q1 2 1 3 l0 1 l-1 2 l-1 3 l3 0 q1 1 1 4 l0 8 q0 1 1 2 l1 3 q0 1 1 2 l0 14 q0 4 -4 6 l-2 2 q-1 1 -1 2 q0 2 4 3 q4 2 6 2 q4 0 9 1 q4 1 6 1 q2 0 7 -3 q5 -4 7 -7 q1 -1 3 -1 l3 -2 q2 -1 3 -1 q1 -1 1 -3 q0 -9 -7 -12 q-1 0 -2 -2 l-2 -2 l-2 0 q0 -3 -2 -7 l-2 -7 q-3 -9 -3 -14 q0 -3 2 -4 l3 -1 l2 0 q6 0 10 1 l32 0 q1 0 5 2 l5 4 l4 4 q2 3 4 3 q2 0 4 -3 l1 -1 l0 -2 q1 -1 1 -2 q3 0 4 -2 q1 0 2 -2 l0 -1 l1 -1 q1 -1 2 -2 l2 -2 q2 -1 2 -3 l0 -1 q-1 -3 -4 -5 l-4 -3 l-3 -1 q-1 -1 -1 -2 q-2 -3 -2 -7 l-7 -22 q-1 -2 -2 -7 q-1 -6 -2 -9 q0 -1 -1 -2 l0 -1 l-1 -3 q-3 -5 -3 -9 l-2 -5 q0 -2 -1 -3 l-1 -3 q-2 -6 -2 -10 q-4 -12 -7 -26 q-1 -4 -3 -9 l-10 -18 l-6 -9 q-6 -10 -13 -16 q-3 -1 -6 -4 l-6 -4 q-7 -6 -13 -6 q-8 0 -8 6 l0 1 l-3 8 ZM110 80 q-1 0 -1 -1 q0 -1 1 -1 l0 2 Z" /><glyph glyph-name="uni52D5" unicode="&#x52d5;" d="M141 25 q1 1 1 2 q0 2 1 3 l1 2 q2 12 8 27 q1 4 2 10 l2 11 q0 1 1 2 l1 2 q0 2 1 2 l0 2 q0 4 2 9 l3 9 q0 10 1 18 q0 7 -9 9 l-2 -1 l-1 0 q-2 0 -4 4 q-2 3 -2 7 q0 4 11 4 q10 1 10 7 l-1 11 l0 26 q-1 2 -1 3 q0 1 -1 2 l-2 2 q-1 1 -2 2 q-1 1 -1 2 q0 3 9 5 q2 1 6 1 l4 0 q3 0 11 -4 q4 -2 7 -3 q3 -2 3 -4 q0 -3 -5 -6 q-5 -3 -5 -7 l1 -1 l0 -15 q-1 -7 -1 -16 q3 -5 10 -5 l9 0 q2 1 3 1 q1 1 2 2 q1 0 2 1 q2 0 5 3 q3 3 6 3 q2 0 7 -5 q5 -5 5 -10 q0 -3 -2 -7 q-2 -4 -3 -6 q1 0 1 -2 q0 -1 -1 -3 l-1 -6 q-1 -2 -1 -4 l-1 -1 l0 -2 q-1 -3 -1 -4 l0 -5 q1 -1 1 -2 q0 -1 -1 -1 l0 -11 q-2 -6 -2 -14 l-1 -13 q0 -1 -1 -3 l0 -2 q-1 -1 -1 -2 q0 -4 -1 -10 l-2 -4 q-1 -3 -1 -5 q0 -9 -3 -18 q-1 -3 -3 -8 l-3 -6 l-1 -1 l0 -1 l-2 -2 l-2 -2 l0 -1 q-3 -8 -7 -8 q-2 0 -3 1 q-1 1 -2 2 l0 1 l-2 2 q-1 1 -2 2 l-1 2 l1 1 q-2 2 -5 5 l-6 6 q-3 2 -4 4 q-2 2 -2 3 l23 0 q1 0 2 1 q1 2 2 4 l2 6 l0 2 l1 2 q0 17 3 31 q0 1 1 3 l1 2 l0 2 q0 1 1 1 l1 1 q-2 1 -2 5 l0 10 l1 7 q1 1 1 2 l0 6 q0 1 1 3 l2 5 l0 3 l-1 2 q1 3 2 7 l0 7 q0 6 -3 8 l-12 0 q-3 0 -6 -1 q-4 -1 -5 -3 q-2 -1 -2 -4 l0 -9 q-1 -2 -1 -3 q1 0 1 -1 q0 -1 -1 -3 l-1 -3 q-1 -1 -1 -2 q0 -3 -1 -9 l-2 -10 l-3 -6 q-1 -2 -2 -6 l-1 -5 l0 -3 l-1 -4 q0 -2 -1 -3 q0 -2 -1 -4 q-1 -5 -4 -6 l0 -4 l-1 -3 l0 -3 l-7 -13 l-2 -3 l-2 -5 l-2 -2 l-1 -3 q-1 -2 -1 -3 q-2 -2 -6 -7 l-2 -4 q-2 -2 -3 -3 q-4 -6 -10 -12 q-2 -2 -5 -5 l-7 -5 q0 -3 -3 -3 l-3 -1 l-2 0 l0 2 q1 2 1 3 q5 5 9 10 q3 5 6 11 l1 3 q1 2 2 3 q1 2 3 4 l1 4 q1 0 1 1 q2 4 5 7 l1 4 ZM115 -21 q-1 0 -1 -1 l2 0 q0 1 -1 1 ZM26 6 q0 1 2 2 l14 0 q4 1 5 1 l26 3 l0 1 l1 8 l0 4 q0 2 -1 3 q-1 2 -3 2 l-7 0 q-6 -1 -9 -1 q-3 0 -9 -1 q-5 -1 -8 -1 l-4 0 q-3 0 -3 2 l0 3 l-3 5 l0 3 q0 3 7 3 l11 -2 l7 0 l8 -1 l10 0 q7 6 8 13 l0 4 q0 3 1 3 q0 6 -4 8 q-8 0 -12 -1 q-6 -1 -6 -3 q0 -5 -4 -7 q-3 -2 -8 -2 l-2 0 q-2 0 -3 1 q-2 1 -2 5 l1 9 l0 1 q-1 1 -1 2 q0 3 2 3 l0 49 l-1 2 l0 2 q-1 6 -4 8 l0 1 q0 1 1 2 q1 0 3 1 q5 2 6 2 l0 1 q1 0 1 -1 l3 -3 q0 1 1 1 l1 -1 l1 0 l2 -1 q4 -2 7 -2 q13 0 16 1 q4 3 4 11 q0 5 -7 5 q-4 0 -12 -2 l-1 0 l-12 -2 l-5 0 q-2 0 -4 -1 l-4 -1 q-2 -1 -3 -1 q-2 0 -3 1 q0 1 -1 3 l0 2 q0 2 -1 3 l-1 1 l-1 2 l-1 1 l-1 1 q0 2 4 2 l3 1 q2 1 4 1 l21 0 q1 1 2 1 l8 -1 l4 0 q3 0 7 1 q4 2 4 4 q0 4 2 7 l0 2 q0 6 -7 6 q-3 0 -7 -1 l-7 -1 q-8 0 -17 -3 l-5 -2 q-3 -1 -6 -1 q-1 0 -3 2 q-1 1 -1 2 q0 1 1 2 q1 0 4 1 l7 2 l3 1 l3 1 q3 0 7 2 q5 2 7 2 q1 0 3 1 l2 0 l6 3 q2 1 3 1 q1 0 4 1 q2 2 3 2 q1 0 4 1 l4 1 q4 1 7 3 q1 0 3 3 l0 2 q1 1 2 1 l9 0 q3 0 8 -4 q7 -4 7 -8 q-2 -2 -4 -4 q-3 -2 -4 -2 l-8 -1 l0 1 l-1 -1 q-2 -1 -3 -2 q-2 -1 -3 -2 l0 -3 l1 -2 l0 -2 l1 0 q0 -1 -1 -2 l-1 -1 l-2 -2 q-4 -5 -4 -7 q0 -1 2 -2 l17 0 q1 1 3 1 l3 0 l5 3 l1 1 q4 3 7 3 l2 0 q2 0 2 -1 l7 -6 q0 -7 -4 -9 q-1 -1 -4 -1 l-20 1 q-1 0 -2 -1 l-2 0 l-3 -1 l-8 0 q-2 -1 -6 -2 q-1 -3 -1 -7 l0 -3 q0 -1 1 -2 q1 -3 4 -3 l16 0 l2 2 q4 3 7 3 q4 0 6 -3 l5 -5 q2 -3 2 -5 q0 -1 -1 -3 l-1 -2 q0 -1 -1 -1 q-3 -5 -3 -9 l0 -35 q-1 -1 -1 -2 l1 -2 l0 -4 q0 -3 -3 -8 q-4 -5 -9 -5 q-3 0 -4 1 q-1 1 -1 3 l-1 0 l0 3 q-1 1 -3 2 l-11 0 q-9 0 -9 -5 l0 -18 q0 -4 11 -4 l1 0 q2 0 6 2 l4 1 q2 1 4 1 q7 0 12 -9 q0 -4 -3 -4 l-27 0 q-11 -2 -11 -8 q0 -7 1 -9 q1 -1 6 -1 l6 0 q1 1 3 1 l2 0 l4 1 l3 0 q3 1 6 1 q1 0 3 -1 q2 -1 2 -2 q0 -3 -10 -5 l-15 -3 q-3 -1 -8 -3 q-5 -2 -8 -3 l-3 0 q-3 0 -7 -1 l-4 -2 l-5 0 q-1 0 -2 -1 l-1 -1 l-1 0 q-1 -1 -2 -2 l-3 0 q-2 0 -5 -1 l-7 -3 l-2 0 q-3 -1 -5 -1 l-1 0 l-1 1 q0 1 -2 3 q0 1 -1 2 l-2 2 q-5 6 -5 8 ZM116 37 q-1 0 -1 -2 l1 0 l0 2 ZM220 58 l1 0 q-1 1 -1 5 l0 -5 ZM215 70 l0 0 ZM119 70 q0 1 -1 1 l0 -1 l1 0 ZM51 73 q-1 0 -1 -1 l2 0 q0 1 -1 1 ZM222 74 l1 0 l0 1 l-1 0 l0 -1 ZM57 87 q0 -10 5 -10 l2 1 l5 -1 q2 -1 4 -1 q6 0 7 11 q1 3 1 7 l-1 5 q-1 2 -4 2 q-1 1 -2 1 l-2 0 q-10 0 -13 -4 q-2 -3 -2 -11 ZM95 82 q2 -6 9 -6 q12 0 12 4 l0 21 q0 1 -2 2 l-4 2 l-5 -1 l-3 0 l-2 -1 q-6 -1 -6 -8 l1 -13 ZM226 100 q-1 0 -1 -1 l1 0 l0 1 ZM58 120 q0 -11 7 -11 l4 1 l6 0 q6 3 6 13 q0 6 -7 6 q-7 0 -11 -2 q-3 0 -4 -2 l0 -3 l-1 -2 ZM99 133 q-1 -1 -2 -2 l0 -18 q0 -3 9 -3 l1 0 q10 0 10 13 q0 7 -4 9 q-3 0 -6 1 l-8 0 ZM160 144 q-1 0 -1 -1 l2 0 q1 0 1 1 l-2 0 ZM227 143 l2 0 l-1 1 l-1 0 l0 -1 ZM189 198 q0 -1 1 -1 l0 1 l-1 0 ZM192 197 q0 1 -1 1 l0 -1 l1 0 ZM185 203 q-1 0 -1 -1 q0 -1 1 -1 q1 0 1 1 q0 1 -1 1 Z" /><glyph glyph-name="uni5316" unicode="&#x5316;" d="M72 13 l1 26 l-1 5 l0 17 l-1 36 l0 5 l-3 4 l-1 0 q-3 0 -7 -6 q-1 -1 -2 -3 l-2 -3 q-2 -3 -3 -4 l-2 -2 q-2 -2 -3 -3 q-3 -3 -3 -5 q-1 -2 -5 -5 q-4 -4 -5 -6 l-25 -28 q-2 -2 -4 -2 q0 2 2 5 l3 4 q0 1 1 3 q1 2 3 4 l6 8 q1 1 1 2 l6 9 q1 2 3 4 l1 2 l1 1 l1 1 q4 5 4 7 q2 4 4 8 l5 7 l1 3 l2 3 q0 1 2 2 l1 2 l2 4 l0 1 l1 1 l2 2 l0 1 l4 7 q0 1 2 4 l1 3 q5 9 7 14 q0 2 1 5 l1 1 l0 1 q1 1 1 2 q2 4 2 9 l4 9 q0 4 -3 8 l0 1 q0 2 4 3 l8 0 q6 0 15 -8 q7 -7 7 -9 q0 -3 -2 -6 l-2 -1 l-1 -1 l-2 -2 l-11 -13 q-6 -7 -6 -10 l0 -26 q2 -5 2 -8 l-1 -26 q1 -3 1 -4 l0 -18 q1 -6 1 -10 l1 -5 q2 0 5 2 l35 32 q10 6 12 18 l0 27 l-1 14 q-1 6 -1 12 q-1 8 -1 13 l1 13 q-1 8 -4 13 q0 1 -3 2 l-10 4 q-2 1 -2 2 q0 1 2 3 q1 1 4 2 q5 3 7 3 q1 0 3 1 l4 2 q5 4 8 4 q2 0 4 -1 l2 -2 q1 0 1 -1 l8 0 q3 0 6 -3 q1 0 2 -1 l1 -1 l1 -1 q3 -2 3 -3 q0 -2 -1 -3 l-2 -4 q-1 -1 -2 -3 l-2 -2 l-5 -3 q-3 -2 -3 -4 l0 -8 q0 -4 -1 -5 l1 -4 l0 -11 l-2 -31 q0 -2 1 -3 l1 -1 q9 0 15 8 l0 1 q0 1 1 2 l2 1 l0 2 q3 3 5 8 l6 10 l0 1 l1 1 q1 3 2 4 q2 5 3 10 l0 5 l-1 3 l0 2 q0 2 5 3 l9 1 q3 0 5 -3 l1 -2 l5 -7 l3 -3 l1 -1 l2 -2 q4 -5 4 -10 q0 -6 -6 -11 l-12 -7 l-6 -6 q-1 -1 -2 -2 q-4 -3 -6 -5 l-12 -11 q-7 -6 -12 -10 l-3 -1 q-2 -1 -4 -2 q-6 -4 -6 -8 q-1 -3 -1 -8 l0 -9 q0 -5 1 -11 l0 -8 l2 -12 l0 -11 q1 0 1 -3 l0 -5 q1 -7 4 -9 l11 0 l2 -1 l3 -1 q4 0 11 1 l7 2 l3 -1 l13 2 q8 2 12 2 q3 0 8 11 q4 9 7 18 q0 2 1 4 l1 4 q1 5 4 5 q0 -7 -1 -11 l-1 -7 q0 -12 2 -19 l2 -8 q2 -5 2 -8 q0 -12 -8 -14 l-22 -1 l-33 0 q-4 -1 -12 -1 l-11 0 q-4 0 -14 3 q-10 4 -11 7 q-1 5 -1 15 l0 30 q0 8 -1 12 q0 14 -5 14 q-2 0 -4 -2 l-7 -5 l-3 -1 l-2 -3 q-2 -2 -3 -2 q-4 -3 -10 -7 q-5 -3 -12 -7 q-10 -2 -10 -10 q0 -5 1 -8 l0 -5 l1 -3 l0 -13 l1 -6 l0 -4 q0 -7 -6 -12 q-2 0 -3 -1 l-5 -4 l-4 0 q-2 0 -2 2 l0 36 ZM149 25 q-1 0 -1 -1 q0 -1 1 -1 l0 2 ZM178 119 l-1 0 q0 -1 1 -1 l0 1 Z" /><glyph glyph-name="uni5341" unicode="&#x5341;" d="M124 -11 l1 4 l0 9 q-1 5 -1 7 l0 5 q1 1 1 3 l0 6 q0 2 -1 3 l0 3 l1 3 l0 9 l-1 17 l0 12 l2 13 l-1 8 q0 1 1 2 l0 1 q0 11 -2 14 q-2 3 -9 3 l-7 0 l-7 -2 q-5 0 -9 -1 l-11 0 q-5 0 -13 -2 q-9 -2 -15 -6 l-9 0 l-11 -4 l-5 0 q-4 0 -5 3 l-2 7 q-3 2 -5 6 l-1 3 l2 2 l34 0 q3 2 6 2 q3 1 7 1 l12 0 l4 1 l12 0 q3 1 7 1 l8 1 q9 1 14 2 q2 2 3 6 l0 16 l-1 18 l-1 8 q-1 2 -1 5 l-1 5 q0 7 -2 10 q0 1 -2 2 l-2 1 l-3 2 l-2 2 l0 1 q0 1 3 3 l4 0 l2 1 l9 3 q4 0 8 -3 l4 -2 q2 -2 4 -3 q1 0 4 -1 q1 0 2 -1 l8 -2 q2 -1 2 -2 l0 -2 q0 -3 -2 -6 q-1 -1 -2 -2 l-3 -3 q-1 -1 -2 -1 l0 -4 q-1 -1 -2 -3 l-1 -3 q-1 -1 -1 -3 l-1 -14 l0 -16 q1 -12 8 -12 q37 0 45 2 l3 1 q1 0 2 1 l3 2 q2 1 4 3 l2 0 l5 2 q1 1 2 1 q1 0 2 -1 l1 -2 l9 -6 q5 -3 8 -6 q9 -7 9 -13 q0 -1 -3 -3 q-3 -2 -6 -2 q-7 2 -14 3 q-6 1 -15 2 l-14 0 q-8 0 -14 1 l-8 2 l-15 0 q-10 -1 -13 -7 q0 -5 1 -13 l0 -95 q0 -1 -1 -2 l0 -3 q-5 -12 -15 -16 q-3 0 -5 4 q-1 2 -1 4 q-1 1 -1 2 l0 3 Z" /><glyph glyph-name="uni535A" unicode="&#x535a;" d="M154 -9 q0 1 1 1 l7 0 q10 0 15 2 l0 5 l-3 42 l-1 2 q-1 1 -2 1 l-5 -1 l-25 0 q-3 0 -3 -4 l0 -6 q1 -2 4 -5 q4 -3 4 -5 l-1 -5 l1 -2 l1 0 q1 -2 1 -4 q0 -3 -3 -7 q-4 -5 -7 -5 q-6 0 -8 9 l0 12 l-1 5 l0 4 q-1 5 -2 9 q0 1 -4 2 l-4 1 l-25 -1 q-1 0 -2 1 l-2 3 q-1 1 -2 1 q-2 0 -3 2 q-1 0 -2 1 l-1 1 q-4 4 -7 4 q-2 0 -3 -5 l0 -15 l1 -5 l-1 -4 l1 -5 l0 -2 l-1 -4 l0 -12 q0 -7 -1 -11 q-2 -6 -7 -10 l-1 0 q-2 0 -5 3 q-4 3 -4 5 q-1 1 -1 3 l1 24 l1 4 l0 7 l-1 11 q1 2 1 3 l0 15 l1 0 q0 1 -1 1 l0 1 q-1 1 -1 2 q0 2 1 3 l-1 14 q0 1 1 3 l1 2 l-1 7 l0 18 q0 11 -3 11 l-19 -1 q-5 0 -10 2 q-5 3 -5 8 q0 1 1 2 q1 2 2 2 l7 -1 l2 0 q6 -1 11 -1 l8 1 l4 0 q1 1 2 5 l0 16 l-2 33 l-1 10 q0 4 -3 9 l-3 3 q-1 2 -1 3 l5 -1 l3 -1 l2 0 l5 -2 l1 1 q1 0 2 -1 q2 -1 3 -1 q1 -2 8 -8 l5 -3 q2 -1 2 -2 q0 -3 -2 -6 l-1 -2 l-3 -3 q-1 -1 -2 -2 q-1 -2 -1 -4 l0 -4 l-1 -16 q-1 -8 -1 -16 q0 -8 6 -8 q4 0 8 4 q5 3 7 3 q3 0 5 -4 l3 -5 l2 2 q1 1 2 2 l0 7 q0 3 -2 7 q1 2 4 2 q4 0 8 -4 q1 -1 4 -4 l4 -4 q7 -3 14 -3 q2 0 3 1 q2 0 2 1 q0 15 -2 19 q-1 2 -2 2 l-1 1 l-2 1 q-5 0 -14 -1 l-14 0 q-5 0 -10 3 l-10 8 q0 1 1 2 l5 0 q1 0 2 -1 l3 0 q9 -1 14 -1 l11 0 q6 0 6 -1 l7 0 q3 0 5 1 q5 1 5 8 l0 14 q0 9 -2 13 q0 4 -3 7 l-2 1 l-1 1 q-1 1 -1 2 q0 1 1 2 l5 0 l5 -2 l2 0 q3 -1 7 -2 l4 -1 l4 -1 q2 0 6 -2 l3 -2 l2 0 q9 0 17 -5 q10 -5 10 -13 q0 -4 -5 -9 q-5 -5 -9 -5 q-2 0 -4 4 l-2 8 q-2 12 -9 12 q-6 -3 -8 -9 q-1 -4 -1 -17 q0 -3 5 -5 l34 0 l2 1 l7 4 l1 1 l2 2 q2 2 3 2 q2 0 6 -2 q3 -2 6 -5 q3 -3 6 -6 l2 -3 l0 -2 q0 -1 -2 -1 q-8 0 -14 -1 q-5 0 -10 -1 l-7 -1 l-6 0 q0 1 -2 1 l-5 0 q-1 0 -2 1 l-21 0 q-1 -1 -2 -1 q-2 -1 -3 -4 l0 -12 l1 -2 q0 -1 1 -1 l21 0 q4 2 6 6 l4 9 q3 0 5 -1 l4 -3 l3 -2 q3 0 4 -1 q4 -3 4 -7 q0 -3 -2 -7 q-2 -4 -2 -8 q0 -2 1 -5 l0 -8 q1 -1 1 -2 l0 -11 q-1 -2 -2 -4 l0 -13 q0 -1 -1 -2 l0 -2 q0 -2 -1 -4 l-1 -1 l-1 -1 q-10 4 -17 11 q-5 0 -5 -3 q0 -2 2 -4 q1 0 2 -1 l1 -1 q4 -3 6 -6 q0 -1 1 -3 l1 -5 l1 -2 q1 -1 6 -1 l8 0 q2 2 7 6 q5 3 7 3 q1 0 4 -2 q3 -2 6 -4 q3 -3 4 -6 q3 -3 3 -4 q0 -4 -5 -4 l-12 1 l-6 0 l-21 -2 q-2 0 -3 -2 q-1 -2 -1 -3 l-1 -51 l-1 -3 l-1 -1 l-1 -3 l-1 -1 q-1 -1 -2 -1 q-1 -2 -2 -2 l-2 -3 q-7 -5 -12 -5 l-2 1 q-1 1 -2 3 q-2 4 -3 6 q0 6 -5 8 l-2 1 q-1 1 -2 1 q-2 1 -4 3 ZM89 50 q-1 0 -1 -1 l1 0 l0 1 ZM129 53 q0 -1 1 -1 l1 -1 l1 -1 q1 0 2 1 l4 1 q1 1 2 1 l3 -1 q2 0 3 1 q1 0 1 2 l0 2 l-2 2 l0 1 l-1 1 q-1 1 -1 2 l0 9 q0 5 -1 7 q-2 6 -12 6 l-1 1 q-1 0 -2 -1 l-2 -1 q-1 0 -2 -1 l-2 0 q-1 0 -2 -2 q-1 -2 -1 -5 l-1 -5 q0 -3 -1 -5 l-2 -3 q-2 -2 -4 -2 l-2 1 q-1 1 -2 2 l-5 4 l1 22 l0 6 q0 3 1 4 l0 11 q0 7 -2 12 q-1 0 -1 -1 l-3 -3 q-1 -1 -2 -1 q-1 0 -1 2 q0 2 -1 2 l-2 -1 q-1 0 -1 -1 l-17 -1 l-2 -2 l1 -51 q0 -6 6 -8 q3 -1 6 -2 l5 0 q4 -2 13 -2 l16 0 l11 -1 ZM154 56 q0 -1 2 -2 q1 0 3 -1 l9 0 q2 0 4 1 q2 2 2 5 l1 7 q0 5 -1 9 q-1 10 -6 10 q-6 0 -7 -3 l0 -16 q-7 -4 -7 -10 ZM64 62 q-1 0 -1 -1 q0 -1 1 -1 l0 2 ZM141 103 q-1 4 -4 4 l-13 0 q-1 0 -3 -1 q-1 -2 -1 -3 l0 -9 q0 -2 4 -3 q3 -1 9 -1 q6 0 10 6 l-2 7 ZM161 96 q0 -4 5 -4 l18 0 q6 2 6 7 l-1 4 q0 4 -1 4 l-24 0 l-3 -3 l0 -8 ZM120 121 q0 -4 3 -6 l9 0 q4 1 6 1 q3 1 3 2 l0 8 l-1 1 q-1 2 -2 2 q-14 0 -16 -1 q-2 -1 -2 -7 ZM161 123 q0 -6 4 -7 l5 -1 l9 0 q14 1 14 7 q0 3 -2 5 q-1 2 -3 2 l-20 0 q-6 -1 -7 -6 Z" /><glyph glyph-name="uni5370" unicode="&#x5370;" d="M141 -14 q0 3 1 9 q1 6 1 8 l0 12 l1 25 l0 54 l1 11 l0 25 l-2 38 l1 10 q0 8 -3 14 q0 1 -1 1 l-2 1 q-2 1 -2 2 l3 3 q2 1 3 1 l1 1 q3 0 6 -2 l7 -6 l4 -6 q1 -1 2 -1 q2 0 2 1 l17 1 q6 0 14 5 q1 1 2 2 l3 3 q3 3 6 3 q2 0 3 -1 l2 -1 l1 -1 q1 0 2 -1 l8 -4 q7 -5 7 -9 q0 -2 -1 -4 q-1 -1 -2 -2 l-1 -2 q-1 -1 -2 -2 q0 -1 -1 -2 q-1 -2 -1 -5 l0 -18 q0 -5 2 -8 l0 -36 l-1 -10 l1 -15 q0 -16 -8 -31 q-1 -1 -2 -4 q-3 -2 -5 -4 q-7 -7 -11 -7 q-3 0 -3 3 q-1 0 -1 1 l0 2 q-1 1 -1 2 q-2 2 -4 5 l-4 4 l-2 0 q-1 1 -2 2 l-2 1 l0 2 q0 1 2 1 l7 2 q11 4 11 15 l1 22 l-1 2 l0 32 q0 6 -1 16 l0 26 q-1 7 -5 9 q-4 0 -7 -1 l-7 0 q-1 -1 -2 -1 l-12 0 q-3 0 -4 -8 l0 -18 l1 -7 l0 -4 q0 -6 1 -13 l1 -35 l-1 -2 l0 -3 l1 -13 l0 -17 q0 -9 1 -16 l0 -6 q1 -3 1 -6 q0 -3 -1 -7 l0 -9 l1 -14 q-1 -6 -1 -10 q-2 -10 -13 -18 q-6 0 -8 3 q0 1 -1 3 l0 2 l-1 5 ZM46 30 q0 1 1 3 l1 1 l1 1 l0 4 q0 1 1 3 l-1 7 q0 6 -1 15 q-1 10 -1 15 l0 25 l-1 3 l0 2 l-1 6 q-1 3 -1 5 l1 5 q0 1 -1 1 l-2 30 q0 2 -2 6 q-1 1 -3 2 l0 1 l-2 2 l0 1 q0 2 2 4 q4 2 7 2 l2 0 q1 0 2 -1 l5 -5 q1 -1 2 -1 q1 0 3 1 q1 1 2 1 q3 0 3 -6 l-1 -10 q0 -9 1 -14 q0 -8 1 -12 q1 -5 4 -5 q1 0 3 1 l1 0 l1 1 l8 2 l7 0 l5 1 q2 1 5 2 q0 1 1 1 l1 1 l1 0 q5 3 8 3 q2 0 3 -1 l3 -4 l2 -3 q0 -1 1 -3 l0 -3 l-1 -2 q-1 -2 -2 -2 q0 -1 -1 -1 l-2 0 q-2 0 -2 -1 l-2 1 l-10 0 q-5 0 -9 -2 l-16 0 l-4 -1 q-2 -1 -3 -1 q-1 -1 -1 -2 l0 -42 q0 -7 2 -9 q2 -2 10 -2 q4 0 11 1 l5 1 q3 1 5 1 l4 0 q1 1 2 1 q1 1 2 2 l1 0 q1 0 1 1 q2 0 3 1 q2 1 3 1 q5 0 6 -3 l2 -3 q0 -2 1 -4 q0 -6 -3 -7 l-4 0 q-4 0 -10 -1 l-3 0 q-1 -1 -3 -1 l-5 0 l-20 -1 l-3 -1 l-3 -1 q-1 0 -2 -2 l0 -6 l-1 -5 l0 -8 l-2 -5 q-1 -1 -1 -2 q-4 -7 -9 -7 q-1 0 -2 3 q-1 3 -3 7 l-2 8 q-1 3 -1 4 ZM160 23 q-1 0 -1 -1 l1 0 l0 1 ZM154 54.5 q0 0.5 -1 0.5 l0 -1 q1 0 1 0.5 ZM51 94 l1 0 q0 -1 1 -1 q1 1 1 2 l-3 -1 ZM207 146 q-1 0 -1 -1 q1 0 2 1 l-1 0 ZM209 146 q-1 0 -1 -1 q0 -1 1 -1 l0 2 ZM64 170 q0 3 6 6 q1 0 2 1 l1 0 l1 1 q2 1 3 2 l2 1 q2 2 6 4 l8 5 l3 5 l3 5 q2 3 3 4 q0 1 1 2 l1 3 q1 2 4 2 q1 0 2 -2 q2 -2 2 -5 l2 -3 l3 -4 q3 -4 3 -7 l0 -4 q0 -1 -1 -2 q-5 -2 -14 -5 l-7 -2 q-4 -1 -7 -2 l-3 -1 l-2 -1 q-5 0 -7 -4 l-1 -4 q-2 -2 -3 -3 q-1 0 -3 2 l-2 3 l-4 0 q-2 0 -2 3 ZM206 177 l0 -2 l1 -5 l1 0 l0 2 q0 4 -1 6 l-1 -1 Z" /><glyph glyph-name="uni539A" unicode="&#x539a;" d="M10 -33 q0 2 4 6 q4 3 4 5 q1 3 5 6 l5 5 q2 1 3 2 q1 1 2 3 l1 2 l2 3 l2 3 l1 3 q1 1 1 2 q0 10 6 18 q3 5 5 14 l2 15 q2 3 2 6 q4 34 4 56 l3 26 l0 24 l1 14 l0 3 q0 1 -1 3 q-1 5 -10 5 l0 2 q0 1 1 2 l2 3 q1 1 1 2 q2 6 5 6 l2 0 l6 -3 l2 0 l3 -2 q5 -3 8 -3 q5 1 12 2 l13 0 l8 1 q5 1 8 1 q3 -1 7 -1 l6 1 q6 1 11 1 q30 1 59 3 q5 5 9 8 q5 4 8 4 q1 0 3 -1 q1 -1 3 -3 l6 -4 q0 -1 2 -3 l2 -2 q0 -1 2 -1 l2 -2 q3 -2 3 -4 q0 -3 -3 -4 l-31 0 q-4 0 -11 -1 q-7 -1 -8 -1 l-2 0 l-3 1 q-3 0 -6 -1 l-3 0 l-8 -1 l-40 0 q-3 0 -8 -1 q-3 0 -8 -1 l-8 -1 l-11 0 q-1 -1 -3 -1 l-4 1 q-5 0 -7 -6 q-1 -4 -1 -11 l0 -4 l-1 -1 l0 -4 q-1 -4 -1 -9 l0 -18 q-1 -2 -1 -4 l-1 -5 q0 -5 -2 -7 l0 -3 q1 -2 1 -3 q0 -8 -3 -11 q0 -1 1 -2 l0 -2 q0 -2 -1 -6 l0 -1 l-1 -2 l0 -13 q0 -4 -1 -8 q-1 -2 -3 -7 l-2 -7 q-1 -5 -1 -9 q-2 -3 -3 -8 l-1 -1 l-1 -6 q0 -1 -1 -3 l-1 -2 l-1 -1 l-1 -1 l0 -3 q-1 0 -1 -1 l-1 -2 l0 -2 q-1 -2 -1 -3 q-1 -1 -1 -2 q-1 -2 -5 -7 q-4 -6 -7 -10 l-6 -6 q-3 -4 -5 -7 q-2 0 -6 -5 l-4 -4 q-3 -3 -6 -5 l-2 0 l-1 1 ZM127 -13 q1 1 2 1 l6 0 l3 1 q8 3 8 11 l1 15 l0 11 q-1 10 -8 10 l-7 -1 l-2 0 q-5 0 -8 -1 l-9 -2 l-5 0 q-2 0 -3 -1 l-2 0 l-1 1 q-1 1 -2 1 q-3 0 -7 -3 q-5 -2 -8 -2 q-3 0 -3 5 q0 3 -1 8 q-1 4 -1 6 l10 0 l28 2 l8 -3 l11 3 l3 0 q4 1 4 4 l-1 8 l1 24 l-1 1 l-27 0 q-4 0 -9 -2 l-2 -1 q-1 -1 -2 -1 l-1 0 q-7 0 -8 10 l0 3 q0 2 2 2 l11 0 l0 3 l-1 3 q-1 2 -1 3 l0 38 l-1 11 q-1 8 -2 12 l-2 7 l0 3 q0 1 2 3 q2 1 3 1 q5 0 10 -5 l5 -3 q3 -2 5 -3 l17 0 l37 2 q7 0 11 1 q2 2 6 5 q5 3 7 5 l1 1 q1 0 2 -1 q2 -1 4 -3 l5 -4 q2 -2 3 -2 l2 -2 q2 -1 2 -2 l0 -3 q-1 -2 -3 -3 l-1 -17 q-1 -4 -1 -11 q-1 -5 -1 -15 q0 -1 -1 -2 l-2 -3 q1 -1 1 -2 l-1 -1 q-1 -1 -2 -2 l0 -1 l-2 -1 l0 -3 q1 -5 6 -10 l2 -2 l1 -1 l1 0 l3 -3 l2 -2 l0 -1 q0 -2 -4 -3 q-2 -1 -4 -1 l-3 0 q-2 -2 -6 -3 l-3 0 q-2 -1 -3 -1 l-4 -2 l-2 -1 l-6 -2 q0 -2 -4 -3 l-9 -3 q-11 -5 -11 -12 l0 -2 q1 -2 2 -2 l13 0 q1 -2 3 -2 q1 0 2 1 l2 0 l23 1 l6 1 l-1 1 q0 2 2 3 q2 2 4 4 q5 3 7 3 q3 0 4 -1 l1 -1 l1 -1 l4 -2 q3 -3 6 -5 q9 -7 9 -10 q0 -6 -5 -6 l-2 0 l-6 2 l-72 0 l-1 1 l-1 1 l0 1 l-4 0 q-2 -1 -2 -2 q0 -1 1 -3 l1 -3 l0 -1 q2 -5 2 -7 l0 -7 q0 -5 -2 -7 l2 -2 l0 -14 q0 -7 -7 -16 q-8 -9 -15 -9 q-4 0 -6 4 q-1 1 -2 3 l-1 4 q-1 0 -2 1 l-1 0 q0 1 -1 1 q-2 1 -2 2 ZM153 67 q1 0 2 -1 l2 0 q1 -1 2 -1 q1 0 2 -1 l1 2 l0 2 q0 2 1 2 l2 0 q1 0 1 1 q3 0 11 5 q8 6 11 11 q0 3 -2 4 l-4 0 q-4 0 -9 -1 q-2 0 -5 -1 l-2 0 q-1 -1 -3 -1 l-2 0 l-4 2 l-1 1 q-6 0 -6 -7 q0 -4 4 -6 q5 -3 5 -5 q0 -2 -1 -3 q-1 -1 -3 -1 l-2 0 l0 -2 ZM133 97 q7 0 15 -2 q3 2 9 2 l22 0 q10 0 10 13 l0 2 q0 4 -9 4 q-9 -2 -19 -2 l-2 0 q-1 0 -2 1 l-3 0 q-3 0 -9 -1 l-13 -1 l-1 0 q-4 -1 -6 -2 q-6 -2 -7 -9 l0 -2 q0 -4 4 -4 l5 0 l3 1 l3 0 ZM192 110 q0 -1 1 -1 q1 0 1 1 l0 2 l-1 1 q-1 0 -1 -2 l0 -1 ZM122 130 q0 -2 1 -3 l0 -3 q2 -4 4 -4 l46 3 q6 1 9 1 l5 -1 q6 0 6 7 l0 20 q1 2 1 6 q0 6 -4 7 l-14 0 l-13 -2 l-8 0 l-11 -1 q-11 -2 -18 -2 q-2 -1 -2 -3 l-1 -6 q0 -6 9 -6 l10 0 l24 3 q6 1 9 1 q5 0 8 -5 q0 -1 -2 -2 q-1 -1 -2 -1 q-1 -1 -3 -1 l-12 0 q-10 -1 -16 -1 l-12 0 q-7 0 -12 -2 q-1 0 -1 -2 q-1 -1 -1 -2 l0 -1 ZM116 125 q-2 0 -2 -1 q2 0 2 1 ZM217 152 q-1 0 -1 -1 l1 0 l0 1 Z" /><glyph glyph-name="uni53C3" unicode="&#x53c3;" d="M29 -35 q1 1 3 2 l4 2 l15 2 l4 2 q0 1 2 1 q1 1 2 2 q6 3 9 3 l1 0 q6 1 13 4 l3 0 l1 1 l1 0 q1 1 3 2 l6 0 l7 4 l4 1 q1 1 2 1 l1 0 q3 1 6 3 l1 0 l3 2 q3 1 6 2 q6 3 13 7 l12 7 q7 2 11 7 q2 1 2 4 l1 4 q1 4 5 4 q7 0 14 -6 q8 -7 8 -14 q0 -4 -9 -7 l-8 -2 l-6 -2 q-2 0 -4 -1 l-5 -3 q-1 -1 -2 -1 q-2 0 -4 -1 l-5 -2 q-2 -1 -3 -1 l-6 -2 q-4 -1 -6 -2 l-2 -1 q-2 -1 -3 -1 q-2 0 -6 -2 q-3 -2 -6 -2 l-9 -3 l-9 0 l-7 -3 q-1 -1 -3 -1 q-1 -1 -2 -1 l-5 1 q-7 0 -10 -2 q-2 0 -7 -4 l-1 0 q-1 0 -1 -1 q-1 0 -2 -1 q-2 -1 -3 -1 l-7 1 l-8 -1 l-4 0 q-4 -1 -7 -2 l-2 0 l-1 1 ZM60 4 q0 1 2 2 q1 1 4 2 l9 3 l8 2 l3 1 l5 4 q1 0 2 1 q5 3 8 4 l1 0 q2 0 3 1 l2 1 q1 1 2 1 l3 1 l5 1 l8 6 l5 3 q9 5 11 11 q1 1 1 2 l1 2 q1 2 3 2 q5 0 8 -1 q0 -2 4 -5 l1 -1 q1 0 1 -1 q1 -1 1 -2 q0 -4 -5 -7 l-4 -2 q-5 -2 -7 -2 q0 1 -1 1 q-1 0 -2 -1 l-2 -2 q-1 -1 -2 -1 q1 0 -6 -3 q-4 -2 -7 -3 q-4 -2 -6 -3 l-2 0 q-1 -1 -2 -1 l0 -1 l-2 -1 q-1 -1 -2 -1 l-14 -5 q-7 -3 -12 -4 l-20 -5 l-2 -1 l-2 0 q-1 0 -1 1 l0 1 ZM4 23 q1 2 4 3 q0 1 1 1 l1 0 q1 0 1 1 l3 1 l3 1 l3 2 l4 1 q3 0 5 2 q1 0 2 1 l3 2 q4 2 8 2 q1 2 4 3 l10 6 q3 2 6 4 l2 2 l1 1 q4 1 5 3 l4 4 l3 2 l2 2 q4 3 9 8 l7 8 l6 5 q3 4 5 6 q6 7 6 12 q0 4 -5 4 q-6 0 -16 -2 l-32 -8 q-2 -1 -3 -1 q-1 0 -2 1 l-1 2 l-2 3 l-2 4 q0 2 1 3 q1 1 2 2 q13 5 19 11 q3 2 7 6 l6 7 l1 1 l1 0 q2 1 2 2 l0 7 l1 1 l9 0 q3 0 4 -1 q2 0 2 -2 l3 1 q1 0 2 -1 q1 -1 1 -3 l1 -1 l0 -1 q0 -2 1 -2 l3 -4 q1 -1 2 -2 q1 -1 2 -2 q5 -5 10 -5 q0 1 1 2 l2 2 q1 0 1 2 l1 2 q1 2 1 3 l1 1 l1 0 q1 0 2 -2 q1 -1 1 -2 l2 0 q1 -1 2 -1 l3 -1 q2 -1 2 -3 l0 -2 l-2 -3 l0 -2 q0 -10 8 -15 q0 -2 4 -6 q5 -5 10 -8 q2 -2 5 -3 l13 -8 q11 -6 22 -10 l4 -1 q3 -1 5 -1 l3 -2 l3 -2 l9 0 l7 -1 l6 0 l6 -1 q4 0 6 -1 q2 0 2 -1 q-3 -3 -7 -4 l-1 -1 l-3 0 q-2 -1 -3 -2 l-15 -10 l-2 -1 q0 -1 -2 -2 q-1 -1 -2 -1 q-1 -1 -2 -1 l-1 0 q-2 0 -5 2 l-4 3 q-1 0 -3 1 q-2 1 -3 2 q-2 1 -3 1 q-6 3 -12 7 l-6 5 q-5 3 -10 6 l-13 13 q-3 3 -5 8 q0 3 -2 6 l-3 5 q0 1 -1 2 l-1 4 l-1 2 q-3 6 -7 6 q-4 0 -7 -6 l-3 -5 q-2 -2 -3 -3 l-27 -26 q-4 -3 -8 -6 l-17 -12 q-4 -3 -7 -6 l-5 -3 l-2 0 l-3 -2 l-2 -1 l-3 0 q-1 -1 -1 -2 q-6 -2 -11 -4 q-2 -1 -4 -2 l-4 -2 q-9 -4 -15 -5 q-1 0 -2 -1 l-4 -2 q-5 -2 -10 -2 l-1 0 ZM62 30 q0 3 6 5 l5 2 q3 1 4 1 q2 1 6 3 q4 2 5 3 l10 4 q3 1 7 4 l1 1 l6 3 l6 3 q4 1 5 4 l7 5 q2 2 5 8 l2 4 l1 2 l12 -1 l0 -1 l2 0 q1 0 2 -2 l0 -3 q0 -5 -2 -5 q-3 -2 -7 -4 l-7 -4 q-1 -1 -3 -2 q-1 0 -2 -1 q-2 -1 -4 -4 l-7 -2 q-9 -4 -13 -7 q-2 -2 -9 -4 l-4 -2 q-3 -1 -4 -1 q-4 -2 -9 -3 l-8 -3 q-1 0 -2 1 l0 -1 q0 -1 -3 -3 q-2 -1 -4 -1 l-2 0 l-2 1 ZM148 39 l1 1 l-1 0 l0 -1 ZM126.5 57 q-0.5 0 -0.5 -1 l0 -1 q1 0 1 1 q0 1 -0.5 1 ZM195 119 q-5 0 -9 -2 q-10 0 -14 -3 q-2 0 -3 2 q-5 -3 -8 -3 q-4 0 -4 6 q0 2 2 6 l2 1 l1 1 l2 2 q0 1 1 2 l1 1 l6 8 q0 1 1 2 l2 2 q2 7 2 13 q5 0 11 -2 q8 -2 8 -5 l-1 -2 l-5 -3 q-2 -1 -2 -2 l-8 -9 q-4 -6 -8 -9 q0 -2 1 -3 q1 -1 3 -1 l17 0 q6 0 6 5 q0 3 -2 6 l-4 5 q-1 1 -1 3 q0 1 2 1 q1 0 3 -1 q2 -1 2 -3 l12 -4 q7 -2 11 -5 l1 -2 l1 0 q1 -2 2 -3 q0 -11 -11 -20 q-2 -1 -4 -1 l-2 0 q-2 0 -4 2 l-2 6 q-4 9 -8 9 ZM69 111 q0 -2 2 -2 l2 0 q0 1 -1 2 l-3 0 ZM76 114 q0 -2 5 -2 l3 1 l3 0 q1 0 3 1 l4 0 q1 1 2 1 l2 0 q1 1 4 1 l4 0 q6 1 6 6 l-1 3 l-1 5 q-1 7 -4 7 q-2 0 -3 -1 q-1 -1 -2 -2 l-1 -1 l-1 0 l-1 -1 q-2 -1 -5 -3 l-3 -3 l-2 -2 q-2 -2 -3 -2 q-3 -3 -6 -4 q0 1 -1 1 l0 -1 l-1 -1 q-1 -2 -1 -3 ZM72 114 q-1 0 -1 -1 l1 0 l0 1 ZM119 114 l-1 0 l1 0 ZM72 175 q0 3 3 4 l18 -3 l1 0 q2 0 4 1 l4 4 q2 2 6 5 q5 3 7 5 q3 3 6 6 q1 4 5 9 l1 1 l3 3 q1 2 2 3 l0 3 l1 2 q1 2 4 2 q4 0 5 -3 q2 -1 5 -2 l6 -2 q8 -4 8 -8 q-1 -2 -6 -4 q-4 -3 -7 -5 l-14 -7 q-3 -1 -5 -2 q-1 -1 -1 -2 q-1 0 -1 -1 l-1 -1 l-3 -1 q-2 -1 -2 -2 q0 -1 1 -2 l1 -1 l6 0 l12 -1 l6 0 q3 0 5 1 l32 0 q1 0 1 2 l0 1 q0 1 -2 4 l-2 2 q-1 1 -1 2 q-2 3 -6 6 l-3 2 q-1 2 -2 3 l0 1 l4 0 l9 -3 l10 -1 q1 -1 3 -1 l0 -1 l1 0 q2 -1 3 -1 q1 -1 3 -1 q1 0 3 -1 q1 -1 3 -3 l6 -7 l0 -2 q0 -6 -4 -9 q-2 -2 -5 -4 l-6 -3 q-3 0 -7 3 q0 1 -1 2 l-1 1 l-1 1 l-17 0 q-6 -1 -14 -2 l-24 -4 q-4 -1 -10 -1 l-2 0 q-2 -1 -3 -1 l-7 -1 l-5 0 q-1 0 -1 1 q-2 -3 -7 -3 l-2 0 q-1 -1 -2 -1 l-5 0 l-2 -1 q-8 0 -13 6 q-1 0 -1 2 l0 2 l-1 2 l0 2 l-1 2 l0 2 Z" /><glyph glyph-name="uni53CA" unicode="&#x53ca;" d="M11 -28 l0 1 l2 1 q2 2 6 4 l16 6 q2 1 4 1 l4 2 q5 2 8 2 l7 4 l3 1 q1 0 2 1 l2 0 l2 1 l3 3 q3 4 6 4 l7 5 l2 1 l5 4 q1 0 1 1 q4 2 6 4 l1 0 l0 1 l12 12 q7 6 12 12 q1 3 3 5 l3 2 q4 3 4 6 q0 3 -2 8 q-1 2 -3 7 q-3 5 -3 8 q-2 4 -2 7 l0 3 q0 2 -1 2 l-4 15 q0 6 -1 12 q-2 7 -5 7 q-2 0 -6 -11 l-6 -22 l-1 -3 l0 -1 q0 -1 -1 -3 q-2 -4 -4 -5 l-1 -4 l-1 -2 l0 -1 q-2 -3 -4 -7 l-3 -6 q-3 -8 -7 -11 q0 -2 -2 -4 l-1 -1 l-2 -2 q-5 -4 -5 -7 q-3 -6 -10 -13 q-5 -6 -11 -12 q-1 0 -6 -3 q-5 -4 -7 -7 l-1 0 q-1 1 -2 1 l-1 -3 q-1 -2 -2 -3 q-1 -1 -3 -1 q-3 -1 -6 -4 l-6 -5 q-2 0 -4 -2 q-3 -1 -4 -2 q-1 0 -2 1 q0 1 3 3 l1 1 l6 5 q17 11 33 33 q14 18 25 41 q0 2 2 7 q3 4 3 6 l6 19 q0 1 1 3 l1 2 q1 2 2 8 q1 6 2 8 l4 9 l0 3 l2 5 l0 2 q0 1 1 3 l0 1 q0 1 1 2 q1 5 1 7 q0 1 1 3 l1 2 l0 6 l2 7 l0 2 l1 3 l0 8 l-1 1 l-1 0 l-4 -1 l-3 -1 l-3 0 q-3 -1 -7 -3 l-6 -2 l-1 -1 q-7 -3 -11 -3 l-1 0 l-3 4 l0 6 q-2 7 -5 10 q-1 1 -2 2 l-3 3 q0 1 -1 2 l-5 4 l-1 1 q0 2 1 2 q9 0 13 -2 q6 0 16 -1 q9 -1 13 -1 l4 1 l15 0 l24 -1 l7 0 q9 -1 16 -1 q6 0 15 6 l2 2 l3 1 l1 1 q1 1 2 2 q2 2 3 2 l9 -5 l1 -1 l1 -2 q1 -1 2 -2 q2 -2 4 -2 l1 0 l9 -5 q1 -1 1 -2 l0 -1 l-1 -1 q-1 -1 -1 -2 l-2 -2 q-1 0 -3 -1 l-7 -4 q-1 0 -1 -1 q-3 -1 -4 -1 q-2 0 -2 -1 l0 -2 l-1 -2 l-2 -3 q0 -1 -1 -1 l-3 -6 q0 -1 -1 -2 l-2 -2 q-1 -2 -3 -4 l-2 -5 q-3 -5 -6 -8 q-4 -3 -4 -7 q0 -5 5 -5 q2 0 4 2 l2 2 q1 1 2 2 l6 4 q3 3 5 5 l1 0 q1 0 5 -3 q3 -3 7 -7 q9 -11 9 -14 q0 -5 -5 -7 l-3 -1 l-1 0 q-2 -1 -4 -2 q-3 -3 -8 -12 l0 -2 l-2 -4 q-2 -3 -3 -3 q0 -1 -2 -6 q-3 -6 -6 -8 q0 -3 -1 -4 l-1 -1 q0 -1 -1 -1 q-1 -2 -2 -3 l-1 -2 q-1 -2 -3 -5 q-3 -6 -3 -7 l0 -1 q0 -2 6 -6 l3 -3 q1 -1 2 -1 q2 -2 2 -3 l3 0 q1 -1 2 -2 l2 -2 q1 -1 2 -2 l17 -9 q5 -3 8 -4 q9 -5 16 -7 l2 -1 l7 -2 q2 -1 2 -2 l8 -2 q5 -1 7 -1 l3 -1 l2 0 l3 -1 q4 -1 4 -2 l0 -2 q-4 0 -7 -2 l-3 -2 l-7 0 q-1 1 -2 1 l-5 -1 l-4 0 q0 -1 -2 -2 q-1 -1 -3 -1 q-5 -2 -6 -4 q-3 -1 -10 -5 l-6 -4 q-2 0 -8 3 q-5 3 -8 5 l-7 6 q-5 4 -9 6 q0 1 -1 2 q0 1 -1 1 l-3 3 l-3 3 l-2 2 q-4 2 -7 7 l-1 1 l0 1 l-1 1 q-2 2 -3 3 q-1 0 -1 1 l-1 2 q-1 1 -1 2 q-3 5 -5 5 q-11 -12 -22 -18 q-4 -4 -13 -10 q-5 -3 -11 -6 q-5 -2 -12 -5 l-1 0 l-2 -2 q-1 -1 -2 -1 l-1 -1 q-5 -2 -11 -4 l-19 -8 q-6 -2 -11 -3 q-3 0 -7 -2 l-5 -3 q-4 0 -8 -1 l-1 -1 q-1 0 -2 -1 l-3 0 l-2 1 ZM104 16 q-1 0 -1 -1 l1 0 l0 1 ZM207.5 22 q-0.5 0 -0.5 -1 l0 -1 q1 0 1 1 q0 1 -0.5 1 ZM157 27 l1 0 l0 1 l-1 0 l0 -1 ZM116 145 l2 -5 q1 -1 1 -3 q1 -2 2 -7 q0 -5 1 -7 l2 -5 l2 -5 q1 -2 1 -4 q0 -3 2 -8 l1 -1 l0 -1 l1 -1 l4 -11 l3 -5 q2 -2 3 -3 q2 -2 3 -2 q3 0 6 5 q1 2 2 4 l2 4 l4 9 q0 1 2 4 l3 6 q2 4 4 7 q1 3 1 6 q0 2 -2 2 l-3 0 q-4 0 -10 -2 l-7 -1 q-4 -1 -7 -1 q-3 0 -6 5 q-2 5 -2 9 l0 1 q0 1 1 1 l12 0 q1 1 3 3 q2 2 3 3 l4 18 q1 0 1 2 l1 4 q1 2 1 4 q0 1 1 2 l2 9 l0 10 q0 2 -1 3 q-6 0 -14 -2 l-6 -1 l-5 0 q-1 -1 -3 -1 l-4 -1 l-3 0 q-5 0 -5 -4 q1 -2 2 -3 q1 -1 2 -1 l2 0 q2 -1 2 -2 l1 -2 l1 -1 l0 -1 q-2 -3 -5 -7 l-2 -3 q-1 -2 -2 -3 q-4 -6 -4 -14 l0 -3 Z" /><glyph glyph-name="uni53D6" unicode="&#x53d6;" d="M158 50 l0 2 q-3 7 -3 15 q-4 18 -5 39 q-1 1 -1 2 l0 6 q-1 1 -1 2 l1 9 l-1 2 l0 17 q0 5 -3 14 l-2 6 q-1 3 -1 6 l1 0 l5 1 l3 0 q6 1 10 1 q3 0 8 -1 q6 -1 9 -1 l3 0 q1 0 2 1 q2 0 4 1 q1 1 2 2 q1 1 2 2 l6 5 l1 2 l4 9 l1 1 q2 -1 3 -2 l3 -3 q4 -4 8 -6 l5 -3 q3 -2 3 -5 q0 -3 -4 -8 l0 -1 l-3 -4 q-1 -2 -1 -4 q-1 -3 -2 -7 l-3 -7 q-3 -10 -5 -15 q0 -5 -2 -12 l-5 -13 q-1 -2 -2 -5 l-1 -4 l0 -2 q-1 -8 -5 -15 l-6 -10 q-3 -6 -3 -12 q0 -5 8 -14 q7 -7 14 -11 l17 -11 q2 -1 6 -4 q4 -3 6 -4 l5 -1 q4 -2 4 -4 q1 0 -2 -1 l-3 -1 q-2 0 -3 -1 l-3 -1 l-4 0 l-3 -1 l-2 -1 l-2 -1 q-7 -3 -10 -3 q-1 0 -4 2 l-4 3 q-1 1 -3 3 l-1 1 l-2 1 q-2 1 -3 2 q-1 2 -1 3 q-2 0 -5 4 l-6 8 q-3 5 -6 7 q-3 3 -5 3 q-2 0 -6 -4 l-2 -3 q-1 -2 -1 -3 l-5 -6 q-4 -3 -5 -6 l-8 -7 l-4 -5 q-3 -2 -6 -3 l-1 -3 q-3 -4 -7 -7 q-1 -2 -4 -4 l-2 0 l-1 -1 q-2 0 -3 -1 l-1 -1 l-3 -2 q-5 -4 -8 -4 q0 1 1 2 q1 1 3 2 l1 1 l4 3 l22 22 q6 7 10 12 q4 5 4 8 q2 1 3 4 l2 6 q1 2 2 4 l1 3 q2 3 2 6 l-1 4 ZM106 6 q0 2 1 3 q0 2 1 2 l0 28 l1 10 q0 1 -1 1 l0 4 q0 6 -4 7 l-1 0 l-2 2 l-2 -3 l-2 -3 q-4 -3 -12 -8 l-6 -4 l-6 -3 q0 -1 -4 -3 l-7 -5 q-2 0 -5 -2 q-2 -1 -7 -4 q-5 -4 -7 -5 q-3 -2 -5 -2 q-1 0 -2 1 l0 2 l-1 0 l0 2 q0 1 -1 1 q0 3 -7 9 l-4 4 q-2 2 -2 3 l2 1 q1 1 3 1 l8 1 l6 0 q1 0 8 3 q3 2 5 4 q2 1 2 2 l0 53 q0 2 1 2 q-1 2 -1 5 l0 2 l1 5 l-2 30 q0 17 -4 23 q-3 5 -11 5 l-3 -1 q-2 0 -3 -1 l-1 0 q-1 0 -1 1 l-2 0 q-2 1 -4 1 q0 1 -1 3 l0 1 l-1 1 q-1 2 -1 3 q1 0 1 1 q0 1 -1 2 l-2 2 q-1 2 -1 3 q0 2 3 2 q3 0 7 -1 q5 -1 7 -1 l13 0 l19 -1 l21 0 l13 1 q3 0 8 1 l7 1 q7 1 12 6 l1 0 q1 0 1 -1 q3 3 6 6 q3 2 4 2 q1 0 2 -1 l13 -16 l0 -1 l-1 -1 q-1 0 -1 -1 l-3 0 q-1 -1 -2 -1 q-2 0 -4 1 l-3 0 q-2 0 -2 -1 l-7 0 l-1 -1 l-6 0 q-4 -1 -4 -4 q0 -2 2 -4 l9 -8 q2 -2 2 -4 q0 -1 -1 -3 l-6 -8 q-1 -2 -1 -3 l0 -17 l-1 -3 l0 -24 l-1 -2 l0 -11 l2 -21 l0 -41 l-1 -8 l-2 -12 l0 -2 q0 -1 -1 -4 q-1 -2 -3 -5 l-3 -6 l-2 -2 q-1 0 -2 -2 l-1 -1 q-1 -1 -2 -1 q-2 0 -3 3 l0 3 l-1 7 ZM162 32 q-1 0 -1 -1 q0 -1 1 -1 l0 2 ZM119.5 56 q-0.5 0 -0.5 -1 l1 0 q0 1 -0.5 1 ZM116 63 q0 -4 3 -5 l0 3 q-1 2 -3 2 ZM71 66 q1 -6 5 -6 q2 0 5 1 l4 2 q6 0 11 3 q1 0 2 1 l1 1 q1 0 2 1 l5 2 q4 1 4 7 l-1 5 l0 3 q-1 8 -1 12 l0 38 l-1 4 l0 26 l-2 3 l-1 4 q0 4 -2 6 l2 2 q0 2 -1 3 q-1 1 -3 1 l-12 -1 q-11 -1 -11 -4 l0 -1 l1 -1 l0 -2 q0 -1 -2 -5 l-3 -8 l0 -14 q0 -1 1 -2 l1 -1 l1 -1 l9 0 q4 0 7 2 q2 1 4 1 q1 0 2 -1 q1 -1 1 -4 q0 -3 -6 -3 l-2 0 q-14 0 -17 -2 q-2 -2 -2 -12 l0 -9 q0 -5 1 -9 q0 -3 5 -3 l5 0 l9 1 l5 0 q2 0 2 -3 l0 -2 q-3 -2 -8 -3 l-6 -1 l-3 0 q-9 -2 -9 -8 q0 -5 -1 -13 l-1 -10 ZM113 65 q-1 0 -1 -1 q0 -1 1 -1 l0 2 ZM119 65 q-1 0 -1 -1 q0 -1 1 -1 l0 2 ZM163 100 q1 -2 2 -5 l0 -5 q2 -7 7 -10 q1 1 3 4 q1 1 2 2 l0 3 q0 1 1 3 l1 5 l1 2 l3 20 l1 2 l0 2 q1 8 2 15 q1 9 3 14 q0 1 -1 3 q0 2 -2 2 l-23 0 q-7 0 -7 -10 q0 -4 2 -16 l2 -8 l0 -8 q0 -2 1 -5 q0 -6 2 -10 ZM122.5 89 q-0.5 0 -0.5 -1 l1 0 q0 1 -0.5 1 ZM64 135 q-1 0 -1 -1 l0 -2 l2 3 l-1 0 ZM209 165 q-1 0 -1 -1 q0 -1 1 -1 l0 2 ZM33 183 l0 -1 q1 0 1 1 l-1 0 ZM139 193 l0 0 Z" /><glyph glyph-name="uni53E4" unicode="&#x53e4;" d="M64 -10 q1 1 1 2 l0 1 l-1 2 l0 8 q0 2 1 4 l0 7 l1 32 l-1 10 q-1 7 -1 8 l0 1 q0 1 2 1 l2 0 q1 1 1 2 q0 1 -2 1 q-1 0 -2 -1 l-2 -1 q-2 0 -5 2 q-3 2 -3 3 q0 2 1 2 l12 9 q3 0 6 -1 q1 0 2 -1 l4 -3 q1 -1 2 -2 q3 -1 6 -1 l16 0 q7 0 10 1 q6 1 6 9 l0 35 q0 10 -5 10 l-8 0 q-1 0 -4 -1 l-3 -1 q-2 -1 -7 -1 q-5 0 -8 -1 q-8 0 -16 -3 l-6 -1 q-1 -1 -2 -1 l-16 -3 q-1 0 -3 -1 l-2 -1 l-1 0 q-1 -1 -2 -1 q-2 -1 -4 -1 q-3 0 -5 5 l-1 3 q-1 3 -1 4 l-5 5 q-3 3 -3 5 l16 0 q5 1 8 1 l12 0 q4 2 14 2 l11 1 l10 0 l28 1 l2 2 l1 7 l0 10 q0 2 -1 4 l0 3 l-1 6 l0 11 q-1 3 -2 6 q0 2 -3 3 l-10 3 q-2 1 -2 2 q0 1 1 2 l2 1 q2 0 7 3 l1 1 q1 0 2 1 l3 0 q2 1 4 2 l6 2 l3 0 q0 1 1 1 l1 -1 q2 -1 2 -3 q3 -2 8 -4 q1 0 2 -1 l4 -1 q1 -1 2 -1 q7 -4 7 -8 q0 -4 -3 -6 l-3 -2 q-2 -1 -4 -4 l-1 -25 l-1 -9 q0 -1 3 -3 q3 -1 4 -1 l9 0 l9 1 q6 1 9 1 l18 0 l18 10 q2 1 3 1 q2 0 4 -2 l2 -4 q3 -1 4 -3 q1 -1 1 -2 l1 -1 q1 0 2 -1 q1 0 3 -1 q2 -2 4 -4 q2 -2 4 -4 q2 -2 2 -3 l0 -3 q0 -5 -4 -6 l-4 0 q-2 0 -3 -1 q-1 1 -3 1 l-2 1 l-1 0 q-1 1 -2 1 q-2 3 -4 3 l-4 1 q-1 1 -2 1 q-1 1 -2 1 l-2 0 q-2 1 -3 2 l-5 0 l-10 2 l-6 0 q-1 -1 -2 -1 q-1 -1 -2 -1 l-2 0 q-1 0 -1 -1 l-1 0 q-1 0 -2 1 l-1 1 q-2 1 -3 1 l-5 1 l-1 0 l-3 1 q-11 0 -15 -2 l-6 1 l-1 -1 l0 -8 q0 -2 1 -5 l0 -9 l-1 -6 l0 -8 q0 -3 1 -6 l0 -8 l1 -3 q1 -2 2 -2 q2 -2 9 -2 q1 0 3 1 l3 1 l1 0 l4 -1 l1 0 q2 0 5 3 q2 2 3 4 l2 2 q2 1 2 2 l2 5 q2 3 5 3 q0 -1 1 -2 l2 -1 q2 -1 3 -3 q2 -2 5 -4 q1 0 2 -2 l3 -1 q7 -5 7 -10 q0 -5 -6 -5 l0 -19 q1 -12 1 -18 l0 -7 l-2 -13 q0 -2 -1 -4 q-1 -1 -1 -2 l-6 -6 q-7 -7 -14 -7 q-4 0 -9 5 q-1 1 -2 4 l-1 3 l-9 1 l-4 1 l-2 0 l-3 -1 q-1 0 -3 -1 l-7 0 q-1 0 -3 1 l-2 0 l-1 1 l-8 -2 l-2 1 l-6 0 l-5 -1 q-1 0 -2 -1 l-7 -1 l-8 0 l-2 -1 l-2 -1 q-8 0 -9 -6 l0 -4 q0 -3 -1 -4 l-1 -2 q-1 -3 -2 -5 q-5 -6 -10 -6 l-6 6 l0 11 ZM71 10 q0 1 -1 1 l0 -2 q1 0 1 1 ZM142 16 q0 2 6 3 l16 0 q6 0 7 6 l-1 14 l1 6 l-1 1 l0 16 q0 1 -2 3 q-3 1 -4 1 q-2 0 -3 -1 l-2 0 l-2 1 l-4 -1 l-11 0 l-9 -2 l-3 1 q-4 0 -6 -1 l-12 0 q-1 -1 -5 -2 l-5 0 l0 2 l-4 -2 q-2 -1 -5 -1 l-1 0 q0 1 -1 1 q-7 -2 -7 -11 l0 -17 l2 -10 l0 -2 q0 -5 4 -5 q6 0 12 1 l24 1 l14 0 l2 -2 ZM183 24 l0 1 q0 1 1 2 l1 2 l0 2 l-1 1 l-2 0 l0 -7 l1 -1 ZM193 30 q-1 0 -1 -1 l1 0 l0 1 ZM72 46 l-1 0 q0 -1 1 -1 l0 1 ZM79.5 60 q-0.5 0 -0.5 -1 l1 0 q0 1 -0.5 1 ZM82 63 q-1 0 -1 -1 l1 0 l0 1 Z" /><glyph glyph-name="uni53EF" unicode="&#x53ef;" d="M141 18 q0 1 1 1 l24 0 q4 0 5 4 l0 12 q0 3 1 5 l0 2 l1 1 l-1 10 l0 12 l1 6 l0 6 q0 1 -1 1 l0 46 q0 6 -1 16 l-1 17 q0 20 -9 20 l-12 -1 q-13 -1 -21 -1 l-2 0 l-5 -1 l-2 0 q-2 -1 -3 -1 l-15 0 l-5 -1 l-12 0 q-2 -1 -7 -1 l-10 -1 l-6 1 l-4 -2 l-6 0 l-11 -2 q-3 -1 -6 -1 l-9 0 q-4 1 -4 9 l-1 3 l-2 3 l0 1 l1 0 q2 1 4 1 l9 -1 l33 0 l26 1 q7 0 15 1 l4 0 l11 2 l25 0 q12 0 23 1 l5 1 l2 0 q6 1 10 1 l12 0 q0 1 3 1 q4 1 7 1 q2 0 4 2 l8 7 q3 1 4 1 q2 0 4 -2 q1 0 2 -1 q1 0 1 -1 l1 0 q6 -4 9 -7 q5 -4 5 -9 q0 -5 -5 -7 q-5 0 -7 -1 q-6 0 -6 4 l-1 -2 l-9 -1 l-17 2 q-1 -1 -4 -1 l-6 1 q-7 0 -10 -3 q0 -1 3 -2 l8 -2 q12 -3 12 -8 q-1 -3 -4 -4 l-2 -1 q-2 -1 -3 -2 q-2 -2 -3 -6 l-1 -4 l0 -3 q0 -3 1 -6 l0 -8 q1 -2 1 -3 l1 -11 l0 -72 l-3 -25 q0 -7 -5 -15 l-6 -6 l-1 -1 l-4 -4 q-1 0 -2 -1 q0 -1 -1 -2 l-1 -2 q-1 -1 -3 -1 q-4 0 -5 3 l-1 5 l0 2 q-2 7 -9 14 q-1 1 -3 2 l-2 1 q-1 1 -2 1 q-5 3 -5 5 l0 1 ZM64 117 q-1 6 -2 10 q-1 2 -4 6 l-1 2 l-1 1 q1 2 5 4 q3 2 5 2 q2 0 8 -3 q5 -3 7 -3 l21 0 l4 1 l8 0 q4 0 9 6 l1 2 l1 1 q1 2 2 2 q3 0 9 -3 q8 -4 8 -9 q0 -1 -2 -3 l-3 -5 q0 -1 -1 -4 l0 -16 q1 -2 1 -3 l0 -13 l2 -10 q0 -8 -5 -8 l-12 -1 l-18 0 q-1 -1 -3 -1 l-8 0 q-9 0 -9 -4 q0 -4 -1 -9 q-1 -4 -1 -8 q-1 0 -2 -2 l-2 -4 q-5 -6 -9 -6 q-7 0 -7 10 l0 68 ZM85 88 l1 -3 q2 -2 7 -2 l1 0 l3 1 l6 -1 l7 0 l3 1 q4 1 5 4 l2 6 q1 4 1 7 l-1 4 l-1 7 l0 8 q-1 8 -8 8 l-13 0 l-9 -2 l-3 -2 q-1 -1 -2 -3 q-1 -2 -2 -5 q2 -13 2 -24 l1 -4 Z" /><glyph glyph-name="uni53F0" unicode="&#x53f0;" d="M59 -21 q1 5 1 11 l-1 18 q-1 7 -1 11 l-1 46 q-1 2 -6 7 l-4 3 q-1 2 -1 3 l1 1 q2 1 3 1 q3 0 8 3 q6 3 9 3 q3 0 7 -2 l6 -4 q2 0 4 -1 l5 -2 q4 -2 8 -2 l22 1 q3 0 3 -1 q7 1 19 1 l3 1 q10 0 17 -1 l1 0 l1 -1 l2 0 q2 0 3 3 l0 5 q4 9 20 14 l2 -1 l3 0 q4 -2 11 -6 q3 -3 5 -5 q2 -2 2 -3 q0 -3 -3 -7 q-4 -3 -4 -8 q-1 -9 -1 -23 l0 -30 l1 -7 q0 -3 1 -3 q0 -7 -8 -15 q-7 -7 -15 -7 l-2 0 q-1 0 -2 1 l-2 2 l-1 0 q-2 2 -3 5 l0 2 l-1 6 l0 3 q-1 2 -3 4 q-5 0 -9 -1 l-6 0 q-6 0 -14 -1 l-28 -1 l-18 1 l-2 0 q-1 0 -4 -1 q-4 -2 -4 -5 q0 -2 1 -7 q1 -5 1 -8 q0 -8 -3 -13 q-4 -7 -11 -7 q-4 0 -8 4 q-4 4 -4 7 l0 6 ZM81 22 q0 -8 12 -8 l2 0 l2 1 l19 0 l3 -1 q1 0 3 1 l5 0 l2 1 q3 0 8 -1 l5 0 l1 1 l8 1 l11 0 l3 1 q6 1 6 8 l0 40 q-1 3 -3 4 q-5 -1 -11 -2 l-28 0 l-5 -1 l-9 0 l-17 -2 l-12 0 l-2 1 l-2 -5 l0 -34 q0 -1 -1 -3 l0 -2 ZM77 49 q0 1 -1 1 l0 -1 l1 0 ZM58.5 60 q-0.5 0 -0.5 -1 l0 -1 q1 0 1 1 q0 1 -0.5 1 ZM196 86 q0 -1 1 -1 l0 1 l-1 0 ZM189 94 l0 1 l-1 0 l1 -1 ZM37 126 q0 2 -1 6 q-1 4 -1 7 q0 1 1 1 q4 0 12 -1 q8 -2 13 -2 l2 0 q1 0 4 1 q3 2 5 5 l2 3 l1 1 l0 2 q2 4 4 6 q0 1 1 2 l4 4 l0 3 q0 1 2 3 l1 2 l2 6 l1 3 q1 1 1 2 l8 12 l0 1 l2 3 q1 4 1 9 q0 3 -2 8 l-4 7 q0 2 3 2 q3 0 7 -1 l7 0 l4 1 l1 0 q4 0 9 -4 l2 -2 q1 -1 2 -1 q2 -1 4 -2 l1 0 l1 -1 l6 -3 q4 -2 6 -4 q2 -3 2 -5 l0 -1 q0 -1 -1 -2 l-2 -1 l-2 -2 q-2 -1 -4 -2 l-7 -5 q-7 -6 -18 -17 q-4 -3 -8 -7 l-12 -14 q-3 -3 -3 -6 l0 -2 q0 -1 1 -2 l2 -2 l5 1 l6 0 q5 -1 7 -1 l1 1 l2 0 q2 0 4 -1 l7 0 q2 0 4 1 l11 0 l12 1 l17 -1 q7 1 7 5 q0 2 -1 6 l-3 6 l-2 3 l-2 2 q0 1 -2 2 l-2 2 l-2 3 q-1 2 -2 2 q-1 0 -2 1 l-4 6 q-2 2 -4 4 q6 0 20 -5 q12 -5 20 -9 q1 0 4 -1 l2 0 q1 -1 2 -1 l0 -1 q3 0 7 -4 q3 -4 6 -4 q13 -10 13 -28 q0 -7 -4 -12 q-4 -3 -12 -7 q-5 0 -10 1 q-6 1 -8 4 q-3 4 -6 8 l-3 6 q-3 7 -9 7 q-2 0 -4 -1 l-10 -1 q-1 0 -2 -1 l-10 -1 q-3 -1 -5 -1 l-7 0 q-2 -1 -3 -1 l-6 -1 q-2 -1 -4 -1 l-2 0 q-3 0 -8 -1 l-6 -1 q-3 -1 -6 -1 q-6 0 -14 -4 q-9 -3 -14 -3 l-14 -4 q-7 -2 -13 -5 l-7 0 q-5 3 -5 9 l1 10 ZM76 146 q-1 0 -1 -1 q0 -1 1 -1 l0 2 ZM205 157 l0 1 l0 -1 ZM149 200 q-1 0 -1 -1 q0 -1 1 -1 q1 0 1 1 q0 1 -1 1 ZM123 205 q-3 0 -3 -4 q4 0 5 2 q0 1 -1 2 l-1 0 ZM148 202 l-1 0 l1 -1 l0 1 Z" /><glyph glyph-name="uni53F2" unicode="&#x53f2;" d="M10 -30 q1 2 6 4 l4 1 q3 1 4 2 l3 2 l2 2 q3 0 7 3 l1 1 q1 1 2 1 q1 1 2 1 q1 0 2 1 l3 1 q4 1 5 3 q1 0 3 2 q2 2 3 2 l2 1 l0 1 q1 1 2 1 q1 0 2 1 l2 1 q1 2 2 2 l1 1 q1 0 2 2 l2 2 l14 13 q7 7 12 12 q0 1 -1 4 q0 2 -3 5 l-6 9 q-1 1 -1 2 q-1 1 -2 3 l-1 3 q-1 2 -2 2 q-2 2 -3 2 l-4 -3 l-8 -8 q-6 -5 -9 -8 l-4 -3 q-1 0 -4 1 q-2 2 -5 3 q-3 2 -5 3 q-2 2 -2 3 q0 1 1 2 l4 2 q4 3 5 3 q5 0 11 4 l11 7 q5 0 9 9 l2 6 q2 2 4 2 q3 0 6 -2 l3 -2 l2 -2 l0 -3 l-1 -5 l-1 -2 q0 -8 5 -14 q4 -7 9 -7 q1 0 3 2 l1 1 l1 2 q4 3 6 10 l2 6 l2 5 l0 16 q0 4 -6 4 l-30 -3 l-3 0 l-2 1 l-2 -3 l-5 -7 q-4 -4 -7 -4 q-8 0 -8 9 q0 2 1 4 l0 21 q0 8 -1 21 l-1 4 l0 4 q-1 5 -2 9 q-1 3 -5 6 q-1 1 -2 1 l-1 1 q-1 1 -1 2 q0 1 2 2 q2 0 4 1 q6 2 7 2 l1 0 q1 0 3 -1 l13 -8 q2 -1 4 -1 l2 0 l28 1 l3 0 q10 1 10 5 l0 19 l-1 1 l0 8 q0 7 -8 11 q-1 1 -2 1 l-4 2 q-3 1 -3 3 q0 3 5 4 l3 1 q2 0 2 1 l2 0 q3 0 6 1 l4 1 q2 1 4 1 q5 0 13 -5 q3 -1 5 -3 q2 -2 3 -3 l0 -8 q0 -4 -8 -11 l-1 -17 q0 -7 5 -10 l7 0 l6 1 l12 0 q3 0 6 2 q2 2 6 5 l1 1 l1 1 l2 2 q3 2 4 2 l1 1 l1 0 l1 -1 q3 -2 6 -4 l6 -3 q7 -5 7 -11 q0 -1 -1 -3 q0 -1 -2 -3 l-2 -3 q-1 -2 -1 -3 q-1 -1 -1 -5 l1 -18 q-1 -3 -1 -6 l-2 -7 q-2 -9 -4 -13 l-2 -2 l-3 -2 q-4 -2 -6 -4 l-2 0 q-5 0 -8 4 l-1 4 q-1 0 -1 1 q-1 2 -2 2 q-2 1 -5 1 l-7 0 l-6 1 l-6 0 q-10 0 -10 -6 l0 -4 q-1 -11 -2 -17 q-3 -8 -7 -16 l-6 -10 l-1 0 l-2 -4 l-2 -2 q0 -1 2 -3 q1 -1 4 -2 q4 -3 6 -3 l6 -2 q4 -2 7 -3 q7 -2 11 -2 l4 0 q1 1 3 2 l2 2 l2 0 q1 0 2 -2 l1 -2 q0 -1 1 -2 q2 -1 5 -2 l11 0 q3 0 5 -1 l30 -1 l26 0 l1 -2 l0 -1 l-1 -1 l-1 -1 q-6 -2 -10 -4 q-1 -1 -2 -2 l-9 -6 l-1 -2 l-1 -1 q-2 -3 -3 -4 q-4 -5 -8 -5 l-3 0 l-6 1 l-5 0 l-4 1 q-2 0 -4 1 l-4 0 q-6 1 -14 1 q-7 0 -16 4 l-5 2 l-2 1 q-5 2 -8 3 l-5 2 q-4 1 -5 2 q-1 0 -2 1 l0 1 l-1 0 q-1 1 -2 2 l-2 0 l-17 13 l-1 1 l-2 0 q-7 -7 -14 -14 q-2 -2 -8 -5 l-5 -3 q-2 -1 -4 -2 l-5 -4 l-5 -4 q-7 -5 -10 -5 q-7 -5 -17 -10 l-10 -3 q-2 -1 -5 -2 l-4 -1 l-6 -3 q-2 -1 -3 -1 q-1 -1 -2 -1 q-2 0 -2 2 ZM246.5 16 q-0.5 0 -0.5 -1 l0 -1 q1 0 1 1 q0 1 -0.5 1 ZM81 115 q0 -6 1 -8 q1 -4 10 -4 q5 0 14 1 q9 2 15 2 q4 0 5 13 l0 22 l-1 2 l-1 1 q0 1 -2 1 l-1 0 l-32 -1 l-3 0 l-3 -1 q-1 0 -2 -5 l0 -23 ZM146 140 l0 -22 q0 -10 10 -10 l18 2 l5 1 q4 0 5 8 l0 21 q0 3 -1 5 l0 3 l-1 1 l-13 0 q-2 1 -5 1 q-2 0 -5 -1 q-6 0 -9 -1 q-5 -2 -5 -4 l1 -4 ZM63 110 l1 -1 q0 1 1 2 l0 2 l-1 0 l-1 -3 ZM69 133 l0 -2 l0 2 Z" /><glyph glyph-name="uni53F8" unicode="&#x53f8;" d="M156 6 q1 2 5 3 q2 1 8 1 l5 0 l4 1 q6 1 8 2 q3 2 5 9 l1 5 l0 4 q1 2 1 4 q0 2 -1 5 l0 11 l1 2 l0 29 l-1 66 q-1 1 -1 5 l0 11 q0 4 -1 6 q-2 6 -8 6 l-1 -1 l-12 -2 q-8 -1 -13 -1 q-5 -1 -13 -1 l-6 0 l-19 -1 q-7 0 -13 -1 l-11 -2 q-7 -1 -11 -1 q-1 0 -3 1 q-2 1 -2 3 q0 1 -1 2 q-1 1 -1 2 l-3 4 q-1 1 -1 2 q0 1 1 2 l1 1 q1 0 2 -1 l8 0 q2 1 4 1 l14 0 q2 0 6 1 q5 1 8 1 l8 0 q7 0 11 2 l4 -1 q2 0 4 1 l2 0 q0 1 1 1 l2 0 q2 1 4 1 l6 0 q1 0 3 1 l3 0 q5 1 9 1 q7 1 16 1 l5 0 q3 1 5 2 q1 2 4 3 l1 1 l1 0 q2 1 3 2 q0 -1 1 -1 l5 -3 q4 -2 7 -4 q7 -5 8 -12 q-1 -8 -5 -11 l-1 -1 l-5 -2 l-2 -2 l0 -21 l1 -22 l0 -11 l-1 -1 l0 -2 l1 -3 l1 -3 l-1 -21 q0 -11 2 -14 l0 -32 l-1 -5 q1 -2 1 -4 l-2 -5 l-1 -4 q-2 -8 -11 -19 q-11 -13 -18 -13 q-7 1 -11 9 l-1 2 l0 1 q-1 2 -3 3 l-3 2 l-11 4 l-2 1 ZM69 29 l0 3 l1 6 l0 22 q1 10 1 16 q-1 19 -6 26 l0 1 l1 2 q1 1 3 3 l4 3 q1 2 2 2 q1 0 2 -1 l12 -8 q1 0 3 -2 l2 -3 q8 0 17 2 l17 3 q1 0 2 1 l1 4 q2 6 7 6 q5 -1 10 -5 l4 -3 l2 -2 l1 -1 q0 -1 1 -1 l0 -8 q0 -3 -4 -6 q-4 -2 -4 -5 q0 -2 1 -3 l0 -33 q0 -2 -2 -2 l-13 -1 l-3 -1 q-7 -2 -13 -2 l-11 1 q-3 0 -5 -1 l-2 0 l-5 -1 q-1 0 -2 -1 l-5 0 l1 -8 q0 -1 -1 -4 q0 -2 -1 -3 q-1 -1 -1 -3 l-2 -6 q-2 -4 -8 -4 q-3 0 -6 2 q-3 2 -3 5 l2 10 ZM91 58 l1 -2 q1 -1 2 -1 l28 0 q3 0 3 1 l0 15 q-1 10 -1 15 l0 3 q-1 2 -3 2 q-1 1 -2 1 l-4 0 l-3 -1 q-1 -1 -2 -1 l-4 0 q-4 0 -7 -1 q-7 -2 -7 -4 l-1 -27 ZM34 138 q0 1 1 1 l27 0 q1 0 3 1 l3 1 l13 0 l6 1 l8 0 l10 1 l6 1 l9 0 l4 1 q4 0 8 2 l7 3 q3 0 9 2 q5 1 8 1 q3 0 10 -4 q8 -6 8 -12 q0 -2 -3 -4 q-3 -1 -5 -1 l-8 1 q-6 0 -17 1 l-13 0 q-2 0 -5 -1 l-16 -2 l-6 0 q-2 0 -3 -1 l-6 -1 l-6 0 q-2 0 -7 -1 l-5 -1 l-7 0 q-2 0 -5 -1 l-10 -2 q-2 -1 -4 -1 l-4 0 l-2 1 q1 0 1 1 l-1 1 q-1 1 -2 2 l-1 1 q-5 6 -5 9 Z" /><glyph glyph-name="uni540C" unicode="&#x540c;" d="M50 -1 q0 3 1 5 l2 31 l1 3 l-1 1 l0 15 q1 2 1 3 l-1 6 l1 3 l-1 29 l0 15 l-3 36 l0 19 q-1 6 -1 10 q0 10 -7 17 l0 1 q0 2 2 3 l2 1 l4 0 q3 -2 9 -3 l4 -1 q3 -1 5 -2 l2 -1 q2 -1 3 -1 l1 -1 l2 -1 q1 -1 2 -2 l3 0 l12 -1 l11 0 q1 0 2 1 l4 0 q3 1 6 1 l7 -1 l14 0 l3 1 q2 0 8 1 l32 0 q3 1 5 2 l5 3 q1 1 2 3 l3 3 q3 3 5 3 q1 0 3 -1 l6 -5 q1 -1 2 -2 q1 0 3 -2 q3 -1 4 -3 l2 -1 q1 -1 1 -2 q2 -1 2 -5 q0 -3 -3 -8 q-2 -6 -2 -9 l0 -5 l-1 -5 q-1 -2 -1 -3 l1 -11 l0 -2 l-1 -1 l1 -3 l0 -20 q0 -10 2 -20 l0 -59 l-1 -6 l0 -4 q0 -4 -5 -8 l-1 -4 q-1 -2 -2 -4 q0 -1 -1 -2 q-7 -4 -13 -8 q-1 -1 -2 -2 l-2 -2 q-2 -2 -4 -2 q-4 0 -6 6 l-2 5 q-1 3 -3 5 q0 1 -1 2 q-1 0 -2 1 q-2 0 -2 1 q-2 1 -2 2 q-2 0 -7 2 q-2 2 -3 3 q-1 1 -1 2 l1 0 l4 1 l19 0 q2 0 5 1 q5 2 5 5 l0 9 q1 6 1 9 l0 5 l1 11 q1 3 1 6 l-1 14 l0 64 q-1 7 -2 7 l0 12 q0 5 -1 7 q-1 3 -2 3 q-5 -1 -11 -1 q-5 -1 -11 -1 l-9 1 l-2 1 q-4 -1 -12 -2 l-6 -1 l-49 0 q-3 -2 -8 -2 q-8 0 -10 -1 q-1 -1 -1 -2 l0 -12 l1 -16 q0 -4 1 -9 l0 -28 l-1 -19 l-1 -23 l0 -64 l-3 -4 q-3 -2 -5 -4 q-2 -2 -4 -3 q-2 -1 -3 -1 q-2 0 -3 1 q-1 1 -2 3 q-1 3 -1 6 l0 5 ZM95 99 q-1 1 -1 2 l0 5 q0 1 -1 2 l0 4 q-1 2 -1 3 l0 3 q0 3 2 3 q3 0 7 -2 l9 -4 l1 -1 l1 0 q2 -1 3 -3 l1 -1 l0 -1 q1 -2 2 -3 q1 -1 3 -1 l6 1 q6 1 9 1 q7 0 13 5 q4 3 11 10 l1 0 q1 0 4 -2 l5 -3 q4 -2 6 -3 q2 -2 2 -3 l0 -1 l-2 -2 q0 -1 -1 -2 l0 -2 l-1 -3 l0 -4 q-1 -1 -1 -3 l0 -12 l1 -9 l0 -18 l-2 -4 q-2 -2 -3 -3 q-4 -4 -8 -4 l-1 0 q-3 0 -6 3 l-1 2 q-1 1 -2 1 q-1 2 -2 2 l-30 0 q-2 0 -4 -2 l0 -2 q-1 -1 -1 -2 l-3 -3 l-2 -2 q-2 -1 -2 -2 l0 -1 l-1 -1 l-1 -2 q-2 -2 -4 -2 q-5 0 -5 4 l-1 62 ZM115 63 l1 -1 l13 1 l6 -1 l6 1 l2 0 q6 0 7 4 l1 16 q0 3 -1 8 q-1 3 -1 5 q-1 2 -2 2 q-1 0 -3 -1 l-15 -1 q-1 0 -2 1 l-8 0 l-4 -1 l-1 -1 q0 -3 -1 -7 l0 -3 q-1 -2 -1 -3 q0 -4 1 -10 l2 -9 ZM86 140 q0 2 1 2 l47 0 q1 0 2 1 l2 0 q10 2 17 4 q9 3 15 8 l1 0 q1 0 2 -2 q2 -1 4 -4 l3 -4 l2 -3 q0 -6 -6 -7 l-49 -1 q-5 0 -12 -1 l-22 -3 q-4 0 -5 4 q-1 1 -1 3 l-1 3 ZM129 175 l0 1 l0 -1 Z" /><glyph glyph-name="uni540D" unicode="&#x540d;" d="M100 42 q0 3 -1 7 q-2 5 -3 5 q-1 0 -3 -1 l-4 -2 q-6 -4 -13 -7 l-3 -1 q-2 -1 -3 -1 q-3 -1 -5 -2 q-1 -1 -3 -3 q-2 -1 -5 -2 q-2 -2 -3 -2 q-1 -1 -3 -1 l-4 -1 q0 -1 -3 -2 q-2 -1 -3 -1 q-1 0 -2 -1 l-5 -2 l-4 0 q0 2 2 2 l5 1 q1 1 2 1 q0 2 4 4 l7 3 q5 3 11 7 l6 5 q4 3 7 4 l21 17 l8 6 q6 4 14 12 q10 5 13 13 q3 2 7 5 l3 3 q2 1 4 2 q2 3 5 7 q4 3 5 4 q1 1 2 2 l12 14 q8 9 13 17 q0 1 -1 3 q-8 0 -13 -1 q-7 0 -13 -2 l-2 -1 l-2 -1 l-12 -1 l-14 -2 q-12 -3 -12 -6 q0 -3 5 -5 l2 0 l0 -1 l3 0 q3 -1 5 -3 l0 -1 l1 -1 l9 -5 l2 -2 l0 -1 q0 -4 -1 -8 q0 -3 -6 -8 q-6 -5 -11 -5 q-4 0 -6 4 q-1 1 -1 3 l0 1 l-1 5 l0 2 l-1 6 l-1 7 q-1 5 -4 7 q-6 -2 -15 -9 l-6 -5 q-4 -2 -8 -4 q-4 -4 -11 -8 l-11 -6 q-1 0 -2 -1 l-2 -2 q-1 0 -3 -2 q-4 -2 -7 -4 q-10 -5 -15 -5 q-3 0 -3 2 q3 2 6 4 l7 3 q9 5 13 8 q2 3 7 6 l3 2 l6 5 l2 3 l2 1 q5 4 9 9 q3 3 8 10 l9 9 q1 1 2 2 q2 2 4 4 q3 3 6 8 l5 10 l6 7 l2 2 l1 3 l0 10 q-1 1 -2 3 q-1 1 -1 2 q1 1 1 2 q0 1 -1 2 l-1 1 l-1 1 l2 1 q1 0 15 -9 q3 -2 5 -3 q2 -1 3 -2 l3 -4 q3 -3 6 -7 q4 -6 4 -9 q0 -2 -3 -4 q-2 -1 -7 -3 q-4 -1 -6 -2 q-3 -2 -3 -5 q0 -2 4 -3 l7 0 l6 1 q2 1 3 1 q11 0 15 1 l4 0 l5 1 l3 1 q1 0 3 1 l1 1 l1 0 l2 2 l3 0 q1 0 3 2 l4 3 q8 5 13 8 l2 0 l2 2 q1 1 3 1 q1 0 5 -3 q4 -3 5 -6 l5 -4 q3 -2 3 -5 q0 -4 -7 -11 l-7 -5 l-7 -2 q-1 0 -4 -3 q-1 -1 -2 -1 l-12 -11 q-1 0 -1 -1 l-2 -2 q-6 -5 -10 -8 q-2 0 -3 -1 q-1 0 -2 -2 l-2 -2 q-1 -2 -2 -3 l-2 -2 l-3 -1 l-6 -7 q-5 -4 -8 -4 q-1 0 -3 -3 l-2 -2 q-2 -1 -3 -1 q-1 -1 -3 -2 l-3 -1 q0 -1 -1 -2 l-2 -2 q-1 -3 -3 -3 l-13 -10 q-3 -2 -4 -4 q0 -3 3 -4 l4 0 q2 0 3 -1 l4 1 l25 0 l18 2 q10 1 15 1 l3 2 l2 2 l2 0 q7 8 13 14 l4 0 l5 -3 q5 -4 7 -6 q6 -4 8 -11 q1 -3 1 -5 l1 -4 q0 -1 -2 -3 l-1 -2 q-1 -1 -2 -2 l-1 -13 l1 -12 q0 -4 1 -6 q0 -3 1 -4 q-1 -8 -10 -16 l-9 -9 q-5 -4 -9 -4 q-4 0 -6 6 q-1 6 -5 6 l-21 0 l-3 -1 l-25 0 l-8 -1 l-13 0 q-5 -1 -7 -9 l-1 -6 q0 -3 -1 -5 q-1 -2 -5 -4 q-5 -3 -7 -3 q-3 0 -4 4 l0 14 l-2 35 l0 17 ZM115 -23 l0 0 ZM122 34 l0 -12 q1 -14 8 -14 l20 1 l1 -1 l2 0 l8 1 q11 1 22 1 l11 0 q7 1 9 8 l-1 33 q-1 0 -1 2 l0 4 q-1 5 -6 5 l-18 -2 q-7 0 -12 -1 l-12 -1 l-2 1 l-1 -1 q-6 0 -6 2 q0 -1 -4 -2 q-4 -1 -7 -1 l-6 0 q-1 0 -2 -1 q-3 -1 -3 -4 q0 -4 1 -6 l-1 -12 ZM134 97 q1 0 1 2 l-1 0 l0 -2 ZM167.5 116 q-0.5 0 -0.5 -1 l1 0 q0 1 -0.5 1 ZM183 125.5 q0 0.5 -1 0.5 l0 -1 q1 0 1 0.5 Z" /><glyph glyph-name="uni541B" unicode="&#x541b;" d="M88 -9 q1 12 1 17 l1 4 l0 35 q-1 3 -3 3 q-2 0 -4 -3 q-2 -2 -3 -3 q-1 -2 -1 -3 q-4 -7 -11 -12 l-14 -11 l-7 -6 l-26 -15 q-2 -4 -8 -5 l-4 0 q-2 -1 -3 -2 l-2 0 q-1 0 -1 1 q1 1 3 2 l2 1 q1 0 2 1 l13 7 q8 5 10 7 l9 10 q6 6 10 10 q7 8 11 13 l6 10 q3 4 4 6 q1 0 3 3 q2 3 4 7 q5 11 5 16 q0 2 -1 2 q-2 0 -3 -1 l-10 0 q-1 0 -2 1 l-1 -1 q-1 -1 -3 -1 q-2 -1 -3 -2 l-6 0 q-2 0 -3 1 l-1 1 l0 3 q0 3 -2 5 l-3 2 l-7 4 q-2 2 -2 4 q1 1 2 1 l2 0 q2 0 6 -1 l6 -1 q10 -2 16 -2 q17 0 21 2 q2 0 3 2 l2 1 q1 1 2 2 l4 10 q2 8 2 12 l0 1 q-1 1 -4 1 q-3 0 -7 -1 q-15 -1 -30 -3 l-7 -2 l-4 0 l-2 -1 q-3 0 -8 -2 q-5 -2 -8 -2 q-1 0 -2 1 q-1 2 -1 4 q-1 1 -2 4 l0 2 q-5 7 -9 10 l0 4 l8 0 l1 -1 l6 -2 l3 0 l13 1 l22 0 q4 0 8 1 l17 2 q4 1 8 1 q3 2 5 9 q2 7 2 12 q0 2 -1 7 q-1 2 -2 4 q-1 2 -2 2 l-9 0 q-6 0 -11 -1 l-9 0 q-4 -1 -5 -2 q-3 0 -6 4 q0 1 -1 2 q0 2 -1 2 q-1 3 -2 4 l-4 3 q-3 2 -3 3 q0 1 2 2 q1 1 3 1 q9 -4 18 -4 l8 0 l10 1 l11 0 l27 1 l3 0 l2 1 l11 0 l14 3 q2 1 3 1 q2 0 5 2 q1 0 2 2 l3 3 q1 2 2 2 q2 2 4 2 q1 0 3 -1 q1 -1 2 -2 l3 -5 q2 -1 5 -4 l2 -1 l1 -1 l2 -1 l1 -8 q0 -1 -1 -2 l-3 -3 q-1 -1 -1 -2 q-2 -6 -3 -14 l0 -17 q1 -2 2 -2 l16 0 q1 0 3 1 l1 0 q1 1 2 1 q3 1 6 2 q1 1 3 3 l3 3 q4 4 7 4 l2 -2 l3 -2 q1 -1 2 -2 l1 -2 q0 -1 1 -1 q2 -4 5 -6 q0 -1 1 -2 l3 -2 q3 -4 3 -7 q0 -10 -11 -10 l-3 0 l-10 2 l0 1 l-1 1 l-2 0 l0 -1 q-2 1 -4 1 l-2 0 q-1 1 -2 1 q-1 0 -3 1 l-1 0 l-4 1 l-4 0 q-12 0 -15 -1 q-4 -2 -4 -7 l0 -2 l1 -1 l0 -9 l1 -1 l1 0 l2 -2 q5 -2 5 -6 q0 -7 -8 -11 l-13 0 q-2 0 -4 1 l-9 -1 q-2 0 -3 -1 l-24 0 l-8 -1 q-7 -1 -12 -1 l-11 -2 q-4 0 -7 -7 l-3 -10 l3 -5 q6 -9 12 -9 l6 0 q3 0 4 -1 l9 1 q2 0 4 1 l1 0 l2 1 l20 0 q6 1 12 1 q7 1 11 1 q5 1 6 2 q1 0 3 2 l2 3 l1 1 q5 5 7 5 q3 -2 8 -4 q5 -2 7 -4 q6 -4 6 -10 q0 -3 -3 -6 q-4 -3 -4 -6 l0 -16 q0 -1 1 -2 l0 -10 q-1 -5 -1 -7 q0 -5 -9 -12 q-8 -6 -12 -6 q-2 0 -2 1 l-1 1 q-1 0 -2 1 q-1 1 -2 6 q0 4 -3 5 l-26 0 q-6 0 -14 -1 q-9 -1 -14 -1 l-6 1 q-1 -1 -5 -1 l-1 0 l-5 -1 q-9 -1 -9 -5 q0 -5 -1 -8 q0 -5 -1 -9 q-3 -9 -12 -9 q-2 0 -5 4 q-2 3 -2 6 l1 9 ZM101 -11 l-1 1 l-1 -1 l2 0 ZM111 14 l12 1 l22 0 q2 1 6 1 l6 -1 l8 0 l18 3 l3 0 q3 0 4 4 q1 2 1 4 l0 4 l-1 5 l1 1 l0 4 l-1 10 l-3 2 l-7 0 q-7 0 -16 -1 l-17 -2 l-15 -1 q-7 0 -11 -1 q-12 -3 -12 -14 l0 -17 l2 -2 ZM108 89 l1 0 l0 1 l-1 0 l0 -1 ZM117 105 q0 -1 1 -1 l33 0 q17 0 17 8 l0 14 q-1 8 -7 8 l-4 0 l-1 -1 l-2 0 l-7 1 l-3 0 l-6 -1 l-3 0 q-6 -1 -9 -6 q-1 -2 -1 -4 q-1 -1 -1 -2 l0 -2 l-6 -12 l-1 -2 ZM159 148 l2 -1 l1 0 q3 0 5 4 q1 3 1 9 l-1 3 l0 18 l-3 3 l-12 0 l-6 -1 l-13 0 q-7 -1 -11 -3 q0 -3 3 -5 l7 -3 q0 -1 1 -1 l4 -2 q4 -2 4 -5 q0 -2 -3 -7 q-3 -5 -3 -7 l1 -1 q1 -1 2 -1 l21 0 Z" /><glyph glyph-name="uni541F" unicode="&#x541f;" d="M129 -22 l0 3 q0 5 2 13 q1 9 3 15 q0 6 2 16 q2 10 2 14 q0 1 -1 2 q-1 1 -2 1 q-3 0 -6 -1 q-1 0 -3 -1 l-2 -1 q-7 -3 -16 -6 q-1 0 -2 -1 l-8 -2 q-6 -1 -10 -1 l-1 2 l-4 8 q-2 3 -3 5 q0 2 6 3 q4 1 9 1 q5 0 11 1 q3 0 6 1 l6 1 q5 0 12 3 q5 2 12 5 q1 1 3 3 l3 3 q1 2 2 3 q2 1 3 1 q2 0 4 -1 l3 -3 l8 -4 q5 -3 5 -8 q0 -4 -3 -8 l-3 -4 q-1 -2 -2 -4 q-2 -7 -4 -18 l-1 -4 l0 -1 q0 -3 -1 -5 q-1 -5 -2 -9 l-1 -2 l-1 -2 q-3 -8 -8 -14 q-6 -8 -12 -8 q-2 0 -4 1 q-2 1 -2 3 ZM132 -23 l1 0 l0 1 l-1 0 l0 -1 ZM33 32 q9 5 15 9 q8 5 15 10 q2 2 5 5 l11 13 l2 2 q3 2 6 8 l3 4 q2 2 3 3 l4 8 l1 2 q1 1 2 2 l2 7 q5 10 10 22 l6 19 l0 1 q1 0 1 1 l1 2 q0 1 2 5 q1 3 3 7 q0 2 1 4 l2 6 l3 11 q2 6 2 11 q0 2 -1 4 q0 1 -1 3 l-1 0 q0 1 -1 1 l0 2 q0 3 4 5 q4 2 8 2 q4 0 16 -7 q12 -7 12 -13 q0 -1 -1 -2 l-1 -2 q-6 -12 -6 -20 q0 -16 12 -30 l1 -1 q1 -1 2 -2 l2 -4 q2 -3 5 -6 l12 -9 q2 -3 4 -4 q6 -4 11 -7 q2 -1 6 -3 l6 -3 q7 -3 9 -5 l17 -5 q6 -1 10 -3 q4 -2 4 -3 l0 -1 l-1 -1 l-2 0 q-3 0 -5 -1 l-3 0 l-1 -1 q-6 -1 -9 -1 q-21 -12 -24 -12 q-2 0 -3 1 l-1 1 q0 1 -1 1 l-1 0 q-2 0 -6 2 q-4 3 -10 7 l-14 12 q0 2 -3 3 q0 1 -2 2 l-2 1 q-6 4 -6 11 q0 2 -1 5 l-3 4 q-3 4 -3 7 l0 2 l-4 12 q-1 7 -3 13 q-1 7 -2 14 l-2 2 q-1 0 -3 -5 l-5 -12 l-2 -3 l-4 -6 q-1 -3 -2 -6 l0 -2 l-2 -3 q-1 -1 -1 -2 q-1 -2 -1 -3 q-1 -3 -3 -6 l-4 -6 q-4 -7 -4 -13 q0 -2 3 -3 q2 -1 4 -1 l8 1 l4 0 l1 -1 q0 1 2 2 l3 1 q1 0 3 2 l3 3 q3 2 4 3 l2 1 q2 0 4 -2 q2 -1 4 -3 q2 -2 3 -4 q2 -2 2 -3 q0 -5 -5 -5 l-3 0 q0 1 -1 1 l-1 -1 l-4 -2 q-3 -1 -6 -2 q-4 -1 -8 -1 l-1 1 l-2 0 q-1 0 -3 -1 q-1 -1 -2 -1 l-10 0 q-3 0 -5 1 q-1 0 -2 2 l-2 2 q-1 1 -2 1 q-1 0 -3 -3 l-1 -2 q-1 -1 -2 -2 q-2 -3 -6 -6 l-4 -3 l-13 -14 q0 -1 -2 -2 q-1 -1 -2 -1 q-10 -8 -18 -13 q-10 -7 -20 -11 l-3 -2 l-1 0 q-1 -1 -2 -1 q-1 -1 -2 -1 l0 4 ZM19 72 l-1 31 q-1 7 -1 12 q0 2 -1 8 l0 5 l-1 5 q-2 13 -8 18 q-1 1 -2 1 l-2 1 q-2 1 -2 3 q0 1 2 3 q2 2 6 5 l5 4 l3 1 l1 0 q1 0 3 -1 l2 -2 q2 -2 3 -3 l5 -4 q1 -1 1 -2 q3 -2 4 -3 l20 0 q1 0 4 2 l5 4 l3 3 l4 4 q4 0 9 -5 q6 -4 8 -10 q0 -3 -1 -7 l-3 -8 q-1 -1 -1 -3 q-1 -3 -1 -6 l0 -3 q1 -1 1 -2 l0 -4 q-1 -2 -1 -3 l0 -32 q-1 -7 -5 -10 l-12 -1 q-8 -1 -10 -2 l-9 0 q-4 -1 -6 -1 q-2 0 -3 -1 q-1 -1 -1 -2 q-1 -1 -1 -3 l0 -5 l-1 -1 l-1 -5 q-1 -3 -2 -5 q-2 -2 -3 -2 l-1 0 q-1 0 -2 -2 q-1 -2 -2 -2 l-2 0 q-1 1 -2 2 q-1 1 -1 3 q-1 3 -1 6 l1 19 ZM244.5 83 q-0.5 0 -0.5 -1 l1 0 q0 1 -0.5 1 ZM37 93 q0 -1 1 -3 q0 -3 4 -7 l6 0 q1 0 3 1 q7 1 8 5 l0 15 l1 9 l0 20 q0 1 -1 3 q-1 7 -6 7 l-2 0 q-1 -1 -3 -1 q-1 0 -2 -1 l-4 0 q-4 0 -6 -5 l0 -7 l1 -36 ZM241 86 l1 0 l0 1 l-1 0 l0 -1 ZM165 92 q-1 0 -1 -1 l2 0 q0 1 -1 1 ZM69 105 l1 1 l-1 0 l0 -1 Z" /><glyph glyph-name="uni542B" unicode="&#x542b;" d="M60 -5 q1 4 2 7 l0 11 l-1 11 l1 4 l0 16 q-1 2 -1 4 q-1 1 -1 2 l-2 2 l-1 1 l0 4 l9 0 q6 0 9 -1 l1 -1 q1 0 3 -1 l2 -2 l2 0 q6 0 8 1 l17 0 l8 1 q4 0 6 10 q2 8 2 13 q0 5 -5 5 l-14 -1 q-3 0 -11 -2 l-6 0 l-5 -1 q0 1 -2 1 q-1 -1 -3 -1 l-1 -1 l-1 0 q-1 0 -2 -1 l-6 0 q-2 0 -4 4 q-3 5 -3 11 q0 1 2 1 q1 0 2 1 l59 -1 q3 0 5 2 q1 1 1 2 l1 3 q4 7 8 12 l2 0 l3 -2 q1 -2 4 -4 q2 -2 4 -4 l3 -3 l1 -1 l4 -6 q1 -1 1 -2 q0 -1 -1 -3 l-3 -2 l-1 -1 l-1 -2 q-1 -1 -2 -2 q-1 -3 -1 -6 l-1 -1 q0 -2 -1 -4 q-1 -6 -1 -9 l0 -2 q0 -4 4 -4 l21 0 q1 0 3 1 l4 2 q4 3 6 5 l2 4 q1 1 2 1 q2 0 3 -1 q5 -4 9 -7 l4 -2 l1 -1 l1 -1 q5 -3 5 -9 q0 -3 -2 -7 q-3 -5 -3 -7 l-1 -9 l0 -22 q0 -8 -10 -14 q-1 -1 -3 -2 q-3 -1 -6 -1 l-2 3 l-2 6 q-4 7 -8 7 l-44 0 l-16 -2 l-27 0 q-1 -1 -3 -1 l-2 0 q-1 0 -1 -1 q-4 -1 -4 -8 q0 -4 -4 -9 q-5 -5 -8 -5 q-2 0 -5 2 q-3 3 -3 5 l0 15 ZM82 12 q1 -6 4 -6 l8 0 l8 1 q5 1 11 2 l18 0 l37 1 q6 0 9 2 q4 2 4 8 l0 19 q0 3 -12 3 q-2 1 -5 1 q-3 0 -7 -1 l-15 0 q-1 1 -3 1 l-7 0 q-6 -1 -8 -1 l-34 0 l-4 -3 q-2 -2 -2 -3 q-2 -4 -2 -13 l0 -11 ZM2 77 q0 2 1 2 l3 1 l1 1 l4 4 q1 1 2 1 l8 5 l5 3 q2 2 3 3 q4 3 7 6 q1 1 3 3 l1 2 q1 1 2 1 q4 5 7 7 q2 1 4 2 q1 1 2 2 l7 5 q2 2 4 3 l17 17 l8 10 q5 7 8 11 l5 7 q2 4 4 7 q1 3 3 7 l0 2 l2 5 l1 1 l0 1 l1 0 q1 2 1 3 q0 1 -1 3 l-1 3 l-1 1 l-1 1 l0 3 q0 2 4 2 l5 0 q3 0 11 -5 q3 -2 6 -5 l6 -5 l5 -3 q3 -2 3 -5 q0 -2 -1 -4 l-1 -1 q-1 -1 -1 -2 q1 -5 4 -10 l6 -9 q6 -9 14 -16 l9 -8 l7 -7 q5 -4 11 -7 q4 -2 12 -5 q1 -2 3 -2 l3 -1 l2 -1 l3 -1 l2 -1 l5 -3 q7 -4 11 -5 q1 0 4 -2 q5 -3 8 -3 l4 0 q4 -1 4 -3 q0 -1 -3 -2 l-2 -1 l-6 1 q-8 0 -16 -3 l-10 -5 q-6 -3 -9 -3 q-2 0 -6 2 q-7 3 -14 8 q-5 4 -12 11 q-6 4 -12 10 l-11 11 l0 -1 l-1 -3 q-1 -5 -6 -6 l-13 0 l-21 -2 q-5 0 -14 -1 l-6 -1 q-3 -1 -6 -1 q-1 0 -1 2 q-1 1 -1 2 l-1 1 l0 1 q-2 6 -5 6 q-3 0 -6 -2 q-1 -1 -2 -2 l-2 -1 l-1 -1 q-5 -4 -11 -8 q-4 -3 -11 -7 q-1 -1 -3 -2 l-9 -5 q-6 -3 -10 -7 l-2 0 l-1 -1 l-1 0 l-4 -2 q-1 -1 -2 -2 l-3 -1 q-5 0 -6 -3 l-3 0 q-1 -1 -2 -2 l0 -1 q-1 0 -1 -1 l-2 0 q-1 0 -1 1 ZM93 130 q0 -3 4 -3 l13 0 q8 1 14 1 q2 0 5 2 q2 1 5 4 l5 4 q2 2 4 2 q1 0 3 -2 q1 -1 2 -2 q1 -1 3 -2 l2 -2 q1 -1 2 -2 q2 -2 3 -2 l0 6 q-4 5 -7 12 q-1 3 -2 7 l-2 9 l-1 3 q-1 5 -1 7 q-2 8 -6 8 q-2 0 -3 -1 l-3 -3 l-1 0 l-1 -2 l-4 -5 q-3 -3 -8 -9 l-2 -2 l-1 -2 q-1 0 -2 -2 l-3 -4 q-2 -1 -2 -2 q-2 -2 -4 -5 l-8 -7 q-1 -1 -2 -2 q-2 -2 -2 -4 ZM116 160 q-1 0 -1 -1 q0 -1 1 -1 l0 2 Z" /></font>
</defs>
</svg>
